<?xml version="1.0" standalone="no"?>
<!DOCTYPE svg PUBLIC "-//W3C//DTD SVG 1.1//EN" "http://www.w3.org/Graphics/SVG/1.1/DTD/svg11.dtd" >
<svg>
<metadata>
Created by FontForge 20090914 at Mon Oct 25 00:04:53 2021
 By www-data
Copyright 2016 Indian Type Foundry. All Rights Reserved.
</metadata>
<defs>
<font id="DiodrumArabic-Extralight" horiz-adv-x="0" >
  <font-face 
    font-family="DiodrumArabic-Extralight"
    font-weight="400"
    font-stretch="normal"
    units-per-em="1000"
    panose-1="0 0 3 0 0 0 0 0 0 0"
    ascent="792"
    descent="-208"
    x-height="500"
    cap-height="700"
    bbox="-1537 -632.002 1579 1249"
    underline-thickness="0"
    underline-position="0"
    unicode-range="U+000D-U+FEFC"
  />
<missing-glyph horiz-adv-x="756" 
d="M160 0v701h436v-701h-436zM195 666v-631h366v631h-366z" />
    <glyph glyph-name="uniFEF5" unicode="&#xfedf;&#xfe82;" horiz-adv-x="591" arabic-form="isolated" 
d="M249 723l12 -22c-21.333 -16 -45.333 -24 -72 -24c-15.333 0 -36.666 4.66699 -63.999 14s-46.333 14 -57 14c-18.667 0 -37 -10 -55 -30l-23 16c22.667 29.333 49.667 44 81 44c11.333 0 29.666 -4.83301 54.999 -14.5s46.333 -14.5 63 -14.5
c18.667 0 38.667 5.66699 60 17zM223 0c-58 0 -109 7 -153 21v34c43.333 -12 90.333 -19 141 -21c3.33301 21.333 5 47.666 5 78.999c0 168.667 -40 333 -120 493l30 19c82.667 -174.667 124 -346.667 124 -516c0 -24.667 -1 -49.667 -3 -75c71.333 4 136 26.667 194 68
c16.667 50 25 116 25 198c0 75.333 -1.66699 215.333 -5 420l35 4c3.33301 -182.667 5 -314 5 -394c0 -46 -1.66699 -85.333 -5 -118s-6.5 -55.667 -9.5 -69s-8.5 -34.333 -16.5 -63l-61.5 -38c-12.333 -7.33301 -36.333 -16.166 -72 -26.499s-73.5 -15.5 -113.5 -15.5z" />
    <glyph glyph-name="uniFEF6" unicode="&#xfee0;&#xfe82;" horiz-adv-x="688" arabic-form="final" 
d="M249 723l12 -22c-21.333 -16 -45.333 -24 -72 -24c-15.333 0 -36.666 4.66699 -63.999 14s-46.333 14 -57 14c-18.667 0 -37 -10 -55 -30l-23 16c22.667 29.333 49.667 44 81 44c11.333 0 29.666 -4.83301 54.999 -14.5s46.333 -14.5 63 -14.5
c18.667 0 38.667 5.66699 60 17zM688 0l-16 0.00292969c-52 0 -94.833 11.667 -128.5 35s-54.167 59 -61.5 107c-16 -44.667 -46 -79.5 -90 -104.5s-100.333 -37.5 -169 -37.5c-58 0 -109 7 -153 21v34c43.333 -12 90.333 -19 141 -21c3.33301 21.333 5 47.666 5 78.999
c0 168.667 -40 333 -120 493l30 19c82.667 -174.667 124 -346.667 124 -516c0 -25.333 -1 -50 -3 -74c78.667 4 135.667 24.667 171 62s53 85.666 53 144.999v478l35 4v-507c0 -64.667 14.167 -110.834 42.5 -138.501s72.5 -41.5 132.5 -41.5h7v-37z" />
    <glyph glyph-name="uniFEF7" unicode="&#xfedf;&#xfe84;" horiz-adv-x="591" arabic-form="isolated" 
d="M234 639c-64 -11.333 -129.998 -30.333 -197.998 -57l-10 29c29.333 12 54 20.667 74 26c-35.333 17.333 -53 44.333 -53 81c0 28 8.16699 49.167 24.5 63.5s36.5 21.5 60.5 21.5c22 0 45.667 -6 71 -18l-12 -28c-20.667 8.66699 -40.334 13 -59.001 13
c-16.667 0 -30.167 -4.33301 -40.5 -13s-15.5 -21.667 -15.5 -39c0 -18 7.16699 -33 21.5 -45s33.5 -18 57.5 -18c5.33301 0 29.666 4.33301 72.999 13zM223.002 0c-58 0 -109 7.00098 -153 21.001v34c43.333 -12 90.333 -19 141 -21c3.33301 21.333 5 47.666 5 78.999
c0 159.333 -29 303.333 -87 432l32 13c59.333 -138.667 89 -288.334 89 -449.001c0 -24.667 -1 -49.667 -3 -75c71.333 4 136 26.667 194 68c16.667 50 25 116 25 198c0 75.333 -1.66699 215.333 -5 420l35 4c3.33301 -182.667 5 -314 5 -394
c0 -46 -1.66699 -85.333 -5 -118s-6.5 -55.667 -9.5 -69s-8.5 -34.333 -16.5 -63l-61.5 -38c-12.333 -7.33301 -36.333 -16.166 -72 -26.499s-73.5 -15.5 -113.5 -15.5z" />
    <glyph glyph-name="uniFEF8" unicode="&#xfee0;&#xfe84;" horiz-adv-x="690" arabic-form="final" 
d="M234 639c-64 -11.333 -129.998 -30.333 -197.998 -57l-10 29c29.333 12 54 20.667 74 26c-35.333 17.333 -53 44.333 -53 81c0 28 8.16699 49.167 24.5 63.5s36.5 21.5 60.5 21.5c22 0 45.667 -6 71 -18l-12 -28c-20.667 8.66699 -40.334 13 -59.001 13
c-16.667 0 -30.167 -4.33301 -40.5 -13s-15.5 -21.667 -15.5 -39c0 -18 7.16699 -33 21.5 -45s33.5 -18 57.5 -18c5.33301 0 29.666 4.33301 72.999 13zM688.002 0l-16 0.00390625c-52 0 -94.833 11.667 -128.5 35s-54.167 59 -61.5 107c-16 -44.667 -46 -79.5 -90 -104.5
s-100.333 -37.5 -169 -37.5c-58 0 -109 7 -153 21v34c43.333 -12 90.333 -19 141 -21c3.33301 21.333 5 47.666 5 78.999c0 159.333 -29 303.333 -87 432l32 13c59.333 -138.667 89 -288.334 89 -449.001c0 -25.333 -1 -50 -3 -74c78.667 4 135.667 24.667 171 62
s53 85.666 53 144.999v478l35 4v-507c0 -64.667 14.167 -110.834 42.5 -138.501s72.5 -41.5 132.5 -41.5h7v-37z" />
    <glyph glyph-name="uniFEF9" unicode="&#xfedf;&#xfe88;" horiz-adv-x="596" arabic-form="isolated" 
d="M228 0c-58 0 -109 7.00098 -153 21.001v34c43.333 -12 90.333 -19 141 -21c3.33301 21.333 5 47.666 5 78.999c0 160 -48.667 329.333 -146 508l30 21c100 -196.667 150 -374.334 150 -533.001c0 -24.667 -1 -49.667 -3 -75c71.333 4 136 26.667 194 68
c16.667 50 25 116 25 198c0 75.333 -1.66699 215.333 -5 420l35 4c3.33301 -182.667 5 -314 5 -394c0 -46 -1.66699 -85.333 -5 -118s-6.5 -55.667 -9.5 -69s-8.5 -34.333 -16.5 -63l-61.5 -38c-12.333 -7.33301 -36.333 -16.166 -72 -26.499s-73.5 -15.5 -113.5 -15.5z
M296 -250.999c-64 -11.333 -129.998 -30.333 -197.998 -57l-10 29c29.333 12 54 20.667 74 26c-35.333 17.333 -53 44.333 -53 81c0 28 8.16699 49.167 24.5 63.5s36.5 21.5 60.5 21.5c22 0 45.667 -6 71 -18l-12 -28c-20.667 8.66699 -40.334 13 -59.001 13
c-16.667 0 -30.167 -4.33301 -40.5 -13s-15.5 -21.667 -15.5 -39c0 -18 7.16699 -33 21.5 -45s33.5 -18 57.5 -18c5.33301 0 29.666 4.33301 72.999 13z" />
    <glyph glyph-name="uniFEFA" unicode="&#xfee0;&#xfe88;" horiz-adv-x="693" arabic-form="final" 
d="M693 0l-16 0.00390625c-52 0 -94.833 11.667 -128.5 35s-54.167 59 -61.5 107c-16 -44.667 -46 -79.5 -90 -104.5s-100.333 -37.5 -169 -37.5c-58 0 -109 7 -153 21v34c43.333 -12 90.333 -19 141 -21c3.33301 21.333 5 47.666 5 78.999c0 160 -48.667 329.333 -146 508
l30 21c100 -196.667 150 -374.334 150 -533.001c0 -25.333 -1 -50 -3 -74c78.667 4 135.667 24.667 171 62s53 85.666 53 144.999v478l35 4v-507c0 -64.667 14.167 -110.834 42.5 -138.501s72.5 -41.5 132.5 -41.5h7v-37zM296 -250.996
c-64 -11.333 -129.998 -30.333 -197.998 -57l-10 29c29.333 12 54 20.667 74 26c-35.333 17.333 -53 44.333 -53 81c0 28 8.16699 49.167 24.5 63.5s36.5 21.5 60.5 21.5c22 0 45.667 -6 71 -18l-12 -28c-20.667 8.66699 -40.334 13 -59.001 13
c-16.667 0 -30.167 -4.33301 -40.5 -13s-15.5 -21.667 -15.5 -39c0 -18 7.16699 -33 21.5 -45s33.5 -18 57.5 -18c5.33301 0 29.666 4.33301 72.999 13z" />
    <glyph glyph-name="uniFEFB" unicode="&#xfedf;&#xfe8e;" horiz-adv-x="596" arabic-form="isolated" 
d="M228 0c-58 0 -109 7.00098 -153 21.001v34c43.333 -12 90.333 -19 141 -21c3.33301 21.333 5 47.666 5 78.999c0 160 -48.667 329.333 -146 508l30 21c100 -196.667 150 -374.334 150 -533.001c0 -24.667 -1 -49.667 -3 -75c71.333 4 136 26.667 194 68
c16.667 50 25 116 25 198c0 75.333 -1.66699 215.333 -5 420l35 4c3.33301 -182.667 5 -314 5 -394c0 -46 -1.66699 -85.333 -5 -118s-6.5 -55.667 -9.5 -69s-8.5 -34.333 -16.5 -63l-61.5 -38c-12.333 -7.33301 -36.333 -16.166 -72 -26.499s-73.5 -15.5 -113.5 -15.5z" />
    <glyph glyph-name="uniFEFC" unicode="&#xfee0;&#xfe8e;" horiz-adv-x="693" arabic-form="final" 
d="M693 0l-16 0.00390625c-52 0 -94.833 11.667 -128.5 35s-54.167 59 -61.5 107c-16 -44.667 -46 -79.5 -90 -104.5s-100.333 -37.5 -169 -37.5c-58 0 -109 7 -153 21v34c43.333 -12 90.333 -19 141 -21c3.33301 21.333 5 47.666 5 78.999c0 160 -48.667 329.333 -146 508
l30 21c100 -196.667 150 -374.334 150 -533.001c0 -25.333 -1 -50 -3 -74c78.667 4 135.667 24.667 171 62s53 85.666 53 144.999v478l35 4v-507c0 -64.667 14.167 -110.834 42.5 -138.501s72.5 -41.5 132.5 -41.5h7v-37z" />
    <glyph glyph-name="uni066E.init" unicode="&#x66e;" horiz-adv-x="321" 
d="M0 0c-12.667 0 -19 6 -19 18c0 12.667 6.33301 19 19 19h3c84.667 0 151 14 199 42c3.33301 21.333 5 43 5 65c0 67.333 -9 130 -27 188l33 11c18.667 -64 28 -128 28 -192c0 -36 -3.33301 -67 -10 -93c-58 -38.667 -134 -58 -228 -58h-3z" />
    <glyph glyph-name="uni066E.medi" unicode="&#x66e;" horiz-adv-x="429" 
d="M0 0c-12.667 0 -18.999 6.00098 -18.999 18.001c0 12.667 6.33301 19 19 19h17c44 0 80 4 108 12s48.667 20.167 62 36.5s22.166 33.166 26.499 50.499s6.5 39.666 6.5 66.999v122l34 4v-126c0 -51.333 -7.66699 -90.666 -23 -117.999
c48.667 -32 112.334 -48 191.001 -48h7v-37h-6c-89.333 0 -160 19 -212 57c-36.667 -38 -102.334 -57 -197.001 -57h-14z" />
    <glyph glyph-name="uni066E.fina" unicode="&#x66e;" horiz-adv-x="1013" 
d="M997 0c-52 0 -94.0029 5.99805 -126.003 17.998s-60.333 30 -85 54c-31.333 -31.333 -78.166 -53.166 -140.499 -65.499s-144.833 -18.5 -247.5 -18.5c-63.333 0 -116.666 4.66699 -159.999 14s-76.166 23 -98.499 41s-37.833 37.5 -46.5 58.5s-13 46.167 -13 75.5
c0 55.333 11 115 33 179l32 -9c-19.333 -65.333 -29 -119 -29 -161c0 -24 3.83301 -44.833 11.5 -62.5s21.5 -34.334 41.5 -50.001s50.167 -27.667 90.5 -36s90.5 -12.5 150.5 -12.5c79.333 0 145.5 4.16699 198.5 12.5s92.833 21 119.5 38s45 35.167 55 54.5s15 43 15 71
v124l35 4v-126c0 -39.333 -8 -72.666 -24 -99.999c23.333 -21.333 49 -37.666 77 -48.999s68.333 -17 121 -17h6v-37h-16z" />
    <glyph glyph-name="uni0672.fina" unicode="&#x672;" horiz-adv-x="313" 
d="M49 682c-20.667 0 -40.6641 -7.99805 -59.9971 -23.998l-18 23c23.333 23.333 50.666 35 81.999 35c9.33301 0 23.333 -3.66699 42 -11s35 -11 49 -11c8.66699 0 19 0.666992 31 2c-23.333 6 -40.833 17.5 -52.5 34.5s-17.5 35.833 -17.5 56.5c0 32 8.66699 55.5 26 70.5
s38 22.5 62 22.5c22.667 0 46.667 -6 72 -18l-13 -29c-20.667 8.66699 -40.334 13 -59.001 13c-16.667 0 -30.167 -4.83301 -40.5 -14.5s-15.5 -24.167 -15.5 -43.5c0 -20.667 6.83301 -37.834 20.5 -51.501s32.5 -20.5 56.5 -20.5c6 0 12.167 1.16699 18.5 3.5
s15.5 6.5 27.5 12.5s20 9.66699 24 11l12 -29c-6 -2.66699 -16.667 -7.83398 -32 -15.501s-26.5 -13 -33.5 -16s-16.333 -6.66699 -28 -11s-22.334 -7.33301 -32.001 -9s-19.5 -2.5 -29.5 -2.5c-16.667 0 -34.167 3.66699 -52.5 11s-31.5 11 -39.5 11zM313.003 37.002
v-36.999h-21c-76.667 0 -129.5 20.167 -158.5 60.5s-43.5 102.166 -43.5 185.499v358l35 4v-361c0 -78 13.167 -132.5 39.5 -163.5s71.5 -46.5 135.5 -46.5h13z" />
    <glyph glyph-name="uni06C2.fina" unicode="&#x6c2;" horiz-adv-x="507" 
d="M289 341c-64 -11.333 -129.998 -30.333 -197.998 -57l-10 29c29.333 12 54 20.667 74 26c-35.333 17.333 -53 44.333 -53 81c0 28 8.16699 49.167 24.5 63.5s36.5 21.5 60.5 21.5c22 0 45.667 -6 71 -18l-12 -28c-20.667 8.66699 -40.334 13 -59.001 13
c-16.667 0 -30.167 -4.33301 -40.5 -13s-15.5 -21.667 -15.5 -39c0 -18 7.16699 -33 21.5 -45s33.5 -18 57.5 -18c5.33301 0 29.666 4.33301 72.999 13zM474.002 37h33.001v-37h-31c-30 0 -57 6 -81 18s-43.667 26.5 -59 43.5s-29.833 34.167 -43.5 51.5s-28.5 32 -44.5 44
s-33 18 -51 18c-32.667 0 -73.334 -22.667 -122.001 -68l-25 26c52.667 52.667 103.667 79 153 79c22 0 42.167 -6 60.5 -18s34.333 -26.5 48 -43.5l41.5 -51.5c14 -17.333 31.333 -32 52 -44s43.667 -18 69 -18z" />
    <glyph glyph-name="uni06C3.fina" unicode="&#x6c3;" horiz-adv-x="507" 
d="M275 390l39 -36l-34 -38l-40 34zM144 386l39 -36l-34 -38l-40 34zM474 37h33.001v-37h-31c-30 0 -57 6 -81 18s-43.667 26.5 -59 43.5s-29.833 34.167 -43.5 51.5s-28.5 32 -44.5 44s-33 18 -51 18c-32.667 0 -73.334 -22.667 -122.001 -68l-25 26
c52.667 52.667 103.667 79 153 79c22 0 42.167 -6 60.5 -18s34.333 -26.5 48 -43.5l41.5 -51.5c14 -17.333 31.333 -32 52 -44s43.667 -18 69 -18z" />
    <glyph glyph-name="uniFB50" unicode="&#x671;" horiz-adv-x="215" arabic-form="isolated" 
d="M161 694c47.333 0 70.998 15.001 70.998 45.001c0 21.333 -6.5 37.333 -19.5 48s-28.5 16 -46.5 16c-33.333 0 -66.666 -29.333 -99.999 -88l19 -6.5c8.66699 -3 15.834 -5.33301 21.501 -7s13.5 -3.33398 23.5 -5.00098s20.333 -2.5 31 -2.5zM29.998 689.001
c-17.333 0 -35.999 -10.334 -55.999 -31.001l-22 23c22 26.667 47.333 40 76 40h6c24 44.667 46.833 75.334 68.5 92.001s44.5 25 68.5 25c27.333 0 49.5 -9 66.5 -27s25.5 -40.667 25.5 -68c0 -24.667 -8.83301 -44.5 -26.5 -59.5s-43.834 -22.5 -78.501 -22.5
c-24.667 0 -50.5 4.66699 -77.5 14s-43.833 14 -50.5 14zM124.999 0h-35v606l35 4v-610z" />
    <glyph glyph-name="uniFB51" unicode="&#x671;" horiz-adv-x="313" arabic-form="final" 
d="M181 694c47.333 0 70.998 15.001 70.998 45.001c0 21.333 -6.5 37.333 -19.5 48s-28.5 16 -46.5 16c-33.333 0 -66.666 -29.333 -99.999 -88l19 -6.5c8.66699 -3 15.834 -5.33301 21.501 -7s13.5 -3.33398 23.5 -5.00098s20.333 -2.5 31 -2.5zM49.998 689.001
c-17.333 0 -35.999 -10.334 -55.999 -31.001l-22 23c22 26.667 47.333 40 76 40h6c24 44.667 46.833 75.334 68.5 92.001s44.5 25 68.5 25c27.333 0 49.5 -9 66.5 -27s25.5 -40.667 25.5 -68c0 -24.667 -8.83301 -44.5 -26.5 -59.5s-43.834 -22.5 -78.501 -22.5
c-24 0 -49.667 4.66699 -77 14s-44.333 14 -51 14zM312.999 37v-36.999h-21c-76.667 0 -129.5 20.167 -158.5 60.5s-43.5 102.166 -43.5 185.499v358l35 4v-361c0 -78 13.167 -132.5 39.5 -163.5s71.5 -46.5 135.5 -46.5h13z" />
    <glyph glyph-name="uniFB56" unicode="&#x67e;" horiz-adv-x="907" arabic-form="isolated" 
d="M398 -12c-63.333 0 -116.666 4.66699 -159.999 14s-76.166 23 -98.499 41s-37.833 37.5 -46.5 58.5s-13 46.167 -13 75.5c0 50 11.333 109.667 34 179l32 -9c-19.333 -69.333 -29 -123 -29 -161c0 -24 3.66699 -44.833 11 -62.5s20.666 -34.334 39.999 -50.001
s49.333 -27.667 90 -36s91.334 -12.5 152.001 -12.5c148.667 0 275 25.667 379 77c2 18.667 3 38.334 3 59.001c0 56.667 -9 120.334 -27 191.001l34 11c18.667 -67.333 28 -131.333 28 -192c0 -34.667 -3.66699 -65.667 -11 -93
c-42.667 -26.667 -100.834 -48.334 -174.501 -65.001s-154.834 -25 -243.501 -25zM507 -178l-39 36l35 37l39 -33zM377 -182l-39 36l35 37l39 -33zM445 -279l-39 36l35 37l39 -33z" />
    <glyph glyph-name="uniFB57" unicode="&#x67e;" horiz-adv-x="1013" arabic-form="final" 
d="M997 0c-52 0 -94.0029 5.99805 -126.003 17.998s-60.333 30 -85 54c-31.333 -31.333 -78.166 -53.166 -140.499 -65.499s-144.833 -18.5 -247.5 -18.5c-63.333 0 -116.666 4.66699 -159.999 14s-76.166 23 -98.499 41s-37.833 37.5 -46.5 58.5s-13 46.167 -13 75.5
c0 55.333 11 115 33 179l32 -9c-19.333 -65.333 -29 -119 -29 -161c0 -24 3.83301 -44.833 11.5 -62.5s21.5 -34.334 41.5 -50.001s50.167 -27.667 90.5 -36s90.5 -12.5 150.5 -12.5c79.333 0 145.5 4.16699 198.5 12.5s92.833 21 119.5 38s45 35.167 55 54.5s15 43 15 71
v124l35 4v-126c0 -39.333 -8 -72.666 -24 -99.999c23.333 -21.333 49 -37.666 77 -48.999s68.333 -17 121 -17h6v-37h-16zM496.997 -178.002l-39 36l35 37l39 -33zM366.997 -182.002l-39 36l35 37l39 -33zM434.997 -279.002l-39 36l35 37l39 -33z" />
    <glyph glyph-name="uniFB58" unicode="&#x67e;" horiz-adv-x="321" arabic-form="initial" 
d="M0 0c-12.667 0 -19 6 -19 18c0 12.667 6.33301 19 19 19h3c84.667 0 151 14 199 42c3.33301 21.333 5 43 5 65c0 67.333 -9 130 -27 188l33 11c18.667 -64 28 -128 28 -192c0 -36 -3.33301 -67 -10 -93c-58 -38.667 -134 -58 -228 -58h-3zM143 -171l-39 36l35 37l39 -33z
M13 -175l-39 36l35 37l39 -33zM81 -272l-39 36l35 37l39 -33z" />
    <glyph glyph-name="uniFB59" unicode="&#x67e;" horiz-adv-x="429" arabic-form="medial" 
d="M0 0c-12.667 0 -18.999 6.00098 -18.999 18.001c0 12.667 6.33301 19 19 19h17c44 0 80 4 108 12s48.667 20.167 62 36.5s22.166 33.166 26.499 50.499s6.5 39.666 6.5 66.999v122l34 4v-126c0 -51.333 -7.66699 -90.666 -23 -117.999
c48.667 -32 112.334 -48 191.001 -48h7v-37h-6c-89.333 0 -160 19 -212 57c-36.667 -38 -102.334 -57 -197.001 -57h-14zM157.001 -165.999l-39 36l35 37l39 -33zM27.001 -169.999l-39 36l35 37l39 -33zM95.001 -266.999l-39 36l35 37l39 -33z" />
    <glyph glyph-name="uniFB66" unicode="&#x679;" horiz-adv-x="907" arabic-form="isolated" 
d="M466 385c46 0 86.001 5.33301 120.001 16c2.66699 8 4 16.667 4 26c0 41.333 -18.333 62 -55 62s-76.334 -34.333 -119.001 -103c10 -0.666992 26.667 -1 50 -1zM462.001 355c-42.667 0 -79.666 2 -110.999 6v29l39 -3c8 16.667 12 46 12 88v106l30 4v-95
c0 -15.333 -1.33301 -29.666 -4 -42.999c33.333 48.667 70.666 73 111.999 73c26 0 45.333 -7.83301 58 -23.5s19 -35.5 19 -59.5c0 -18.667 -3.66699 -37.334 -11 -56.001c-31.333 -17.333 -79.333 -26 -144 -26zM398.002 -12c-63.333 0 -116.666 4.66699 -159.999 14
s-76.166 23 -98.499 41s-37.833 37.5 -46.5 58.5s-13 46.167 -13 75.5c0 50 11.333 109.667 34 179l32 -9c-19.333 -69.333 -29 -123 -29 -161c0 -24 3.66699 -44.833 11 -62.5s20.666 -34.334 39.999 -50.001s49.333 -27.667 90 -36s91.334 -12.5 152.001 -12.5
c148.667 0 275 25.667 379 77c2 18.667 3 38.334 3 59.001c0 56.667 -9 120.334 -27 191.001l34 11c18.667 -67.333 28 -131.333 28 -192c0 -34.667 -3.66699 -65.667 -11 -93c-42.667 -26.667 -100.834 -48.334 -174.501 -65.001s-154.834 -25 -243.501 -25z" />
    <glyph glyph-name="uniFB67" unicode="&#x679;" horiz-adv-x="1013" arabic-form="final" 
d="M481 400c46 0 86.001 5.33301 120.001 16c2.66699 8 4 16.667 4 26c0 41.333 -18.333 62 -55 62s-76.334 -34.333 -119.001 -103c10 -0.666992 26.667 -1 50 -1zM477.001 370c-43.333 0 -80.332 2 -110.999 6v29l39 -3c8 16.667 12 46 12 88v106l30 4v-95
c0 -15.333 -1.33301 -29.666 -4 -42.999c33.333 48.667 70.666 73 111.999 73c26 0 45.333 -7.83301 58 -23.5s19 -35.5 19 -59.5c0 -18.667 -3.66699 -37.334 -11 -56.001c-31.333 -17.333 -79.333 -26 -144 -26zM997.002 0c-52 0 -94.0029 5.99805 -126.003 17.998
s-60.333 30 -85 54c-31.333 -31.333 -78.166 -53.166 -140.499 -65.499s-144.833 -18.5 -247.5 -18.5c-63.333 0 -116.666 4.66699 -159.999 14s-76.166 23 -98.499 41s-37.833 37.5 -46.5 58.5s-13 46.167 -13 75.5c0 55.333 11 115 33 179l32 -9
c-19.333 -65.333 -29 -119 -29 -161c0 -24 3.83301 -44.833 11.5 -62.5s21.5 -34.334 41.5 -50.001s50.167 -27.667 90.5 -36s90.5 -12.5 150.5 -12.5c79.333 0 145.5 4.16699 198.5 12.5s92.833 21 119.5 38s45 35.167 55 54.5s15 43 15 71v124l35 4v-126
c0 -39.333 -8 -72.666 -24 -99.999c23.333 -21.333 49 -37.666 77 -48.999s68.333 -17 121 -17h6v-37h-16z" />
    <glyph glyph-name="uniFB68" unicode="&#x679;" horiz-adv-x="321" arabic-form="initial" 
d="M98 454c46 0 86.001 5.33301 120.001 16c2.66699 8 4 16.667 4 26c0 41.333 -18.333 62 -55 62s-76.334 -34.333 -119.001 -103c10 -0.666992 26.667 -1 50 -1zM94.001 424c-42.667 0 -79.666 2 -110.999 6v29l39 -3c8 16.667 12 46 12 88v106l30 4v-95
c0 -15.333 -1.33301 -29.666 -4 -42.999c33.333 48.667 70.666 73 111.999 73c26 0 45.333 -7.83301 58 -23.5s19 -35.5 19 -59.5c0 -18.667 -3.66699 -37.334 -11 -56.001c-31.333 -17.333 -79.333 -26 -144 -26zM0.00195312 0c-12.667 0 -19 6 -19 18
c0 12.667 6.33301 19 19 19h3c84.667 0 151 14 199 42c3.33301 21.333 5 43 5 65c0 67.333 -9 130 -27 188l33 11c18.667 -64 28 -128 28 -192c0 -36 -3.33301 -67 -10 -93c-58 -38.667 -134 -58 -228 -58h-3z" />
    <glyph glyph-name="uniFB69" unicode="&#x679;" horiz-adv-x="429" arabic-form="medial" 
d="M116 439c46 0 86.001 5.33301 120.001 16c2.66699 8 4 16.667 4 26c0 41.333 -18.333 62 -55 62s-76.334 -34.333 -119.001 -103c10 -0.666992 26.667 -1 50 -1zM112.001 409c-42.667 0 -79.666 2 -110.999 6v29l39 -3c8 16.667 12 46 12 88v106l30 4v-95
c0 -15.333 -1.33301 -29.666 -4 -42.999c33.333 48.667 70.666 73 111.999 73c26 0 45.333 -7.83301 58 -23.5s19 -35.5 19 -59.5c0 -18.667 -3.66699 -37.334 -11 -56.001c-31.333 -17.333 -79.333 -26 -144 -26zM0.00195312 0c-12.667 0 -18.999 6.00098 -18.999 18.001
c0 12.667 6.33301 19 19 19h17c44 0 80 4 108 12s48.667 20.167 62 36.5s22.166 33.166 26.499 50.499s6.5 39.666 6.5 66.999v122l34 4v-126c0 -51.333 -7.66699 -90.666 -23 -117.999c48.667 -32 112.334 -48 191.001 -48h7v-37h-6c-89.333 0 -160 19 -212 57
c-36.667 -38 -102.334 -57 -197.001 -57h-14z" />
    <glyph glyph-name="uniFB7A" unicode="&#x686;" horiz-adv-x="636" arabic-form="isolated" 
d="M345 -274c-84.667 0 -150.002 19.1641 -196.002 57.4971s-69 90.5 -69 156.5c0 47.333 11.833 90 35.5 128s57.5 70.333 101.5 97s90.333 48.834 139 66.501s104.667 33.834 168 48.501c-28 13.333 -65 33.833 -111 61.5s-85.167 48.5 -117.5 62.5s-62.5 21 -90.5 21
c-38.667 0 -70.334 -20.667 -95.001 -62l-29 13c14.667 31.333 32 53 52 65s45 18 75 18c32 0 67.833 -9.16699 107.5 -27.5s85.334 -43.166 137.001 -74.499s93.834 -54.333 126.501 -69l-11 -31c-66.667 -14 -125.5 -29.667 -176.5 -47s-98.333 -38.333 -142 -63
s-77.167 -54 -100.5 -88s-35 -71.667 -35 -113c0 -59.333 21.333 -104.833 64 -136.5s100.334 -47.5 173.001 -47.5c78.667 0 159.667 19 243 57l12 -28c-78 -43.333 -165 -65 -261 -65zM443.998 -13.0029l-36 33l31 34l36 -30zM324.998 -16.0029l-35 33l31 33l35 -30z
M386.998 -105.003l-35 33l31 34l35 -30z" />
    <glyph glyph-name="uniFB7B" unicode="&#x686;" horiz-adv-x="711" arabic-form="final" 
d="M596 -270c-76.667 -43.333 -158.666 -65 -245.999 -65c-86 0 -152.5 18.667 -199.5 56s-70.5 88.333 -70.5 153c0 150.667 123.667 253 371 307c-93.333 102.667 -169.666 154 -228.999 154c-27.333 0 -48.833 -4.5 -64.5 -13.5s-31.167 -26.833 -46.5 -53.5l-29 13
c15.333 33.333 33.833 56.5 55.5 69.5s51.167 19.5 88.5 19.5c41.333 0 83.833 -17 127.5 -51s92.167 -81.333 145.5 -142c3.33301 -3.33301 10.333 -11.166 21 -23.499l21 -24l19 -20.5c9.33301 -10 16.5 -16.833 21.5 -20.5s12 -9.16699 21 -16.5s16.667 -12.333 23 -15
l23 -10c9 -4 18 -6.66699 27 -8s18.5 -2 28.5 -2h7v-37h-9c-12.667 0 -25.167 1.5 -37.5 4.5s-22.833 5.66699 -31.5 8s-19 7.83301 -31 16.5s-20.667 14.667 -26 18s-14.5 11.666 -27.5 24.999l-23.5 24c-2.66699 2.66699 -11.334 12.5 -26.001 29.5
s-22.667 26.167 -24 27.5c-114.667 -27.333 -203.334 -62.5 -266.001 -105.5s-94 -98.833 -94 -167.5c0 -58 21.667 -102.333 65 -133s102 -46 176 -46c70.667 0 146.667 19 228 57zM429.001 -86l-36 33l31 34l36 -30zM310.001 -89l-35 33l31 33l35 -30zM372.001 -178
l-35 33l31 34l35 -30z" />
    <glyph glyph-name="uniFB7C" unicode="&#x686;" horiz-adv-x="690" arabic-form="initial" 
d="M0 0c-12.667 0 -19.001 6.00098 -19.001 18.001c0 12.667 6.33301 19 19 19h8c54 0 106.167 2.5 156.5 7.5s98.833 12.833 145.5 23.5s83.334 19.5 110.001 26.5s61.334 17.5 104.001 31.5l76 25c-28 15.333 -70.5 41.166 -127.5 77.499s-103.5 62.5 -139.5 78.5
s-71 24 -105 24c-20 0 -36.5 -4.33301 -49.5 -13s-25.167 -25 -36.5 -49l-30 13c13.333 30.667 29.166 52.167 47.499 64.5s41.833 18.5 70.5 18.5c38.667 0 78.334 -9.5 119.001 -28.5s91 -47.833 151 -86.5s110 -68 150 -88l-14 -34
c-10.667 -2.66699 -56 -17.5 -136 -44.5s-157.833 -47.667 -233.5 -62s-158.834 -21.5 -249.501 -21.5h-17zM364.999 -158.999l-39 36l35 37l39 -33zM234.999 -162.999l-39 36l35 37l39 -33zM302.999 -259.999l-39 36l35 37l39 -33z" />
    <glyph glyph-name="uniFB7D" unicode="&#x686;" horiz-adv-x="820" arabic-form="medial" 
d="M0 0c-12.667 0 -18.999 5.99902 -18.999 17.999c0 12.667 6.33301 19 19 19h13c184 0 366.333 21 547 63c-98.667 86 -174 147.667 -226 185s-94 56 -126 56c-19.333 0 -35.5 -4.33301 -48.5 -13s-25.833 -25 -38.5 -49l-29 13c13.333 30.667 29.166 52.167 47.499 64.5
s41.833 18.5 70.5 18.5c20.667 0 42.5 -4.66699 65.5 -14s52.667 -27.5 89 -54.5s63.666 -48.167 81.999 -63.5l105.5 -91c12.667 -11.333 22.334 -19.666 29.001 -24.999c46 -40 82.667 -65 110 -75s65 -15 113 -15h16v-37h-23c-47.333 0 -85 5.16699 -113 15.5
s-60 30.833 -96 61.5c-184.667 -51.333 -376.667 -77 -576 -77h-12zM402.001 -170.001l-39 36l35 37l39 -33zM272.001 -174.001l-39 36l35 37l39 -33zM340.001 -271.001l-39 36l35 37l39 -33z" />
    <glyph glyph-name="uniFB88" unicode="&#x688;" horiz-adv-x="513" arabic-form="isolated" 
d="M193 546c46 0 86.001 5.33301 120.001 16c2.66699 8 4 16.667 4 26c0 41.333 -18.333 62 -55 62s-76.334 -34.333 -119.001 -103c10 -0.666992 26.667 -1 50 -1zM189.001 516c-43.333 0 -80.332 2 -110.999 6v29l39 -3c8 16.667 12 46 12 88v106l30 4v-95
c0 -15.333 -1.33301 -29.666 -4 -42.999c33.333 48.667 70.666 73 111.999 73c26 0 45.333 -7.83301 58 -23.5s19 -35.5 19 -59.5c0 -18.667 -3.66699 -37.334 -11 -56.001c-31.333 -17.333 -79.333 -26 -144 -26zM171.002 -12c-47.333 0 -91.001 3.33105 -131.001 9.99805
v36c50.667 -6 97.334 -9 140.001 -9c84 0 158 13.667 222 41c-2.66699 60.667 -20.834 118.334 -54.501 173.001s-86.167 115 -157.5 181l24 24c78.667 -69.333 134.834 -135.166 168.501 -197.499s50.5 -117.5 50.5 -165.5c0 -16 -1.33301 -29 -4 -39
c-63.333 -36 -149.333 -54 -258 -54z" />
    <glyph glyph-name="uniFB89" unicode="&#x688;" horiz-adv-x="535" arabic-form="final" 
d="M203 531c46 0 86.001 5.33301 120.001 16c2.66699 8 4 16.667 4 26c0 41.333 -18.333 62 -55 62s-76.334 -34.333 -119.001 -103c10 -0.666992 26.667 -1 50 -1zM199.001 501c-43.333 0 -80.332 2 -110.999 6v29l39 -3c8 16.667 12 46 12 88v106l30 4v-95
c0 -15.333 -1.33301 -29.666 -4 -42.999c33.333 48.667 70.666 73 111.999 73c26 0 45.333 -7.83301 58 -23.5s19 -35.5 19 -59.5c0 -18.667 -3.66699 -37.334 -11 -56.001c-31.333 -17.333 -79.333 -26 -144 -26zM512.002 0c-45.333 0 -78.667 15.667 -100 47
c-69.333 -38 -155.666 -57 -258.999 -57c-42 0 -79.667 2.66699 -113 8v36c37.333 -4.66699 75.666 -7 114.999 -7c92.667 0 172.667 16.333 240 49l-22 51c-43.333 106.667 -99 201 -167 283l24 24c67.333 -77.333 125.666 -175.333 174.999 -294
c18 -46 33.833 -74.667 47.5 -86s37.834 -17 72.501 -17h10v-37h-23z" />
    <glyph glyph-name="uniFB8A" unicode="&#x698;" horiz-adv-x="398" arabic-form="isolated" 
d="M230 573l39 -36l-35 -37l-38 33zM298 476l39 -36l-35 -37l-38 33zM168 472l39 -36l-35 -37l-38 33zM318 78c0 -102.667 -23.667 -179.997 -71 -231.997s-108.333 -78 -183 -78c-20.667 0 -42 2 -64 6l8 34c16.667 -3.33301 35.667 -5 57 -5
c37.333 0 70.5 7.66699 99.5 23s52 36.166 69 62.499s29.833 55.666 38.5 87.999s13 66.5 13 102.5c0 65.333 -10.667 143.666 -32 234.999l35 10c20 -88 30 -170 30 -246z" />
    <glyph glyph-name="uniFB8B" unicode="&#x698;" horiz-adv-x="514" arabic-form="final" 
d="M230 573l39 -36l-35 -37l-38 33zM298 476l39 -36l-35 -37l-38 33zM168 472l39 -36l-35 -37l-38 33zM64 -232c-20.667 0 -41.999 2.00195 -63.999 6.00195l8 34c16.667 -3.33301 35.667 -5 57 -5c37.333 0 70.666 7.66699 99.999 23s52.5 36.166 69.5 62.499
s29.833 55.666 38.5 87.999s13 66.5 13 102.5c0 50 -13.667 128.667 -41 236l33 9l17.5 -78c7 -32 13.167 -58.333 18.5 -79c10.667 -43.333 31.167 -75.833 61.5 -97.5s67.166 -32.5 110.499 -32.5h28v-37h-36c-75.333 0 -128.666 29 -159.999 87v-9
c0 -102.667 -23.667 -180 -71 -232s-108.333 -78 -183 -78z" />
    <glyph glyph-name="uniFB8C" unicode="&#x691;" horiz-adv-x="398" arabic-form="isolated" 
d="M217 433c46 0 86.001 5.33301 120.001 16c2.66699 8 4 16.667 4 26c0 41.333 -18.333 62 -55 62s-76.334 -34.333 -119.001 -103c10 -0.666992 26.667 -1 50 -1zM213.001 403c-43.333 0 -80.332 2 -110.999 6v29l39 -3c8 16.667 12 46 12 88v106l30 4v-95
c0 -15.333 -1.33301 -29.666 -4 -42.999c33.333 48.667 70.666 73 111.999 73c26 0 45.333 -7.83301 58 -23.5s19 -35.5 19 -59.5c0 -18.667 -3.66699 -37.334 -11 -56.001c-31.333 -17.333 -79.333 -26 -144 -26zM318.002 78c0 -102.667 -23.667 -179.997 -71 -231.997
s-108.333 -78 -183 -78c-20.667 0 -42 2 -64 6l8 34c16.667 -3.33301 35.667 -5 57 -5c37.333 0 70.5 7.66699 99.5 23s52 36.166 69 62.499s29.833 55.666 38.5 87.999s13 66.5 13 102.5c0 65.333 -10.667 143.666 -32 234.999l35 10c20 -88 30 -170 30 -246z" />
    <glyph glyph-name="uniFB8D" unicode="&#x691;" horiz-adv-x="514" arabic-form="final" 
d="M216 433c46 0 86.001 5.33301 120.001 16c2.66699 8 4 16.667 4 26c0 41.333 -18.333 62 -55 62s-76.334 -34.333 -119.001 -103c10 -0.666992 26.667 -1 50 -1zM212.001 403c-42.667 0 -79.666 2 -110.999 6v29l39 -3c8 16.667 12 46 12 88v106l30 4v-95
c0 -15.333 -1.33301 -29.666 -4 -42.999c33.333 48.667 70.666 73 111.999 73c26 0 45.333 -7.83301 58 -23.5s19 -35.5 19 -59.5c0 -18.667 -3.66699 -37.334 -11 -56.001c-31.333 -17.333 -79.333 -26 -144 -26zM64.002 -232c-20.667 0 -41.999 2.00195 -63.999 6.00195
l8 34c16.667 -3.33301 35.667 -5 57 -5c37.333 0 70.666 7.66699 99.999 23s52.5 36.166 69.5 62.499s29.833 55.666 38.5 87.999s13 66.5 13 102.5c0 50 -13.667 128.667 -41 236l33 9l17.5 -78c7 -32 13.167 -58.333 18.5 -79c10.667 -43.333 31.167 -75.833 61.5 -97.5
s67.166 -32.5 110.499 -32.5h28v-37h-36c-75.333 0 -128.666 29 -159.999 87v-9c0 -102.667 -23.667 -180 -71 -232s-108.333 -78 -183 -78z" />
    <glyph glyph-name="uniFB8E" unicode="&#x6a9;" horiz-adv-x="887" arabic-form="isolated" 
d="M408 -12c-66 0 -121.167 4.66895 -165.5 14.002s-78 23 -101 41s-39 37.5 -48 58.5s-13.5 46.167 -13.5 75.5c0 50 11.333 109.667 34 179l32 -10c-20 -68 -30 -121.333 -30 -160c0 -24 3.83301 -44.833 11.5 -62.5s21.667 -34.334 42 -50.001s51.5 -27.667 93.5 -36
s94.333 -12.5 157 -12.5c135.333 0 247.666 18.333 336.999 55c0.666992 4 1 10 1 18c0 68 -28 132.667 -84 194s-132.667 108.333 -230 141v45c114.667 98 249 173 403 225v-37c-135.333 -42.667 -259.666 -111.334 -372.999 -206.001
c103.333 -40.667 182 -92.334 236 -155.001s81 -129 81 -199c0 -15.333 -1 -31.666 -3 -48.999c-36 -20 -89.5 -36.5 -160.5 -49.5s-144.167 -19.5 -219.5 -19.5z" />
    <glyph glyph-name="uniFB8F" unicode="&#x6a9;" horiz-adv-x="995" arabic-form="final" 
d="M977 0c-42 0 -74.5039 5.50293 -97.5039 16.5029s-43.5 28.167 -61.5 51.5c-44 -24 -102 -43.333 -174 -58s-150.667 -22 -236 -22c-66 0 -121.167 4.66699 -165.5 14s-78 23 -101 41s-39 37.5 -48 58.5s-13.5 46.167 -13.5 75.5c0 50 11.333 109.667 34 179l32 -9
c-20 -72.667 -30 -126.334 -30 -161.001c0 -24 3.83301 -44.833 11.5 -62.5s21.667 -34.334 42 -50.001s51.5 -27.667 93.5 -36s94.333 -12.5 157 -12.5c157.333 0 283.333 24 378 72c-3.33301 4 -7.66602 10 -12.999 18c-24 36 -46.167 66.667 -66.5 92
s-55.166 59.666 -104.499 102.999s-106.666 84.666 -171.999 123.999v45c113.333 96.667 248.333 171.334 405 224.001v-37c-134.667 -42 -259.667 -111.333 -375 -208c21.333 -13.333 41.666 -26.833 60.999 -40.5l51.5 -37.5c15 -11.333 30.333 -24 46 -38l38.5 -34
c10 -8.66699 21.333 -20 34 -34l27.5 -30.5c5.66699 -6.33301 14 -16.5 25 -30.5s17.833 -23 20.5 -27s9 -13 19 -27s15.667 -21.667 17 -23c14.667 -20 25.334 -34 32.001 -42s16.834 -17.667 30.501 -29s28.667 -18.833 45 -22.5s36.5 -5.5 60.5 -5.5h15v-37h-18z" />
    <glyph glyph-name="uniFB90" unicode="&#x6a9;" horiz-adv-x="488" arabic-form="initial" 
d="M0 0c-12.667 0 -18.999 6.00195 -18.999 18.002c0 12.667 6.33301 19 19 19h22c137.333 0 249.666 17.667 336.999 53v8c0 68 -28 132.667 -84 194s-132.333 108.333 -229 141v46c116 97.333 250 172 402 224v-37c-135.333 -42.667 -259.666 -111.334 -372.999 -206.001
c103.333 -40.667 182 -92.334 236 -155.001s81 -129 81 -199c0 -16.667 -0.666992 -29.667 -2 -39c-40 -20.667 -92.333 -37 -157 -49s-133.334 -18 -206.001 -18h-27z" />
    <glyph glyph-name="uniFB91" unicode="&#x6a9;" horiz-adv-x="513" arabic-form="medial" 
d="M0 0c-12.667 0 -19 6.00195 -19 18.002c0 12.667 6.33301 19 19 19h19c138 0 245.667 20.333 323 61c-1.33301 2 -3 4.83301 -5 8.5s-3.66699 6.5 -5 8.5c-16 27.333 -29.833 49.833 -41.5 67.5s-29.167 41.334 -52.5 71.001s-51.666 59.5 -84.999 89.5
s-71.333 60 -114 90v42c114.667 98.667 250 174.667 406 228v-37c-137.333 -43.333 -263 -113 -377 -209l58 -44.5c18 -14.333 34.833 -28.833 50.5 -43.5l41 -39c11.667 -11.333 23.5 -24.333 35.5 -39l28.5 -34.5c7 -8.33301 15.333 -19.833 25 -34.5l19.5 -30l19 -30
c9.33301 -14.667 14.666 -23.334 15.999 -26.001c2 -2.66699 6 -9 12 -19s9.83301 -16.167 11.5 -18.5l10.5 -15c5.33301 -7.66699 9.16602 -12.5 11.499 -14.5l12 -10.5c5.66699 -5 10.834 -8.16699 15.501 -9.5s10.5 -3.33301 17.5 -6s14.5 -4.33398 22.5 -5.00098
s16.667 -1 26 -1h13v-37h-16c-36 0 -64 5.66699 -84 17s-37.667 28.666 -53 51.999c-39.333 -22 -89.5 -39 -150.5 -51s-123.167 -18 -186.5 -18h-23z" />
    <glyph glyph-name="uniFB92" unicode="&#x6af;" horiz-adv-x="887" arabic-form="isolated" 
d="M520 606v38.999c64.667 44.667 140 83.334 226 116.001v-36c-84.667 -35.333 -160 -75 -226 -119zM408 -12.001c-66 0 -121.168 4.66895 -165.501 14.002s-78 23 -101 41s-39 37.5 -48 58.5s-13.5 46.167 -13.5 75.5c0 50 11.333 109.667 34 179l32 -10
c-20 -64 -30 -117.333 -30 -160c0 -24 3.83301 -44.833 11.5 -62.5s21.667 -34.334 42 -50.001s51.5 -27.667 93.5 -36s94.333 -12.5 157 -12.5c135.333 0 247.666 18.333 336.999 55c0.666992 4 1 10 1 18c0 68 -28.167 132.667 -84.5 194s-133.166 108.333 -230.499 141
v45c116 98 250.667 173 404 225v-37c-135.333 -42.667 -259.666 -111.334 -372.999 -206.001c103.333 -40.667 182 -92.334 236 -155.001s81 -129 81 -199c0 -15.333 -1 -31.666 -3 -48.999c-36 -20 -89.5 -36.5 -160.5 -49.5s-144.167 -19.5 -219.5 -19.5z" />
    <glyph glyph-name="uniFB93" unicode="&#x6af;" horiz-adv-x="995" arabic-form="final" 
d="M520 606v38.999c64.667 44.667 140 83.334 226 116.001v-36c-84.667 -35.333 -160 -75 -226 -119zM977 -0.000976562c-42 0 -74.502 5.5 -97.502 16.5s-43.5 28.167 -61.5 51.5c-44 -24 -102 -43.333 -174 -58s-150.667 -22 -236 -22c-66 0 -121.167 4.66699 -165.5 14
s-78 23 -101 41s-39 37.5 -48 58.5s-13.5 46.167 -13.5 75.5c0 50 11.333 109.667 34 179l32 -10c-20 -66.667 -30 -120 -30 -160c0 -24 3.83301 -44.833 11.5 -62.5s21.667 -34.334 42 -50.001s51.5 -27.667 93.5 -36s94.333 -12.5 157 -12.5c157.333 0 283.333 24 378 72
c-3.33301 4 -7.66602 10 -12.999 18c-18.667 27.333 -35 49.833 -49 67.5s-34.667 41.334 -62 71.001s-60.333 59.667 -99 90s-83 60.5 -133 90.5v44c110.667 96 245.667 171 405 225v-37c-134.667 -42 -259.667 -111.333 -375 -208
c21.333 -13.333 41.666 -26.833 60.999 -40.5l51.5 -37.5c15 -11.333 30.333 -24 46 -38l38.5 -34c10 -8.66699 21.333 -20 34 -34l27.5 -30.5c5.66699 -6.33301 14 -16.5 25 -30.5s17.833 -23 20.5 -27s9 -13 19 -27s15.667 -21.667 17 -23
c14.667 -20 25.334 -34 32.001 -42s16.834 -17.667 30.501 -29s28.667 -18.833 45 -22.5s36.5 -5.5 60.5 -5.5h15v-37h-18z" />
    <glyph glyph-name="uniFB94" unicode="&#x6af;" horiz-adv-x="488" arabic-form="initial" 
d="M122 606v38.999c64.667 44.667 140 83.334 226 116.001v-36c-84.667 -35.333 -160 -75 -226 -119zM0 -0.000976562c-12.667 0 -18.998 6.00195 -18.998 18.002c0 12.667 6.33301 19 19 19h22c137.333 0 249.666 17.667 336.999 53v8c0 68 -28 132.667 -84 194
s-132.667 108.333 -230 141v46c115.333 97.333 249.666 172 402.999 224v-37c-135.333 -42.667 -259.666 -111.334 -372.999 -206.001c103.333 -40.667 182 -92.334 236 -155.001s81 -129 81 -199c0 -16.667 -0.666992 -29.667 -2 -39c-40 -20.667 -92.333 -37 -157 -49
s-133.334 -18 -206.001 -18h-27z" />
    <glyph glyph-name="uniFB95" unicode="&#x6af;" horiz-adv-x="513" arabic-form="medial" 
d="M122 606v38.999c64.667 44.667 140 83.334 226 116.001v-36c-84.667 -35.333 -160 -75 -226 -119zM0 -0.000976562c-12.667 0 -19.001 6.00195 -19.001 18.002c0 12.667 6.33301 19 19 19h19c140.667 0 248.667 20 324 60c-1.33301 2 -3.16602 5 -5.49902 9
s-4.16602 7 -5.49902 9c-16 27.333 -29.833 49.833 -41.5 67.5s-29.167 41.334 -52.5 71.001s-51.666 59.5 -84.999 89.5s-71.333 60 -114 90v43c115.333 98 250.666 173.667 405.999 227v-37c-137.333 -43.333 -263 -113 -377 -209l58 -44.5
c18 -14.333 34.833 -28.833 50.5 -43.5l41 -39c11.667 -11.333 23.5 -24.333 35.5 -39l28.5 -34.5c7 -8.33301 15.333 -19.833 25 -34.5l19.5 -30l19 -30c9.33301 -14.667 14.666 -23.334 15.999 -26.001c2 -2.66699 6 -9 12 -19s9.83301 -16.167 11.5 -18.5l10.5 -15
c5.33301 -7.66699 9.16602 -12.5 11.499 -14.5l12 -10.5c5.66699 -5 10.834 -8.16699 15.501 -9.5s10.5 -3.33301 17.5 -6s14.5 -4.33398 22.5 -5.00098s16.667 -1 26 -1h13v-37h-16c-36 0 -64 5.66699 -84 17s-37.667 28.666 -53 51.999c-39.333 -22 -89.5 -39 -150.5 -51
s-123.167 -18 -186.5 -18h-23z" />
    <glyph glyph-name="uniFB9E" unicode="&#x6ba;" horiz-adv-x="767" arabic-form="isolated" 
d="M647 310c26.667 -91.333 40.001 -170.999 40.001 -238.999c0 -88.667 -29.167 -158.667 -87.5 -210s-142.5 -77 -252.5 -77c-86.667 0 -152.834 20 -198.501 60s-68.5 96.333 -68.5 169c0 79.333 17.333 156 52 230l31 -14c-31.333 -68.667 -47 -138.334 -47 -209.001
c0 -61.333 19.333 -109.833 58 -145.5s98.667 -53.5 180 -53.5c92.667 0 165.5 21.667 218.5 65s79.5 101 79.5 173c0 78 -12.667 157.667 -38 239z" />
    <glyph glyph-name="uniFB9F" unicode="&#x6ba;" horiz-adv-x="818" arabic-form="final" 
d="M347 -241c-86.667 0 -152.833 20.001 -198.5 60.001s-68.5 96.333 -68.5 169c0 79.333 17.333 156 52 230l31 -14c-31.333 -68.667 -47 -138.334 -47 -209.001c0 -61.333 19.333 -109.833 58 -145.5s98.667 -53.5 180 -53.5c92.667 0 165.5 21.667 218.5 65
s79.5 101 79.5 173c0 78 -12.667 157.667 -38 239l33 12c24.667 -85.333 37.667 -155.333 39 -210c34 -25.333 75.667 -38 125 -38h7v-37h-16c-42.667 0 -81 10 -115 30c-3.33301 -84 -34.333 -150.167 -93 -198.5s-141 -72.5 -247 -72.5z" />
    <glyph glyph-name="uniFBA6" unicode="&#x6c1;" horiz-adv-x="486" arabic-form="isolated" 
d="M218 419c66 -39.333 117.166 -83.832 153.499 -133.499s54.5 -99.834 54.5 -150.501c0 -42 -16.5 -76.5 -49.5 -103.5s-81.5 -40.5 -145.5 -40.5c-53.333 0 -95.166 12.5 -125.499 37.5s-45.5 59.833 -45.5 104.5c0 48.667 13 95 39 139s65.667 93 119 147z
M234.999 26.001c48 0 86.5 9.33301 115.5 28s43.5 44.667 43.5 78c0 41.333 -16.5 85.333 -49.5 132s-73.5 84 -121.5 112c-86.667 -84.667 -130 -161.667 -130 -231c0 -79.333 47.333 -119 142 -119z" />
    <glyph glyph-name="uniFBA7" unicode="&#x6c1;" horiz-adv-x="507" arabic-form="final" 
d="M474 37h33.001v-37h-31c-30 0 -57 6 -81 18s-43.667 26.5 -59 43.5s-29.833 34.167 -43.5 51.5s-28.5 32 -44.5 44s-33 18 -51 18c-32.667 0 -73.334 -22.667 -122.001 -68l-25 26c52.667 52.667 103.667 79 153 79c22 0 42.167 -6 60.5 -18s34.333 -26.5 48 -43.5
l41.5 -51.5c14 -17.333 31.333 -32 52 -44s43.667 -18 69 -18z" />
    <glyph glyph-name="uniFBA8" unicode="&#x6c1;" horiz-adv-x="493" arabic-form="initial" 
d="M0 0c-12.667 0 -18.998 6 -18.998 18c0 12.667 6.33301 19 19 19h5c58 0 107.667 15.667 149 47c40.667 -30.667 84 -46 130 -46c30 0 53.5 7.5 70.5 22.5s25.5 35.833 25.5 62.5c0 38.667 -11 75.667 -33 111l31 21c23.333 -43.333 35 -86.333 35 -129
c0 -36 -11.333 -65.667 -34 -89s-57 -35 -103 -35c-44.667 0 -86.334 13.667 -125.001 41c-32.667 -28.667 -81.334 -43 -146.001 -43h-5zM289.002 -348c-62.667 21.333 -94 59 -94 113c0 60 30.333 115.333 91 166l23 -24c-52 -50 -78 -95 -78 -135
c0 -40.667 24.667 -70 74 -88z" />
    <glyph glyph-name="uniFBA9" unicode="&#x6c1;" horiz-adv-x="623" arabic-form="medial" 
d="M413 -325c-128.667 83.333 -207.668 197.332 -237.001 341.999c-49.333 -11.333 -102.666 -17 -159.999 -17h-16c-12.667 0 -19 6 -19 18c0 12.667 6.33301 19 19 19h16c66 0 128.333 8 187 24c12.667 -80 38 -148.667 76 -206s83 -103.333 135 -138
c-13.333 34 -20 75 -20 123c0 60.667 18 108.667 54 144s82.667 53 140 53h35v-37h-38c-56 0 -96.167 -15 -120.5 -45s-36.5 -67.667 -36.5 -113s8 -89.666 24 -132.999zM137.999 -432.001c-62.667 21.333 -94 59 -94 113c0 60 30.333 115.333 91 166l23 -24
c-52 -50 -78 -95 -78 -135c0 -40.667 24.667 -70 74 -88z" />
    <glyph glyph-name="uniFBAA" unicode="&#x6be;" horiz-adv-x="661" arabic-form="isolated" 
d="M472 -27c-31.333 0 -70.334 6.83301 -117.001 20.5s-89.667 32.167 -129 55.5c-42.667 -21.333 -92.667 -40.333 -150 -57l-16 34c48.667 12 93.334 26.667 134.001 44c-62.667 45.333 -94 96 -94 152c0 77.333 47.667 152.666 143 225.999
c102 -37.333 183.833 -90.5 245.5 -159.5s92.5 -138.167 92.5 -207.5c0 -33.333 -7.83301 -59.666 -23.5 -78.999s-44.167 -29 -85.5 -29zM131.999 228c0 -52.667 31.667 -99.667 95 -141c43.333 22.667 75.833 47.5 97.5 74.5s32.5 53.167 32.5 78.5
c0 78 -36.333 135.333 -109 172c-77.333 -60 -116 -121.333 -116 -184zM475.999 7c26.667 0 45.5 5.49902 56.5 16.499s16.5 27.5 16.5 49.5c0 50 -15.667 99.5 -47 148.5s-86.333 100.833 -165 155.5c34 -33.333 51 -77.666 51 -132.999
c0 -66.667 -42.667 -125.667 -128 -177c74 -40 146 -60 216 -60z" />
    <glyph glyph-name="uniFBAB" unicode="&#x6be;" horiz-adv-x="711" arabic-form="final" 
d="M253 64v-18.002c84 22 149.5 50.333 196.5 85s70.5 72 70.5 112c0 54.667 -32.333 111.334 -97 170.001c-113.333 -97.333 -170 -213.666 -170 -348.999zM470 -190.002c20.667 0 40.667 2 60 6c6 22.667 9 44.667 9 66c0 78 -37.333 143.667 -112 197
c-46.667 -26.667 -103.667 -48.667 -171 -66c8 -66.667 30.833 -117.167 68.5 -151.5s86.167 -51.5 145.5 -51.5zM555 -207.002c-30 -10.667 -60.332 -16 -90.999 -16c-67.333 0 -122.333 20.667 -165 62s-68.334 96.333 -77.001 165
c-65.333 -16 -116.666 -37.333 -153.999 -64l-18 24c42 30.667 98.333 55.334 169 74.001v15c0 82.667 16.833 156.667 50.5 222s85.5 126 155.5 182c46.667 -38.667 79.667 -74.167 99 -106.5s29 -67.833 29 -106.5c0 -54 -33 -103.333 -99 -148
c68.667 -39.333 145 -59 229 -59h28v-37h-27c-72.667 0 -127.334 10.333 -164.001 31c34 -38.667 51 -88.334 51 -149.001c0 -31.333 -5.33301 -61 -16 -89z" />
    <glyph glyph-name="uniFBAC" unicode="&#x6be;" horiz-adv-x="665" arabic-form="initial" 
d="M136 202c0 -50 27.999 -94.333 83.999 -133c46.667 16.667 81.834 38.5 105.501 65.5s35.5 52.833 35.5 77.5c0 78.667 -36.333 136.667 -109 174c-77.333 -60 -116 -121.333 -116 -184zM479.999 -19c26.667 0 45.5 5.50098 56.5 16.501s16.5 27.5 16.5 49.5
c0 50 -15.667 99.5 -47 148.5s-86 100.5 -164 154.5c34 -32 51 -76 51 -132c0 -70 -46.667 -127 -140 -171c36 -20.667 75 -36.834 117 -48.501s78.667 -17.5 110 -17.5zM475.999 -52.999c-33.333 0 -74.999 7.66602 -124.999 22.999s-95.333 36 -136 62
c-62.667 -21.333 -129.334 -32 -200.001 -32h-15c-12.667 0 -19 6 -19 18c0 12.667 6.33301 19 19 19h15c64 0 119.667 6.33301 167 19c-52 42.667 -78 89.334 -78 140.001c0 77.333 47.667 152.666 143 225.999c102 -37.333 183.833 -90.5 245.5 -159.5
s92.5 -138.167 92.5 -207.5c0 -33.333 -7.83301 -59.666 -23.5 -78.999s-44.167 -29 -85.5 -29z" />
    <glyph glyph-name="uniFBAD" unicode="&#x6be;" horiz-adv-x="600" arabic-form="medial" 
d="M142 64v-18c80.667 13.333 145.167 38.5 193.5 75.5s72.5 77.833 72.5 122.5c0 55.333 -32 111.666 -96 168.999c-113.333 -97.333 -170 -213.666 -170 -348.999zM360 -190c20.667 0 40.333 2.33496 59 7.00195c6 22 9 43.667 9 65
c0 77.333 -35.333 141.666 -106 192.999c-48 -30.667 -107 -52.334 -177 -65.001c8 -65.333 31 -115 69 -149s86.667 -51 146 -51zM443.999 -206.998c-30 -10.667 -60.3311 -15.998 -90.998 -15.998c-67.333 0 -122.333 20.667 -165 62s-68.334 96.666 -77.001 165.999
c-31.333 -3.33301 -61.333 -5 -90 -5h-21c-12.667 0 -19 6 -19 18c0 12.667 6.33301 19 19 19h19c28 0 57.667 1.66699 89 5v11c0 160.667 68.667 295.334 206 404.001c46 -38 78.667 -73.333 98 -106s29 -68.334 29 -107.001c0 -24.667 -7.83301 -50.5 -23.5 -77.5
s-38.5 -51.5 -68.5 -73.5c62.667 -37.333 137 -56 223 -56h28v-37h-27c-72.667 0 -127.334 10.333 -164.001 31c34 -38.667 51 -88.334 51 -149.001c0 -31.333 -5.33301 -61 -16 -89z" />
    <glyph glyph-name="uniFBAE" unicode="&#x6d2;" horiz-adv-x="771" arabic-form="isolated" 
d="M751 37l-9.00195 -36.9971h-430c-154.667 0 -232 49.333 -232 148c0 59.333 22.833 110.833 68.5 154.5s97.834 65.5 156.501 65.5c70 0 116.333 -37.667 139 -113l-34 -14c-11.333 32 -25.666 54.333 -42.999 67s-39.333 19 -66 19
c-49.333 0 -91.833 -17.667 -127.5 -53s-53.5 -74 -53.5 -116c0 -16.667 2.66699 -31.334 8 -44.001s15.333 -25.334 30 -38.001s37.667 -22.334 69 -29.001s70.333 -10 117 -10h407z" />
    <glyph glyph-name="uniFBAF" unicode="&#x6d2;" horiz-adv-x="758" arabic-form="final" 
d="M636 -230l-9 -36.9971h-315c-154.667 0 -232 40 -232 120c0 56 25 100.667 75 134s109.667 50 179 50h424v-37h-429c-60 0 -110 -13.333 -150 -40s-60 -59.334 -60 -98.001c0 -12.667 2.66699 -23.834 8 -33.501s15.333 -19.334 30 -29.001s37.667 -17 69 -22
s70.333 -7.5 117 -7.5h293z" />
    <glyph glyph-name="uniFBB0" unicode="&#x6d3;" horiz-adv-x="771" arabic-form="isolated" 
d="M395 494c-64 -11.333 -129.998 -30.333 -197.998 -57l-10 29c29.333 12 54 20.667 74 26c-35.333 17.333 -53 44.333 -53 81c0 28 8.16699 49.167 24.5 63.5s36.5 21.5 60.5 21.5c22 0 45.667 -6 71 -18l-12 -28c-20.667 8.66699 -40.334 13 -59.001 13
c-16.667 0 -30.167 -4.33301 -40.5 -13s-15.5 -21.667 -15.5 -39c0 -18 7.16699 -33 21.5 -45s33.5 -18 57.5 -18c5.33301 0 29.666 4.33301 72.999 13zM751.002 37l-9.00195 -36.9971h-430c-154.667 0 -232 49.333 -232 148c0 59.333 22.833 110.833 68.5 154.5
s97.834 65.5 156.501 65.5c70 0 116.333 -37.667 139 -113l-34 -14c-11.333 32 -25.666 54.333 -42.999 67s-39.333 19 -66 19c-49.333 0 -91.833 -17.667 -127.5 -53s-53.5 -74 -53.5 -116c0 -16.667 2.66699 -31.334 8 -44.001s15.333 -25.334 30 -38.001
s37.667 -22.334 69 -29.001s70.333 -10 117 -10h407z" />
    <glyph glyph-name="uniFBB1" unicode="&#x6d3;" horiz-adv-x="758" arabic-form="final" 
d="M350 167c-64 -11.333 -129.998 -30.333 -197.998 -57l-10 29c29.333 12 54 20.667 74 26c-35.333 17.333 -53 44.333 -53 81c0 28 8.16699 49.167 24.5 63.5s36.5 21.5 60.5 21.5c22 0 45.667 -6 71 -18l-12 -28c-20.667 8.66699 -40.334 13 -59.001 13
c-16.667 0 -30.167 -4.33301 -40.5 -13s-15.5 -21.667 -15.5 -39c0 -18 7.16699 -33 21.5 -45s33.5 -18 57.5 -18c5.33301 0 29.666 4.33301 72.999 13zM636.002 -230l-9 -36.9971h-315c-154.667 0 -232 40 -232 120c0 56 25 100.667 75 134s109.667 50 179 50h424v-37h-429
c-60 0 -110 -13.333 -150 -40s-60 -59.334 -60 -98.001c0 -12.667 2.66699 -23.834 8 -33.501s15.333 -19.334 30 -29.001s37.667 -17 69 -22s70.333 -7.5 117 -7.5h293z" />
    <glyph glyph-name="uniFBFC" unicode="&#x6cc;" horiz-adv-x="789" arabic-form="isolated" 
d="M357 -221c-89.333 0 -157.836 21.8301 -205.503 65.4971s-71.5 104.834 -71.5 183.501c0 79.333 17.333 156 52 230l31 -15c-31.333 -68.667 -47 -138 -47 -208c0 -146 82.667 -219 248 -219c82.667 0 151.334 17.667 206.001 53s83.334 82.333 86.001 141l-30 22.5
c-10.667 7.66699 -22.834 15.334 -36.501 23.001l-36 20c-10.333 5.66699 -24.666 12.834 -42.999 21.501l-41.5 19.5l-46.5 21l-44.5 19.5v21c0 45.333 6.5 85 19.5 119s30.833 60.5 53.5 79.5s47.334 33.167 74.001 42.5s55.334 14 86.001 14c44 0 86.667 -12.667 128 -38
l-16 -32c-34.667 22.667 -73 34 -115 34c-123.333 0 -189 -72.333 -197 -217c66.667 -28 121.667 -53.333 165 -76s81.666 -48 114.999 -76c0 -76 -30 -136.5 -90 -181.5s-141.333 -67.5 -244 -67.5z" />
    <glyph glyph-name="uniFBFD" unicode="&#x6cc;" horiz-adv-x="777" arabic-form="final" 
d="M351 -240c-87.333 0 -154.335 21 -201.002 63s-70 100.667 -70 176c0 79.333 17.333 156 52 230l30 -15c-31.333 -68.667 -47 -138 -47 -208c0 -66 19.667 -117.333 59 -154s100.666 -55 183.999 -55c80 0 146.833 18.833 200.5 56.5s83.834 89.167 90.501 154.5
c-67.333 8 -141.666 24.667 -222.999 50l11 34c48.667 -16 103.834 -29.167 165.501 -39.5s116.834 -15.5 165.501 -15.5h9v-37h-9c-30.667 -0 -58.334 1.33301 -83.001 4c-8.66699 -72.667 -43 -131.5 -103 -176.5s-137 -67.5 -231 -67.5z" />
    <glyph glyph-name="uniFBFE" unicode="&#x6cc;" horiz-adv-x="321" arabic-form="initial" 
d="M0 0c-12.667 0 -19 6 -19 18c0 12.667 6.33301 19 19 19h3c84.667 0 151 14 199 42c3.33301 21.333 5 43 5 65c0 67.333 -9 130 -27 188l33 11c18.667 -64 28 -128 28 -192c0 -36 -3.33301 -67 -10 -93c-58 -38.667 -134 -58 -228 -58h-3zM156 -123l39 -36l-34 -38
l-40 34zM25 -127l39 -36l-34 -38l-40 34z" />
    <glyph glyph-name="uniFBFF" unicode="&#x6cc;" horiz-adv-x="429" arabic-form="medial" 
d="M0 0c-12.667 0 -18.999 6.00098 -18.999 18.001c0 12.667 6.33301 19 19 19h17c44 0 80 4 108 12s48.667 20.167 62 36.5s22.166 33.166 26.499 50.499s6.5 39.666 6.5 66.999v122l34 4v-126c0 -51.333 -7.66699 -90.666 -23 -117.999
c48.667 -32 112.334 -48 191.001 -48h7v-37h-6c-89.333 0 -160 19 -212 57c-36.667 -38 -102.334 -57 -197.001 -57h-14zM152.001 -126.999l39 -36l-34 -38l-40 34zM21.001 -130.999l39 -36l-34 -38l-40 34z" />
    <glyph glyph-name="uniFC5E" unicode="&#xfc5e;" arabic-form="isolated" 
d="M5 891l-0.000976562 34.001c106.667 27.333 173 50.666 199 69.999c-35.333 2.66699 -61.666 12.5 -78.999 29.5s-26 38.833 -26 65.5s8.33301 49.334 25 68.001s39 28 67 28c24.667 0 45.167 -9.33301 61.5 -28s24.5 -42.334 24.5 -71.001
c0 -28 -6.33301 -52.333 -19 -73c-30.667 -50 -115 -91 -253 -123zM129.999 1094c0 -48 33.332 -71.999 99.999 -71.999c12 17.333 18 36 18 56c0 21.333 -6.16699 39.333 -18.5 54s-27.5 22 -45.5 22c-15.333 0 -28.166 -5.83301 -38.499 -17.5
s-15.5 -25.834 -15.5 -42.501zM200.998 741.002c-18.667 0 -33.666 3.33105 -44.999 9.99805c-22.667 -26.667 -52.667 -40 -90 -40c-23.333 0 -41.5 6.16699 -54.5 18.5s-19.5 29.833 -19.5 52.5c0 8.66699 0.833008 17.834 2.5 27.501s3.5 17.167 5.5 22.5l2 8l28 -3
c-4.66699 -16 -7 -30.667 -7 -44c0 -32 16.333 -48 49 -48c26 0 46.667 9.66699 62 29c-7.33301 13.333 -11 30.333 -11 51v30l32 6v-27c0 -39.333 16.333 -59 49 -59c34.667 0 52 19.333 52 58c0 14.667 -3.33301 32.667 -10 54l32 11c6.66699 -18.667 10 -39 10 -61
c0 -27.333 -6.83301 -50.166 -20.5 -68.499s-35.834 -27.5 -66.501 -27.5z" />
    <glyph glyph-name="uniFC5F" unicode="&#xfc5f;" arabic-form="isolated" 
d="M199 933c-18.667 0 -33.666 3.33105 -44.999 9.99805c-22.667 -26.667 -52.667 -40 -90 -40c-23.333 0 -41.5 6.16699 -54.5 18.5s-19.5 29.833 -19.5 52.5c0 8.66699 0.833008 17.834 2.5 27.501s3.5 17.167 5.5 22.5l2 8l28 -3c-4.66699 -16 -7 -30.667 -7 -44
c0 -32 16.333 -48 49 -48c26 0 46.667 9.66699 62 29c-7.33301 13.333 -11 30.333 -11 51v30l32 6v-27c0 -39.333 16.333 -59 49 -59c34.667 0 52 19.333 52 58c0 14.667 -3.33301 32.667 -10 54l32 11c6.66699 -18.667 10 -39 10 -61
c0 -27.333 -6.83301 -50.166 -20.5 -68.499s-35.834 -27.5 -66.501 -27.5zM277.001 880.998v-32.001c-74 -12 -164.667 -31.667 -272 -59v32c86 24.667 176.667 44.334 272 59.001zM277.001 770.997v-32.001c-74 -12 -164.667 -31.667 -272 -59v32
c86 24.667 176.667 44.334 272 59.001z" />
    <glyph glyph-name="uniFC60" unicode="&#xfc60;" arabic-form="isolated" 
d="M279 984v-32.001c-74 -12 -164.667 -31.667 -272 -59v32c86 24.667 176.667 44.334 272 59.001zM201 740.999c-18.667 0 -33.666 3.33105 -44.999 9.99805c-22.667 -26.667 -52.667 -40 -90 -40c-23.333 0 -41.5 6.16699 -54.5 18.5s-19.5 29.833 -19.5 52.5
c0 8.66699 0.833008 17.834 2.5 27.501s3.5 17.167 5.5 22.5l2 8l28 -3c-4.66699 -16 -7 -30.667 -7 -44c0 -32 16.333 -48 49 -48c26 0 46.667 9.66699 62 29c-7.33301 13.333 -11 30.333 -11 51v30l32 6v-27c0 -39.333 16.333 -59 49 -59c34.667 0 52 19.333 52 58
c0 14.667 -3.33301 32.667 -10 54l32 11c6.66699 -18.667 10 -39 10 -61c0 -27.333 -6.83301 -50.166 -20.5 -68.499s-35.834 -27.5 -66.501 -27.5z" />
    <glyph glyph-name="uniFC61" unicode="&#xfc61;" arabic-form="isolated" 
d="M145 1092c0 -43.333 31.999 -68.332 95.999 -74.999c14.667 18 22 37.667 22 59s-6.16699 39.333 -18.5 54s-27.5 22 -45.5 22c-15.333 0 -28.166 -5.83301 -38.499 -17.5s-15.5 -25.834 -15.5 -42.501zM2.99902 885.001l-7.00195 31.9961
c22 10.667 37.167 20.834 45.5 30.501s12.5 21.5 12.5 35.5c0 13.333 -4 24.5 -12 33.5s-19.667 13.5 -35 13.5c-13.333 0 -26.666 -3.33301 -39.999 -10l-12 26c18 9.33301 37.667 14 59 14c20.667 0 37.5 -6.83301 50.5 -20.5s19.5 -33.167 19.5 -58.5
c0 -18.667 -6 -35 -18 -49c76.667 20.667 127.334 41.334 152.001 62.001c-34.667 2.66699 -60.5 12.334 -77.5 29.001s-25.5 38.334 -25.5 65.001s8.33301 49.334 25 68.001s38.667 28 66 28c24.667 0 45.167 -9.33301 61.5 -28s24.5 -42.334 24.5 -71.001
c0 -26.667 -5.33301 -49.667 -16 -69c-30.667 -54 -121.667 -97.667 -273 -131zM200.997 740.997c-18.667 0 -33.666 3.33105 -44.999 9.99805c-22.667 -26.667 -52.667 -40 -90 -40c-23.333 0 -41.5 6.16699 -54.5 18.5s-19.5 29.833 -19.5 52.5
c0 8.66699 0.833008 17.834 2.5 27.501s3.5 17.167 5.5 22.5l2 8l28 -3c-4.66699 -16 -7 -30.667 -7 -44c0 -32 16.333 -48 49 -48c26 0 46.667 9.66699 62 29c-7.33301 13.333 -11 30.333 -11 51v30l32 6v-27c0 -39.333 16.333 -59 49 -59c34.667 0 52 19.333 52 58
c0 14.667 -3.33301 32.667 -10 54l32 11c6.66699 -18.667 10 -39 10 -61c0 -27.333 -6.83301 -50.166 -20.5 -68.499s-35.834 -27.5 -66.501 -27.5z" />
    <glyph glyph-name="uniFC62" unicode="&#xfc62;" arabic-form="isolated" 
d="M199 841c-18.667 0 -33.666 3.33105 -44.999 9.99805c-22.667 -26.667 -52.667 -40 -90 -40c-23.333 0 -41.5 6.16699 -54.5 18.5s-19.5 29.833 -19.5 52.5c0 8.66699 0.833008 17.834 2.5 27.501s3.5 17.167 5.5 22.5l2 8l28 -3c-4.66699 -16 -7 -30.667 -7 -44
c0 -32 16.333 -48 49 -48c26 0 46.667 9.66699 62 29c-7.33301 13.333 -11 30.333 -11 51v30l32 6v-27c0 -39.333 16.333 -59 49 -59c34.667 0 52 19.333 52 58c0 14.667 -3.33301 32.667 -10 54l32 11c6.66699 -18.667 10 -39 10 -61
c0 -27.333 -6.83301 -50.166 -20.5 -68.499s-35.834 -27.5 -66.501 -27.5zM272.001 793.998v-32.001c-74 -12 -164.667 -31.667 -272 -59v32c86 24.667 176.667 44.334 272 59.001z" />
    <glyph glyph-name="uniFC63" unicode="&#xfc63;" arabic-form="isolated" 
d="M117 1097l35 7c5.33301 -53.333 8 -116.333 8 -189l-33 -2c0 62.667 -3.33301 124 -10 184zM201 741c-18.667 0 -33.666 3.33105 -44.999 9.99805c-22.667 -26.667 -52.667 -40 -90 -40c-23.333 0 -41.5 6.16699 -54.5 18.5s-19.5 29.833 -19.5 52.5
c0 8.66699 0.833008 17.834 2.5 27.501s3.5 17.167 5.5 22.5l2 8l28 -3c-4.66699 -16 -7 -30.667 -7 -44c0 -32 16.333 -48 49 -48c26 0 46.667 9.66699 62 29c-7.33301 13.333 -11 30.333 -11 51v30l32 6v-27c0 -39.333 16.333 -59 49 -59c34.667 0 52 19.333 52 58
c0 14.667 -3.33301 32.667 -10 54l32 11c6.66699 -18.667 10 -39 10 -61c0 -27.333 -6.83301 -50.166 -20.5 -68.499s-35.834 -27.5 -66.501 -27.5z" />
    <glyph glyph-name="uniFDF2" unicode="&#xfdf2;" horiz-adv-x="1268" arabic-form="isolated" 
d="M640 1017l35 7c5.33301 -53.333 8 -116.333 8 -189l-33 -2c0 62.667 -3.33301 124 -10 184zM1178 0h-35v720l35 4v-724zM724 661c-18.667 0 -33.666 3.33105 -44.999 9.99805c-22.667 -26.667 -52.667 -40 -90 -40c-23.333 0 -41.5 6.16699 -54.5 18.5
s-19.5 29.833 -19.5 52.5c0 8.66699 0.833008 17.834 2.5 27.501s3.16699 17.167 4.5 22.5l3 8l28 -3c-4.66699 -16 -7 -30.667 -7 -44c0 -32 16.333 -48 49 -48c26 0 46.667 9.66699 62 29c-7.33301 13.333 -11 30.333 -11 51v30l32 6v-27c0 -39.333 16.333 -59 49 -59
c34.667 0 52 19.333 52 58c0 14.667 -3.33301 32.667 -10 54l32 11c6.66699 -18.667 10 -39 10 -61c0 -27.333 -6.83301 -50.166 -20.5 -68.499s-35.834 -27.5 -66.501 -27.5zM830.001 7.99805c-82.667 0 -133.665 34.002 -152.998 102.002c-18 -68 -71.333 -102 -160 -102
c-84.667 0 -133 32.333 -145 97c-26.667 -3.33301 -56.667 -5 -90 -5c-62.667 0 -112.834 8 -150.501 24s-56.5 40.667 -56.5 74c0 64.667 31 121.5 93 170.5s143 73.5 243 73.5c-6 -168 -9 -265.333 -9 -292c0 -36.667 8.83301 -63.334 26.5 -80.001s49.5 -25 95.5 -25
c29.333 0 53.666 4.5 72.999 13.5s33.333 22.667 42 41s14.5 37.166 17.5 56.499s4.5 43.333 4.5 72v348l35 4v-355c0 -65.333 10.5 -111.666 31.5 -138.999s55.167 -41 102.5 -41c36.667 0 76.667 8 120 24c4 23.333 6 55.666 6 96.999c0 62 -7.66699 215.667 -23 461l35 5
c16 -254 24 -410 24 -468c0 -46.667 -4.33301 -86.667 -13 -120c-44 -24 -93.667 -36 -149 -36zM302.003 134c23.333 0 45.334 1.33301 66.001 4v7c0 6 0.333008 18.333 1 37s1.5 49 2.5 91s2.16699 86 3.5 132c-77.333 -2.66699 -140.833 -25 -190.5 -67
s-74.5 -86.333 -74.5 -133c0 -22 16.167 -39.333 48.5 -52s80.166 -19 143.499 -19z" />
    <glyph glyph-name="uniFDFC" unicode="&#xfdfc;" horiz-adv-x="1111" arabic-form="isolated" 
d="M286 -58c-66.667 0 -117.663 17.3311 -152.996 51.998s-53 83.334 -53 146.001c0 66.667 18 140 54 220l29 -14c-32 -70.667 -48 -137 -48 -199c0 -52 14.833 -93 44.5 -123s74.167 -45 133.5 -45c70 0 124.833 20.167 164.5 60.5s59.5 97.833 59.5 172.5
c0 0.666992 -1.33301 59.667 -4 177c-50 -26.667 -99 -40 -147 -40c-58 0 -101.833 14 -131.5 42s-44.5 67.667 -44.5 119c0 36 7 76 21 120l34 -10c-13.333 -40 -20 -75.333 -20 -106c0 -86.667 48.333 -130 145 -130c44.667 0 92.334 14.333 143.001 43
c-0.666992 14 -2.33398 93.333 -5.00098 238l35 4l2.5 -137c1 -55.333 1.5 -83.666 1.5 -84.999l126 87v132l34 5v-116c76.667 46 151.667 69 225 69c32.667 0 64.334 -4.33301 95.001 -13l-5 -29c-29.333 6.66699 -59.333 10 -90 10c-71.333 0 -146.333 -25 -225 -75v-280
c0 -72.667 9.66699 -122.5 29 -149.5s56.666 -40.5 111.999 -40.5c56 0 105.667 14.667 149 44c2 18 3 37.667 3 59c0 65.333 -9.66699 129.666 -29 192.999l32 10c18.667 -64 28 -128 28 -192c0 -36 -3.33301 -67 -10 -93c-58 -38 -117 -57 -177 -57
c-66.667 0 -111.834 17.5 -135.501 52.5s-35.5 90.833 -35.5 167.5v264c-10 -6.66699 -29.333 -20.334 -58 -41.001s-51.334 -36 -68.001 -46c0.666992 -27.333 1.16699 -52.833 1.5 -76.5s0.666016 -41.667 0.999023 -54s0.666016 -23.166 0.999023 -32.499
s0.5 -16.166 0.5 -20.499v-10.5c0 -85.333 -22.833 -152 -68.5 -200s-111.167 -72 -196.5 -72zM923.004 -101.002l39 -36l-34 -38l-40 34zM792.004 -105.002l39 -36l-34 -38l-40 34z" />
    <glyph glyph-name="uniFE81" unicode="&#x622;" horiz-adv-x="215" arabic-form="isolated" 
d="M251 712l13.999 -24c-24.667 -17.333 -52.667 -26 -84 -26c-18 0 -43 5 -75 15s-54 15 -66 15c-13.333 0 -24.333 -2.33301 -33 -7s-18.667 -13 -30 -25l-27 17c26.667 32 58 48 94 48c12.667 0 33.834 -5.16699 63.501 -15.5s54.167 -15.5 73.5 -15.5
c22.667 0 46 6 70 18zM124.999 0h-35v606l35 4v-610z" />
    <glyph glyph-name="uniFE82" unicode="&#x622;" horiz-adv-x="313" arabic-form="final" 
d="M251 712l13.999 -24c-24.667 -17.333 -52.667 -26 -84 -26c-18 0 -43 5 -75 15s-54 15 -66 15c-13.333 0 -24.333 -2.33301 -33 -7s-18.667 -13 -30 -25l-27 17c26.667 32 58 48 94 48c12.667 0 33.834 -5.16699 63.501 -15.5s54.167 -15.5 73.5 -15.5
c22.667 0 46 6 70 18zM312.999 37v-36.999h-21c-76.667 0 -129.5 20.167 -158.5 60.5s-43.5 102.166 -43.5 185.499v358l35 4v-361c0 -78 13.167 -132.5 39.5 -163.5s71.5 -46.5 135.5 -46.5h13z" />
    <glyph glyph-name="uniFE83" unicode="&#x623;" horiz-adv-x="215" arabic-form="isolated" 
d="M213 689c-64 -11.333 -129.998 -30.333 -197.998 -57l-10 29c29.333 12 54 20.667 74 26c-35.333 17.333 -53 44.333 -53 81c0 28 8.16699 49.167 24.5 63.5s36.5 21.5 60.5 21.5c22 0 45.667 -6 71 -18l-12 -28c-20.667 8.66699 -40.334 13 -59.001 13
c-16.667 0 -30.167 -4.33301 -40.5 -13s-15.5 -21.667 -15.5 -39c0 -18 7.16699 -33 21.5 -45s33.5 -18 57.5 -18c5.33301 0 29.666 4.33301 72.999 13zM125.002 0h-35v606l35 4v-610z" />
    <glyph glyph-name="uniFE84" unicode="&#x623;" horiz-adv-x="313" arabic-form="final" 
d="M233 689c-64 -11.333 -129.998 -30.333 -197.998 -57l-10 29c29.333 12 54 20.667 74 26c-35.333 17.333 -53 44.333 -53 81c0 28 8.16699 49.167 24.5 63.5s36.5 21.5 60.5 21.5c22 0 45.667 -6 71 -18l-12 -28c-20.667 8.66699 -40.334 13 -59.001 13
c-16.667 0 -30.167 -4.33301 -40.5 -13s-15.5 -21.667 -15.5 -39c0 -18 7.16699 -33 21.5 -45s33.5 -18 57.5 -18c5.33301 0 29.666 4.33301 72.999 13zM313.002 37v-36.999h-21c-76.667 0 -129.5 20.167 -158.5 60.5s-43.5 102.166 -43.5 185.499v358l35 4v-361
c0 -78 13.167 -132.5 39.5 -163.5s71.5 -46.5 135.5 -46.5h13z" />
    <glyph glyph-name="uniFE85" unicode="&#x624;" horiz-adv-x="513" arabic-form="isolated" 
d="M349 494c-64 -11.333 -129.998 -30.333 -197.998 -57l-10 29c29.333 12 54 20.667 74 26c-35.333 17.333 -53 44.333 -53 81c0 28 8.16699 49.167 24.5 63.5s36.5 21.5 60.5 21.5c22 0 45.667 -6 71 -18l-12 -28c-20.667 8.66699 -40.334 13 -59.001 13
c-16.667 0 -30.167 -4.33301 -40.5 -13s-15.5 -21.667 -15.5 -39c0 -18 7.16699 -33 21.5 -45s33.5 -18 57.5 -18c5.33301 0 29.666 4.33301 72.999 13zM258.002 34c49.333 0 97.001 6.66797 143.001 20.001c-0.666992 82 -14.667 149.5 -42 202.5s-65.333 79.5 -114 79.5
c-44.667 0 -78.834 -17.833 -102.501 -53.5s-35.5 -74.834 -35.5 -117.501c0 -44 10.833 -76.833 32.5 -98.5s61.167 -32.5 118.5 -32.5zM155.003 -235.999c-33.333 0 -68.333 4.33594 -105 13.0029l8 33c31.333 -7.33301 65.666 -11 102.999 -11c44 0 82 6.66699 114 20
s56.333 31.666 73 54.999s29 46.666 37 69.999s13 48.666 15 75.999c-44 -13.333 -94.333 -20 -151 -20c-65.333 0 -110.666 14.167 -135.999 42.5s-38 67.833 -38 118.5c0 60.667 15.5 110.667 46.5 150s72.167 59 123.5 59c58.667 0 104.667 -28.167 138 -84.5
s50 -131.833 50 -226.5c0 -93.333 -23.5 -165.833 -70.5 -217.5s-116.167 -77.5 -207.5 -77.5z" />
    <glyph glyph-name="uniFE86" unicode="&#x624;" horiz-adv-x="518" arabic-form="final" 
d="M349 494c-64 -11.333 -129.998 -30.333 -197.998 -57l-10 29c29.333 12 54 20.667 74 26c-35.333 17.333 -53 44.333 -53 81c0 28 8.16699 49.167 24.5 63.5s36.5 21.5 60.5 21.5c22 0 45.667 -6 71 -18l-12 -28c-20.667 8.66699 -40.334 13 -59.001 13
c-16.667 0 -30.167 -4.33301 -40.5 -13s-15.5 -21.667 -15.5 -39c0 -18 7.16699 -33 21.5 -45s33.5 -18 57.5 -18c5.33301 0 29.666 4.33301 72.999 13zM281.002 37l120.001 0.000976562v15c0 82 -13.833 149.833 -41.5 203.5s-65.834 80.5 -114.501 80.5
c-44.667 0 -78.834 -17.833 -102.501 -53.5s-35.5 -74.834 -35.5 -117.501s12.333 -74.667 37 -96s70.334 -32 137.001 -32zM155.003 -235.999c-33.333 0 -68.3359 4.33496 -105.003 13.002l8 33c31.333 -7.33301 65.666 -11 102.999 -11c34 0 64.667 4.33301 92 13
s49.333 19.667 66 33s30.834 29.166 42.501 47.499s20 36.166 25 53.499s8.5 35.333 10.5 54h-110c-80 0 -135.5 14.167 -166.5 42.5s-46.5 67.833 -46.5 118.5c0 60.667 15.5 110.667 46.5 150s72.5 59 124.5 59c58.667 0 104.834 -28.167 138.501 -84.5
s50.5 -131.833 50.5 -226.5v-22h84v-37h-88c-9.33301 -75.333 -37.166 -133.5 -83.499 -174.5s-110.166 -61.5 -191.499 -61.5z" />
    <glyph glyph-name="uniFE87" unicode="&#x625;" horiz-adv-x="215" arabic-form="isolated" 
d="M125 0h-35v720l35 4v-724zM226 -227c-64 -11.333 -129.998 -30.333 -197.998 -57l-10 29c29.333 12 54 20.667 74 26c-35.333 17.333 -53 44.333 -53 81c0 28 8.16699 49.167 24.5 63.5s36.5 21.5 60.5 21.5c22 0 45.667 -6 71 -18l-12 -28
c-20.667 8.66699 -40.334 13 -59.001 13c-16.667 0 -30.167 -4.33301 -40.5 -13s-15.5 -21.667 -15.5 -39c0 -18 7.16699 -33 21.5 -45s33.5 -18 57.5 -18c5.33301 0 29.666 4.33301 72.999 13z" />
    <glyph glyph-name="uniFE88" unicode="&#x625;" horiz-adv-x="312" arabic-form="final" 
d="M312 37v-36.999h-21c-76.667 0 -129.5 20.167 -158.5 60.5s-43.5 102.166 -43.5 185.499v474l35 4v-477c0 -78 13.167 -132.5 39.5 -163.5s71.5 -46.5 135.5 -46.5h13zM259 -218.999c-64 -11.333 -129.998 -30.333 -197.998 -57l-10 29c29.333 12 54 20.667 74 26
c-35.333 17.333 -53 44.333 -53 81c0 28 8.16699 49.167 24.5 63.5s36.5 21.5 60.5 21.5c22 0 45.667 -6 71 -18l-12 -28c-20.667 8.66699 -40.334 13 -59.001 13c-16.667 0 -30.167 -4.33301 -40.5 -13s-15.5 -21.667 -15.5 -39c0 -18 7.16699 -33 21.5 -45
s33.5 -18 57.5 -18c5.33301 0 29.666 4.33301 72.999 13z" />
    <glyph glyph-name="uniFE89" unicode="&#x626;" horiz-adv-x="789" arabic-form="isolated" 
d="M348 351c-64 -11.333 -129.998 -30.333 -197.998 -57l-10 29c29.333 12 54 20.667 74 26c-35.333 17.333 -53 44.333 -53 81c0 28 8.16699 49.167 24.5 63.5s36.5 21.5 60.5 21.5c22 0 45.667 -6 71 -18l-12 -28c-20.667 8.66699 -40.334 13 -59.001 13
c-16.667 0 -30.167 -4.33301 -40.5 -13s-15.5 -21.667 -15.5 -39c0 -18 7.16699 -33 21.5 -45s33.5 -18 57.5 -18c5.33301 0 29.666 4.33301 72.999 13zM357.002 -221c-89.333 0 -157.836 21.8301 -205.503 65.4971s-71.5 104.834 -71.5 183.501c0 79.333 17.333 156 52 230
l31 -15c-31.333 -68.667 -47 -138 -47 -208c0 -146 82.667 -219 248 -219c82.667 0 151.334 17.667 206.001 53s83.334 82.333 86.001 141l-30 22.5c-10.667 7.66699 -22.834 15.334 -36.501 23.001l-36 20c-10.333 5.66699 -24.666 12.834 -42.999 21.501l-41.5 19.5
l-46.5 21l-44.5 19.5v21c0 45.333 6.5 85 19.5 119s30.833 60.5 53.5 79.5s47.334 33.167 74.001 42.5s55.334 14 86.001 14c44 0 86.667 -12.667 128 -38l-16 -32c-34.667 22.667 -73 34 -115 34c-123.333 0 -189 -72.333 -197 -217c66.667 -28 121.667 -53.333 165 -76
s81.666 -48 114.999 -76c0 -76 -30 -136.5 -90 -181.5s-141.333 -67.5 -244 -67.5z" />
    <glyph glyph-name="uniFE8A" unicode="&#x626;" horiz-adv-x="777" arabic-form="final" 
d="M498 231c-64 -11.333 -129.998 -30.333 -197.998 -57l-10 29c29.333 12 54 20.667 74 26c-35.333 17.333 -53 44.333 -53 81c0 28 8.16699 49.167 24.5 63.5s36.5 21.5 60.5 21.5c22 0 45.667 -6 71 -18l-12 -28c-20.667 8.66699 -40.334 13 -59.001 13
c-16.667 0 -30.167 -4.33301 -40.5 -13s-15.5 -21.667 -15.5 -39c0 -18 7.16699 -33 21.5 -45s33.5 -18 57.5 -18c5.33301 0 29.666 4.33301 72.999 13zM351.002 -240c-87.333 0 -154.335 21 -201.002 63s-70 100.667 -70 176c0 79.333 17.333 156 52 230l30 -15
c-31.333 -68.667 -47 -138 -47 -208c0 -66 19.667 -117.333 59 -154s100.666 -55 183.999 -55c80 0 146.833 18.833 200.5 56.5s83.834 89.167 90.501 154.5c-67.333 8 -141.666 24.667 -222.999 50l11 34c48.667 -16 103.834 -29.167 165.501 -39.5
s116.834 -15.5 165.501 -15.5h9v-37h-9c-30.667 -0 -58.334 1.33301 -83.001 4c-8.66699 -72.667 -43 -131.5 -103 -176.5s-137 -67.5 -231 -67.5z" />
    <glyph glyph-name="uniFE8B" unicode="&#x626;" horiz-adv-x="321" arabic-form="initial" 
d="M217 440c-64 -11.333 -129.998 -30.333 -197.998 -57l-10 29c29.333 12 54 20.667 74 26c-35.333 17.333 -53 44.333 -53 81c0 28 8.16699 49.167 24.5 63.5s36.5 21.5 60.5 21.5c22 0 45.667 -6 71 -18l-12 -28c-20.667 8.66699 -40.334 13 -59.001 13
c-16.667 0 -30.167 -4.33301 -40.5 -13s-15.5 -21.667 -15.5 -39c0 -18 7.16699 -33 21.5 -45s33.5 -18 57.5 -18c5.33301 0 29.666 4.33301 72.999 13zM0.00195312 0c-12.667 0 -19 6 -19 18c0 12.667 6.33301 19 19 19h3c84.667 0 151 14 199 42c3.33301 21.333 5 43 5 65
c0 67.333 -9 130 -27 188l33 11c18.667 -64 28 -128 28 -192c0 -36 -3.33301 -67 -10 -93c-58 -38.667 -134 -58 -228 -58h-3z" />
    <glyph glyph-name="uniFE8C" unicode="&#x626;" horiz-adv-x="429" arabic-form="medial" 
d="M217 420c-64 -11.333 -129.998 -30.333 -197.998 -57l-10 29c29.333 12 54 20.667 74 26c-35.333 17.333 -53 44.333 -53 81c0 28 8.16699 49.167 24.5 63.5s36.5 21.5 60.5 21.5c22 0 45.667 -6 71 -18l-12 -28c-20.667 8.66699 -40.334 13 -59.001 13
c-16.667 0 -30.167 -4.33301 -40.5 -13s-15.5 -21.667 -15.5 -39c0 -18 7.16699 -33 21.5 -45s33.5 -18 57.5 -18c5.33301 0 29.666 4.33301 72.999 13zM0.00195312 0c-12.667 0 -18.999 6.00098 -18.999 18.001c0 12.667 6.33301 19 19 19h17c44 0 80 4 108 12
s48.667 20.167 62 36.5s22.166 33.166 26.499 50.499s6.5 39.666 6.5 66.999v122l34 4v-126c0 -51.333 -7.66699 -90.666 -23 -117.999c48.667 -32 112.334 -48 191.001 -48h7v-37h-6c-89.333 0 -160 19 -212 57c-36.667 -38 -102.334 -57 -197.001 -57h-14z" />
    <glyph glyph-name="uniFE8D" unicode="&#x627;" horiz-adv-x="215" arabic-form="isolated" 
d="M125 0h-35v720l35 4v-724z" />
    <glyph glyph-name="uniFE8E" unicode="&#x627;" horiz-adv-x="312" arabic-form="final" 
d="M312 37v-36.999h-21c-76.667 0 -129.5 20.167 -158.5 60.5s-43.5 102.166 -43.5 185.499v474l35 4v-477c0 -78 13.167 -132.5 39.5 -163.5s71.5 -46.5 135.5 -46.5h13z" />
    <glyph glyph-name="uniFE8F" unicode="&#x628;" horiz-adv-x="907" arabic-form="isolated" 
d="M398 -12c-63.333 0 -116.666 4.66699 -159.999 14s-76.166 23 -98.499 41s-37.833 37.5 -46.5 58.5s-13 46.167 -13 75.5c0 50 11.333 109.667 34 179l32 -9c-19.333 -69.333 -29 -123 -29 -161c0 -24 3.66699 -44.833 11 -62.5s20.666 -34.334 39.999 -50.001
s49.333 -27.667 90 -36s91.334 -12.5 152.001 -12.5c148.667 0 275 25.667 379 77c2 18.667 3 38.334 3 59.001c0 56.667 -9 120.334 -27 191.001l34 11c18.667 -67.333 28 -131.333 28 -192c0 -34.667 -3.66699 -65.667 -11 -93
c-42.667 -26.667 -100.834 -48.334 -174.501 -65.001s-154.834 -25 -243.501 -25zM436 -129l41 -38l-36 -39l-41 35z" />
    <glyph glyph-name="uniFE90" unicode="&#x628;" horiz-adv-x="1013" arabic-form="final" 
d="M997 0c-52 0 -94.0029 5.99805 -126.003 17.998s-60.333 30 -85 54c-31.333 -31.333 -78.166 -53.166 -140.499 -65.499s-144.833 -18.5 -247.5 -18.5c-63.333 0 -116.666 4.66699 -159.999 14s-76.166 23 -98.499 41s-37.833 37.5 -46.5 58.5s-13 46.167 -13 75.5
c0 55.333 11 115 33 179l32 -9c-19.333 -65.333 -29 -119 -29 -161c0 -24 3.83301 -44.833 11.5 -62.5s21.5 -34.334 41.5 -50.001s50.167 -27.667 90.5 -36s90.5 -12.5 150.5 -12.5c79.333 0 145.5 4.16699 198.5 12.5s92.833 21 119.5 38s45 35.167 55 54.5s15 43 15 71
v124l35 4v-126c0 -39.333 -8 -72.666 -24 -99.999c23.333 -21.333 49 -37.666 77 -48.999s68.333 -17 121 -17h6v-37h-16zM435.997 -129.002l41 -38l-36 -39l-41 35z" />
    <glyph glyph-name="uniFE91" unicode="&#x628;" horiz-adv-x="321" arabic-form="initial" 
d="M0 0c-12.667 0 -19 6 -19 18c0 12.667 6.33301 19 19 19h3c84.667 0 151 14 199 42c3.33301 21.333 5 43 5 65c0 67.333 -9 130 -27 188l33 11c18.667 -64 28 -128 28 -192c0 -36 -3.33301 -67 -10 -93c-58 -38.667 -134 -58 -228 -58h-3zM83 -119l41 -38l-36 -39l-41 35
z" />
    <glyph glyph-name="uniFE92" unicode="&#x628;" horiz-adv-x="429" arabic-form="medial" 
d="M0 0c-12.667 0 -18.999 6.00098 -18.999 18.001c0 12.667 6.33301 19 19 19h17c44 0 80 4 108 12s48.667 20.167 62 36.5s22.166 33.166 26.499 50.499s6.5 39.666 6.5 66.999v122l34 4v-126c0 -51.333 -7.66699 -90.666 -23 -117.999
c48.667 -32 112.334 -48 191.001 -48h7v-37h-6c-89.333 0 -160 19 -212 57c-36.667 -38 -102.334 -57 -197.001 -57h-14zM62.001 -120.999l41 -38l-36 -39l-41 35z" />
    <glyph glyph-name="uniFE93" unicode="&#x629;" horiz-adv-x="486" arabic-form="isolated" 
d="M305 576l39 -36l-34 -38l-40 34zM174 572l39 -36l-34 -38l-40 34zM218 419c66 -39.333 117.166 -83.832 153.499 -133.499s54.5 -99.834 54.5 -150.501c0 -42 -16.5 -76.5 -49.5 -103.5s-81.5 -40.5 -145.5 -40.5c-53.333 0 -95.166 12.5 -125.499 37.5
s-45.5 59.833 -45.5 104.5c0 48.667 13 95 39 139s65.667 93 119 147zM234.999 26.001c48 0 86.5 9.33301 115.5 28s43.5 44.667 43.5 78c0 41.333 -16.5 85.333 -49.5 132s-73.5 84 -121.5 112c-86.667 -84.667 -130 -161.667 -130 -231c0 -79.333 47.333 -119 142 -119z
" />
    <glyph glyph-name="uniFE94" unicode="&#x629;" horiz-adv-x="568" arabic-form="final" 
d="M400 606l39 -36l-34 -38l-40 34zM269 602l39 -36l-34 -38l-40 34zM568 0l-18 0.000976562c-83.333 0 -134.333 28 -153 84c-39.333 -5.33301 -80.333 -8 -123 -8c-132.667 0 -199 35 -199 105s34.5 129.333 103.5 178s150.5 73 244.5 73v-284
c0 -38.667 9.66699 -66.834 29 -84.501s53.333 -26.5 102 -26.5h14v-37zM280 111.001c47.333 0 84 2.33301 110 7c-0.666992 4.66699 -1 12.667 -1 24v252c-81.333 -2.66699 -148.333 -26.167 -201 -70.5s-79 -89.5 -79 -135.5c0 -51.333 57 -77 171 -77z" />
    <glyph glyph-name="uniFE95" unicode="&#x62a;" horiz-adv-x="907" arabic-form="isolated" 
d="M535 493l39 -36l-34 -38l-40 34zM404 489l39 -36l-34 -38l-40 34zM398 -12c-63.333 0 -116.666 4.66699 -159.999 14s-76.166 23 -98.499 41s-37.833 37.5 -46.5 58.5s-13 46.167 -13 75.5c0 50 11.333 109.667 34 179l32 -9c-19.333 -69.333 -29 -123 -29 -161
c0 -24 3.66699 -44.833 11 -62.5s20.666 -34.334 39.999 -50.001s49.333 -27.667 90 -36s91.334 -12.5 152.001 -12.5c148.667 0 275 25.667 379 77c2 18.667 3 38.334 3 59.001c0 56.667 -9 120.334 -27 191.001l34 11c18.667 -67.333 28 -131.333 28 -192
c0 -34.667 -3.66699 -65.667 -11 -93c-42.667 -26.667 -100.834 -48.334 -174.501 -65.001s-154.834 -25 -243.501 -25z" />
    <glyph glyph-name="uniFE96" unicode="&#x62a;" horiz-adv-x="1013" arabic-form="final" 
d="M550 476l39 -36l-34 -38l-40 34zM419 472l39 -36l-34 -38l-40 34zM997 0c-52 0 -94.0029 5.99805 -126.003 17.998s-60.333 30 -85 54c-31.333 -31.333 -78.166 -53.166 -140.499 -65.499s-144.833 -18.5 -247.5 -18.5c-63.333 0 -116.666 4.66699 -159.999 14
s-76.166 23 -98.499 41s-37.833 37.5 -46.5 58.5s-13 46.167 -13 75.5c0 55.333 11 115 33 179l32 -9c-19.333 -65.333 -29 -119 -29 -161c0 -24 3.83301 -44.833 11.5 -62.5s21.5 -34.334 41.5 -50.001s50.167 -27.667 90.5 -36s90.5 -12.5 150.5 -12.5
c79.333 0 145.5 4.16699 198.5 12.5s92.833 21 119.5 38s45 35.167 55 54.5s15 43 15 71v124l35 4v-126c0 -39.333 -8 -72.666 -24 -99.999c23.333 -21.333 49 -37.666 77 -48.999s68.333 -17 121 -17h6v-37h-16z" />
    <glyph glyph-name="uniFE97" unicode="&#x62a;" horiz-adv-x="321" arabic-form="initial" 
d="M183 500l39 -36l-34 -38l-40 34zM52 496l39 -36l-34 -38l-40 34zM0 0c-12.667 0 -19 6 -19 18c0 12.667 6.33301 19 19 19h3c84.667 0 151 14 199 42c3.33301 21.333 5 43 5 65c0 67.333 -9 130 -27 188l33 11c18.667 -64 28 -128 28 -192c0 -36 -3.33301 -67 -10 -93
c-58 -38.667 -134 -58 -228 -58h-3z" />
    <glyph glyph-name="uniFE98" unicode="&#x62a;" horiz-adv-x="429" arabic-form="medial" 
d="M198 495l39 -36l-34 -38l-40 34zM67 491l39 -36l-34 -38l-40 34zM0 0c-12.667 0 -18.999 6.00098 -18.999 18.001c0 12.667 6.33301 19 19 19h17c44 0 80 4 108 12s48.667 20.167 62 36.5s22.166 33.166 26.499 50.499s6.5 39.666 6.5 66.999v122l34 4v-126
c0 -51.333 -7.66699 -90.666 -23 -117.999c48.667 -32 112.334 -48 191.001 -48h7v-37h-6c-89.333 0 -160 19 -212 57c-36.667 -38 -102.334 -57 -197.001 -57h-14z" />
    <glyph glyph-name="uniFE99" unicode="&#x62b;" horiz-adv-x="907" arabic-form="isolated" 
d="M474 568l39 -36l-35 -37l-38 33zM542 471l39 -36l-35 -37l-38 33zM412 467l39 -36l-35 -37l-38 33zM398 -12c-63.333 0 -116.666 4.66699 -159.999 14s-76.166 23 -98.499 41s-37.833 37.5 -46.5 58.5s-13 46.167 -13 75.5c0 50 11.333 109.667 34 179l32 -9
c-19.333 -69.333 -29 -123 -29 -161c0 -24 3.66699 -44.833 11 -62.5s20.666 -34.334 39.999 -50.001s49.333 -27.667 90 -36s91.334 -12.5 152.001 -12.5c148.667 0 275 25.667 379 77c2 18.667 3 38.334 3 59.001c0 56.667 -9 120.334 -27 191.001l34 11
c18.667 -67.333 28 -131.333 28 -192c0 -34.667 -3.66699 -65.667 -11 -93c-42.667 -26.667 -100.834 -48.334 -174.501 -65.001s-154.834 -25 -243.501 -25z" />
    <glyph glyph-name="uniFE9A" unicode="&#x62b;" horiz-adv-x="1013" arabic-form="final" 
d="M484 558l39 -36l-35 -37l-38 33zM552 461l39 -36l-35 -37l-38 33zM422 457l39 -36l-35 -37l-38 33zM997 0c-52 0 -94.0029 5.99805 -126.003 17.998s-60.333 30 -85 54c-31.333 -31.333 -78.166 -53.166 -140.499 -65.499s-144.833 -18.5 -247.5 -18.5
c-63.333 0 -116.666 4.66699 -159.999 14s-76.166 23 -98.499 41s-37.833 37.5 -46.5 58.5s-13 46.167 -13 75.5c0 55.333 11 115 33 179l32 -9c-19.333 -65.333 -29 -119 -29 -161c0 -24 3.83301 -44.833 11.5 -62.5s21.5 -34.334 41.5 -50.001s50.167 -27.667 90.5 -36
s90.5 -12.5 150.5 -12.5c79.333 0 145.5 4.16699 198.5 12.5s92.833 21 119.5 38s45 35.167 55 54.5s15 43 15 71v124l35 4v-126c0 -39.333 -8 -72.666 -24 -99.999c23.333 -21.333 49 -37.666 77 -48.999s68.333 -17 121 -17h6v-37h-16z" />
    <glyph glyph-name="uniFE9B" unicode="&#x62b;" horiz-adv-x="321" arabic-form="initial" 
d="M99 578l39 -36l-35 -37l-38 33zM167 481l39 -36l-35 -37l-38 33zM37 477l39 -36l-35 -37l-38 33zM0 0c-12.667 0 -19 6 -19 18c0 12.667 6.33301 19 19 19h3c84.667 0 151 14 199 42c3.33301 21.333 5 43 5 65c0 67.333 -9 130 -27 188l33 11c18.667 -64 28 -128 28 -192
c0 -36 -3.33301 -67 -10 -93c-58 -38.667 -134 -58 -228 -58h-3z" />
    <glyph glyph-name="uniFE9C" unicode="&#x62b;" horiz-adv-x="429" arabic-form="medial" 
d="M129 583l39 -36l-35 -37l-38 33zM197 486l39 -36l-35 -37l-38 33zM67 482l39 -36l-35 -37l-38 33zM0 0c-12.667 0 -18.999 6.00098 -18.999 18.001c0 12.667 6.33301 19 19 19h17c44 0 80 4 108 12s48.667 20.167 62 36.5s22.166 33.166 26.499 50.499
s6.5 39.666 6.5 66.999v122l34 4v-126c0 -51.333 -7.66699 -90.666 -23 -117.999c48.667 -32 112.334 -48 191.001 -48h7v-37h-6c-89.333 0 -160 19 -212 57c-36.667 -38 -102.334 -57 -197.001 -57h-14z" />
    <glyph glyph-name="uniFE9D" unicode="&#x62c;" horiz-adv-x="636" arabic-form="isolated" 
d="M345 -274c-84.667 0 -150.002 19.1641 -196.002 57.4971s-69 90.5 -69 156.5c0 47.333 11.833 90 35.5 128s57.5 70.333 101.5 97s90.333 48.834 139 66.501s104.667 33.834 168 48.501c-28 13.333 -65 33.833 -111 61.5s-85.167 48.5 -117.5 62.5s-62.5 21 -90.5 21
c-38.667 0 -70.334 -20.667 -95.001 -62l-29 13c14.667 31.333 32 53 52 65s45 18 75 18c32 0 67.833 -9.16699 107.5 -27.5s85.334 -43.166 137.001 -74.499s93.834 -54.333 126.501 -69l-11 -31c-66.667 -14 -125.5 -29.667 -176.5 -47s-98.333 -38.333 -142 -63
s-77.167 -54 -100.5 -88s-35 -71.667 -35 -113c0 -59.333 21.333 -104.833 64 -136.5s100.334 -47.5 173.001 -47.5c78.667 0 159.667 19 243 57l12 -28c-78 -43.333 -165 -65 -261 -65zM364.998 34.9971l41 -38l-36 -39l-41 35z" />
    <glyph glyph-name="uniFE9E" unicode="&#x62c;" horiz-adv-x="711" arabic-form="final" 
d="M596 -270c-76.667 -43.333 -158.666 -65 -245.999 -65c-86 0 -152.5 18.667 -199.5 56s-70.5 88.333 -70.5 153c0 150.667 123.667 253 371 307c-93.333 102.667 -169.666 154 -228.999 154c-27.333 0 -48.833 -4.5 -64.5 -13.5s-31.167 -26.833 -46.5 -53.5l-29 13
c15.333 33.333 33.833 56.5 55.5 69.5s51.167 19.5 88.5 19.5c41.333 0 83.833 -17 127.5 -51s92.167 -81.333 145.5 -142c3.33301 -3.33301 10.333 -11.166 21 -23.499l21 -24l19 -20.5c9.33301 -10 16.5 -16.833 21.5 -20.5s12 -9.16699 21 -16.5s16.667 -12.333 23 -15
l23 -10c9 -4 18 -6.66699 27 -8s18.5 -2 28.5 -2h7v-37h-9c-12.667 0 -25.167 1.5 -37.5 4.5s-22.833 5.66699 -31.5 8s-19 7.83301 -31 16.5s-20.667 14.667 -26 18s-14.5 11.666 -27.5 24.999l-23.5 24c-2.66699 2.66699 -11.334 12.5 -26.001 29.5
s-22.667 26.167 -24 27.5c-114.667 -27.333 -203.334 -62.5 -266.001 -105.5s-94 -98.833 -94 -167.5c0 -58 21.667 -102.333 65 -133s102 -46 176 -46c70.667 0 146.667 19 228 57zM357.001 -43l41 -38l-36 -39l-41 35z" />
    <glyph glyph-name="uniFE9F" unicode="&#x62c;" horiz-adv-x="690" arabic-form="initial" 
d="M0 0c-12.667 0 -19.001 6.00098 -19.001 18.001c0 12.667 6.33301 19 19 19h8c54 0 106.167 2.5 156.5 7.5s98.833 12.833 145.5 23.5s83.334 19.5 110.001 26.5s61.334 17.5 104.001 31.5l76 25c-28 15.333 -70.5 41.166 -127.5 77.499s-103.5 62.5 -139.5 78.5
s-71 24 -105 24c-20 0 -36.5 -4.33301 -49.5 -13s-25.167 -25 -36.5 -49l-30 13c13.333 30.667 29.166 52.167 47.499 64.5s41.833 18.5 70.5 18.5c38.667 0 78.334 -9.5 119.001 -28.5s91 -47.833 151 -86.5s110 -68 150 -88l-14 -34
c-10.667 -2.66699 -56 -17.5 -136 -44.5s-157.833 -47.667 -233.5 -62s-158.834 -21.5 -249.501 -21.5h-17zM318.999 -97.999l41 -38l-36 -39l-41 35z" />
    <glyph glyph-name="uniFEA0" unicode="&#x62c;" horiz-adv-x="820" arabic-form="medial" 
d="M0 0c-12.667 0 -18.999 5.99902 -18.999 17.999c0 12.667 6.33301 19 19 19h13c184 0 366.333 21 547 63c-98.667 86 -174 147.667 -226 185s-94 56 -126 56c-19.333 0 -35.5 -4.33301 -48.5 -13s-25.833 -25 -38.5 -49l-29 13c13.333 30.667 29.166 52.167 47.499 64.5
s41.833 18.5 70.5 18.5c20.667 0 42.5 -4.66699 65.5 -14s52.667 -27.5 89 -54.5s63.666 -48.167 81.999 -63.5l105.5 -91c12.667 -11.333 22.334 -19.666 29.001 -24.999c46 -40 82.667 -65 110 -75s65 -15 113 -15h16v-37h-23c-47.333 0 -85 5.16699 -113 15.5
s-60 30.833 -96 61.5c-184.667 -51.333 -376.667 -77 -576 -77h-12zM338.001 -108.001l41 -38l-36 -39l-41 35z" />
    <glyph glyph-name="uniFEA1" unicode="&#x62d;" horiz-adv-x="636" arabic-form="isolated" 
d="M345 -274c-84.667 0 -150.002 19.1641 -196.002 57.4971s-69 90.5 -69 156.5c0 47.333 11.833 90 35.5 128s57.5 70.333 101.5 97s90.333 48.834 139 66.501s104.667 33.834 168 48.501c-28 13.333 -65 33.833 -111 61.5s-85.167 48.5 -117.5 62.5s-62.5 21 -90.5 21
c-38.667 0 -70.334 -20.667 -95.001 -62l-29 13c14.667 31.333 32 53 52 65s45 18 75 18c32 0 67.833 -9.16699 107.5 -27.5s85.334 -43.166 137.001 -74.499s93.834 -54.333 126.501 -69l-11 -31c-66.667 -14 -125.5 -29.667 -176.5 -47s-98.333 -38.333 -142 -63
s-77.167 -54 -100.5 -88s-35 -71.667 -35 -113c0 -59.333 21.333 -104.833 64 -136.5s100.334 -47.5 173.001 -47.5c78.667 0 159.667 19 243 57l12 -28c-78 -43.333 -165 -65 -261 -65z" />
    <glyph glyph-name="uniFEA2" unicode="&#x62d;" horiz-adv-x="711" arabic-form="final" 
d="M596 -270c-76.667 -43.333 -158.666 -65 -245.999 -65c-86 0 -152.5 18.667 -199.5 56s-70.5 88.333 -70.5 153c0 150.667 123.667 253 371 307c-93.333 102.667 -169.666 154 -228.999 154c-27.333 0 -48.833 -4.5 -64.5 -13.5s-31.167 -26.833 -46.5 -53.5l-29 13
c15.333 33.333 33.833 56.5 55.5 69.5s51.167 19.5 88.5 19.5c41.333 0 83.833 -17 127.5 -51s92.167 -81.333 145.5 -142c3.33301 -3.33301 10.333 -11.166 21 -23.499l21 -24l19 -20.5c9.33301 -10 16.5 -16.833 21.5 -20.5s12 -9.16699 21 -16.5s16.667 -12.333 23 -15
l23 -10c9 -4 18 -6.66699 27 -8s18.5 -2 28.5 -2h7v-37h-9c-12.667 0 -25.167 1.5 -37.5 4.5s-22.833 5.66699 -31.5 8s-19 7.83301 -31 16.5s-20.667 14.667 -26 18s-14.5 11.666 -27.5 24.999l-23.5 24c-2.66699 2.66699 -11.334 12.5 -26.001 29.5
s-22.667 26.167 -24 27.5c-114.667 -27.333 -203.334 -62.5 -266.001 -105.5s-94 -98.833 -94 -167.5c0 -58 21.667 -102.333 65 -133s102 -46 176 -46c70.667 0 146.667 19 228 57z" />
    <glyph glyph-name="uniFEA3" unicode="&#x62d;" horiz-adv-x="690" arabic-form="initial" 
d="M0 0c-12.667 0 -19.001 6.00098 -19.001 18.001c0 12.667 6.33301 19 19 19h8c54 0 106.167 2.5 156.5 7.5s98.833 12.833 145.5 23.5s83.334 19.5 110.001 26.5s61.334 17.5 104.001 31.5l76 25c-28 15.333 -70.5 41.166 -127.5 77.499s-103.5 62.5 -139.5 78.5
s-71 24 -105 24c-20 0 -36.5 -4.33301 -49.5 -13s-25.167 -25 -36.5 -49l-30 13c13.333 30.667 29.166 52.167 47.499 64.5s41.833 18.5 70.5 18.5c38.667 0 78.334 -9.5 119.001 -28.5s91 -47.833 151 -86.5s110 -68 150 -88l-14 -34
c-10.667 -2.66699 -56 -17.5 -136 -44.5s-157.833 -47.667 -233.5 -62s-158.834 -21.5 -249.501 -21.5h-17z" />
    <glyph glyph-name="uniFEA4" unicode="&#x62d;" horiz-adv-x="820" arabic-form="medial" 
d="M0 0c-12.667 0 -18.999 5.99902 -18.999 17.999c0 12.667 6.33301 19 19 19h13c184 0 366.333 21 547 63c-98.667 86 -174 147.667 -226 185s-94 56 -126 56c-19.333 0 -35.5 -4.33301 -48.5 -13s-25.833 -25 -38.5 -49l-29 13c13.333 30.667 29.166 52.167 47.499 64.5
s41.833 18.5 70.5 18.5c20.667 0 42.5 -4.66699 65.5 -14s52.667 -27.5 89 -54.5s63.666 -48.167 81.999 -63.5l105.5 -91c12.667 -11.333 22.334 -19.666 29.001 -24.999c46 -40 82.667 -65 110 -75s65 -15 113 -15h16v-37h-23c-47.333 0 -85 5.16699 -113 15.5
s-60 30.833 -96 61.5c-184.667 -51.333 -376.667 -77 -576 -77h-12z" />
    <glyph glyph-name="uniFEA5" unicode="&#x62e;" horiz-adv-x="636" arabic-form="isolated" 
d="M340 599l41 -38l-36 -39l-41 35zM345 -274c-84.667 0 -150.002 19.1641 -196.002 57.4971s-69 90.5 -69 156.5c0 47.333 11.833 90 35.5 128s57.5 70.333 101.5 97s90.333 48.834 139 66.501s104.667 33.834 168 48.501c-28 13.333 -65 33.833 -111 61.5
s-85.167 48.5 -117.5 62.5s-62.5 21 -90.5 21c-38.667 0 -70.334 -20.667 -95.001 -62l-29 13c14.667 31.333 32 53 52 65s45 18 75 18c32 0 67.833 -9.16699 107.5 -27.5s85.334 -43.166 137.001 -74.499s93.834 -54.333 126.501 -69l-11 -31
c-66.667 -14 -125.5 -29.667 -176.5 -47s-98.333 -38.333 -142 -63s-77.167 -54 -100.5 -88s-35 -71.667 -35 -113c0 -59.333 21.333 -104.833 64 -136.5s100.334 -47.5 173.001 -47.5c78.667 0 159.667 19 243 57l12 -28c-78 -43.333 -165 -65 -261 -65z" />
    <glyph glyph-name="uniFEA6" unicode="&#x62e;" horiz-adv-x="711" arabic-form="final" 
d="M290 534l41 -38l-36 -39l-41 35zM596 -270c-76.667 -43.333 -158.666 -65 -245.999 -65c-86 0 -152.5 18.667 -199.5 56s-70.5 88.333 -70.5 153c0 150.667 123.667 253 371 307c-93.333 102.667 -169.666 154 -228.999 154c-27.333 0 -48.833 -4.5 -64.5 -13.5
s-31.167 -26.833 -46.5 -53.5l-29 13c15.333 33.333 33.833 56.5 55.5 69.5s51.167 19.5 88.5 19.5c41.333 0 83.833 -17 127.5 -51s92.167 -81.333 145.5 -142c3.33301 -3.33301 10.333 -11.166 21 -23.499l21 -24l19 -20.5c9.33301 -10 16.5 -16.833 21.5 -20.5
s12 -9.16699 21 -16.5s16.667 -12.333 23 -15l23 -10c9 -4 18 -6.66699 27 -8s18.5 -2 28.5 -2h7v-37h-9c-12.667 0 -25.167 1.5 -37.5 4.5s-22.833 5.66699 -31.5 8s-19 7.83301 -31 16.5s-20.667 14.667 -26 18s-14.5 11.666 -27.5 24.999l-23.5 24
c-2.66699 2.66699 -11.334 12.5 -26.001 29.5s-22.667 26.167 -24 27.5c-114.667 -27.333 -203.334 -62.5 -266.001 -105.5s-94 -98.833 -94 -167.5c0 -58 21.667 -102.333 65 -133s102 -46 176 -46c70.667 0 146.667 19 228 57z" />
    <glyph glyph-name="uniFEA7" unicode="&#x62e;" horiz-adv-x="690" arabic-form="initial" 
d="M290 529l41 -38l-36 -39l-41 35zM0 0c-12.667 0 -19.001 6.00098 -19.001 18.001c0 12.667 6.33301 19 19 19h8c54 0 106.167 2.5 156.5 7.5s98.833 12.833 145.5 23.5s83.334 19.5 110.001 26.5s61.334 17.5 104.001 31.5l76 25c-28 15.333 -70.5 41.166 -127.5 77.499
s-103.5 62.5 -139.5 78.5s-71 24 -105 24c-20 0 -36.5 -4.33301 -49.5 -13s-25.167 -25 -36.5 -49l-30 13c13.333 30.667 29.166 52.167 47.499 64.5s41.833 18.5 70.5 18.5c38.667 0 78.334 -9.5 119.001 -28.5s91 -47.833 151 -86.5s110 -68 150 -88l-14 -34
c-10.667 -2.66699 -56 -17.5 -136 -44.5s-157.833 -47.667 -233.5 -62s-158.834 -21.5 -249.501 -21.5h-17z" />
    <glyph glyph-name="uniFEA8" unicode="&#x62e;" horiz-adv-x="820" arabic-form="medial" 
d="M290 524l41 -38l-36 -39l-41 35zM0 0c-12.667 0 -18.999 5.99902 -18.999 17.999c0 12.667 6.33301 19 19 19h13c184 0 366.333 21 547 63c-98.667 86 -174 147.667 -226 185s-94 56 -126 56c-19.333 0 -35.5 -4.33301 -48.5 -13s-25.833 -25 -38.5 -49l-29 13
c13.333 30.667 29.166 52.167 47.499 64.5s41.833 18.5 70.5 18.5c20.667 0 42.5 -4.66699 65.5 -14s52.667 -27.5 89 -54.5s63.666 -48.167 81.999 -63.5l105.5 -91c12.667 -11.333 22.334 -19.666 29.001 -24.999c46 -40 82.667 -65 110 -75s65 -15 113 -15h16v-37h-23
c-47.333 0 -85 5.16699 -113 15.5s-60 30.833 -96 61.5c-184.667 -51.333 -376.667 -77 -576 -77h-12z" />
    <glyph glyph-name="uniFEA9" unicode="&#x62f;" horiz-adv-x="513" arabic-form="isolated" 
d="M171 -12c-47.333 0 -91.001 3.33105 -131.001 9.99805v36c50.667 -6 97.334 -9 140.001 -9c84 0 158 13.667 222 41c-2.66699 60.667 -20.834 118.334 -54.501 173.001s-86.167 115 -157.5 181l24 24c78.667 -69.333 134.834 -135.166 168.501 -197.499
s50.5 -117.5 50.5 -165.5c0 -16 -1.33301 -29 -4 -39c-63.333 -36 -149.333 -54 -258 -54z" />
    <glyph glyph-name="uniFEAA" unicode="&#x62f;" horiz-adv-x="535" arabic-form="final" 
d="M512 0c-45.333 0 -78.667 15.667 -100 47c-69.333 -38 -155.666 -57 -258.999 -57c-42 0 -79.667 2.66699 -113 8v36c37.333 -4.66699 75.666 -7 114.999 -7c92.667 0 172.667 16.333 240 49l-22 51c-43.333 106.667 -99 201 -167 283l24 24
c67.333 -77.333 125.666 -175.333 174.999 -294c18 -46 33.833 -74.667 47.5 -86s37.834 -17 72.501 -17h10v-37h-23z" />
    <glyph glyph-name="uniFEAB" unicode="&#x630;" horiz-adv-x="513" arabic-form="isolated" 
d="M208 604l41 -38l-36 -39l-41 35zM171 -12c-47.333 0 -91.001 3.33105 -131.001 9.99805v36c50.667 -6 97.334 -9 140.001 -9c84 0 158 13.667 222 41c-2.66699 60.667 -20.834 118.334 -54.501 173.001s-86.167 115 -157.5 181l24 24
c78.667 -69.333 134.834 -135.166 168.501 -197.499s50.5 -117.5 50.5 -165.5c0 -16 -1.33301 -29 -4 -39c-63.333 -36 -149.333 -54 -258 -54z" />
    <glyph glyph-name="uniFEAC" unicode="&#x630;" horiz-adv-x="535" arabic-form="final" 
d="M218 604l41 -38l-36 -39l-41 35zM512 0c-45.333 0 -78.667 15.667 -100 47c-69.333 -38 -155.666 -57 -258.999 -57c-42 0 -79.667 2.66699 -113 8v36c37.333 -4.66699 75.666 -7 114.999 -7c92.667 0 172.667 16.333 240 49l-22 51c-43.333 106.667 -99 201 -167 283
l24 24c67.333 -77.333 125.666 -175.333 174.999 -294c18 -46 33.833 -74.667 47.5 -86s37.834 -17 72.501 -17h10v-37h-23z" />
    <glyph glyph-name="uniFEAD" unicode="&#x631;" horiz-adv-x="398" arabic-form="isolated" 
d="M318 78c0 -102.667 -23.667 -179.997 -71 -231.997s-108.333 -78 -183 -78c-20.667 0 -42 2 -64 6l8 34c16.667 -3.33301 35.667 -5 57 -5c37.333 0 70.5 7.66699 99.5 23s52 36.166 69 62.499s29.833 55.666 38.5 87.999s13 66.5 13 102.5
c0 65.333 -10.667 143.666 -32 234.999l35 10c20 -88 30 -170 30 -246z" />
    <glyph glyph-name="uniFEAE" unicode="&#x631;" horiz-adv-x="514" arabic-form="final" 
d="M64 -232c-20.667 0 -41.999 2.00195 -63.999 6.00195l8 34c16.667 -3.33301 35.667 -5 57 -5c37.333 0 70.666 7.66699 99.999 23s52.5 36.166 69.5 62.499s29.833 55.666 38.5 87.999s13 66.5 13 102.5c0 50 -13.667 128.667 -41 236l33 9l17.5 -78
c7 -32 13.167 -58.333 18.5 -79c10.667 -43.333 31.167 -75.833 61.5 -97.5s67.166 -32.5 110.499 -32.5h28v-37h-36c-75.333 0 -128.666 29 -159.999 87v-9c0 -102.667 -23.667 -180 -71 -232s-108.333 -78 -183 -78z" />
    <glyph glyph-name="uniFEAF" unicode="&#x632;" horiz-adv-x="398" arabic-form="isolated" 
d="M248 502l41 -38l-36 -39l-41 35zM318 78c0 -102.667 -23.667 -179.997 -71 -231.997s-108.333 -78 -183 -78c-20.667 0 -42 2 -64 6l8 34c16.667 -3.33301 35.667 -5 57 -5c37.333 0 70.5 7.66699 99.5 23s52 36.166 69 62.499s29.833 55.666 38.5 87.999
s13 66.5 13 102.5c0 65.333 -10.667 143.666 -32 234.999l35 10c20 -88 30 -170 30 -246z" />
    <glyph glyph-name="uniFEB0" unicode="&#x632;" horiz-adv-x="514" arabic-form="final" 
d="M238 502l41 -38l-36 -39l-41 35zM64 -232c-20.667 0 -41.999 2.00195 -63.999 6.00195l8 34c16.667 -3.33301 35.667 -5 57 -5c37.333 0 70.666 7.66699 99.999 23s52.5 36.166 69.5 62.499s29.833 55.666 38.5 87.999s13 66.5 13 102.5c0 50 -13.667 128.667 -41 236
l33 9l17.5 -78c7 -32 13.167 -58.333 18.5 -79c10.667 -43.333 31.167 -75.833 61.5 -97.5s67.166 -32.5 110.499 -32.5h28v-37h-36c-75.333 0 -128.666 29 -159.999 87v-9c0 -102.667 -23.667 -180 -71 -232s-108.333 -78 -183 -78z" />
    <glyph glyph-name="uniFEB1" unicode="&#x633;" horiz-adv-x="1368" arabic-form="isolated" 
d="M347 -241c-86.667 0 -152.834 20.0029 -198.501 60.0029s-68.5 96.333 -68.5 169c0 79.333 17.333 156 52 230l31 -14c-31.333 -68.667 -47 -138.334 -47 -209.001c0 -61.333 19.333 -109.833 58 -145.5s98.667 -53.5 180 -53.5c92.667 0 165.5 21.667 218.5 65
s79.5 101 79.5 173c0 78 -12.667 157.667 -38 239l33 12c24.667 -84 38 -157.667 40 -221c34.667 -22 78 -33 130 -33c44.667 0 83.334 9.83301 116.001 29.5s49 48.834 49 87.501v132l34 4v-125c0 -82 39 -123 117 -123c42.667 0 81.667 11 117 33c2.66699 16 4 36 4 60
c0 55.333 -8.33301 114.666 -25 177.999l35 10c16 -62.667 24 -122 24 -178c0 -38.667 -4.33301 -71.334 -13 -98.001c-26 -14.667 -49.5 -25.334 -70.5 -32.001s-47.5 -10 -79.5 -10c-68.667 0 -111.667 28.333 -129 85c-10 -28 -33.333 -50 -70 -66
s-74.334 -24 -113.001 -24c-52.667 0 -95 8.33301 -127 25c-5.33301 -80.667 -37.166 -144.167 -95.499 -190.5s-139.5 -69.5 -243.5 -69.5z" />
    <glyph glyph-name="uniFEB2" unicode="&#x633;" horiz-adv-x="1491" arabic-form="final" 
d="M347 -241c-86.667 0 -152.833 20 -198.5 60s-68.5 96.333 -68.5 169c0 79.333 17.333 156 52 230l31 -14c-31.333 -68.667 -47 -138.334 -47 -209.001c0 -61.333 19.333 -109.833 58 -145.5s98.667 -53.5 180 -53.5c92.667 0 165.5 21.667 218.5 65s79.5 101 79.5 173
c0 78 -12.667 157.667 -38 239l33 12c24.667 -84 38 -157.333 40 -220c31.333 -22.667 74.666 -34 129.999 -34c44.667 0 83.334 9.83301 116.001 29.5s49 48.834 49 87.501v132l34 4v-125c0 -82 39 -123 117 -123c48.667 0 83 11.333 103 34s30 54.334 30 95.001v124l34 4
v-120c0 -28.667 -3.33301 -53 -10 -73c47.333 -42 112 -63 194 -63h7v-37h-16c-79.333 0 -146.333 21.333 -201 64c-26 -43.333 -73.667 -65 -143 -65c-72.667 0 -117.667 28.333 -135 85c-10 -28 -33.333 -50 -70 -66s-74.334 -24 -113.001 -24
c-54 0 -96.333 8.66699 -127 26c-5.33301 -80.667 -37.166 -144.334 -95.499 -191.001s-139.5 -70 -243.5 -70z" />
    <glyph glyph-name="uniFEB3" unicode="&#x633;" horiz-adv-x="864" arabic-form="initial" 
d="M621 -1c-68.667 0 -111.667 28.335 -129 85.002c-10 -28 -33.333 -50 -70 -66s-74.334 -24 -113.001 -24c-68 0 -121.333 16 -160 48c-30 -28 -75.333 -42 -136 -42h-13c-12.667 0 -19 6 -19 18c0 12.667 6.33301 19 19 19h30c41.333 0 72.5 8.66699 93.5 26
s33.167 51 36.5 101l6 87l34 5l-6 -102c-2 -32 -9.33301 -59.333 -22 -82c36.667 -27.333 83.667 -41 141 -41c44.667 0 83.334 9.83301 116.001 29.5s49 48.834 49 87.501v132l34 4v-125c0 -82 39 -123 117 -123c42.667 0 81.667 11 117 33c2.66699 16 4 36 4 60
c0 55.333 -8.33301 114.666 -25 177.999l35 10c16 -62.667 24 -122 24 -178c0 -38.667 -4.33301 -71.334 -13 -98.001c-26 -14.667 -49.5 -25.334 -70.5 -32.001s-47.5 -10 -79.5 -10z" />
    <glyph glyph-name="uniFEB4" unicode="&#x633;" horiz-adv-x="987" arabic-form="medial" 
d="M627 -1c-74 0 -119.334 28.3311 -136.001 84.998c-10 -28 -33.333 -50 -70 -66s-74.334 -24 -113.001 -24c-67.333 0 -120.333 16 -159 48c-30 -28 -75.333 -42 -136 -42h-13c-12.667 0 -19 6 -19 18c0 12.667 6.33301 19 19 19h30c41.333 0 72.5 8.66699 93.5 26
s33.167 51 36.5 101l6 89l34 3l-6 -102c-2 -32 -9.33301 -59.333 -22 -82c36.667 -27.333 83.334 -41 140.001 -41c44.667 0 83.334 9.83301 116.001 29.5s49 48.834 49 87.501v127l34 3v-119c0 -82 39.333 -123 118 -123c48 0 82 11.333 102 34s30 54.334 30 95.001v124
l34 4v-120c0 -28 -3 -52 -9 -72c45.333 -42.667 110 -64 194 -64h7v-37h-16c-80.667 -0 -147.667 21.333 -201 64c-26 -43.333 -73.667 -65 -143 -65z" />
    <glyph glyph-name="uniFEB5" unicode="&#x634;" horiz-adv-x="1368" arabic-form="isolated" 
d="M1002 583l39 -36l-35 -37l-38 33zM1070 486l39 -36l-35 -37l-38 33zM940 482l39 -36l-35 -37l-38 33zM347 -241c-86.667 0 -152.834 20.0029 -198.501 60.0029s-68.5 96.333 -68.5 169c0 79.333 17.333 156 52 230l31 -14c-31.333 -68.667 -47 -138.334 -47 -209.001
c0 -61.333 19.333 -109.833 58 -145.5s98.667 -53.5 180 -53.5c92.667 0 165.5 21.667 218.5 65s79.5 101 79.5 173c0 78 -12.667 157.667 -38 239l33 12c24.667 -84 38 -157.667 40 -221c34.667 -22 78 -33 130 -33c44.667 0 83.334 9.83301 116.001 29.5
s49 48.834 49 87.501v132l34 4v-125c0 -82 39 -123 117 -123c42.667 0 81.667 11 117 33c2.66699 16 4 36 4 60c0 55.333 -8.33301 114.666 -25 177.999l35 10c16 -62.667 24 -122 24 -178c0 -38.667 -4.33301 -71.334 -13 -98.001c-26 -14.667 -49.5 -25.334 -70.5 -32.001
s-47.5 -10 -79.5 -10c-68.667 0 -111.667 28.333 -129 85c-10 -28 -33.333 -50 -70 -66s-74.334 -24 -113.001 -24c-52.667 0 -95 8.33301 -127 25c-5.33301 -80.667 -37.166 -144.167 -95.499 -190.5s-139.5 -69.5 -243.5 -69.5z" />
    <glyph glyph-name="uniFEB6" unicode="&#x634;" horiz-adv-x="1491" arabic-form="final" 
d="M1002 583l39 -36l-35 -37l-38 33zM1070 486l39 -36l-35 -37l-38 33zM940 482l39 -36l-35 -37l-38 33zM347 -241c-86.667 0 -152.833 20 -198.5 60s-68.5 96.333 -68.5 169c0 79.333 17.333 156 52 230l31 -14c-31.333 -68.667 -47 -138.334 -47 -209.001
c0 -61.333 19.333 -109.833 58 -145.5s98.667 -53.5 180 -53.5c92.667 0 165.5 21.667 218.5 65s79.5 101 79.5 173c0 78 -12.667 157.667 -38 239l33 12c24.667 -84 38 -157.333 40 -220c31.333 -22.667 74.666 -34 129.999 -34c44.667 0 83.334 9.83301 116.001 29.5
s49 48.834 49 87.501v132l34 4v-125c0 -82 39 -123 117 -123c48.667 0 83 11.333 103 34s30 54.334 30 95.001v124l34 4v-120c0 -28.667 -3.33301 -53 -10 -73c47.333 -42 112 -63 194 -63h7v-37h-16c-79.333 0 -146.333 21.333 -201 64c-26 -43.333 -73.667 -65 -143 -65
c-72.667 0 -117.667 28.333 -135 85c-10 -28 -33.333 -50 -70 -66s-74.334 -24 -113.001 -24c-54 0 -96.333 8.66699 -127 26c-5.33301 -80.667 -37.166 -144.334 -95.499 -191.001s-139.5 -70 -243.5 -70z" />
    <glyph glyph-name="uniFEB7" unicode="&#x634;" horiz-adv-x="864" arabic-form="initial" 
d="M478 583l39 -36l-35 -37l-38 33zM546 486l39 -36l-35 -37l-38 33zM416 482l39 -36l-35 -37l-38 33zM621 -1c-68.667 0 -111.667 28.335 -129 85.002c-10 -28 -33.333 -50 -70 -66s-74.334 -24 -113.001 -24c-68 0 -121.333 16 -160 48c-30 -28 -75.333 -42 -136 -42h-13
c-12.667 0 -19 6 -19 18c0 12.667 6.33301 19 19 19h30c41.333 0 72.5 8.66699 93.5 26s33.167 51 36.5 101l6 87l34 5l-6 -102c-2 -32 -9.33301 -59.333 -22 -82c36.667 -27.333 83.667 -41 141 -41c44.667 0 83.334 9.83301 116.001 29.5s49 48.834 49 87.501v132l34 4
v-125c0 -82 39 -123 117 -123c42.667 0 81.667 11 117 33c2.66699 16 4 36 4 60c0 55.333 -8.33301 114.666 -25 177.999l35 10c16 -62.667 24 -122 24 -178c0 -38.667 -4.33301 -71.334 -13 -98.001c-26 -14.667 -49.5 -25.334 -70.5 -32.001s-47.5 -10 -79.5 -10z" />
    <glyph glyph-name="uniFEB8" unicode="&#x634;" horiz-adv-x="987" arabic-form="medial" 
d="M478 583l39 -36l-35 -37l-38 33zM546 486l39 -36l-35 -37l-38 33zM416 482l39 -36l-35 -37l-38 33zM627 -1c-74 0 -119.334 28.3311 -136.001 84.998c-10 -28 -33.333 -50 -70 -66s-74.334 -24 -113.001 -24c-67.333 0 -120.333 16 -159 48c-30 -28 -75.333 -42 -136 -42
h-13c-12.667 0 -19 6 -19 18c0 12.667 6.33301 19 19 19h30c41.333 0 72.5 8.66699 93.5 26s33.167 51 36.5 101l6 89l34 3l-6 -102c-2 -32 -9.33301 -59.333 -22 -82c36.667 -27.333 83.334 -41 140.001 -41c44.667 0 83.334 9.83301 116.001 29.5s49 48.834 49 87.501v127
l34 3v-119c0 -82 39.333 -123 118 -123c48 0 82 11.333 102 34s30 54.334 30 95.001v124l34 4v-120c0 -28 -3 -52 -9 -72c45.333 -42.667 110 -64 194 -64h7v-37h-16c-80.667 -0 -147.667 21.333 -201 64c-26 -43.333 -73.667 -65 -143 -65z" />
    <glyph glyph-name="uniFEB9" unicode="&#x635;" horiz-adv-x="1372" arabic-form="isolated" 
d="M964 32c107.333 0 205 16.001 293 48.001c1.33301 26.667 2 45.667 2 57c0 70 -15 122.167 -45 156.5s-70.333 51.5 -121 51.5c-65.333 0 -125.666 -20.333 -180.999 -61s-122.333 -113.334 -201 -218.001c73.333 -22.667 157.666 -34 252.999 -34zM347 -240.999
c-86.667 0 -152.832 20.001 -198.499 60.001s-68.5 96.333 -68.5 169c0 79.333 17.333 156 52 230l31 -14c-31.333 -68.667 -47 -138.334 -47 -209.001c0 -61.333 19.333 -109.833 58 -145.5s98.667 -53.5 180 -53.5c92.667 0 165.5 21.667 218.5 65s79.5 101 79.5 173
c0 78 -12.667 157.667 -38 239l33 12c22.667 -78 35.667 -144.667 39 -200c74 104 142.667 179.167 206 225.5s130.666 69.5 201.999 69.5c65.333 0 114.666 -21 147.999 -63s50 -97.667 50 -167c0 -30.667 -3 -62 -9 -94c-76 -40.667 -185.333 -61 -328 -61
c-105.333 0 -194.666 14 -267.999 42c-2 -86 -32.167 -153.833 -90.5 -203.5s-141.5 -74.5 -249.5 -74.5z" />
    <glyph glyph-name="uniFEBA" unicode="&#x635;" horiz-adv-x="1440" arabic-form="final" 
d="M964 32c107.333 0 205 16.001 293 48.001c1.33301 26.667 2 45.667 2 57c0 70 -15 122.167 -45 156.5s-70.333 51.5 -121 51.5c-65.333 0 -125.666 -20.333 -180.999 -61s-122.333 -113.334 -201 -218.001c73.333 -22.667 157.666 -34 252.999 -34zM347 -240.999
c-86.667 0 -152.83 20.001 -198.497 60.001s-68.5 96.333 -68.5 169c0 79.333 17.333 156 52 230l31 -14c-31.333 -68.667 -47 -138.334 -47 -209.001c0 -61.333 19.333 -109.833 58 -145.5s98.667 -53.5 180 -53.5c92.667 0 165.5 21.667 218.5 65s79.5 101 79.5 173
c0 78 -12.667 157.667 -38 239l33 12c22.667 -78 35.667 -144.667 39 -200c74 104 142.667 179.167 206 225.5s130.666 69.5 201.999 69.5c65.333 0 114.666 -21 147.999 -63s50 -97.667 50 -167c0 -25.333 -2 -51 -6 -77c42.667 -24 91.667 -36 147 -36h7v-37h-10
c-66.667 0 -122.334 15.333 -167.001 46c-76.667 -34 -179.334 -51 -308.001 -51c-105.333 0 -194.666 14 -267.999 42c-2 -86 -32.167 -153.833 -90.5 -203.5s-141.5 -74.5 -249.5 -74.5z" />
    <glyph glyph-name="uniFEBB" unicode="&#x635;" horiz-adv-x="1013" arabic-form="initial" 
d="M605 32c107.333 0 205 16 293 48c1.33301 26.667 2 45.667 2 57c0 70 -15 122.167 -45 156.5s-70.333 51.5 -121 51.5c-66 0 -126.833 -20.5 -182.5 -61.5s-123.167 -114.833 -202.5 -221.5c72 -20 157.333 -30 256 -30zM596 -3
c-83.333 0 -151.834 6.00195 -205.501 18.002s-110.167 30.333 -169.5 55c-33.333 -46.667 -102.333 -70 -207 -70h-14c-12.667 0 -19 6 -19 18c0 12.667 6.33301 19 19 19h17c44 0 80 4 108 12s48.667 20.167 62 36.5s22.166 33.166 26.499 50.499s6.5 39.666 6.5 66.999
v122l34 4v-126c0 -43.333 -5.33301 -77.666 -16 -102.999c34.667 -13.333 61 -23 79 -29c76.667 109.333 147.334 188.166 212.001 236.499s133.334 72.5 206.001 72.5c65.333 0 114.666 -21 147.999 -63s50 -97.667 50 -167c0 -30.667 -3 -62 -9 -94
c-73.333 -39.333 -182.666 -59 -327.999 -59z" />
    <glyph glyph-name="uniFEBC" unicode="&#x635;" horiz-adv-x="1081" arabic-form="medial" 
d="M605 32c107.333 0 205 16 293 48c1.33301 26.667 2 45.667 2 57c0 70 -15 122.167 -45 156.5s-70.333 51.5 -121 51.5c-66 0 -126.833 -20.5 -182.5 -61.5s-123.167 -114.833 -202.5 -221.5c72 -20 157.333 -30 256 -30zM1071 0c-66.667 0 -122.333 15.335 -167 46.002
c-74 -32.667 -176.667 -49 -308 -49c-83.333 0 -151.833 6 -205.5 18s-110.167 30.333 -169.5 55c-33.333 -46.667 -102.333 -70 -207 -70h-14c-12.667 0 -19 6 -19 18c0 12.667 6.33301 19 19 19h17c44 0 80 4 108 12s48.667 20.167 62 36.5s22.166 33.166 26.499 50.499
s6.5 39.666 6.5 66.999v122l34 4v-126c0 -43.333 -5.33301 -77.666 -16 -102.999c34.667 -13.333 61 -23 79 -29c76.667 109.333 147.334 188.166 212.001 236.499s133.334 72.5 206.001 72.5c65.333 0 114.666 -21 147.999 -63s50 -97.667 50 -167c0 -25.333 -2 -51 -6 -77
c42.667 -24 91.667 -36 147 -36h7v-37h-10z" />
    <glyph glyph-name="uniFEBD" unicode="&#x636;" horiz-adv-x="1372" arabic-form="isolated" 
d="M1093 552l41 -38l-36 -39l-41 35zM964 32c107.333 0 205 16.001 293 48.001c1.33301 26.667 2 45.667 2 57c0 70 -15 122.167 -45 156.5s-70.333 51.5 -121 51.5c-65.333 0 -125.666 -20.333 -180.999 -61s-122.333 -113.334 -201 -218.001
c73.333 -22.667 157.666 -34 252.999 -34zM347 -240.999c-86.667 0 -152.832 20.001 -198.499 60.001s-68.5 96.333 -68.5 169c0 79.333 17.333 156 52 230l31 -14c-31.333 -68.667 -47 -138.334 -47 -209.001c0 -61.333 19.333 -109.833 58 -145.5s98.667 -53.5 180 -53.5
c92.667 0 165.5 21.667 218.5 65s79.5 101 79.5 173c0 78 -12.667 157.667 -38 239l33 12c22.667 -78 35.667 -144.667 39 -200c74 104 142.667 179.167 206 225.5s130.666 69.5 201.999 69.5c65.333 0 114.666 -21 147.999 -63s50 -97.667 50 -167c0 -30.667 -3 -62 -9 -94
c-76 -40.667 -185.333 -61 -328 -61c-105.333 0 -194.666 14 -267.999 42c-2 -86 -32.167 -153.833 -90.5 -203.5s-141.5 -74.5 -249.5 -74.5z" />
    <glyph glyph-name="uniFEBE" unicode="&#x636;" horiz-adv-x="1440" arabic-form="final" 
d="M1093 552l41 -38l-36 -39l-41 35zM964 32c107.333 0 205 16.001 293 48.001c1.33301 26.667 2 45.667 2 57c0 70 -15 122.167 -45 156.5s-70.333 51.5 -121 51.5c-65.333 0 -125.666 -20.333 -180.999 -61s-122.333 -113.334 -201 -218.001
c73.333 -22.667 157.666 -34 252.999 -34zM347 -240.999c-86.667 0 -152.83 20.001 -198.497 60.001s-68.5 96.333 -68.5 169c0 79.333 17.333 156 52 230l31 -14c-31.333 -68.667 -47 -138.334 -47 -209.001c0 -61.333 19.333 -109.833 58 -145.5s98.667 -53.5 180 -53.5
c92.667 0 165.5 21.667 218.5 65s79.5 101 79.5 173c0 78 -12.667 157.667 -38 239l33 12c22.667 -78 35.667 -144.667 39 -200c74 104 142.667 179.167 206 225.5s130.666 69.5 201.999 69.5c65.333 0 114.666 -21 147.999 -63s50 -97.667 50 -167c0 -25.333 -2 -51 -6 -77
c42.667 -24 91.667 -36 147 -36h7v-37h-10c-66.667 0 -122.334 15.333 -167.001 46c-76.667 -34 -179.334 -51 -308.001 -51c-105.333 0 -194.666 14 -267.999 42c-2 -86 -32.167 -153.833 -90.5 -203.5s-141.5 -74.5 -249.5 -74.5z" />
    <glyph glyph-name="uniFEBF" unicode="&#x636;" horiz-adv-x="1013" arabic-form="initial" 
d="M728 553l41 -38l-36 -39l-41 35zM605 32c107.333 0 205 16 293 48c1.33301 26.667 2 45.667 2 57c0 70 -15 122.167 -45 156.5s-70.333 51.5 -121 51.5c-66 0 -126.833 -20.5 -182.5 -61.5s-123.167 -114.833 -202.5 -221.5c72 -20 157.333 -30 256 -30zM596 -3
c-83.333 0 -151.834 6.00195 -205.501 18.002s-110.167 30.333 -169.5 55c-33.333 -46.667 -102.333 -70 -207 -70h-14c-12.667 0 -19 6 -19 18c0 12.667 6.33301 19 19 19h17c44 0 80 4 108 12s48.667 20.167 62 36.5s22.166 33.166 26.499 50.499s6.5 39.666 6.5 66.999
v122l34 4v-126c0 -43.333 -5.33301 -77.666 -16 -102.999c34.667 -13.333 61 -23 79 -29c76.667 109.333 147.334 188.166 212.001 236.499s133.334 72.5 206.001 72.5c65.333 0 114.666 -21 147.999 -63s50 -97.667 50 -167c0 -30.667 -3 -62 -9 -94
c-73.333 -39.333 -182.666 -59 -327.999 -59z" />
    <glyph glyph-name="uniFEC0" unicode="&#x636;" horiz-adv-x="1081" arabic-form="medial" 
d="M728 553l41 -38l-36 -39l-41 35zM605 32c107.333 0 205 16 293 48c1.33301 26.667 2 45.667 2 57c0 70 -15 122.167 -45 156.5s-70.333 51.5 -121 51.5c-66 0 -126.833 -20.5 -182.5 -61.5s-123.167 -114.833 -202.5 -221.5c72 -20 157.333 -30 256 -30zM1071 0
c-66.667 0 -122.333 15.335 -167 46.002c-74 -32.667 -176.667 -49 -308 -49c-83.333 0 -151.833 6 -205.5 18s-110.167 30.333 -169.5 55c-33.333 -46.667 -102.333 -70 -207 -70h-14c-12.667 0 -19 6 -19 18c0 12.667 6.33301 19 19 19h17c44 0 80 4 108 12
s48.667 20.167 62 36.5s22.166 33.166 26.499 50.499s6.5 39.666 6.5 66.999v122l34 4v-126c0 -43.333 -5.33301 -77.666 -16 -102.999c34.667 -13.333 61 -23 79 -29c76.667 109.333 147.334 188.166 212.001 236.499s133.334 72.5 206.001 72.5
c65.333 0 114.666 -21 147.999 -63s50 -97.667 50 -167c0 -25.333 -2 -51 -6 -77c42.667 -24 91.667 -36 147 -36h7v-37h-10z" />
    <glyph glyph-name="uniFEC1" unicode="&#x637;" horiz-adv-x="840" arabic-form="isolated" 
d="M383 32c136.667 0 250.667 15.999 342 47.999c1.33301 26.667 2 45.667 2 57c0 70 -15.167 122.167 -45.5 156.5s-71.166 51.5 -122.499 51.5c-67.333 0 -129.333 -21.667 -186 -65s-126.334 -120.666 -209.001 -231.999c69.333 -10.667 142.333 -16 219 -16z
M380 -5.00098c-130 0 -243.335 12.999 -340.002 38.999l9 34l79 -15c26 34 43.333 65 52 93s13 72.667 13 134v435l35 4v-365c0 -82 -3.66699 -143.667 -11 -185c56.667 72.667 112.834 126.167 168.501 160.5s113.834 51.5 174.501 51.5c66 0 115.833 -21.167 149.5 -63.5
s50.5 -98.166 50.5 -167.499c0 -30.667 -3 -62 -9 -94c-87.333 -40.667 -211 -61 -371 -61z" />
    <glyph glyph-name="uniFEC2" unicode="&#x637;" horiz-adv-x="906" arabic-form="final" 
d="M383 32c136.667 0 250.667 15.999 342 47.999c1.33301 26.667 2 45.667 2 57c0 70 -15.167 122.167 -45.5 156.5s-71.166 51.5 -122.499 51.5c-67.333 0 -129.333 -21.667 -186 -65s-126.334 -120.666 -209.001 -231.999c69.333 -10.667 142.333 -16 219 -16z
M896 -0.000976562c-67.333 0 -123.003 15.666 -167.003 46.999c-85.333 -34.667 -201.666 -52 -348.999 -52c-130 0 -243.333 13 -340 39l9 34l79 -15c26 34 43.333 65 52 93s13 72.667 13 134v435l35 4v-365c0 -82 -3.66699 -143.667 -11 -185
c56.667 72.667 112.834 126.167 168.501 160.5s113.834 51.5 174.501 51.5c66 0 115.833 -21.167 149.5 -63.5s50.5 -98.166 50.5 -167.499c0 -26 -2 -52 -6 -78c40.667 -23.333 89 -35 145 -35h7v-37h-10z" />
    <glyph glyph-name="uniFEC3" unicode="&#x637;" horiz-adv-x="814" arabic-form="initial" 
d="M533 345c-68.667 0 -131.834 -22.333 -189.501 -67s-129.167 -125 -214.5 -241h126c113.333 0 202 2.66699 266 8s123.333 17.333 178 36c1.33301 25.333 2 44 2 56c0 70 -15.167 122.167 -45.5 156.5s-71.166 51.5 -122.499 51.5zM0 0
c-12.667 0 -19.002 5.99902 -19.002 17.999c0 12.667 6.33301 19 19 19h88c32 39.333 53.167 73.5 63.5 102.5s15.5 75.833 15.5 140.5v435l35 4v-365c0 -82 -3.66699 -143.667 -11 -185c56.667 72.667 112.834 126.167 168.501 160.5s113.834 51.5 174.501 51.5
c66 0 115.833 -21.167 149.5 -63.5s50.5 -98.166 50.5 -167.499c0 -30.667 -3 -62 -9 -94c-50 -21.333 -109.333 -36 -178 -44s-167 -12 -295 -12h-252z" />
    <glyph glyph-name="uniFEC4" unicode="&#x637;" horiz-adv-x="880" arabic-form="medial" 
d="M533 345c-68.667 0 -131.834 -22.333 -189.501 -67s-129.167 -125 -214.5 -241h126c113.333 0 202 2.66699 266 8s123.333 17.333 178 36c1.33301 25.333 2 44 2 56c0 70 -15.167 122.167 -45.5 156.5s-71.166 51.5 -122.499 51.5zM0 0
c-12.667 0 -19.002 5.99902 -19.002 17.999c0 12.667 6.33301 19 19 19h88c32 39.333 53.167 73.5 63.5 102.5s15.5 75.833 15.5 140.5v435l35 4v-365c0 -82 -3.66699 -143.667 -11 -185c56.667 72.667 112.834 126.167 168.501 160.5s113.834 51.5 174.501 51.5
c66 0 115.833 -21.167 149.5 -63.5s50.5 -98.166 50.5 -167.499c0 -26 -2 -52 -6 -78c40.667 -23.333 89 -35 145 -35h7v-37h-10c-67.333 0 -123 15.667 -167 47c-48 -18 -105.167 -30.333 -171.5 -37s-159.5 -10 -279.5 -10h-252z" />
    <glyph glyph-name="uniFEC5" unicode="&#x638;" horiz-adv-x="840" arabic-form="isolated" 
d="M542 563l41 -38l-36 -39l-41 35zM383 32c136.667 0 250.667 15.999 342 47.999c1.33301 26.667 2 45.667 2 57c0 70 -15.167 122.167 -45.5 156.5s-71.166 51.5 -122.499 51.5c-67.333 0 -129.333 -21.667 -186 -65s-126.334 -120.666 -209.001 -231.999
c69.333 -10.667 142.333 -16 219 -16zM380 -5.00098c-130 0 -243.335 12.999 -340.002 38.999l9 34l79 -15c26 34 43.333 65 52 93s13 72.667 13 134v435l35 4v-365c0 -82 -3.66699 -143.667 -11 -185c56.667 72.667 112.834 126.167 168.501 160.5
s113.834 51.5 174.501 51.5c66 0 115.833 -21.167 149.5 -63.5s50.5 -98.166 50.5 -167.499c0 -30.667 -3 -62 -9 -94c-87.333 -40.667 -211 -61 -371 -61z" />
    <glyph glyph-name="uniFEC6" unicode="&#x638;" horiz-adv-x="906" arabic-form="final" 
d="M542 563l41 -38l-36 -39l-41 35zM383 32c136.667 0 250.667 15.999 342 47.999c1.33301 26.667 2 45.667 2 57c0 70 -15.167 122.167 -45.5 156.5s-71.166 51.5 -122.499 51.5c-67.333 0 -129.333 -21.667 -186 -65s-126.334 -120.666 -209.001 -231.999
c69.333 -10.667 142.333 -16 219 -16zM896 -0.000976562c-67.333 0 -123.003 15.666 -167.003 46.999c-85.333 -34.667 -201.666 -52 -348.999 -52c-130 0 -243.333 13 -340 39l9 34l79 -15c26 34 43.333 65 52 93s13 72.667 13 134v435l35 4v-365
c0 -82 -3.66699 -143.667 -11 -185c56.667 72.667 112.834 126.167 168.501 160.5s113.834 51.5 174.501 51.5c66 0 115.833 -21.167 149.5 -63.5s50.5 -98.166 50.5 -167.499c0 -26 -2 -52 -6 -78c40.667 -23.333 89 -35 145 -35h7v-37h-10z" />
    <glyph glyph-name="uniFEC7" unicode="&#x638;" horiz-adv-x="814" arabic-form="initial" 
d="M507 563l41 -38l-36 -39l-41 35zM533 345c-68.667 0 -131.834 -22.333 -189.501 -67s-129.167 -125 -214.5 -241h126c113.333 0 202 2.66699 266 8s123.333 17.333 178 36c1.33301 25.333 2 44 2 56c0 70 -15.167 122.167 -45.5 156.5s-71.166 51.5 -122.499 51.5zM0 0
c-12.667 0 -19.002 5.99902 -19.002 17.999c0 12.667 6.33301 19 19 19h88c32 39.333 53.167 73.5 63.5 102.5s15.5 75.833 15.5 140.5v435l35 4v-365c0 -82 -3.66699 -143.667 -11 -185c56.667 72.667 112.834 126.167 168.501 160.5s113.834 51.5 174.501 51.5
c66 0 115.833 -21.167 149.5 -63.5s50.5 -98.166 50.5 -167.499c0 -30.667 -3 -62 -9 -94c-50 -21.333 -109.333 -36 -178 -44s-167 -12 -295 -12h-252z" />
    <glyph glyph-name="uniFEC8" unicode="&#x638;" horiz-adv-x="880" arabic-form="medial" 
d="M507 563l41 -38l-36 -39l-41 35zM533 345c-68.667 0 -131.834 -22.333 -189.501 -67s-129.167 -125 -214.5 -241h126c113.333 0 202 2.66699 266 8s123.333 17.333 178 36c1.33301 25.333 2 44 2 56c0 70 -15.167 122.167 -45.5 156.5s-71.166 51.5 -122.499 51.5zM0 0
c-12.667 0 -19.002 5.99902 -19.002 17.999c0 12.667 6.33301 19 19 19h88c32 39.333 53.167 73.5 63.5 102.5s15.5 75.833 15.5 140.5v435l35 4v-365c0 -82 -3.66699 -143.667 -11 -185c56.667 72.667 112.834 126.167 168.501 160.5s113.834 51.5 174.501 51.5
c66 0 115.833 -21.167 149.5 -63.5s50.5 -98.166 50.5 -167.499c0 -26 -2 -52 -6 -78c40.667 -23.333 89 -35 145 -35h7v-37h-10c-67.333 0 -123 15.667 -167 47c-48 -18 -105.167 -30.333 -171.5 -37s-159.5 -10 -279.5 -10h-252z" />
    <glyph glyph-name="uniFEC9" unicode="&#x639;" horiz-adv-x="610" arabic-form="isolated" 
d="M600 -207c-84 -45.333 -176.334 -68 -277.001 -68c-81.333 0 -142.166 16.833 -182.499 50.5s-60.5 80.5 -60.5 140.5c0 52 14.167 97.167 42.5 135.5s73.166 71.833 134.499 100.5c-42 16 -73.5 39.833 -94.5 71.5s-31.5 66.834 -31.5 105.501
c0 55.333 17.333 100 52 134s79 51 133 51c56.667 0 113.334 -15.667 170.001 -47l-15 -29c-34 15.333 -60.833 25.833 -80.5 31.5s-44.834 8.5 -75.501 8.5c-42 0 -77.333 -13.333 -106 -40s-43 -62.334 -43 -107.001c0 -42 15.5 -78 46.5 -108s59.5 -45 85.5 -45
c6 0 19.667 3 41 9l82.5 23.5c33.667 9.66699 64.5 17.167 92.5 22.5l6 -35c-80 -16.667 -147.5 -35.5 -202.5 -56.5s-96.667 -43.833 -125 -68.5s-48.166 -49 -59.499 -73s-17 -50.333 -17 -79c0 -106 71 -159 213 -159c90.667 0 176 19.667 256 59z" />
    <glyph glyph-name="uniFECA" unicode="&#x639;" horiz-adv-x="630" arabic-form="final" 
d="M328 399c-52 0 -114.333 -7.66504 -187 -22.998c43.333 -90.667 101.333 -172 174 -244c45.333 33.333 83.5 67.666 114.5 102.999s60.167 79.666 87.5 132.999c-55.333 20.667 -118.333 31 -189 31zM600 -256.998c-84 -45.333 -176.335 -67.999 -277.002 -67.999
c-81.333 0 -142.166 15.833 -182.499 47.5s-60.5 75.834 -60.5 132.501c0 57.333 15.333 103.666 46 138.999s82.667 75.666 156 120.999c-82.667 86 -146 181 -190 285c68 22 146.667 33 236 33c90.667 0 168.334 -15.667 233.001 -47c-28 -64 -58.667 -116.167 -92 -156.5
s-76.333 -79.833 -129 -118.5c38.667 -28 76.667 -47.333 114 -58s92.333 -16 165 -16h11v-37h-15c-77.333 0 -137.666 7 -180.999 21s-85.333 37.333 -126 70c-70.667 -44.667 -120.334 -83 -149.001 -115s-43 -70.333 -43 -115c0 -99.333 71 -149 213 -149
c90.667 0 176 19.667 256 59z" />
    <glyph glyph-name="uniFECB" unicode="&#x639;" horiz-adv-x="559" arabic-form="initial" 
d="M0 0c-12.667 0 -18.9971 5.99902 -18.9971 17.999c0 12.667 6.33301 19 19 19h13c63.333 0 124.333 2.33301 183 7c-78.667 38 -118 99.667 -118 185c0 56.667 17.167 102.167 51.5 136.5s78.166 51.5 131.499 51.5c54 0 110.667 -16 170 -48l-15 -28
c-34 15.333 -60.833 25.833 -80.5 31.5s-44.834 8.5 -75.501 8.5c-42 0 -77.333 -13.667 -106 -41s-43 -63.333 -43 -108c0 -47.333 17.5 -88 52.5 -122s69.833 -51 104.5 -51c12.667 0 43.167 6.33301 91.5 19s94.833 26.334 139.5 41.001l10 -31
c-94.667 -32.667 -178.334 -55.5 -251.001 -68.5s-154 -19.5 -244 -19.5h-14z" />
    <glyph glyph-name="uniFECC" unicode="&#x639;" horiz-adv-x="695" arabic-form="medial" 
d="M326 382c-51.333 0 -111 -7.33301 -179 -22c29.333 -102 94 -182.667 194 -242c90.667 55.333 153.667 131 189 227c-74.667 24.667 -142.667 37 -204 37zM0 0c-12.667 0 -19 5.99902 -19 17.999c0 12.667 6.33301 19 19 19h24c104.667 0 198.334 20.333 281.001 61
c-54 36 -98.333 79 -133 129s-56.334 101.333 -65.001 154c71.333 22.667 146 34 224 34c90 0 169 -17 237 -51c-10.667 -48 -33 -95.167 -67 -141.5s-77.333 -87.166 -130 -122.499c84 -42 175.333 -63 274 -63h50v-37h-56c-111.333 -0 -212 26.333 -302 79
c-93.333 -52.667 -198 -79 -314 -79h-23z" />
    <glyph glyph-name="uniFECD" unicode="&#x63a;" horiz-adv-x="610" arabic-form="isolated" 
d="M301 673l41 -38l-36 -39l-41 35zM600 -207c-84 -45.333 -176.334 -68 -277.001 -68c-81.333 0 -142.166 16.833 -182.499 50.5s-60.5 80.5 -60.5 140.5c0 52 14.167 97.167 42.5 135.5s73.166 71.833 134.499 100.5c-42 16 -73.5 39.833 -94.5 71.5
s-31.5 66.834 -31.5 105.501c0 55.333 17.333 100 52 134s79 51 133 51c56.667 0 113.334 -15.667 170.001 -47l-15 -29c-34 15.333 -60.833 25.833 -80.5 31.5s-44.834 8.5 -75.501 8.5c-42 0 -77.333 -13.333 -106 -40s-43 -62.334 -43 -107.001c0 -42 15.5 -78 46.5 -108
s59.5 -45 85.5 -45c6 0 19.667 3 41 9l82.5 23.5c33.667 9.66699 64.5 17.167 92.5 22.5l6 -35c-80 -16.667 -147.5 -35.5 -202.5 -56.5s-96.667 -43.833 -125 -68.5s-48.166 -49 -59.499 -73s-17 -50.333 -17 -79c0 -106 71 -159 213 -159c90.667 0 176 19.667 256 59z" />
    <glyph glyph-name="uniFECE" unicode="&#x63a;" horiz-adv-x="630" arabic-form="final" 
d="M336 641l41 -38l-36 -39l-41 35zM328 399c-52 0 -114.333 -7.66504 -187 -22.998c43.333 -90.667 101.333 -172 174 -244c45.333 33.333 83.5 67.666 114.5 102.999s60.167 79.666 87.5 132.999c-55.333 20.667 -118.333 31 -189 31zM600 -256.998
c-84 -45.333 -176.335 -67.999 -277.002 -67.999c-81.333 0 -142.166 15.833 -182.499 47.5s-60.5 75.834 -60.5 132.501c0 57.333 15.333 103.666 46 138.999s82.667 75.666 156 120.999c-82.667 86 -146 181 -190 285c68 22 146.667 33 236 33
c90.667 0 168.334 -15.667 233.001 -47c-28 -64 -58.667 -116.167 -92 -156.5s-76.333 -79.833 -129 -118.5c38.667 -28 76.667 -47.333 114 -58s92.333 -16 165 -16h11v-37h-15c-77.333 0 -137.666 7 -180.999 21s-85.333 37.333 -126 70
c-70.667 -44.667 -120.334 -83 -149.001 -115s-43 -70.333 -43 -115c0 -99.333 71 -149 213 -149c90.667 0 176 19.667 256 59z" />
    <glyph glyph-name="uniFECF" unicode="&#x63a;" horiz-adv-x="559" arabic-form="initial" 
d="M268 578l41 -38l-36 -39l-41 35zM0 0c-12.667 0 -18.9971 5.99902 -18.9971 17.999c0 12.667 6.33301 19 19 19h13c63.333 0 124.333 2.33301 183 7c-78.667 38 -118 99.667 -118 185c0 56.667 17.167 102.167 51.5 136.5s78.166 51.5 131.499 51.5
c54 0 110.667 -16 170 -48l-15 -28c-34 15.333 -60.833 25.833 -80.5 31.5s-44.834 8.5 -75.501 8.5c-42 0 -77.333 -13.667 -106 -41s-43 -63.333 -43 -108c0 -47.333 17.5 -88 52.5 -122s69.833 -51 104.5 -51c12.667 0 43.167 6.33301 91.5 19
s94.833 26.334 139.5 41.001l10 -31c-94.667 -32.667 -178.334 -55.5 -251.001 -68.5s-154 -19.5 -244 -19.5h-14z" />
    <glyph glyph-name="uniFED0" unicode="&#x63a;" horiz-adv-x="695" arabic-form="medial" 
d="M345 612l41 -38l-36 -39l-41 35zM326 382c-51.333 0 -111 -7.33301 -179 -22c29.333 -102 94 -182.667 194 -242c90.667 55.333 153.667 131 189 227c-74.667 24.667 -142.667 37 -204 37zM0 0c-12.667 0 -19 5.99902 -19 17.999c0 12.667 6.33301 19 19 19h24
c104.667 0 198.334 20.333 281.001 61c-54 36 -98.333 79 -133 129s-56.334 101.333 -65.001 154c71.333 22.667 146 34 224 34c90 0 169 -17 237 -51c-10.667 -48 -33 -95.167 -67 -141.5s-77.333 -87.166 -130 -122.499c84 -42 175.333 -63 274 -63h50v-37h-56
c-111.333 -0 -212 26.333 -302 79c-93.333 -52.667 -198 -79 -314 -79h-23z" />
    <glyph glyph-name="uniFED1" unicode="&#x641;" horiz-adv-x="934" arabic-form="isolated" 
d="M653 721l41 -38l-36 -39l-41 35zM675 211c47.333 1.33301 93.335 8.33301 138.002 21c-1.33301 83.333 -15.833 150.833 -43.5 202.5s-65.167 77.167 -112.5 76.5c-30 0 -56 -9.33301 -78 -28s-37.833 -40.667 -47.5 -66s-14.834 -51.333 -15.501 -78
c1.33301 -40.667 13.666 -72 36.999 -94s64 -33.333 122 -34zM408.002 -12c-66 0 -121.168 4.66602 -165.501 13.999s-78 23 -101 41s-39 37.5 -48 58.5s-13.5 46.167 -13.5 75.5c0 50 11.333 109.667 34 179l32 -9c-20 -72 -30 -125.667 -30 -161
c0 -24 3.83301 -44.833 11.5 -62.5s21.667 -34.334 42 -50.001s51.5 -27.667 93.5 -36s94.333 -12.5 157 -12.5c144 0 269.667 21.333 377 64c8 36 13 72 15 108c-39.333 -12 -89.666 -18.667 -150.999 -20c-116 0.666992 -175.333 53.334 -178 158.001
c1.33301 59.333 18.5 109.333 51.5 150s73.5 60.667 121.5 60c57.333 0.666992 103 -26.666 137 -81.999s51 -130 51 -224c0 -64.667 -7.66699 -122 -23 -172c-96 -52.667 -233.667 -79 -413 -79z" />
    <glyph glyph-name="uniFED2" unicode="&#x641;" horiz-adv-x="1037" arabic-form="final" 
d="M751 597l41 -38l-36 -39l-41 35zM608 251c0 -79.333 49.999 -137 149.999 -173c99.333 40 149 94.667 149 164c0 46.667 -14.167 84.5 -42.5 113.5s-65.166 43.5 -110.499 43.5c-42 0 -76.833 -13.833 -104.5 -41.5s-41.5 -63.167 -41.5 -106.5zM1008 0
c-99.333 0 -184.001 13.668 -254.001 41.001c-96 -35.333 -211.333 -53 -346 -53c-66 0 -121.167 4.66699 -165.5 14s-78 23 -101 41s-39 37.5 -48 58.5s-13.5 46.167 -13.5 75.5c0 50 11.333 109.667 34 179l32 -9c-20 -72 -30 -125.667 -30 -161
c0 -24 3.83301 -44.833 11.5 -62.5s21.667 -34.334 42 -50.001s51.5 -27.667 93.5 -36s94.333 -12.5 157 -12.5c112 0 208.333 12 289 36c-89.333 45.333 -134 107 -134 185c0 58 17.833 103.667 53.5 137s78.834 50 129.501 50s93.667 -17 129 -51s53 -79 53 -135
c0 -78.667 -45.333 -140 -136 -184c61.333 -17.333 129.333 -26 204 -26h29v-37h-29z" />
    <glyph glyph-name="uniFED3" unicode="&#x641;" horiz-adv-x="542" arabic-form="initial" 
d="M258 721l41 -38l-36 -39l-41 35zM278 211c49.333 0 97 7.00098 143 21.001c-1.33301 83.333 -15.833 150.666 -43.5 201.999s-65.167 77 -112.5 77c-44 0 -78.5 -18 -103.5 -54s-37.5 -75.333 -37.5 -118c0 -40.667 11.667 -72.167 35 -94.5s63 -33.5 119 -33.5z
M0 0.000976562c-12.667 0 -19 6 -19 18c0 12.667 6.33301 19 19 19h1h20c162.667 0 290.667 17 384 51c8 37.333 13 73.666 15 108.999c-42 -13.333 -92.333 -20 -151 -20c-62.667 0 -108 14.333 -136 43s-42 67 -42 115c0 58.667 16.833 108.334 50.5 149.001
s74.5 61 122.5 61c57.333 0 103 -27.5 137 -82.5s51 -129.5 51 -223.5c0 -64.667 -7.66699 -122 -23 -172c-81.333 -44.667 -215 -67 -401 -67h-28z" />
    <glyph glyph-name="uniFED4" unicode="&#x641;" horiz-adv-x="552" arabic-form="medial" 
d="M274 587l41 -38l-36 -39l-41 35zM123 251c0 -79.333 49.999 -137 149.999 -173c99.333 40 149 94.667 149 164c0 46.667 -14.167 84.5 -42.5 113.5s-65.166 43.5 -110.499 43.5c-42 0 -76.833 -13.833 -104.5 -41.5s-41.5 -63.167 -41.5 -106.5zM-0.000976562 0
c-12.667 0 -19 6 -19 18c0 12.667 6.33301 19 19 19h16c85.333 0 154.666 8 207.999 24c-89.333 45.333 -134 107 -134 185c0 58 17.833 103.667 53.5 137s78.834 50 129.501 50s93.667 -17 129 -51s53 -79 53 -135c0 -78.667 -45.333 -140 -136 -184
c61.333 -17.333 129.333 -26 204 -26h29v-37h-29c-100 0 -184.667 13.667 -254 41c-74.667 -27.333 -158 -41 -250 -41h-19z" />
    <glyph glyph-name="uniFED5" unicode="&#x642;" horiz-adv-x="797" arabic-form="isolated" 
d="M594 535l39 -36l-34 -38l-40 34zM463 531l39 -36l-34 -38l-40 34zM542 36c48.667 0 96.002 6.66699 142.002 20c-0.666992 80.667 -14.834 147.5 -42.501 200.5s-65.167 79.5 -112.5 79.5c-44.667 0 -78.834 -17.833 -102.501 -53.5s-35.5 -74.834 -35.5 -117.501
c0 -43.333 10.833 -75.666 32.5 -96.999s61.167 -32 118.5 -32zM347.002 -251c-86.667 0 -152.831 20.999 -198.498 62.999s-68.5 100.667 -68.5 176c0 79.333 17.333 156 52 230l29 -16c-31.333 -68 -47 -136.667 -47 -206c0 -65.333 19.667 -116.666 59 -153.999
s99.666 -56 180.999 -56c47.333 0 89.666 5 126.999 15s67.833 22.667 91.5 38s43.667 33.5 60 54.5s28.166 41.667 35.499 62s12 41.5 14 63.5c-42 -12.667 -91.667 -19 -149 -19c-65.333 0 -110.666 14.167 -135.999 42.5s-38 67.833 -38 118.5
c0 60.667 15.5 110.667 46.5 150s72.167 59 123.5 59c58 0 103.833 -28.667 137.5 -86s50.5 -132.333 50.5 -225c0 -97.333 -32.167 -173.333 -96.5 -228s-155.5 -82 -273.5 -82z" />
    <glyph glyph-name="uniFED6" unicode="&#x642;" horiz-adv-x="831" arabic-form="final" 
d="M594 535l39 -36l-34 -38l-40 34zM463 531l39 -36l-34 -38l-40 34zM564 37l120.001 0.000976562v15c0 82 -13.833 149.833 -41.5 203.5s-65.834 80.5 -114.501 80.5c-44.667 0 -78.834 -17.833 -102.501 -53.5s-35.5 -74.834 -35.5 -117.501s12.333 -74.667 37 -96
s70.334 -32 137.001 -32zM347.001 -250.999c-86.667 0 -152.833 21.001 -198.5 63.001s-68.5 100.667 -68.5 176c0 79.333 17.333 156 52 230l29 -16c-31.333 -68 -47 -136.667 -47 -206c0 -65.333 19.667 -116.666 59 -153.999s99.666 -56 180.999 -56
c45.333 0 86.333 4.66699 123 14s66.5 21.166 89.5 35.499s42.833 31.166 59.5 50.499s28.834 38.333 36.501 57s13.167 37.667 16.5 57h-109c-80 0 -135.333 14.167 -166 42.5s-46 67.833 -46 118.5c0 60.667 15.5 110.667 46.5 150s72.167 59 123.5 59
c58.667 0 104.667 -28.167 138 -84.5s50 -131.833 50 -226.5c0 -10 -0.333008 -17.333 -1 -22h116v-37h-119c-12.667 -79.333 -50.167 -141 -112.5 -185s-146.5 -66 -252.5 -66z" />
    <glyph glyph-name="uniFED7" unicode="&#x642;" horiz-adv-x="542" arabic-form="initial" 
d="M335 704l39 -36l-34 -38l-40 34zM204 700l39 -36l-34 -38l-40 34zM278 211c49.333 0 97 7.00098 143 21.001c-1.33301 83.333 -15.833 150.666 -43.5 201.999s-65.167 77 -112.5 77c-44 0 -78.5 -18 -103.5 -54s-37.5 -75.333 -37.5 -118
c0 -40.667 11.667 -72.167 35 -94.5s63 -33.5 119 -33.5zM0 0.000976562c-12.667 0 -19 6 -19 18c0 12.667 6.33301 19 19 19h1h20c162.667 0 290.667 17 384 51c8 37.333 13 73.666 15 108.999c-42 -13.333 -92.333 -20 -151 -20c-62.667 0 -108 14.333 -136 43
s-42 67 -42 115c0 58.667 16.833 108.334 50.5 149.001s74.5 61 122.5 61c57.333 0 103 -27.5 137 -82.5s51 -129.5 51 -223.5c0 -64.667 -7.66699 -122 -23 -172c-81.333 -44.667 -215 -67 -401 -67h-28z" />
    <glyph glyph-name="uniFED8" unicode="&#x642;" horiz-adv-x="552" arabic-form="medial" 
d="M348 609l39 -36l-34 -38l-40 34zM217 605l39 -36l-34 -38l-40 34zM123 251c0 -79.333 49.999 -137 149.999 -173c99.333 40 149 94.667 149 164c0 46.667 -14.167 84.5 -42.5 113.5s-65.166 43.5 -110.499 43.5c-42 0 -76.833 -13.833 -104.5 -41.5
s-41.5 -63.167 -41.5 -106.5zM-0.000976562 0c-12.667 0 -19 6 -19 18c0 12.667 6.33301 19 19 19h16c85.333 0 154.666 8 207.999 24c-89.333 45.333 -134 107 -134 185c0 58 17.833 103.667 53.5 137s78.834 50 129.501 50s93.667 -17 129 -51s53 -79 53 -135
c0 -78.667 -45.333 -140 -136 -184c61.333 -17.333 129.333 -26 204 -26h29v-37h-29c-100 0 -184.667 13.667 -254 41c-74.667 -27.333 -158 -41 -250 -41h-19z" />
    <glyph glyph-name="uniFED9" unicode="&#x643;" horiz-adv-x="835" arabic-form="isolated" 
d="M393 461c0 -14 19 -28.3291 57 -42.9961c24.667 -9.33301 43.5 -19 56.5 -29s19.5 -23.667 19.5 -41c0 -26.667 -18.167 -48.834 -54.5 -66.501s-85.833 -26.5 -148.5 -26.5v34c42.667 0 81.834 5.16699 117.501 15.5s53.5 22.833 53.5 37.5c0 16 -21 31.667 -63 47
c-25.333 9.33301 -43.5 18.666 -54.5 27.999s-16.5 21.666 -16.5 36.999c0 26.667 13 50.167 39 70.5s58.667 30.5 98 30.5c17.333 0 32.333 -1.66699 45 -5l-9 -33c-11.333 2.66699 -25 4 -41 4c-24.667 0 -47.334 -6.33301 -68.001 -19s-31 -26.334 -31 -41.001z
M389 -12.9961c-51.333 0 -95.6689 3.16699 -133.002 9.5s-67.166 15 -89.499 26s-40 24.833 -53 41.5s-21.833 33.834 -26.5 51.501s-7 38.167 -7 61.5c0 50 11.333 109.667 34 179l32 -10c-20 -65.333 -30 -117 -30 -155c0 -25.333 3.33301 -46.833 10 -64.5
s19.334 -34.834 38.001 -51.501s47.667 -29.167 87 -37.5s89 -12.5 149 -12.5c109.333 0 207.666 16 294.999 48c10 46.667 15 122.334 15 227.001c0 75.333 -1.66699 215.333 -5 420l35 4c3.33301 -182.667 5 -314 5 -394c0 -85.333 -1.33301 -144.833 -4 -178.5
s-8.33398 -67.834 -17.001 -102.501c-33.333 -18 -81.666 -32.833 -144.999 -44.5s-126.666 -17.5 -189.999 -17.5z" />
    <glyph glyph-name="uniFEDA" unicode="&#x643;" horiz-adv-x="929" arabic-form="final" 
d="M393 461c0 -14 19 -28.3291 57 -42.9961c24.667 -9.33301 43.5 -19 56.5 -29s19.5 -23.667 19.5 -41c0 -26.667 -18.167 -48.834 -54.5 -66.501s-85.833 -26.5 -148.5 -26.5v34c42.667 0 81.834 5.16699 117.501 15.5s53.5 22.833 53.5 37.5c0 16 -21 31.667 -63 47
c-25.333 9.33301 -43.5 18.666 -54.5 27.999s-16.5 21.666 -16.5 36.999c0 26.667 13 50.167 39 70.5s58.667 30.5 98 30.5c17.333 0 32.333 -1.66699 45 -5l-9 -33c-11.333 2.66699 -25 4 -41 4c-24.667 0 -47.334 -6.33301 -68.001 -19s-31 -26.334 -31 -41.001z
M913 0.00390625c-105.333 0 -167.335 36.333 -186.002 109c-7.33301 -19.333 -18 -36.166 -32 -50.499s-31.167 -25.666 -51.5 -33.999s-39.833 -15.166 -58.5 -20.499s-41.5 -9 -68.5 -11s-48.667 -3.33301 -65 -4s-37.166 -1 -62.499 -1
c-63.333 0 -116.166 4.66699 -158.499 14s-74 23.166 -95 41.499s-35.5 38 -43.5 59s-12 45.833 -12 74.5c0 50 11.333 109.667 34 179l32 -10c-20 -65.333 -30 -117 -30 -155c0 -25.333 3.33301 -46.833 10 -64.5s19.334 -34.834 38.001 -51.501s47.667 -29.167 87 -37.5
s89 -12.5 149 -12.5c56.667 0 104.5 3.16699 143.5 9.5s69.167 14.166 90.5 23.499s37.666 22.5 48.999 39.5s18.333 32.833 21 47.5s4 33.667 4 57v518l35 4v-507c0 -68 14 -115 42 -141s73.667 -39 137 -39h7v-37h-16z" />
    <glyph glyph-name="uniFEDB" unicode="&#x643;" horiz-adv-x="488" arabic-form="initial" 
d="M0 0c-12.667 0 -18.999 6.00195 -18.999 18.002c0 12.667 6.33301 19 19 19h22c137.333 0 249.666 17.667 336.999 53v8c0 68 -28 132.667 -84 194s-132.333 108.333 -229 141v46c116 97.333 250 172 402 224v-37c-135.333 -42.667 -259.666 -111.334 -372.999 -206.001
c103.333 -40.667 182 -92.334 236 -155.001s81 -129 81 -199c0 -16.667 -0.666992 -29.667 -2 -39c-40 -20.667 -92.333 -37 -157 -49s-133.334 -18 -206.001 -18h-27z" />
    <glyph glyph-name="uniFEDC" unicode="&#x643;" horiz-adv-x="513" arabic-form="medial" 
d="M0 0c-12.667 0 -19 6.00195 -19 18.002c0 12.667 6.33301 19 19 19h19c138 0 245.667 20.333 323 61c-1.33301 2 -3 4.83301 -5 8.5s-3.66699 6.5 -5 8.5c-16 27.333 -29.833 49.833 -41.5 67.5s-29.167 41.334 -52.5 71.001s-51.666 59.5 -84.999 89.5
s-71.333 60 -114 90v42c114.667 98.667 250 174.667 406 228v-37c-137.333 -43.333 -263 -113 -377 -209l58 -44.5c18 -14.333 34.833 -28.833 50.5 -43.5l41 -39c11.667 -11.333 23.5 -24.333 35.5 -39l28.5 -34.5c7 -8.33301 15.333 -19.833 25 -34.5l19.5 -30l19 -30
c9.33301 -14.667 14.666 -23.334 15.999 -26.001c2 -2.66699 6 -9 12 -19s9.83301 -16.167 11.5 -18.5l10.5 -15c5.33301 -7.66699 9.16602 -12.5 11.499 -14.5l12 -10.5c5.66699 -5 10.834 -8.16699 15.501 -9.5s10.5 -3.33301 17.5 -6s14.5 -4.33398 22.5 -5.00098
s16.667 -1 26 -1h13v-37h-16c-36 0 -64 5.66699 -84 17s-37.667 28.666 -53 51.999c-39.333 -22 -89.5 -39 -150.5 -51s-123.167 -18 -186.5 -18h-23z" />
    <glyph glyph-name="uniFEDD" unicode="&#x644;" horiz-adv-x="716" arabic-form="isolated" 
d="M584 720l34.002 4c5.33301 -373.333 8 -595 8 -665c0 -90 -26.5 -161.167 -79.5 -213.5s-128.167 -78.5 -225.5 -78.5c-77.333 0 -136.833 20 -178.5 60s-62.5 96 -62.5 168c0 66.667 18 140 54 220l29 -14c-32 -70.667 -48 -137 -48 -199
c0 -60.667 17.667 -108.834 53 -144.501s88.666 -53.5 159.999 -53.5c81.333 0 145.666 22.833 192.999 68.5s71 107.167 71 184.5v15.5c0 5.66699 -0.166992 15.334 -0.5 29.001s-0.5 29.167 -0.5 46.5s-0.333008 43.333 -1 78s-1.16699 72.5 -1.5 113.5s-1 95.5 -2 163.5
s-1.83301 140.333 -2.5 217z" />
    <glyph glyph-name="uniFEDE" unicode="&#x644;" horiz-adv-x="810" arabic-form="final" 
d="M321 -243c-77.333 0 -136.833 20.0029 -178.5 60.0029s-62.5 96 -62.5 168c0 66.667 18 140 54 220l29 -14c-32 -70.667 -48 -137 -48 -199c0 -60.667 17.667 -108.834 53 -144.501s88.666 -53.5 159.999 -53.5c81.333 0 145.833 23.333 193.5 70s71.5 108.667 71.5 186
c0 53.333 -2.33301 276.666 -7 669.999l34 4l6 -507c0.666992 -74.667 13.834 -123.334 39.501 -146.001s71.5 -34 137.5 -34h7v-37h-16c-89.333 -0 -146.333 24.333 -171 73v-24c0 -90 -26.333 -161.167 -79 -213.5s-127 -78.5 -223 -78.5z" />
    <glyph glyph-name="uniFEDF" unicode="&#x644;" horiz-adv-x="307" arabic-form="initial" 
d="M0 0c-12.667 0 -19 6 -19 18c0 12.667 6.33301 19 19 19h8c62 0 115 8 159 24c10 52.667 15 132.334 15 239.001c0 75.333 -1.66699 215.333 -5 420l35 4c3.33301 -182.667 5 -314 5 -394c0 -93.333 -1 -156.833 -3 -190.5s-7.66699 -68.167 -17 -103.5
c-19.333 -10.667 -47 -19.334 -83 -26.001s-71.333 -10 -106 -10h-8z" />
    <glyph glyph-name="uniFEE0" unicode="&#x644;" horiz-adv-x="406" arabic-form="medial" 
d="M0 0c-12.667 0 -19 6 -19 18c0 12.667 6.33301 19 19 19h23c32.667 0 59.834 3.66699 81.501 11s38.167 15.833 49.5 25.5s19.833 24.667 25.5 45s8.83398 37.166 9.50098 50.499s1 34 1 62v11v478l35 4v-507c0 -65.333 13.667 -111.666 41 -138.999
s71.666 -41 132.999 -41h7v-37h-16c-44.667 0 -83.334 8.5 -116.001 25.5s-54.334 43.5 -65.001 79.5c-21.333 -70 -85.666 -105 -192.999 -105h-16z" />
    <glyph glyph-name="uniFEE1" unicode="&#x645;" horiz-adv-x="608" arabic-form="isolated" 
d="M424 97c37.333 0 70.001 2.66895 98.001 8.00195c8 39.333 12 73.666 12 102.999c0 57.333 -13.167 101.666 -39.5 132.999s-62.166 47 -107.499 47c-52.667 0 -96.334 -23.5 -131.001 -70.5s-52 -109.833 -52 -188.5c87.333 -21.333 160.666 -32 219.999 -32z
M124.001 -228.998l-34.001 -3c-6.66699 140 -10 228.667 -10 266c0 62.667 29.333 96 88 100c1.33301 87.333 22.166 157.333 62.499 210s92.5 79 156.5 79c58 0 102.667 -19 134 -57s47 -88.333 47 -151c0 -48 -6.66699 -93 -20 -135c-20.667 -11.333 -65 -17 -133 -17
c-37.333 0 -75.166 2.83301 -113.499 8.5s-69.166 11.5 -92.499 17.5l-35 9c-40 0 -60 -22 -60 -66c0 -22 3.33301 -109 10 -261z" />
    <glyph glyph-name="uniFEE2" unicode="&#x645;" horiz-adv-x="711" arabic-form="final" 
d="M402 65c38 0 85.667 8.66602 143 25.999c-2 8 -4.33301 18.333 -7 31c-12 75.333 -29.167 129.833 -51.5 163.5s-53.833 50.5 -94.5 50.5c-38 0 -72 -17.167 -102 -51.5s-60.333 -93.166 -91 -176.499c65.333 -28.667 133 -43 203 -43zM124 -244.001l-34.0029 -3
c-6.66699 138 -10 225 -10 261c0 62 29 95.333 87 100c30 88 62.333 152.833 97 194.5s78.334 62.5 131.001 62.5c49.333 0 87 -18.5 113 -55.5s46.667 -98.167 62 -183.5c6.66699 -36 18.834 -60.833 36.501 -74.5s44.167 -20.5 79.5 -20.5h25v-37h-24
c-66 0 -109.333 20.333 -130 61c-64 -21.333 -118 -32 -162 -32c-26 0 -51.167 1.66699 -75.5 5s-44.666 7.5 -60.999 12.5s-30.833 9.83301 -43.5 14.5s-22.5 8.66699 -29.5 12s-10.833 5 -11.5 5c-40 0 -60 -22 -60 -66c0 -22.667 3.33301 -108 10 -256z" />
    <glyph glyph-name="uniFEE3" unicode="&#x645;" horiz-adv-x="638" arabic-form="initial" 
d="M445 34c20 0 42.667 1.66699 68 5c7.33301 31.333 11 59 11 83c0 62 -12 110.833 -36 146.5s-56.333 53.5 -97 53.5c-30 0 -57 -9.66699 -81 -29s-48.333 -53.333 -73 -102c-20.667 -40 -37 -69.667 -49 -89c65.333 -45.333 151 -68 257 -68zM436 -1
c-116.667 0 -206.333 24 -269 72c-20 -26 -41.833 -44.333 -65.5 -55s-54.5 -16 -92.5 -16h-9c-12.667 0 -19 6 -19 18c0 12.667 6.33301 19 19 19h10c46.667 0 82.5 11.5 107.5 34.5s54.5 67.833 88.5 134.5c27.333 52.667 54.5 90.834 81.5 114.501
s61.833 35.5 104.5 35.5c52.667 0 93.5 -21.333 122.5 -64s43.5 -96.334 43.5 -161.001c0 -42.667 -6.33301 -83 -19 -121c-30.667 -7.33301 -65 -11 -103 -11z" />
    <glyph glyph-name="uniFEE4" unicode="&#x645;" horiz-adv-x="710" arabic-form="medial" 
d="M383 35c72 0 126.335 16.668 163.002 50.001c-4.66699 12.667 -8.33398 25 -11.001 37c-18.667 74.667 -38.334 126.667 -59.001 156s-50.667 44 -90 44c-28.667 0 -54.5 -9.66699 -77.5 -29s-46.833 -53.333 -71.5 -102c-21.333 -42.667 -39 -74.334 -53 -95.001
c64 -40.667 130.333 -61 199 -61zM686.002 0.000976562c-60 0 -101.333 17.666 -124 52.999c-46 -36 -106.667 -54 -182 -54c-80 0 -152.667 22 -218 66c-19.333 -23.333 -40.5 -40 -63.5 -50s-52.833 -15 -89.5 -15h-9c-12.667 0 -19 6 -19 18c0 12.667 6.33301 19 19 19
h10c47.333 0 83.5 11.5 108.5 34.5s54.5 67.833 88.5 134.5c28.667 53.333 56 91.833 82 115.5s60.333 35.5 103 35.5c47.333 0 83.5 -17.167 108.5 -51.5s47.5 -92.166 67.5 -173.499c9.33301 -38 22.333 -63.333 39 -76s42.667 -19 78 -19h25v-37h-24z" />
    <glyph glyph-name="uniFEE5" unicode="&#x646;" horiz-adv-x="767" arabic-form="isolated" 
d="M390 397l41 -38l-36 -39l-41 35zM647 310c26.667 -91.333 40.001 -170.999 40.001 -238.999c0 -88.667 -29.167 -158.667 -87.5 -210s-142.5 -77 -252.5 -77c-86.667 0 -152.834 20 -198.501 60s-68.5 96.333 -68.5 169c0 79.333 17.333 156 52 230l31 -14
c-31.333 -68.667 -47 -138.334 -47 -209.001c0 -61.333 19.333 -109.833 58 -145.5s98.667 -53.5 180 -53.5c92.667 0 165.5 21.667 218.5 65s79.5 101 79.5 173c0 78 -12.667 157.667 -38 239z" />
    <glyph glyph-name="uniFEE6" unicode="&#x646;" horiz-adv-x="818" arabic-form="final" 
d="M390 367l41 -38l-36 -39l-41 35zM347 -241c-86.667 0 -152.833 20.001 -198.5 60.001s-68.5 96.333 -68.5 169c0 79.333 17.333 156 52 230l31 -14c-31.333 -68.667 -47 -138.334 -47 -209.001c0 -61.333 19.333 -109.833 58 -145.5s98.667 -53.5 180 -53.5
c92.667 0 165.5 21.667 218.5 65s79.5 101 79.5 173c0 78 -12.667 157.667 -38 239l33 12c24.667 -85.333 37.667 -155.333 39 -210c34 -25.333 75.667 -38 125 -38h7v-37h-16c-42.667 0 -81 10 -115 30c-3.33301 -84 -34.333 -150.167 -93 -198.5s-141 -72.5 -247 -72.5z
" />
    <glyph glyph-name="uniFEE7" unicode="&#x646;" horiz-adv-x="321" arabic-form="initial" 
d="M90 495l41 -38l-36 -39l-41 35zM0 0c-12.667 0 -19 6 -19 18c0 12.667 6.33301 19 19 19h3c84.667 0 151 14 199 42c3.33301 21.333 5 43 5 65c0 67.333 -9 130 -27 188l33 11c18.667 -64 28 -128 28 -192c0 -36 -3.33301 -67 -10 -93c-58 -38.667 -134 -58 -228 -58h-3z
" />
    <glyph glyph-name="uniFEE8" unicode="&#x646;" horiz-adv-x="429" arabic-form="medial" 
d="M99 495l41 -38l-36 -39l-41 35zM0 0c-12.667 0 -18.999 6.00098 -18.999 18.001c0 12.667 6.33301 19 19 19h17c44 0 80 4 108 12s48.667 20.167 62 36.5s22.166 33.166 26.499 50.499s6.5 39.666 6.5 66.999v122l34 4v-126c0 -51.333 -7.66699 -90.666 -23 -117.999
c48.667 -32 112.334 -48 191.001 -48h7v-37h-6c-89.333 0 -160 19 -212 57c-36.667 -38 -102.334 -57 -197.001 -57h-14z" />
    <glyph glyph-name="uniFEE9" unicode="&#x647;" horiz-adv-x="486" arabic-form="isolated" 
d="M218 419c66 -39.333 117.166 -83.832 153.499 -133.499s54.5 -99.834 54.5 -150.501c0 -42 -16.5 -76.5 -49.5 -103.5s-81.5 -40.5 -145.5 -40.5c-53.333 0 -95.166 12.5 -125.499 37.5s-45.5 59.833 -45.5 104.5c0 48.667 13 95 39 139s65.667 93 119 147z
M234.999 26.001c48 0 86.5 9.33301 115.5 28s43.5 44.667 43.5 78c0 41.333 -16.5 85.333 -49.5 132s-73.5 84 -121.5 112c-86.667 -84.667 -130 -161.667 -130 -231c0 -79.333 47.333 -119 142 -119z" />
    <glyph glyph-name="uniFEEA" unicode="&#x647;" horiz-adv-x="568" arabic-form="final" 
d="M568 0l-18 0.000976562c-83.333 0 -134.333 28 -153 84c-39.333 -5.33301 -80.333 -8 -123 -8c-132.667 0 -199 35 -199 105s34.5 129.333 103.5 178s150.5 73 244.5 73v-284c0 -38.667 9.66699 -66.834 29 -84.501s53.333 -26.5 102 -26.5h14v-37zM280 111.001
c47.333 0 84 2.33301 110 7c-0.666992 4.66699 -1 12.667 -1 24v252c-81.333 -2.66699 -148.333 -26.167 -201 -70.5s-79 -89.5 -79 -135.5c0 -51.333 57 -77 171 -77z" />
    <glyph glyph-name="uniFEEB" unicode="&#x647;" horiz-adv-x="665" arabic-form="initial" 
d="M136 202c0 -50 27.999 -94.333 83.999 -133c46.667 16.667 81.834 38.5 105.501 65.5s35.5 52.833 35.5 77.5c0 78.667 -36.333 136.667 -109 174c-77.333 -60 -116 -121.333 -116 -184zM479.999 -19c26.667 0 45.5 5.50098 56.5 16.501s16.5 27.5 16.5 49.5
c0 50 -15.667 99.5 -47 148.5s-86 100.5 -164 154.5c34 -32 51 -76 51 -132c0 -70 -46.667 -127 -140 -171c36 -20.667 75 -36.834 117 -48.501s78.667 -17.5 110 -17.5zM475.999 -52.999c-33.333 0 -74.999 7.66602 -124.999 22.999s-95.333 36 -136 62
c-62.667 -21.333 -129.334 -32 -200.001 -32h-15c-12.667 0 -19 6 -19 18c0 12.667 6.33301 19 19 19h15c64 0 119.667 6.33301 167 19c-52 42.667 -78 89.334 -78 140.001c0 77.333 47.667 152.666 143 225.999c102 -37.333 183.833 -90.5 245.5 -159.5
s92.5 -138.167 92.5 -207.5c0 -33.333 -7.83301 -59.666 -23.5 -78.999s-44.167 -29 -85.5 -29z" />
    <glyph glyph-name="uniFEEC" unicode="&#x647;" horiz-adv-x="600" arabic-form="medial" 
d="M142 64v-18c80.667 13.333 145.167 38.5 193.5 75.5s72.5 77.833 72.5 122.5c0 55.333 -32 111.666 -96 168.999c-113.333 -97.333 -170 -213.666 -170 -348.999zM360 -190c20.667 0 40.333 2.33496 59 7.00195c6 22 9 43.667 9 65
c0 77.333 -35.333 141.666 -106 192.999c-48 -30.667 -107 -52.334 -177 -65.001c8 -65.333 31 -115 69 -149s86.667 -51 146 -51zM443.999 -206.998c-30 -10.667 -60.3311 -15.998 -90.998 -15.998c-67.333 0 -122.333 20.667 -165 62s-68.334 96.666 -77.001 165.999
c-31.333 -3.33301 -61.333 -5 -90 -5h-21c-12.667 0 -19 6 -19 18c0 12.667 6.33301 19 19 19h19c28 0 57.667 1.66699 89 5v11c0 160.667 68.667 295.334 206 404.001c46 -38 78.667 -73.333 98 -106s29 -68.334 29 -107.001c0 -24.667 -7.83301 -50.5 -23.5 -77.5
s-38.5 -51.5 -68.5 -73.5c62.667 -37.333 137 -56 223 -56h28v-37h-27c-72.667 0 -127.334 10.333 -164.001 31c34 -38.667 51 -88.334 51 -149.001c0 -31.333 -5.33301 -61 -16 -89z" />
    <glyph glyph-name="uniFEED" unicode="&#x648;" horiz-adv-x="513" arabic-form="isolated" 
d="M258 34c49.333 0 97.001 6.66797 143.001 20.001c-0.666992 82 -14.667 149.5 -42 202.5s-65.333 79.5 -114 79.5c-44.667 0 -78.834 -17.833 -102.501 -53.5s-35.5 -74.834 -35.5 -117.501c0 -44 10.833 -76.833 32.5 -98.5s61.167 -32.5 118.5 -32.5zM155.001 -235.999
c-33.333 0 -68.333 4.33594 -105 13.0029l8 33c31.333 -7.33301 65.666 -11 102.999 -11c44 0 82 6.66699 114 20s56.333 31.666 73 54.999s29 46.666 37 69.999s13 48.666 15 75.999c-44 -13.333 -94.333 -20 -151 -20c-65.333 0 -110.666 14.167 -135.999 42.5
s-38 67.833 -38 118.5c0 60.667 15.5 110.667 46.5 150s72.167 59 123.5 59c58.667 0 104.667 -28.167 138 -84.5s50 -131.833 50 -226.5c0 -93.333 -23.5 -165.833 -70.5 -217.5s-116.167 -77.5 -207.5 -77.5z" />
    <glyph glyph-name="uniFEEE" unicode="&#x648;" horiz-adv-x="518" arabic-form="final" 
d="M281 37l120.001 0.000976562v15c0 82 -13.833 149.833 -41.5 203.5s-65.834 80.5 -114.501 80.5c-44.667 0 -78.834 -17.833 -102.501 -53.5s-35.5 -74.834 -35.5 -117.501s12.333 -74.667 37 -96s70.334 -32 137.001 -32zM155.001 -235.999
c-33.333 0 -68.3359 4.33496 -105.003 13.002l8 33c31.333 -7.33301 65.666 -11 102.999 -11c34 0 64.667 4.33301 92 13s49.333 19.667 66 33s30.834 29.166 42.501 47.499s20 36.166 25 53.499s8.5 35.333 10.5 54h-110c-80 0 -135.5 14.167 -166.5 42.5
s-46.5 67.833 -46.5 118.5c0 60.667 15.5 110.667 46.5 150s72.5 59 124.5 59c58.667 0 104.834 -28.167 138.501 -84.5s50.5 -131.833 50.5 -226.5v-22h84v-37h-88c-9.33301 -75.333 -37.166 -133.5 -83.499 -174.5s-110.166 -61.5 -191.499 -61.5z" />
    <glyph glyph-name="uniFEEF" unicode="&#x649;" horiz-adv-x="789" arabic-form="isolated" 
d="M357 -221c-89.333 0 -157.836 21.8301 -205.503 65.4971s-71.5 104.834 -71.5 183.501c0 79.333 17.333 156 52 230l31 -15c-31.333 -68.667 -47 -138 -47 -208c0 -146 82.667 -219 248 -219c82.667 0 151.334 17.667 206.001 53s83.334 82.333 86.001 141l-30 22.5
c-10.667 7.66699 -22.834 15.334 -36.501 23.001l-36 20c-10.333 5.66699 -24.666 12.834 -42.999 21.501l-41.5 19.5l-46.5 21l-44.5 19.5v21c0 45.333 6.5 85 19.5 119s30.833 60.5 53.5 79.5s47.334 33.167 74.001 42.5s55.334 14 86.001 14c44 0 86.667 -12.667 128 -38
l-16 -32c-34.667 22.667 -73 34 -115 34c-123.333 0 -189 -72.333 -197 -217c66.667 -28 121.667 -53.333 165 -76s81.666 -48 114.999 -76c0 -76 -30 -136.5 -90 -181.5s-141.333 -67.5 -244 -67.5z" />
    <glyph glyph-name="uniFEF0" unicode="&#x649;" horiz-adv-x="777" arabic-form="final" 
d="M351 -240c-87.333 0 -154.335 21 -201.002 63s-70 100.667 -70 176c0 79.333 17.333 156 52 230l30 -15c-31.333 -68.667 -47 -138 -47 -208c0 -66 19.667 -117.333 59 -154s100.666 -55 183.999 -55c80 0 146.833 18.833 200.5 56.5s83.834 89.167 90.501 154.5
c-67.333 8 -141.666 24.667 -222.999 50l11 34c48.667 -16 103.834 -29.167 165.501 -39.5s116.834 -15.5 165.501 -15.5h9v-37h-9c-30.667 -0 -58.334 1.33301 -83.001 4c-8.66699 -72.667 -43 -131.5 -103 -176.5s-137 -67.5 -231 -67.5z" />
    <glyph glyph-name="uniFEF1" unicode="&#x64a;" horiz-adv-x="789" arabic-form="isolated" 
d="M357 -221c-89.333 0 -157.836 21.8301 -205.503 65.4971s-71.5 104.834 -71.5 183.501c0 79.333 17.333 156 52 230l31 -15c-31.333 -68.667 -47 -138 -47 -208c0 -146 82.667 -219 248 -219c82.667 0 151.334 17.667 206.001 53s83.334 82.333 86.001 141l-30 22.5
c-10.667 7.66699 -22.834 15.334 -36.501 23.001l-36 20c-10.333 5.66699 -24.666 12.834 -42.999 21.501l-41.5 19.5l-46.5 21l-44.5 19.5v21c0 45.333 6.5 85 19.5 119s30.833 60.5 53.5 79.5s47.334 33.167 74.001 42.5s55.334 14 86.001 14c44 0 86.667 -12.667 128 -38
l-16 -32c-34.667 22.667 -73 34 -115 34c-123.333 0 -189 -72.333 -197 -217c66.667 -28 121.667 -53.333 165 -76s81.666 -48 114.999 -76c0 -76 -30 -136.5 -90 -181.5s-141.333 -67.5 -244 -67.5zM446.997 -332.003l39 -36l-34 -38l-40 34zM315.997 -336.003l39 -36
l-34 -38l-40 34z" />
    <glyph glyph-name="uniFEF2" unicode="&#x64a;" horiz-adv-x="777" arabic-form="final" 
d="M351 -240c-87.333 0 -154.335 21 -201.002 63s-70 100.667 -70 176c0 79.333 17.333 156 52 230l30 -15c-31.333 -68.667 -47 -138 -47 -208c0 -66 19.667 -117.333 59 -154s100.666 -55 183.999 -55c80 0 146.833 18.833 200.5 56.5s83.834 89.167 90.501 154.5
c-67.333 8 -141.666 24.667 -222.999 50l11 34c48.667 -16 103.834 -29.167 165.501 -39.5s116.834 -15.5 165.501 -15.5h9v-37h-9c-30.667 -0 -58.334 1.33301 -83.001 4c-8.66699 -72.667 -43 -131.5 -103 -176.5s-137 -67.5 -231 -67.5zM441.998 -332l39 -36l-34 -38
l-40 34zM310.998 -336l39 -36l-34 -38l-40 34z" />
    <glyph glyph-name="uniFEF3" unicode="&#x64a;" horiz-adv-x="321" arabic-form="initial" 
d="M0 0c-12.667 0 -19 6 -19 18c0 12.667 6.33301 19 19 19h3c84.667 0 151 14 199 42c3.33301 21.333 5 43 5 65c0 67.333 -9 130 -27 188l33 11c18.667 -64 28 -128 28 -192c0 -36 -3.33301 -67 -10 -93c-58 -38.667 -134 -58 -228 -58h-3zM156 -123l39 -36l-34 -38
l-40 34zM25 -127l39 -36l-34 -38l-40 34z" />
    <glyph glyph-name="uniFEF4" unicode="&#x64a;" horiz-adv-x="429" arabic-form="medial" 
d="M0 0c-12.667 0 -18.999 6.00098 -18.999 18.001c0 12.667 6.33301 19 19 19h17c44 0 80 4 108 12s48.667 20.167 62 36.5s22.166 33.166 26.499 50.499s6.5 39.666 6.5 66.999v122l34 4v-126c0 -51.333 -7.66699 -90.666 -23 -117.999
c48.667 -32 112.334 -48 191.001 -48h7v-37h-6c-89.333 0 -160 19 -212 57c-36.667 -38 -102.334 -57 -197.001 -57h-14zM152.001 -126.999l39 -36l-34 -38l-40 34zM21.001 -130.999l39 -36l-34 -38l-40 34z" />
    <glyph glyph-name=".notdef" horiz-adv-x="756" 
d="M160 0v701h436v-701h-436zM195 666v-631h366v631h-366z" />
    <glyph glyph-name=".null" 
 />
    <glyph glyph-name=".null" 
 />
    <glyph glyph-name="CR" unicode="&#xd;" 
 />
    <glyph glyph-name="space" unicode=" " horiz-adv-x="233" 
 />
    <glyph glyph-name="exclam" unicode="!" horiz-adv-x="277" 
d="M157 700v-272c0 -68.667 -1.66699 -135.667 -5 -201h-28c-3.33301 64.667 -5 132 -5 202v271h38zM167 25c0 -8 -2.66699 -15 -8 -21s-12 -9 -20 -9c-8.66699 0 -15.667 3 -21 9s-8 13 -8 21s2.66699 14.833 8 20.5s12.333 8.5 21 8.5c8 0 14.667 -2.83301 20 -8.5
s8 -12.5 8 -20.5z" />
    <glyph glyph-name="quotedbl" unicode="&#x22;" horiz-adv-x="297" 
d="M62 493c-1.33301 54 -2 123 -2 207h34c0 -84 -0.666992 -153 -2 -207h-30zM205 493c-1.33301 54 -2 123 -2 207h34c0 -84 -0.666992 -153 -2 -207h-30z" />
    <glyph glyph-name="numbersign" unicode="#" horiz-adv-x="620" 
d="M394 230l48 212h-218l-48 -212h218zM343 0l44 198h-218l-44 -198h-32l44 198h-107v32h114l48 212h-107v32h114l44 197h32l-44 -197h218l44 197h32l-44 -197h109v-32h-116l-48 -212h109v-32h-116l-44 -198h-32z" />
    <glyph glyph-name="dollar" unicode="$" horiz-adv-x="530" 
d="M278 -125l-35.001 0.000976562v113c-64 2 -123 14.333 -177 37l9 30c64 -23.333 124.333 -35 181 -35c122 0 183 47.667 183 143c0 20.667 -3.66699 39.167 -11 55.5s-15.5 29.5 -24.5 39.5s-23.667 20 -44 30s-37.333 17.333 -51 22l-64.5 21
c-62.667 20 -108.167 43.167 -136.5 69.5s-42.5 65.166 -42.5 116.499c0 52 17.333 92 52 120s78.334 43.333 131.001 46v100h35v-100c45.333 -2.66699 90.666 -11.334 135.999 -26.001l-7 -30c-53.333 15.333 -103.333 23 -150 23c-50.667 0 -90.167 -11.333 -118.5 -34
s-42.5 -55.667 -42.5 -99c0 -42.667 12.333 -74.167 37 -94.5s65.334 -39.833 122.001 -58.5c28.667 -9.33301 51 -17 67 -23s35 -14.833 57 -26.5s38.5 -23.667 49.5 -36s20.667 -28.5 29 -48.5s12.5 -42.333 12.5 -67c0 -30.667 -5.5 -57.5 -16.5 -80.5
s-26.333 -40.833 -46 -53.5s-40.5 -22.167 -62.5 -28.5s-46 -10.166 -72 -11.499v-114z" />
    <glyph glyph-name="percent" unicode="%" horiz-adv-x="810" 
d="M342 519c0 -50 -12.999 -89.999 -38.999 -119.999s-61 -45 -105 -45c-42.667 0 -77.167 15.167 -103.5 45.5s-39.5 70.166 -39.5 119.499c0 48.667 13.167 88.167 39.5 118.5s60.833 45.5 103.5 45.5c43.333 0 78.166 -15.167 104.499 -45.5s39.5 -69.833 39.5 -118.5z
M549.001 671.001h35l-322 -671h-35zM91.001 519.001c0 -41.333 9.16699 -73.834 27.5 -97.501s44.833 -35.5 79.5 -35.5c36 0 63 11.833 81 35.5s27 56.167 27 97.5c0 40.667 -9 72.834 -27 96.501s-45 35.5 -81 35.5c-34.667 0 -61.167 -12 -79.5 -36s-27.5 -56 -27.5 -96z
M755.001 153c0 -50 -12.999 -89.999 -38.999 -119.999s-61 -45 -105 -45c-42.667 0 -77.167 15.167 -103.5 45.5s-39.5 70.166 -39.5 119.499c0 48.667 13.167 88.167 39.5 118.5s60.833 45.5 103.5 45.5c43.333 0 78.166 -15.167 104.499 -45.5s39.5 -69.833 39.5 -118.5z
M504.002 153.001c0 -41.333 9.16699 -73.834 27.5 -97.501s44.833 -35.5 79.5 -35.5c36 0 63 11.833 81 35.5s27 56.167 27 97.5c0 40.667 -9 72.834 -27 96.501s-45 35.5 -81 35.5c-34.667 0 -61.167 -12 -79.5 -36s-27.5 -56 -27.5 -96z" />
    <glyph glyph-name="ampersand" unicode="&#x26;" horiz-adv-x="686" 
d="M194 554c0 -52.667 25.333 -108.332 76 -166.999c60 20 106.333 43.833 139 71.5s49 63.167 49 106.5c0 33.333 -11.667 60.666 -35 81.999s-56 32 -98 32c-38 0 -69.333 -11.167 -94 -33.5s-37 -52.833 -37 -91.5zM276 21.002c91.333 0 163.001 33.999 215.001 101.999
l-157 152c-36.667 35.333 -62.334 61 -77.001 77c-52 -17.333 -91.833 -38.166 -119.5 -62.499s-41.5 -60.5 -41.5 -108.5s16 -86.667 48 -116s76 -44 132 -44zM619.001 0.000976562l-104.998 102.002c-59.333 -76 -138.666 -114 -237.999 -114
c-66 0 -118.5 17.667 -157.5 53s-58.5 81.666 -58.5 138.999c0 51.333 15.5 92.333 46.5 123s74.167 55 129.5 73c-52 60.667 -78 120 -78 178c0 48.667 15.667 87.167 47 115.5s71.666 42.5 120.999 42.5c50 0 90.5 -13.5 121.5 -40.5s46.5 -62.5 46.5 -106.5
c0 -90.667 -67.333 -158.334 -202 -203.001c13.333 -14 35.666 -36 66.999 -66l151 -145c27.333 46 45.666 99.667 54.999 161h34c-12.667 -73.333 -35 -134.333 -67 -183l134 -129h-47z" />
    <glyph glyph-name="quotesingle" unicode="'" horiz-adv-x="154" 
d="M62 493c-1.33301 54 -2 123 -2 207h34c0 -84 -0.666992 -153 -2 -207h-30z" />
    <glyph glyph-name="parenleft" unicode="(" horiz-adv-x="264" 
d="M229 761c-84.667 -134 -127 -285 -127 -453c0 -167.333 42.333 -318 127 -452h-36c-85.333 130 -128 280.667 -128 452c0 172 42.667 323 128 453h36z" />
    <glyph glyph-name="parenright" unicode=")" horiz-adv-x="264" 
d="M162 308c0 168 -42.333 319 -127 453h36c85.333 -130 128 -281 128 -453c0 -171.333 -42.667 -322 -128 -452h-36c84.667 134 127 284.667 127 452z" />
    <glyph glyph-name="asterisk" unicode="*" horiz-adv-x="390" 
d="M285 435c-37.333 44 -67.333 80.667 -90 110c-22.667 -29.333 -52.667 -66 -90 -110l-26 23l91 101c-26.667 7.33301 -70 20.666 -130 39.999l10 32c53.333 -16.667 97 -32 131 -46c-2 40.667 -3 87 -3 139h34c0 -52 -1 -98.333 -3 -139c34 14 77.667 29.333 131 46
l10 -32c-60 -19.333 -103.333 -32.666 -130 -39.999l91 -101z" />
    <glyph glyph-name="plus" unicode="+" horiz-adv-x="491" 
d="M456 327h-193v-200h-35v200h-193v32h193v194h35v-194h193v-32z" />
    <glyph glyph-name="comma" unicode="," horiz-adv-x="181" 
d="M78 70h35c-4 -70.667 -21 -143 -51 -217h-28c24 66.667 38.667 139 44 217z" />
    <glyph glyph-name="hyphen" unicode="-" horiz-adv-x="306" 
d="M40 296v32h226v-32h-226z" />
    <glyph glyph-name="period" unicode="." horiz-adv-x="171" 
d="M86 -7c-9.33301 0 -16.833 3.16699 -22.5 9.5s-8.5 13.833 -8.5 22.5s2.83301 16 8.5 22s13.167 9 22.5 9s16.666 -3 21.999 -9s8 -13.333 8 -22s-2.66699 -16.167 -8 -22.5s-12.666 -9.5 -21.999 -9.5z" />
    <glyph glyph-name="slash" unicode="/" horiz-adv-x="403" 
d="M328 755h35l-288 -810h-35z" />
    <glyph glyph-name="zero" unicode="0" horiz-adv-x="608" 
d="M304 -12c-42.667 0 -79.5 8.83301 -110.5 26.5s-55.333 42.667 -73 75s-30.5 68.666 -38.5 108.999s-12 85.833 -12 136.5s4 96.167 12 136.5s20.833 76.833 38.5 109.5s42 57.834 73 75.501s67.833 26.5 110.5 26.5s79.5 -8.83301 110.5 -26.5
s55.333 -42.834 73 -75.501s30.5 -69.167 38.5 -109.5s12 -85.833 12 -136.5s-4 -96.167 -12 -136.5s-20.833 -76.666 -38.5 -108.999s-42 -57.333 -73 -75s-67.833 -26.5 -110.5 -26.5zM304 21c131.333 0 197 104.667 197 314c0 210 -65.667 315 -197 315
s-197 -105 -197 -315c0 -209.333 65.667 -314 197 -314z" />
    <glyph glyph-name="one" unicode="1" horiz-adv-x="337" 
d="M237 0h-35v634c-54 -24 -107 -52.667 -159 -86l-16 29c56.667 36.667 115.667 68 177 94h33v-671z" />
    <glyph glyph-name="two" unicode="2" horiz-adv-x="487" 
d="M447 0h-417v33l138 138c73.333 72 126.833 132.167 160.5 180.5s50.5 100.5 50.5 156.5c0 45.333 -13.833 80.333 -41.5 105s-65.5 37 -113.5 37c-56 0 -109 -19.667 -159 -59l-16 27c55.333 43.333 114 65 176 65c60 0 106.667 -16.333 140 -49s50 -74.667 50 -126
c0 -60.667 -19 -118.167 -57 -172.5s-94.667 -117.833 -170 -190.5l-116 -113h375v-32z" />
    <glyph glyph-name="three" unicode="3" horiz-adv-x="498" 
d="M206 -12c-67.333 0 -124.332 13.333 -170.999 40l15 30c43.333 -25.333 95.666 -38 156.999 -38c56.667 0 100.834 14.5 132.501 43.5s47.5 69.833 47.5 122.5c0 96 -60.667 144 -182 144h-71v32h65c54.667 0 96 14.5 124 43.5s42 65.833 42 110.5
c0 42.667 -14.333 75.834 -43 99.501s-65.334 35.5 -110.001 35.5c-54 0 -101.667 -15 -143 -45l-19 24c45.333 35.333 99 53 161 53c56 0 101.667 -14.667 137 -44s53 -70.333 53 -123c0 -86 -37.333 -142 -112 -168c89.333 -20 134 -74 134 -162
c0 -62.667 -19 -111.334 -57 -146.001s-91.333 -52 -160 -52z" />
    <glyph glyph-name="four" unicode="4" horiz-adv-x="572" 
d="M430 206h102v-32h-102v-174h-35v174h-355v29c104 176.667 219.667 332.667 347 468h43v-465zM399 638c-128 -148.667 -235 -292.667 -321 -432h317v309c0 32 1.33301 73 4 123z" />
    <glyph glyph-name="five" unicode="5" horiz-adv-x="505" 
d="M221 -12c-64 0 -121.334 12.333 -172.001 37l15 31c48 -23.333 100.667 -35 158 -35c61.333 0 108.5 16.333 141.5 49s49.5 76 49.5 130c0 110.667 -68.667 166 -206 166c-31.333 0 -74.666 -5 -129.999 -15l30 320h302v-32h-271l-25 -250c35.333 6.66699 72 10 110 10
c71.333 0 127 -17 167 -51s60 -83.333 60 -148c0 -62.667 -20.167 -113.667 -60.5 -153s-96.5 -59 -168.5 -59z" />
    <glyph glyph-name="six" unicode="6" horiz-adv-x="562" 
d="M507 217c0 -68 -19.002 -123.167 -57.002 -165.5s-87.333 -63.5 -148 -63.5c-76.667 0 -134.5 29.667 -173.5 89s-58.5 133.666 -58.5 222.999c0 38.667 2.83301 75.834 8.5 111.501s15 70.167 28 103.5s29.5 62.333 49.5 87s45.5 44.334 76.5 59.001s66.167 22 105.5 22
c36.667 0 68.667 -4 96 -12l-7 -31c-32 6.66699 -61.667 10 -89 10c-38 0 -71.667 -8.16699 -101 -24.5s-52.666 -38.833 -69.999 -67.5s-30.833 -59.834 -40.5 -93.501s-15.834 -70.167 -18.501 -109.5c22.667 15.333 51.334 29 86.001 41s70.334 18 107.001 18
c64.667 0 115.167 -17.667 151.5 -53s54.5 -83.333 54.5 -144zM301.998 21c54.667 0 96.333 18.3311 125 54.998s43 83.667 43 141c0 50.667 -14.333 90.834 -43 120.501s-72.334 44.5 -131.001 44.5c-30.667 0 -63.667 -6.16699 -99 -18.5s-65.666 -27.5 -90.999 -45.5v-18
c0 -79.333 16.333 -145.666 49 -198.999s81.667 -80 147 -80z" />
    <glyph glyph-name="seven" unicode="7" horiz-adv-x="444" 
d="M167 0l-35.001 0.000976562c22 82 47.333 162.5 76 241.5s54.667 144.333 78 196l94 201.5h-350v32h384v-30l-94 -206c-20 -46 -44.667 -108.833 -74 -188.5s-55.666 -161.834 -78.999 -246.501z" />
    <glyph glyph-name="eight" unicode="8" horiz-adv-x="586" 
d="M292 -12c-63.333 0 -117.001 15.999 -161.001 47.999s-66 76.333 -66 133c0 79.333 47.333 138.333 142 177c-79.333 37.333 -119 92 -119 164c0 52.667 19.833 94.667 59.5 126s87.834 47 144.501 47c60 0 109.167 -17 147.5 -51s57.5 -76.333 57.5 -127
c0 -75.333 -40.333 -134 -121 -176c49.333 -16 85.833 -36.667 109.5 -62s35.5 -59.333 35.5 -102c0 -53.333 -22 -96.166 -66 -128.499s-98.333 -48.5 -163 -48.5zM288.999 352.999c4.66699 -1.33301 12.1689 -3.16602 22.502 -5.49902s18.166 -4.16602 23.499 -5.49902
c42 20 73.5 42.667 94.5 68s31.5 57 31.5 95c0 42.667 -15.833 77.5 -47.5 104.5s-72.167 40.5 -121.5 40.5c-48 0 -88 -12.667 -120 -38s-48 -59.333 -48 -102c0 -40.667 15.667 -74.334 47 -101.001s70.666 -45.334 117.999 -56.001zM292.001 20.999
c54.667 0 100.501 12.832 137.501 38.499s55.5 60.834 55.5 105.501c0 19.333 -3.5 36.5 -10.5 51.5s-15.833 27.5 -26.5 37.5s-26 19.5 -46 28.5s-39.167 16.167 -57.5 21.5s-42.833 12 -73.5 20c-10.667 2.66699 -18.334 5 -23.001 7c-98 -36 -147 -90 -147 -162
c0 -47.333 19 -83.833 57 -109.5s82.667 -38.5 134 -38.5z" />
    <glyph glyph-name="nine" unicode="9" horiz-adv-x="549" 
d="M264 283c36.667 0 72.334 6.33105 107.001 18.998s63.667 29.334 87 50.001c-0.666992 38.667 -4 74.334 -10 107.001s-15.667 64.167 -29 94.5s-32.833 54 -58.5 71s-56.5 25.5 -92.5 25.5c-54.667 0 -97.5 -18.333 -128.5 -55s-46.5 -82 -46.5 -136
c0 -52 13.667 -94.333 41 -127s70.666 -49 129.999 -49zM217 -12.002c-44 0 -84.998 6.33301 -122.998 19l6 31c44 -11.333 83 -17 117 -17c153.333 0 233.666 98 240.999 294c-54.667 -43.333 -121 -65 -199 -65c-65.333 0 -115.666 19.333 -150.999 58s-53 89 -53 151
c0 69.333 20 124 60 164s91 60 153 60c42.667 0 79.167 -9.5 109.5 -28.5s53.666 -45.333 69.999 -79s28.166 -69.667 35.499 -108s11 -80.5 11 -126.5c0 -235.333 -92.333 -353 -277 -353z" />
    <glyph glyph-name="colon" unicode=":" horiz-adv-x="171" 
d="M86 439c-9.33301 0 -16.833 3.16699 -22.5 9.5s-8.5 13.833 -8.5 22.5s2.83301 16 8.5 22s13.167 9 22.5 9s16.666 -3 21.999 -9s8 -13.333 8 -22s-2.66699 -16.167 -8 -22.5s-12.666 -9.5 -21.999 -9.5zM86 -7c-9.33301 0 -16.833 3.16699 -22.5 9.5
s-8.5 13.833 -8.5 22.5s2.83301 16 8.5 22s13.167 9 22.5 9s16.666 -3 21.999 -9s8 -13.333 8 -22s-2.66699 -16.167 -8 -22.5s-12.666 -9.5 -21.999 -9.5z" />
    <glyph glyph-name="semicolon" unicode=";" horiz-adv-x="221" 
d="M141 471c0 -8.66699 -2.66699 -16.167 -8 -22.5s-12.666 -9.5 -21.999 -9.5s-16.833 3.16699 -22.5 9.5s-8.5 13.833 -8.5 22.5s2.83301 16 8.5 22s13.167 9 22.5 9s16.666 -3 21.999 -9s8 -13.333 8 -22zM98 70h35c-4 -70.667 -21 -143 -51 -217h-28
c24 66.667 38.667 139 44 217z" />
    <glyph glyph-name="less" unicode="&#x3c;" horiz-adv-x="491" 
d="M456 136l-421 188v38l421 189v-38l-381 -170l381 -169v-38z" />
    <glyph glyph-name="equal" unicode="=" horiz-adv-x="491" 
d="M35 416v32h421v-32h-421zM35 237v32h421v-32h-421z" />
    <glyph glyph-name="greater" unicode="&#x3e;" horiz-adv-x="491" 
d="M35 136v38l381 169l-381 170v38l421 -189v-38z" />
    <glyph glyph-name="question" unicode="?" horiz-adv-x="432" 
d="M39 649l-9.00195 31.002c49.333 21.333 99.666 32 150.999 32c56 0 101.833 -14 137.5 -42s53.5 -66.667 53.5 -116c0 -25.333 -4.66699 -48.833 -14 -70.5s-19.166 -38.167 -29.499 -49.5s-24.5 -25.333 -42.5 -42c-19.333 -18 -33.166 -31.667 -41.499 -41
s-17.166 -23.5 -26.499 -42.5s-14 -39.167 -14 -60.5v-21h-33v21c0 25.333 4.83301 48.666 14.5 69.999s19 37.166 28 47.499s22.833 24.5 41.5 42.5c17.333 16 30.666 29.167 39.999 39.5s18.333 25 27 44s13 39.833 13 62.5c0 39.333 -13.5 70 -40.5 92
s-64.833 33 -113.5 33c-45.333 0 -92.666 -10 -141.999 -30zM187.998 54.002c8 0 14.667 -2.83301 20 -8.5s8 -12.5 8 -20.5s-2.66699 -15 -8 -21s-12 -9 -20 -9c-8.66699 0 -15.667 3 -21 9s-8 13 -8 21s2.66699 14.833 8 20.5s12.333 8.5 21 8.5z" />
    <glyph glyph-name="at" unicode="@" horiz-adv-x="921" 
d="M462 -217c-118.667 0 -215.333 35.998 -290 107.998s-112 171 -112 297c0 59.333 9.5 115.5 28.5 168.5s46 99.667 81 140s79.333 72.333 133 96s112.834 35.5 177.501 35.5c112 0 203.5 -33 274.5 -99s106.5 -152.667 106.5 -260c0 -39.333 -3 -75 -9 -107
s-15.333 -61.5 -28 -88.5s-30.667 -48 -54 -63s-51 -22.5 -83 -22.5c-52 0 -87.667 20 -107 60c-37.333 -40 -84 -60 -140 -60c-29.333 0 -55 5.5 -77 16.5s-39.167 26.167 -51.5 45.5s-21.5 40.333 -27.5 63s-9 47 -9 73c0 41.333 6.83301 79.333 20.5 114
s36.167 63.834 67.5 87.501s69.666 35.5 114.999 35.5c50 0 97 -11 141 -33l-23 -217c-5.33301 -51.333 -0.833008 -89.666 13.5 -114.999s40.5 -38 78.5 -38c91.333 0 137 83 137 249c0 98.667 -31.833 177.834 -95.5 237.501s-147.167 89.5 -250.5 89.5
c-112.667 0 -204.667 -38.333 -276 -115s-107 -174.334 -107 -293.001c0 -113.333 33.167 -203.833 99.5 -271.5s155.5 -101.5 267.5 -101.5c71.333 0 150.333 13.667 237 41l8 -31c-86 -28 -168 -42 -246 -42zM441.001 19.998c48.667 0 91.333 19 128 57
c-8.66699 25.333 -10.667 61.333 -6 108l21 188c-32 12 -67.667 18 -107 18c-52 0 -92.833 -18.5 -122.5 -55.5s-44.5 -86.833 -44.5 -149.5c0 -51.333 10.833 -91.833 32.5 -121.5s54.5 -44.5 98.5 -44.5z" />
    <glyph glyph-name="A" unicode="A" horiz-adv-x="632" 
d="M316 667c-56.667 -127.333 -110.332 -261.333 -160.999 -402h322c-50.667 140.667 -104.334 274.667 -161.001 402zM566.002 0c-24.667 80.667 -50.3311 158.334 -76.998 233.001h-346c-26.667 -74.667 -52.334 -152.334 -77.001 -233.001h-36
c88 271.333 177.333 504.666 268 699.999h36c97.333 -209.333 186.666 -442.666 267.999 -699.999h-36z" />
    <glyph glyph-name="B" unicode="B" horiz-adv-x="612" 
d="M267 0l-156.998 0.00195312v700h127c89.333 0 157.833 -13 205.5 -39s71.5 -71.667 71.5 -137c0 -45.333 -9.5 -81.666 -28.5 -108.999s-43.167 -46 -72.5 -56c37.333 -9.33301 68.166 -27.833 92.499 -55.5s36.5 -66.834 36.5 -117.501
c0 -36.667 -6.33301 -67.334 -19 -92.001s-31.834 -43.834 -57.501 -57.501s-54.167 -23.167 -85.5 -28.5s-69 -8 -113 -8zM145.002 668.002v-296h169c109.333 0 164 50.667 164 152c0 56 -20.167 94 -60.5 114s-100.5 30 -180.5 30h-92zM145.002 340.002v-308h122
c80 0 139.833 10.5 179.5 31.5s59.5 61.833 59.5 122.5c0 102.667 -64 154 -192 154h-169z" />
    <glyph glyph-name="C" unicode="C" horiz-adv-x="602" 
d="M380 -12c-100 0 -176.664 31.499 -229.997 94.499s-80 148.833 -80 257.5c0 110 25.333 199.5 76 268.5s125.667 103.5 225 103.5c57.333 0 114.333 -11.333 171 -34l-10 -32c-59.333 22 -113 33 -161 33c-60.667 0 -111.334 -16 -152.001 -48s-69.5 -72.667 -86.5 -122
s-25.5 -105.666 -25.5 -168.999c0 -96.667 23.167 -174 69.5 -232s114.166 -87 203.499 -87c52 0 105 11.667 159 35l8 -31c-50.667 -24.667 -106.334 -37 -167.001 -37z" />
    <glyph glyph-name="D" unicode="D" horiz-adv-x="685" 
d="M288 668l-142.998 -0.000976562v-636h143c99.333 0 174.166 29.5 224.499 88.5s75.5 135.5 75.5 229.5c0 94.667 -24.833 171.334 -74.5 230.001s-124.834 88 -225.501 88zM110.002 -0.000976562v700h178c108.667 0 192 -31.667 250 -95s87 -148.333 87 -255
s-29.167 -191.667 -87.5 -255s-141.5 -95 -249.5 -95h-178z" />
    <glyph glyph-name="E" unicode="E" horiz-adv-x="563" 
d="M503 32v-32h-393v700h393v-32h-358v-290h308v-32h-308v-314h358z" />
    <glyph glyph-name="F" unicode="F" horiz-adv-x="538" 
d="M145 0h-35v700h383v-32h-348v-310h288v-32h-288v-326z" />
    <glyph glyph-name="G" unicode="G" horiz-adv-x="680" 
d="M600 27c-56 -26 -117.334 -39 -184.001 -39c-112 0 -197.667 32.667 -257 98s-89 153.333 -89 264c0 104.667 27.833 191.167 83.5 259.5s134.834 102.5 237.501 102.5c71.333 0 136.333 -14.333 195 -43l-10 -31c-60 27.333 -121.667 41 -185 41
c-92 0 -162.333 -31.5 -211 -94.5s-73 -141.167 -73 -234.5c0 -98.667 26.333 -178.167 79 -238.5s129 -90.5 229 -90.5c56.667 0 106.667 8.66699 150 26v269h-171v32h206v-321z" />
    <glyph glyph-name="H" unicode="H" horiz-adv-x="720" 
d="M575 0v346h-430v-346h-35v700h35v-322h430v322h35v-700h-35z" />
    <glyph glyph-name="I" unicode="I" horiz-adv-x="255" 
d="M110 0v700h35v-700h-35z" />
    <glyph glyph-name="J" unicode="J" horiz-adv-x="255" 
d="M-48 -183l-16.999 28c68 40.667 114.167 87 138.5 139s36.5 131.667 36.5 239v477h35v-472c0 -82.667 -6.66699 -149 -20 -199s-32.833 -90 -58.5 -120s-63.834 -60.667 -114.501 -92z" />
    <glyph glyph-name="K" unicode="K" horiz-adv-x="617" 
d="M538 0l-244.999 350c-40.667 -28 -90 -56.667 -148 -86v-264h-35v700h35v-399c110 58 192.667 117.5 248 178.5s91.333 134.5 108 220.5h35c-12.667 -68 -36.334 -128.5 -71.001 -181.5s-82.667 -102.5 -144 -148.5l262 -370h-45z" />
    <glyph glyph-name="L" unicode="L" horiz-adv-x="547" 
d="M110 0v700h35v-668h357v-32h-392z" />
    <glyph glyph-name="M" unicode="M" horiz-adv-x="892" 
d="M744 700l38 0.000976562v-700h-35v535c0 14 0.166992 31.5 0.5 52.5s0.5 35.167 0.5 42.5c-70 -164.667 -164.667 -341.334 -284 -530.001h-36c-117.333 186 -212.333 363 -285 531c1.33301 -36 2 -68 2 -96v-535h-35v700h38c61.333 -153.333 161 -342.333 299 -567
c134 218.667 233 407.667 297 567z" />
    <glyph glyph-name="N" unicode="N" horiz-adv-x="720" 
d="M145 0h-35.002v700h34c64 -110 129 -214.167 195 -312.5s145.667 -210.833 239 -337.5c-2 25.333 -3 58 -3 98v552h35v-700h-34c-103.333 138 -188.166 255.333 -254.499 352s-126.166 194 -179.499 292c2 -62 3 -98 3 -108v-536z" />
    <glyph glyph-name="O" unicode="O" horiz-adv-x="706" 
d="M636 350c0 -68.667 -9.5 -129.502 -28.5 -182.502s-50.167 -96.167 -93.5 -129.5s-97 -50 -161 -50s-117.667 16.667 -161 50s-74.5 76.5 -93.5 129.5s-28.5 113.833 -28.5 182.5c0 50.667 5.5 97.334 16.5 140.001s27.5 80.834 49.5 114.501s51.5 60 88.5 79
s79.833 28.5 128.5 28.5c64 0 117.667 -16.667 161 -50s74.5 -76.5 93.5 -129.5s28.5 -113.833 28.5 -182.5zM107 349.998c0 -96 20.3311 -174.835 60.998 -236.502s102.334 -92.5 185.001 -92.5c42.667 0 80.167 8.83301 112.5 26.5s58 41.834 77 72.501
s33.167 65.334 42.5 104.001s14 80.667 14 126s-4.66699 87.333 -14 126s-23.5 73.334 -42.5 104.001s-44.667 54.834 -77 72.501s-69.833 26.5 -112.5 26.5c-43.333 0 -81.166 -8.83301 -113.499 -26.5s-57.833 -41.834 -76.5 -72.501s-32.667 -65.334 -42 -104.001
s-14 -80.667 -14 -126z" />
    <glyph glyph-name="P" unicode="P" horiz-adv-x="609" 
d="M257 668l-112 -0.00195312v-366h112c77.333 0 136.833 13.833 178.5 41.5s62.5 74.834 62.5 141.501s-21 113.834 -63 141.501s-101.333 41.5 -178 41.5zM257 269.998h-112v-270h-35v700h147c184.667 0 277 -71.667 277 -215s-92.333 -215 -277 -215z" />
    <glyph glyph-name="Q" unicode="Q" horiz-adv-x="706" 
d="M549 -170c-47.333 0 -86.5 13.666 -117.5 40.999s-49.833 66.666 -56.5 117.999c-4.66699 -0.666992 -12 -1 -22 -1c-64 0 -117.667 16.667 -161 50s-74.5 76.5 -93.5 129.5s-28.5 113.833 -28.5 182.5c0 50.667 5.5 97.334 16.5 140.001s27.5 80.834 49.5 114.501
s51.5 60 88.5 79s79.833 28.5 128.5 28.5c64 0 117.667 -16.667 161 -50s74.5 -76.5 93.5 -129.5s28.5 -113.833 28.5 -182.5c0 -94.667 -18.833 -174.5 -56.5 -239.5s-94.5 -104.167 -170.5 -117.5c6 -42.667 22 -75 48 -97s57.333 -33 94 -33c18 0 34.667 2 50 6l7 -33
c-22 -4 -41.667 -6 -59 -6zM107 349.999c0 -96 20.3311 -174.835 60.998 -236.502s102.334 -92.5 185.001 -92.5c42.667 0 80.167 8.83301 112.5 26.5s58 41.834 77 72.501s33.167 65.334 42.5 104.001s14 80.667 14 126s-4.66699 87.333 -14 126
s-23.5 73.334 -42.5 104.001s-44.667 54.834 -77 72.501s-69.833 26.5 -112.5 26.5c-43.333 0 -81.166 -8.83301 -113.499 -26.5s-57.833 -41.834 -76.5 -72.501s-32.667 -65.334 -42 -104.001s-14 -80.667 -14 -126z" />
    <glyph glyph-name="R" unicode="R" horiz-adv-x="613" 
d="M257 668h-112v-324h112c74 0 130.167 12.833 168.5 38.5s57.5 67.5 57.5 125.5c0 57.333 -19 98.333 -57 123s-94.333 37 -169 37zM242 312l-96.999 0.000976562v-312h-35v700h147c86 0 151.167 -15 195.5 -45s66.5 -79 66.5 -147c0 -58.667 -18 -104.334 -54 -137.001
s-81 -50 -135 -52c14 -4.66699 27.167 -13.167 39.5 -25.5s28.166 -33.5 47.499 -63.5l151 -230h-46l-136 211c-24.667 38 -46.667 64.333 -66 79s-45.333 22 -78 22z" />
    <glyph glyph-name="S" unicode="S" horiz-adv-x="544" 
d="M60 24l7.99805 35.001c72.667 -25.333 136.667 -38 192 -38c60 0 107.167 12.333 141.5 37s51.5 62 51.5 112c0 26 -4.5 48.667 -13.5 68s-23.667 35.833 -44 49.5s-40.666 24.667 -60.999 33s-47.5 17.5 -81.5 27.5c-64.667 20 -112 44.167 -142 72.5
s-45 68.5 -45 120.5c0 55.333 19.333 97.666 58 126.999s91.334 44 158.001 44c54 0 106.333 -9 157 -27l-8 -31c-56 16.667 -104.667 25 -146 25c-121.333 0 -182 -46 -182 -138c0 -44 13.167 -77 39.5 -99s68.5 -42 126.5 -60
c29.333 -8.66699 52.666 -16.334 69.999 -23.001s36.833 -15.834 58.5 -27.501s38.334 -24.334 50.001 -38.001s21.667 -31 30 -52s12.5 -44.833 12.5 -71.5c0 -33.333 -6.5 -62.166 -19.5 -86.499s-30.667 -43.166 -53 -56.499s-46.5 -23.166 -72.5 -29.499
s-54.333 -9.5 -85 -9.5c-73.333 0 -140 12 -200 36z" />
    <glyph glyph-name="T" unicode="T" horiz-adv-x="549" 
d="M519 668h-227v-668h-35v668h-227v32h489v-32z" />
    <glyph glyph-name="U" unicode="U" horiz-adv-x="700" 
d="M105 265l0.00195312 435h35v-435c0 -84 17.167 -145.667 51.5 -185s87.166 -59 158.499 -59s124.166 19.667 158.499 59s51.5 101 51.5 185v435h35v-435c0 -96.667 -20 -167 -60 -211s-101.667 -66 -185 -66s-145 22 -185 66s-60 114.333 -60 211z" />
    <glyph glyph-name="V" unicode="V" horiz-adv-x="594" 
d="M316 0h-37.998c-55.333 122 -101.833 235.667 -139.5 341s-73.834 225 -108.501 359h36c58 -229.333 135 -450.666 231 -663.999c96 213.333 173 434.666 231 663.999h36c-34.667 -134 -70.834 -253.667 -108.501 -359s-84.167 -219 -139.5 -341z" />
    <glyph glyph-name="W" unicode="W" horiz-adv-x="952" 
d="M685 32c88 218 153.331 440.667 195.998 668h36c-50 -242.667 -121 -476 -213 -700h-38c-45.333 106.667 -82 208.834 -110 306.501s-54.667 211.5 -80 341.5c-25.333 -130 -52 -243.833 -80 -341.5s-64.667 -199.834 -110 -306.501h-38
c-49.333 118 -90 229.667 -122 335s-62.333 227 -91 365h36c48 -240 113.333 -462.667 196 -668c82.667 213.333 145.334 436 188.001 668h42c42.667 -232 105.334 -454.667 188.001 -668z" />
    <glyph glyph-name="X" unicode="X" horiz-adv-x="577" 
d="M507 0l-223.002 337c-95.333 -124.667 -167.666 -237 -216.999 -337h-37c50.667 111.333 130 232.333 238 363l-223 337h41l207 -313c94 112.667 161.333 217 202 313h37c-43.333 -105.333 -117.666 -218 -222.999 -338l239 -362h-41z" />
    <glyph glyph-name="Y" unicode="Y" horiz-adv-x="563" 
d="M299 0h-35v305c-106 133.333 -187.333 265 -244 395h39c28 -65.333 59.333 -125.833 94 -181.5s78 -117.167 130 -184.5c94.667 121.333 168.667 243.333 222 366h38c-62 -137.333 -143.333 -269 -244 -395v-305z" />
    <glyph glyph-name="Z" unicode="Z" horiz-adv-x="554" 
d="M495 673c-51.333 -113.333 -107.832 -217.332 -169.499 -311.999s-140.834 -204.334 -237.501 -329.001h421v-32h-464v27c197.333 258 335.333 471.667 414 641h-404v32h440v-27z" />
    <glyph glyph-name="bracketleft" unicode="[" horiz-adv-x="244" 
d="M80 -144v905h124v-32h-89v-841h89v-32h-124z" />
    <glyph glyph-name="backslash" unicode="\" horiz-adv-x="403" 
d="M328 -55l-288 810h35l288 -810h-35z" />
    <glyph glyph-name="bracketright" unicode="]" horiz-adv-x="244" 
d="M40 -144v32h89v841h-89v32h124v-905h-124z" />
    <glyph glyph-name="asciicircum" unicode="^" horiz-adv-x="491" 
d="M396 357l-150 307l-151 -307h-37l170 343h35l170 -343h-37z" />
    <glyph glyph-name="underscore" unicode="_" horiz-adv-x="480" 
d="M20 -72v32h440v-32h-440z" />
    <glyph glyph-name="grave" unicode="`" horiz-adv-x="500" 
d="M252 570l-97 130h42l91 -130h-36z" />
    <glyph glyph-name="a" unicode="a" horiz-adv-x="519" 
d="M424 37c-52 -32.667 -113 -49.002 -183 -49.002c-58 0 -102.667 13 -134 39s-47 60.667 -47 104c0 52.667 17.667 90.834 53 114.501s81.333 35.834 138 36.501c43.333 0 89.333 -5.66699 138 -17v75c0 92.667 -49 139 -147 139c-48.667 0 -94 -9 -136 -27l-11 32
c42 18.667 91 28 147 28c121.333 0 182 -57.333 182 -172v-303zM242 20.998c61.333 0 110.333 12 147 36v175c-49.333 11.333 -95 17 -137 17c-104 0 -156 -39.333 -156 -118c0 -36 12.833 -63.333 38.5 -82s61.5 -28 107.5 -28z" />
    <glyph glyph-name="b" unicode="b" horiz-adv-x="572" 
d="M507 262c0 -84.667 -21.001 -151.5 -63.001 -200.5s-100.667 -73.5 -176 -73.5c-68 0 -122.333 10.333 -163 31v701l35 3v-252c36.667 27.333 82.334 41 137.001 41c70.667 0 126.667 -21.167 168 -63.5s62 -104.5 62 -186.5zM139.999 42c32 -14 74.999 -21 128.999 -21
c64.667 0 114.334 21.167 149.001 63.5s52 101.5 52 177.5c0 71.333 -17.333 125.333 -52 162s-82 55 -142 55c-26 0 -51.667 -4.5 -77 -13.5s-45 -19.833 -59 -32.5v-391z" />
    <glyph glyph-name="c" unicode="c" horiz-adv-x="490" 
d="M300 512c50 0 96.6699 -9.66602 140.003 -28.999l-10 -31c-44.667 18 -88 27 -130 27c-64.667 0 -113.834 -21 -147.501 -63s-50.5 -99 -50.5 -171c0 -72.667 17.833 -128.167 53.5 -166.5s88.167 -57.5 157.5 -57.5c41.333 0 82.666 10.333 123.999 31l10 -31
c-40.667 -22 -85.334 -33 -134.001 -33c-80 0 -141.333 22.167 -184 66.5s-64 107.833 -64 190.5c0 81.333 20.5 146.166 61.5 194.499s98.833 72.5 173.5 72.5z" />
    <glyph glyph-name="d" unicode="d" horiz-adv-x="571" 
d="M466 32c-41.333 -29.333 -95 -44 -161 -44c-72.667 0 -130.834 22.5 -174.501 67.5s-65.5 107.167 -65.5 186.5c0 84 22 150 66 198s107.333 72 190 72c38.667 0 75.334 -7.33301 110.001 -22v230l35 3v-691zM102 242c0 -68 18.333 -121.832 55 -161.499
s85.667 -59.5 147 -59.5c56.667 0 99 10 127 30v402c-34.667 17.333 -71.334 26 -110.001 26c-71.333 0 -125.666 -20.833 -162.999 -62.5s-56 -99.834 -56 -174.501z" />
    <glyph glyph-name="e" unicode="e" horiz-adv-x="549" 
d="M287 479c-54.667 0 -98 -18.166 -130 -54.499s-50.333 -84.833 -55 -145.5h345c0.666992 6 1 13.667 1 23c0 49.333 -13.167 91.166 -39.5 125.499s-66.833 51.5 -121.5 51.5zM484 24.001c-50 -24 -105.331 -35.999 -165.998 -35.999c-79.333 0 -141.333 22.333 -186 67
s-67 110 -67 196c0 77.333 19.667 140.166 59 188.499s93.666 72.5 162.999 72.5c64 0 113 -20.333 147 -61s51 -91.667 51 -153c0 -16 -1 -33 -3 -51h-381c0.666992 -75.333 20.167 -131.833 58.5 -169.5s91.166 -56.5 158.499 -56.5c52.667 0 105 11.667 157 35z" />
    <glyph glyph-name="f" unicode="f" horiz-adv-x="314" 
d="M110 0l-0.000976562 468h-80v32h80v76c0 103.333 43 155 129 155c22 0 45.333 -3.66699 70 -11l-9 -31c-25.333 6 -45.666 9 -60.999 9c-34.667 0 -59 -10.333 -73 -31s-21 -51 -21 -91v-76h147v-32h-147v-468h-35z" />
    <glyph glyph-name="g" unicode="g" horiz-adv-x="562" 
d="M102 259c0 -65.333 16.502 -116.333 49.502 -153s78.5 -55 136.5 -55c55.333 0 101.666 14.333 138.999 43v359c-38.667 17.333 -81 26 -127 26c-60.667 0 -108.834 -19.333 -144.501 -58s-53.5 -92.667 -53.5 -162zM271.002 -192c-54 0 -105.001 8.33301 -153.001 25
l9 33c50 -16.667 98 -25 144 -25c52.667 0 91.834 12.5 117.501 37.5s38.5 58.833 38.5 101.5v79c-35.333 -27.333 -82 -41 -140 -41c-68 0 -122 21 -162 63s-60 101.333 -60 178c0 78.667 21 140.5 63 185.5s99.667 67.5 173 67.5c64 0 117.667 -13.333 161 -40v-492
c0 -57.333 -16.667 -100.333 -50 -129s-80.333 -43 -141 -43z" />
    <glyph glyph-name="h" unicode="h" horiz-adv-x="589" 
d="M140 0h-35v720l35 3v-257c54 30.667 110.667 46 170 46s104.833 -15.5 136.5 -46.5s47.5 -72.833 47.5 -125.5v-340h-35v338c0 44 -12.333 78.5 -37 103.5s-62 37.5 -112 37.5c-62 0 -118.667 -15.667 -170 -47v-432z" />
    <glyph glyph-name="i" unicode="i" horiz-adv-x="245" 
d="M123 625c-9.33301 0 -16.833 3.16699 -22.5 9.5s-8.5 13.833 -8.5 22.5s2.83301 16 8.5 22s13.167 9 22.5 9s16.666 -3 21.999 -9s8 -13.333 8 -22s-2.66699 -16.167 -8 -22.5s-12.666 -9.5 -21.999 -9.5zM140 500v-500h-35v500h35z" />
    <glyph glyph-name="j" unicode="j" horiz-adv-x="245" 
d="M153 657c0 -8.66699 -2.66699 -16.167 -8 -22.5s-12.666 -9.5 -21.999 -9.5s-16.833 3.16699 -22.5 9.5s-8.5 13.833 -8.5 22.5s2.83301 16 8.5 22s13.167 9 22.5 9s16.666 -3 21.999 -9s8 -13.333 8 -22zM140 62c0 -65.333 -10.667 -116.168 -32 -152.501
s-58.333 -67.166 -111 -92.499l-13 28c47.333 26 79.333 53.667 96 83s25 74.333 25 135v437h35v-438z" />
    <glyph glyph-name="k" unicode="k" horiz-adv-x="519" 
d="M437 0l-175.999 238c-30 -22 -70.333 -47.333 -121 -76v-162h-35v720l35 3v-525c88 52 152.167 99.167 192.5 141.5s66.166 95.833 77.499 160.5h33c-14.667 -92.667 -66.667 -173.667 -156 -243l193 -257h-43z" />
    <glyph glyph-name="l" unicode="l" horiz-adv-x="276" 
d="M135 723v-602c0 -35.333 5.5 -61 16.5 -77s30.167 -24 57.5 -24c8.66699 0 18 1 28 3l4 -30c-10 -3.33301 -20.667 -5 -32 -5c-72.667 0 -109 44.333 -109 133v599z" />
    <glyph glyph-name="m" unicode="m" horiz-adv-x="900" 
d="M135 437l0.00195312 -436.999h-35v458c62 36 126.667 54 194 54c64.667 0 112 -19.333 142 -58c62.667 38.667 125.667 58 189 58c61.333 0 106.666 -15.667 135.999 -47s44 -73 44 -125v-340h-35v338c0 41.333 -11.833 75.166 -35.5 101.499s-59.834 39.5 -108.501 39.5
c-60.667 0 -118 -18.333 -172 -55c10.667 -24 16 -52 16 -84v-340h-35v338c0 42 -11.167 76 -33.5 102s-57.833 39 -106.5 39c-60 0 -113.333 -14 -160 -42z" />
    <glyph glyph-name="n" unicode="n" horiz-adv-x="584" 
d="M135 0l-35 0.000976562v458c65.333 36 133.333 54 204 54c62.667 0 109.167 -15.333 139.5 -46s45.5 -72.667 45.5 -126v-340h-35v338c0 43.333 -12.333 77.666 -37 102.999s-62 38 -112 38c-64 0 -120.667 -14 -170 -42v-437z" />
    <glyph glyph-name="o" unicode="o" horiz-adv-x="563" 
d="M498 250c0 -79.333 -18.833 -142.833 -56.5 -190.5s-91.167 -71.5 -160.5 -71.5c-68 0 -121 23.833 -159 71.5s-57 111.167 -57 190.5s19 142.833 57 190.5s91 71.5 159 71.5c69.333 0 122.833 -23.833 160.5 -71.5s56.5 -111.167 56.5 -190.5zM102 250
c0 -70.667 15 -126.5 45 -167.5s74.667 -61.5 134 -61.5c60.667 0 105.834 20.5 135.501 61.5s44.5 96.833 44.5 167.5s-14.833 126.5 -44.5 167.5s-74.834 61.5 -135.501 61.5c-59.333 0 -104 -20.5 -134 -61.5s-45 -96.833 -45 -167.5z" />
    <glyph glyph-name="p" unicode="p" horiz-adv-x="565" 
d="M135 442v-385c44 -24 87.333 -36 130 -36c64 0 112.833 21.167 146.5 63.5s50.5 102.5 50.5 180.5c0 62 -15.333 113.167 -46 153.5s-76.667 60.5 -138 60.5c-54 0 -101.667 -12.333 -143 -37zM279 512c73.333 0 128.501 -22.667 165.501 -68s55.5 -105 55.5 -179
c0 -84.667 -19 -152 -57 -202s-97 -75 -177 -75c-48.667 0 -92.334 10.333 -131.001 31v-203h-35v647c58 32.667 117.667 49 179 49z" />
    <glyph glyph-name="q" unicode="q" horiz-adv-x="565" 
d="M465 -184h-34.998v222c-34.667 -33.333 -83.334 -50 -146.001 -50c-66.667 0 -119.834 23 -159.501 69s-59.5 108.667 -59.5 188c0 84 21.5 149.5 64.5 196.5s101.5 70.5 175.5 70.5c64.667 0 118 -13 160 -39v-657zM102.002 245c0 -68 16.333 -122.332 49 -162.999
s77.667 -61 135 -61c59.333 0 107.333 17.667 144 53v380c-37.333 16.667 -79 25 -125 25c-62 0 -111.333 -20.333 -148 -61s-55 -98.334 -55 -173.001z" />
    <glyph glyph-name="r" unicode="r" horiz-adv-x="373" 
d="M105 457c59.333 36.667 129.333 55 210 55c10 0 22.667 -1 38 -3l-5 -33c-10 2 -21 3 -33 3c-68.667 0 -127 -14.333 -175 -43v-436h-35v457z" />
    <glyph glyph-name="s" unicode="s" horiz-adv-x="428" 
d="M348 489l-7.99707 -31.002c-43.333 14 -84 21 -122 21c-84.667 0 -127 -33.333 -127 -100c0 -14 2.66699 -26.667 8 -38s11.166 -20.333 17.499 -27s16.5 -13.5 30.5 -20.5s24.667 -11.833 32 -14.5l37 -13c58 -18.667 100.333 -38 127 -58s40 -49 40 -87
c0 -44 -16 -77.167 -48 -99.5s-73.667 -33.5 -125 -33.5c-28.667 0 -59 3 -91 9s-55 12.333 -69 19l9 33c53.333 -18.667 103.666 -28 150.999 -28c42.667 0 76 8.66699 100 26s36 42 36 74c0 28.667 -11.5 50.834 -34.5 66.501s-60.167 31.5 -111.5 47.5
c-46.667 14.667 -82.667 32.334 -108 53.001s-38 51 -38 91c0 42.667 14.333 75.5 43 98.5s69 34.5 121 34.5c51.333 0 94.666 -7.66699 129.999 -23z" />
    <glyph glyph-name="t" unicode="t" horiz-adv-x="328" 
d="M303 -1c-23.333 -7.33301 -46 -11 -68 -11c-86.667 0 -130 46.667 -130 140v340h-80v32h80v123l35 4v-127h149v-32h-149v-340c0 -39.333 8 -67 24 -83s39.333 -24 70 -24c22 0 44 3.33301 66 10z" />
    <glyph glyph-name="u" unicode="u" horiz-adv-x="574" 
d="M474 42c-68.667 -36 -138.333 -54.001 -209 -54.001c-57.333 0 -100 14.333 -128 43s-42 68.334 -42 119.001v350h35v-348c0 -40.667 10.833 -72.667 32.5 -96s55.5 -35 101.5 -35c64.667 0 123 14 175 42v437h35v-458z" />
    <glyph glyph-name="v" unicode="v" horiz-adv-x="512" 
d="M45 500l34.999 -0.000976562c25.333 -144 84 -299 176 -465c94 166 152.667 321 176 465h35c-14.667 -86.667 -37.667 -169.167 -69 -247.5s-72.666 -162.5 -123.999 -252.5h-37c-102.667 180.667 -166.667 347.334 -192 500.001z" />
    <glyph glyph-name="w" unicode="w" horiz-adv-x="782" 
d="M255 0l-37.998 0.000976562c-45.333 90 -82 174.167 -110 252.5s-48.667 160.833 -62 247.5h35c22.667 -144.667 74.667 -299.667 156 -465c66 132 111.667 254.667 137 368c-6.66699 29.333 -12.667 61.666 -18 96.999h35c23.333 -147.333 75.333 -302.333 156 -465
c42.667 87.333 76.667 166.833 102 238.5s43.333 147.167 54 226.5h35c-22.667 -150.667 -80.334 -317.334 -173.001 -500.001h-37c-62.667 124.667 -108.334 237 -137.001 337c-30 -107.333 -75 -219.666 -135 -336.999z" />
    <glyph glyph-name="x" unicode="x" horiz-adv-x="477" 
d="M399 0c-46 87.333 -100.997 168 -164.997 242c-42 -44.667 -75.333 -85 -100 -121s-44 -76.333 -58 -121h-36c17.333 51.333 38.5 95.833 63.5 133.5s61.5 81.5 109.5 131.5c-72.667 80.667 -127.667 159 -165 235h38c33.333 -66 83.666 -137 150.999 -213
c79.333 78 128.666 149 147.999 213h36c-11.333 -40 -30 -78.333 -56 -115s-62 -77 -108 -121c69.333 -78.667 129.666 -166.667 180.999 -264h-39z" />
    <glyph glyph-name="y" unicode="y" horiz-adv-x="504" 
d="M277 0c-54.667 -97.333 -126.332 -158.331 -214.999 -182.998l-10 32c40 10.667 75 28.167 105 52.5s58 58.166 84 101.499c-100.667 159.333 -165.334 325 -194.001 497h35c26 -150 85.667 -305 179 -465c89.333 162 147 317 173 465h35
c-14.667 -87.333 -37.5 -169.833 -68.5 -247.5s-72.167 -161.834 -123.5 -252.501z" />
    <glyph glyph-name="z" unicode="z" horiz-adv-x="454" 
d="M35 0l0.000976562 27c143.333 156.667 254.666 303.667 333.999 441h-314v32h355v-27c-79.333 -138.667 -189 -285.667 -329 -441h343v-32h-389z" />
    <glyph glyph-name="braceleft" unicode="{" horiz-adv-x="283" 
d="M207 -149c-61.333 0 -92 37.6689 -92 113.002c0 22.667 1.66699 57.334 5 104.001s5 81.334 5 104.001c0 46 -6.5 77.5 -19.5 94.5s-38.167 25.5 -75.5 25.5v32c37.333 0 62.5 8.5 75.5 25.5s19.5 48.5 19.5 94.5c0 22.667 -1.66699 57 -5 103s-5 81 -5 105
c0 75.333 30.667 113 92 113c14 0 26 -0.666992 36 -2v-30h-26c-25.333 0 -42.833 -6 -52.5 -18s-14.5 -33.333 -14.5 -64c0 -23.333 1.66699 -57.833 5 -103.5s5 -80.167 5 -103.5c0 -38.667 -4.66699 -68.834 -14 -90.501s-25.333 -36.834 -48 -45.501
c22.667 -8.66699 38.667 -23.834 48 -45.501s14 -51.834 14 -90.501c0 -22.667 -1.66699 -57 -5 -103s-5 -80.667 -5 -104c0 -30.667 4.83301 -52 14.5 -64s27.167 -18 52.5 -18h26v-30c-10 -1.33301 -22 -2 -36 -2z" />
    <glyph glyph-name="bar" unicode="|" horiz-adv-x="253" 
d="M110 -214v965h33v-965h-33z" />
    <glyph glyph-name="braceright" unicode="}" horiz-adv-x="283" 
d="M76 -149c-14 0 -26 0.665039 -36 1.99805v30h26c25.333 0 42.833 6 52.5 18s14.5 33.333 14.5 64c0 23.333 -1.66699 58 -5 104s-5 80.333 -5 103c0 38.667 4.66699 68.834 14 90.501s25.333 36.834 48 45.501c-22.667 8.66699 -38.667 23.834 -48 45.501
s-14 51.834 -14 90.501c0 23.333 1.66699 57.833 5 103.5s5 80.167 5 103.5c0 30.667 -4.83301 52 -14.5 64s-27.167 18 -52.5 18h-26v30c10 1.33301 22 2 36 2c61.333 0 92 -37.667 92 -113c0 -24 -1.66699 -59 -5 -105s-5 -80.333 -5 -103c0 -46 6.5 -77.5 19.5 -94.5
s38.167 -25.5 75.5 -25.5v-32c-37.333 0 -62.5 -8.5 -75.5 -25.5s-19.5 -48.5 -19.5 -94.5c0 -22.667 1.66699 -57.334 5 -104.001s5 -81.334 5 -104.001c0 -75.333 -30.667 -113 -92 -113z" />
    <glyph glyph-name="asciitilde" unicode="~" horiz-adv-x="491" 
d="M157 388c28 0 60.001 -9.66699 96.001 -29s64.667 -29 86 -29c37.333 0 67.666 22.667 90.999 68l27 -13c-13.333 -27.333 -29 -48.833 -47 -64.5s-41.667 -23.5 -71 -23.5c-28 0 -60 9.66699 -96 29s-64.667 29 -86 29c-44.667 0 -76.334 -22.667 -95.001 -68l-28 12
c10 28 25.833 49.833 47.5 65.5s46.834 23.5 75.501 23.5z" />
    <glyph glyph-name="uni00A0" unicode="&#xa0;" horiz-adv-x="235" 
 />
    <glyph glyph-name="exclamdown" unicode="&#xa1;" horiz-adv-x="277" 
d="M110 482c0 8 2.66699 15 8 21s12 9 20 9c8.66699 0 15.667 -3 21 -9s8 -13 8 -21s-2.66699 -14.833 -8 -20.5s-12.333 -8.5 -21 -8.5c-8 0 -14.667 2.83301 -20 8.5s-8 12.5 -8 20.5zM120 -193v272c0 68.667 1.66699 135.667 5 201h28c3.33301 -64.667 5 -132 5 -202
v-271h-38z" />
    <glyph glyph-name="cent" unicode="&#xa2;" horiz-adv-x="515" 
d="M455 14c-36 -15.333 -80.332 -24 -132.999 -26v-113h-35v113c-70 4 -124.5 29.167 -163.5 75.5s-58.5 108.5 -58.5 186.5s19.167 140.5 57.5 187.5s92.833 71.833 163.5 74.5v111h35v-111c47.333 -2.66699 89 -10.667 125 -24l-9 -31c-46 15.333 -91.667 23 -137 23
c-64.667 0 -113.834 -20.333 -147.501 -61s-50.5 -97 -50.5 -169c0 -72.667 17.5 -129.167 52.5 -169.5s85.167 -60.5 150.5 -60.5c53.333 0 100.333 8.33301 141 25z" />
    <glyph glyph-name="sterling" unicode="&#xa3;" horiz-adv-x="551" 
d="M138 0v338h-102v32h102v126c0 56.667 14.833 102 44.5 136s76.834 51 141.501 51c52 0 107 -11.333 165 -34l-10 -29c-60.667 20.667 -112.334 31 -155.001 31c-100.667 0 -151 -51.667 -151 -155v-126h175v-32h-175v-306h348v-32h-383z" />
    <glyph glyph-name="currency" unicode="&#xa4;" horiz-adv-x="560" 
d="M476 134l-69 68c-34 -28.667 -76.333 -43 -127 -43c-50 0 -92.667 14 -128 42l-68 -67l-24 25l68 67c-28.667 34 -43 76 -43 126s14.333 92 43 126l-68 67l24 25l68 -68c35.333 28 78 42 128 42c50.667 0 93 -14 127 -42l69 68l24 -25l-68 -67
c28 -35.333 42 -77.333 42 -126c0 -50 -14 -92 -42 -126l68 -67zM117 352c0 -48 15 -87.167 45 -117.5s69.333 -45.5 118 -45.5s87.667 15 117 45s44 69.333 44 118s-14.667 87.834 -44 117.501s-68.333 44.5 -117 44.5s-88 -14.833 -118 -44.5s-45 -68.834 -45 -117.501z
" />
    <glyph glyph-name="yen" unicode="&#xa5;" horiz-adv-x="613" 
d="M541 195l-217 0.000976562v-195h-35v195h-219v32h219v78l-37 47h-182v32h158c-73.333 100 -134.333 205.333 -183 316h39c50.667 -116.667 124.667 -238 222 -364c98 125.333 172.333 246.666 223 363.999h39c-48.667 -110.667 -109.667 -216 -183 -316h156v-32h-180
l-37 -47v-78h217v-32z" />
    <glyph glyph-name="brokenbar" unicode="&#xa6;" horiz-adv-x="253" 
d="M110 340v409h33v-409h-33zM110 -214v413h33v-413h-33z" />
    <glyph glyph-name="section" unicode="&#xa7;" horiz-adv-x="587" 
d="M269 160c68.667 -24.667 113.998 -43.665 135.998 -56.998c22.667 14.667 41.834 33.667 57.501 57s23.5 48.666 23.5 75.999c0 43.333 -22.333 77.666 -67 102.999c-20 12 -65 30.667 -135 56c-41.333 15.333 -74.666 31.666 -99.999 48.999
c-55.333 -34.667 -83 -79 -83 -133c0 -38.667 13 -68.167 39 -88.5s69 -41.166 129 -62.499zM265.998 -169.998c-64 0 -119.669 10.332 -167.002 30.999l9 32c48.667 -20 101.334 -30 158.001 -30c112 0 168 40.667 168 122c0 36.667 -12 63.5 -36 80.5
s-65.333 35.833 -124 56.5c-9.33301 2.66699 -16.333 5 -21 7c-66 23.333 -113.833 48 -143.5 74s-44.5 62 -44.5 108c0 34 9.16699 64.333 27.5 91s40.5 47.334 66.5 62.001c-28.667 28 -43 62.667 -43 104c0 48 17.5 84 52.5 108s78.5 36 130.5 36
c50 0 101.333 -8 154 -24l-9 -31c-52.667 14.667 -101 22 -145 22c-45.333 0 -81.333 -9.5 -108 -28.5s-40 -46.5 -40 -82.5c0 -34 12.833 -61.833 38.5 -83.5s62.5 -41.167 110.5 -58.5c28.667 -10 49.167 -17.5 61.5 -22.5l51 -21.5
c21.667 -9.33301 37.334 -18 47.001 -26s20.334 -18.167 32.001 -30.5s19.667 -25.833 24 -40.5s6.5 -31 6.5 -49c0 -32 -8.5 -61.833 -25.5 -89.5s-38.833 -49.167 -65.5 -64.5c26 -24 39 -56.333 39 -97c0 -54 -19.833 -93.333 -59.5 -118s-87.834 -37 -144.501 -37z" />
    <glyph glyph-name="dieresis" unicode="&#xa8;" horiz-adv-x="500" 
d="M354 635c0 -8.66699 -2.5 -16.167 -7.5 -22.5s-12.167 -9.5 -21.5 -9.5c-21.333 0 -32 10.667 -32 32c0 8.66699 2.66699 16 8 22s13.333 9 24 9c9.33301 0 16.5 -3 21.5 -9s7.5 -13.333 7.5 -22zM204 635c0 -9.33301 -2.66699 -17 -8 -23s-12.666 -9 -21.999 -9
c-10 0 -17.667 3 -23 9s-8 13.667 -8 23c0 8.66699 2.66699 16 8 22s13 9 23 9c9.33301 0 16.666 -3 21.999 -9s8 -13.333 8 -22z" />
    <glyph glyph-name="copyright" unicode="&#xa9;" horiz-adv-x="825" 
d="M775 350c0 -107.333 -33.333 -194.5 -100 -261.5s-154 -100.5 -262 -100.5c-108.667 0 -196.334 33.5 -263.001 100.5s-100 154.167 -100 261.5s33.333 194.5 100 261.5s154.334 100.5 263.001 100.5c108 0 195.333 -33.5 262 -100.5s100 -154.167 100 -261.5zM86 350
c0 -98.667 29.667 -178.167 89 -238.5s138.666 -90.5 237.999 -90.5c98.667 0 177.667 30.167 237 90.5s89 139.833 89 238.5s-29.667 178.167 -89 238.5s-138.333 90.5 -237 90.5c-99.333 0 -178.666 -30.167 -237.999 -90.5s-89 -139.833 -89 -238.5zM236 350
c0 67.333 17.832 117.168 53.499 149.501s79.167 48.5 130.5 48.5c35.333 0 71 -6.66699 107 -20l-9 -29c-31.333 10.667 -63 16 -95 16c-43.333 0 -79.333 -13 -108 -39s-43 -68 -43 -126s14.167 -100 42.5 -126s63.5 -39 105.5 -39c34.667 0 67.334 5.66699 98.001 17
l9 -30c-36 -13.333 -71.667 -20 -107 -20c-51.333 0 -94.833 16.167 -130.5 48.5s-53.5 82.166 -53.5 149.499z" />
    <glyph glyph-name="ordfeminine" unicode="&#xaa;" horiz-adv-x="347" 
d="M161 363c42.667 0 76.666 8.66699 101.999 26v100c-31.333 6 -63.666 9 -96.999 9c-60.667 0 -91 -21.667 -91 -65c0 -46.667 28.667 -70 86 -70zM296.999 372l-2.00293 0.000976562c-41.333 -27.333 -86.333 -41 -135 -41c-39.333 0 -69.166 9.16699 -89.499 27.5
s-30.5 43.166 -30.5 74.499c0 32 11.833 56.167 35.5 72.5s53.834 24.5 90.501 24.5c32.667 0 65 -3.33301 97 -10v46c0 30 -8 51.667 -24 65s-40 20 -72 20s-63.333 -5.66699 -94 -17l-7 30c36.667 12.667 70.334 19 101.001 19c86.667 0 130 -39 130 -117v-194z" />
    <glyph glyph-name="guillemotleft" unicode="&#xab;" horiz-adv-x="537" 
d="M446 64c-57.333 49.333 -123.001 116 -197.001 200c66.667 76 132.334 142.667 197.001 200h46c-75.333 -69.333 -141 -136 -197 -200c56 -64 121.667 -130.667 197 -200h-46zM221.999 64c-57.333 49.333 -123.001 116 -197.001 200
c66.667 76 132.334 142.667 197.001 200h46c-75.333 -69.333 -141 -136 -197 -200c56 -64 121.667 -130.667 197 -200h-46z" />
    <glyph glyph-name="logicalnot" unicode="&#xac;" horiz-adv-x="491" 
d="M456 137h-35v190h-386v32h421v-222z" />
    <glyph glyph-name="registered" unicode="&#xae;" horiz-adv-x="570" 
d="M51 473c0 71.333 21.5 129 64.5 173s99.167 66 168.5 66s125.833 -22.167 169.5 -66.5s65.5 -101.833 65.5 -172.5s-21.833 -128.167 -65.5 -172.5s-100.167 -66.5 -169.5 -66.5c-70 0 -126.333 22 -169 66s-64 101.667 -64 173zM485 473
c0 64.667 -18 115.334 -54 152.001s-85 55 -147 55s-110.667 -18.333 -146 -55s-53 -87.334 -53 -152.001c0 -65.333 17.667 -116.166 53 -152.499s84 -54.5 146 -54.5s111 18.167 147 54.5s54 87.166 54 152.499zM278 571h-39v-94h39c41.333 0 62 15.667 62 47
s-20.667 47 -62 47zM278 450l-39 0.000976562v-93h-32v241h71c63.333 0 95 -24.667 95 -74c0 -34.667 -16.667 -57.334 -50 -68.001c13.333 -26.667 35.333 -59.667 66 -99h-41c-24 31.333 -43.667 62.333 -59 93h-11z" />
    <glyph glyph-name="macron" unicode="&#xaf;" horiz-adv-x="500" 
d="M124 609v32h246v-32h-246z" />
    <glyph glyph-name="degree" unicode="&#xb0;" horiz-adv-x="328" 
d="M30 577c0 40.667 12.5 73.334 37.5 98.001s57.5 37 97.5 37s72.167 -12.333 96.5 -37s36.5 -57.334 36.5 -98.001s-12.167 -73.334 -36.5 -98.001s-56.5 -37 -96.5 -37s-72.5 12.333 -97.5 37s-37.5 57.334 -37.5 98.001zM165 680c-30 0 -54.333 -9.16699 -73 -27.5
s-28 -43.5 -28 -75.5s9.33301 -57.167 28 -75.5s43 -27.5 73 -27.5s54 9.16699 72 27.5s27 43.5 27 75.5s-9 57.167 -27 75.5s-42 27.5 -72 27.5z" />
    <glyph glyph-name="plusminus" unicode="&#xb1;" horiz-adv-x="491" 
d="M456 337h-193v-190h-35v190h-193v32h193v184h35v-184h193v-32zM35 35v32h421v-32h-421z" />
    <glyph glyph-name="twosuperior" unicode="&#xb2;" horiz-adv-x="310" 
d="M277 367l-231 0.00292969v29l33 27c54 44 91.333 78.667 112 104s31 52.333 31 81c0 23.333 -6.83301 41.166 -20.5 53.499s-32.5 18.5 -56.5 18.5c-28 0 -56.333 -10.667 -85 -32l-16 26l26.5 18.5c6.33301 4.33301 16.333 8.66602 30 12.999s28.5 6.5 44.5 6.5
c34 0 61 -8.83301 81 -26.5s30 -43.167 30 -76.5c0 -30.667 -11.333 -60.334 -34 -89.001s-62.667 -66.667 -120 -114l-11 -9h186v-30z" />
    <glyph glyph-name="threesuperior" unicode="&#xb3;" horiz-adv-x="310" 
d="M152 359c-38 0 -71.666 7.33301 -100.999 22l12 30c31.333 -13.333 61 -20 89 -20c55.333 0 83 22.667 83 68s-26 68 -78 68h-48v30h35c25.333 0 44.333 5 57 15s19 27 19 51c0 38 -24.667 57 -74 57c-23.333 0 -46.333 -7 -69 -21l-18 27c26.667 17.333 55.667 26 87 26
c33.333 0 59.666 -7.83301 78.999 -23.5s29 -37.5 29 -65.5c0 -40.667 -19.667 -67 -59 -79c49.333 -8.66699 74 -37 74 -85c0 -66.667 -39 -100 -117 -100z" />
    <glyph glyph-name="acute" unicode="&#xb4;" horiz-adv-x="500" 
d="M261 700h42l-97 -130h-36z" />
    <glyph glyph-name="paragraph" unicode="&#xb6;" horiz-adv-x="595" 
d="M275 700l210 0.000976562v-700h-35v670h-140v-670h-35v281c-60.667 0 -111.667 17.667 -153 53s-62 87.666 -62 156.999s20.5 121.5 61.5 156.5s92.167 52.5 153.5 52.5z" />
    <glyph glyph-name="periodcentered" unicode="&#xb7;" horiz-adv-x="500" 
d="M54 351c0 8 2.66699 14.833 8 20.5s12.333 8.5 21 8.5c8 0 14.667 -2.83301 20 -8.5s8 -12.5 8 -20.5s-2.66699 -15 -8 -21s-12 -9 -20 -9c-8.66699 0 -15.667 3 -21 9s-8 13 -8 21z" />
    <glyph glyph-name="cedilla" unicode="&#xb8;" horiz-adv-x="500" 
d="M213 -209c-18.667 0 -36.667 2.33203 -54 6.99902l6 28c17.333 -4 33.333 -6 48 -6c48 0 72 15.667 72 47c0 16.667 -6.83301 28.334 -20.5 35.001s-34.167 10.667 -61.5 12l-9 22l22 64h32l-20 -59c60.667 -3.33301 91 -28 91 -74c0 -25.333 -9.66699 -44.333 -29 -57
s-45 -19 -77 -19z" />
    <glyph glyph-name="onesuperior" unicode="&#xb9;" horiz-adv-x="310" 
d="M205 367h-33v302c-32.667 -16.667 -61 -32.667 -85 -48l-13 26c26 18 60.333 37 103 57h28v-337z" />
    <glyph glyph-name="ordmasculine" unicode="&#xba;" horiz-adv-x="376" 
d="M336 506c0 -48.667 -12 -90.167 -36 -124.5s-61.333 -51.5 -112 -51.5s-88 17.167 -112 51.5s-36 75.833 -36 124.5c0 49.333 12 91.166 36 125.499s61.333 51.5 112 51.5s88 -17.167 112 -51.5s36 -76.166 36 -125.499zM75 506c0 -44.667 9.5 -79.834 28.5 -105.501
s47.167 -38.5 84.5 -38.5s65.5 12.833 84.5 38.5s28.5 60.834 28.5 105.501s-9.5 80 -28.5 106s-47.167 39 -84.5 39s-65.5 -13 -84.5 -39s-28.5 -61.333 -28.5 -106z" />
    <glyph glyph-name="guillemotright" unicode="&#xbb;" horiz-adv-x="537" 
d="M91 64h-46.001c75.333 69.333 141 136 197 200c-56 64 -121.667 130.667 -197 200h46c64.667 -57.333 130.334 -124 197.001 -200c-74 -84 -139.667 -150.667 -197 -200zM314.999 64h-46.001c75.333 69.333 141 136 197 200c-56 64 -121.667 130.667 -197 200h46
c64.667 -57.333 130.334 -124 197.001 -200c-74 -84 -139.667 -150.667 -197 -200z" />
    <glyph glyph-name="onequarter" unicode="&#xbc;" horiz-adv-x="784" 
d="M205 367h-33v302c-32.667 -16.667 -61 -32.667 -85 -48l-13 26c26 18 60.333 37 103 57h28v-337zM571 700h37l-387 -700h-37zM642 196c0 36 0.999023 72 2.99902 108c-61.333 -77.333 -110.666 -146 -147.999 -206h145v98zM729.999 68h-54.999v-68h-33v68h-178v27
c49.333 86 108.666 166.667 177.999 242h33v-239h55v-30z" />
    <glyph glyph-name="onehalf" unicode="&#xbd;" horiz-adv-x="784" 
d="M205 367h-33v302c-32.667 -16.667 -61 -32.667 -85 -48l-13 26c26 18 60.333 37 103 57h28v-337zM539 700h37l-387 -700h-37zM721 0l-231 0.00292969v29l33 27c54 44 91.333 78.667 112 104s31 52.333 31 81c0 23.333 -6.83301 41.166 -20.5 53.499
s-32.5 18.5 -56.5 18.5c-28 0 -56.333 -10.667 -85 -32l-16 26l26.5 18.5c6.33301 4.33301 16.333 8.66602 30 12.999s28.5 6.5 44.5 6.5c34 0 61 -8.83301 81 -26.5s30 -43.167 30 -76.5c0 -30.667 -11.333 -60.334 -34 -89.001s-62.667 -66.667 -120 -114l-11 -9h186v-30z
" />
    <glyph glyph-name="threequarters" unicode="&#xbe;" horiz-adv-x="784" 
d="M588 700h37l-387 -700h-37zM152 359c-38 0 -71.666 7.33301 -100.999 22l12 30c31.333 -13.333 61 -20 89 -20c55.333 0 83 22.667 83 68s-26 68 -78 68h-48v30h35c25.333 0 44.333 5 57 15s19 27 19 51c0 38 -24.667 57 -74 57c-23.333 0 -46.333 -7 -69 -21l-18 27
c26.667 17.333 55.667 26 87 26c33.333 0 59.666 -7.83301 78.999 -23.5s29 -37.5 29 -65.5c0 -40.667 -19.667 -67 -59 -79c49.333 -8.66699 74 -37 74 -85c0 -66.667 -39 -100 -117 -100zM642.001 196c0 36 0.999023 72 2.99902 108
c-61.333 -77.333 -110.666 -146 -147.999 -206h145v98zM730 68h-54.999v-68h-33v68h-178v27c49.333 86 108.666 166.667 177.999 242h33v-239h55v-30z" />
    <glyph glyph-name="questiondown" unicode="&#xbf;" horiz-adv-x="432" 
d="M244 453c-8 0 -14.667 2.83301 -20 8.5s-8 12.5 -8 20.5s2.66699 15 8 21s12 9 20 9c8.66699 0 15.667 -3 21 -9s8 -13 8 -21s-2.66699 -14.833 -8 -20.5s-12.333 -8.5 -21 -8.5zM402 -173c-49.333 -21.333 -99.6641 -32.002 -150.997 -32.002
c-56 0 -101.833 14 -137.5 42s-53.5 66.667 -53.5 116c0 25.333 4.66699 48.833 14 70.5s19.166 38.167 29.499 49.5s24.5 25.333 42.5 42c19.333 18 33.166 31.667 41.499 41s17.166 23.5 26.499 42.5s14 39.167 14 60.5v21h33v-21
c0 -25.333 -4.83301 -48.666 -14.5 -69.999s-19 -37.166 -28 -47.499s-22.833 -24.5 -41.5 -42.5c-17.333 -16 -30.666 -29.167 -39.999 -39.5s-18.333 -25 -27 -44s-13 -39.833 -13 -62.5c0 -39.333 13.5 -70 40.5 -92s64.833 -33 113.5 -33c45.333 0 92.666 10 141.999 30
z" />
    <glyph glyph-name="Agrave" unicode="&#xc0;" horiz-adv-x="632" 
d="M301 770l-97 130h42l91 -130h-36zM316 667c-56.667 -127.333 -110.332 -261.333 -160.999 -402h322c-50.667 140.667 -104.334 274.667 -161.001 402zM566.002 0c-24.667 80.667 -50.3311 158.334 -76.998 233.001h-346
c-26.667 -74.667 -52.334 -152.334 -77.001 -233.001h-36c88 271.333 177.333 504.666 268 699.999h36c97.333 -209.333 186.666 -442.666 267.999 -699.999h-36z" />
    <glyph glyph-name="Aacute" unicode="&#xc1;" horiz-adv-x="632" 
d="M392 900h42l-97 -130h-36zM316 667c-56.667 -127.333 -110.332 -261.333 -160.999 -402h322c-50.667 140.667 -104.334 274.667 -161.001 402zM566.002 0c-24.667 80.667 -50.3311 158.334 -76.998 233.001h-346c-26.667 -74.667 -52.334 -152.334 -77.001 -233.001h-36
c88 271.333 177.333 504.666 268 699.999h36c97.333 -209.333 186.666 -442.666 267.999 -699.999h-36z" />
    <glyph glyph-name="Acircumflex" unicode="&#xc2;" horiz-adv-x="632" 
d="M407 770l-91 108l-91 -108h-39l106 130h48l106 -130h-39zM316 667c-56.667 -127.333 -110.332 -261.333 -160.999 -402h322c-50.667 140.667 -104.334 274.667 -161.001 402zM566.002 0c-24.667 80.667 -50.3311 158.334 -76.998 233.001h-346
c-26.667 -74.667 -52.334 -152.334 -77.001 -233.001h-36c88 271.333 177.333 504.666 268 699.999h36c97.333 -209.333 186.666 -442.666 267.999 -699.999h-36z" />
    <glyph glyph-name="Atilde" unicode="&#xc3;" horiz-adv-x="632" 
d="M248 876c20.667 0 45.999 -10 75.999 -30s51 -30 63 -30c10.667 0 18.834 3.16699 24.501 9.5s9.33398 13.5 11.001 21.5s2.83398 20 3.50098 36h32c-0.666992 -14 -1.83398 -26 -3.50098 -36s-4.83398 -20.167 -9.50098 -30.5s-11.834 -18.333 -21.501 -24
s-21.5 -8.5 -35.5 -8.5c-20.667 0 -45.167 10 -73.5 30s-50.166 30 -65.499 30c-16 0 -27 -4.83301 -33 -14.5s-9.66699 -24.167 -11 -43.5h-32c2 60 27 90 75 90zM315.999 667c-56.667 -127.333 -110.332 -261.333 -160.999 -402h322
c-50.667 140.667 -104.334 274.667 -161.001 402zM566.001 0c-24.667 80.667 -50.3311 158.334 -76.998 233.001h-346c-26.667 -74.667 -52.334 -152.334 -77.001 -233.001h-36c88 271.333 177.333 504.666 268 699.999h36
c97.333 -209.333 186.666 -442.666 267.999 -699.999h-36z" />
    <glyph glyph-name="Adieresis" unicode="&#xc4;" horiz-adv-x="632" 
d="M421 835c0 -8.66699 -2.5 -16.167 -7.5 -22.5s-12.167 -9.5 -21.5 -9.5c-21.333 0 -32 10.667 -32 32c0 8.66699 2.66699 16 8 22s13.333 9 24 9c9.33301 0 16.5 -3 21.5 -9s7.5 -13.333 7.5 -22zM271 835c0 -9.33301 -2.66699 -17 -8 -23s-12.666 -9 -21.999 -9
c-10 0 -17.667 3 -23 9s-8 13.667 -8 23c0 8.66699 2.66699 16 8 22s13 9 23 9c9.33301 0 16.666 -3 21.999 -9s8 -13.333 8 -22zM316 667c-56.667 -127.333 -110.332 -261.333 -160.999 -402h322c-50.667 140.667 -104.334 274.667 -161.001 402zM566.002 0
c-24.667 80.667 -50.3311 158.334 -76.998 233.001h-346c-26.667 -74.667 -52.334 -152.334 -77.001 -233.001h-36c88 271.333 177.333 504.666 268 699.999h36c97.333 -209.333 186.666 -442.666 267.999 -699.999h-36z" />
    <glyph glyph-name="Aring" unicode="&#xc5;" horiz-adv-x="632" 
d="M316 852c-19.333 0 -34.333 -5.83301 -45 -17.5s-16 -26.5 -16 -44.5c0 -17.333 5.33301 -32.333 16 -45s25.667 -19 45 -19s34.333 6.33301 45 19s16 27.667 16 45c0 18 -5.33301 32.833 -16 44.5s-25.667 17.5 -45 17.5zM316 667
c-56.667 -127.333 -110.332 -261.333 -160.999 -402h322c-50.667 140.667 -104.334 274.667 -161.001 402zM566.002 0c-24.667 80.667 -50.3311 158.334 -76.998 233.001h-346c-26.667 -74.667 -52.334 -152.334 -77.001 -233.001h-36
c88 271.333 177.333 504.666 268 699.999c-22 3.33301 -39.833 13.166 -53.5 29.499s-20.5 36.5 -20.5 60.5c0 26 8.83301 47.667 26.5 65s39.5 26 65.5 26s47.833 -8.66699 65.5 -26s26.5 -39 26.5 -65c0 -24 -6.83301 -44.167 -20.5 -60.5s-31.5 -26.166 -53.5 -29.499
c97.333 -209.333 186.666 -442.666 267.999 -699.999h-36z" />
    <glyph glyph-name="AE" unicode="&#xc6;" horiz-adv-x="878" 
d="M445 265v398c-84 -129.333 -164.667 -262 -242 -398h242zM445 0l0.000976562 233h-261c-54.667 -97.333 -97 -175 -127 -233h-37c123.333 238 261.666 471.333 414.999 700h383v-32h-338v-290h288v-32h-288v-314h338v-32h-373z" />
    <glyph glyph-name="Ccedilla" unicode="&#xc7;" horiz-adv-x="602" 
d="M336 -209c-18.667 0 -36.6641 2.33105 -53.9971 6.99805l6 28c17.333 -4 33.333 -6 48 -6c48 0 72 15.667 72 47c0 16.667 -6.83301 28.334 -20.5 35.001s-34.167 10.667 -61.5 12l-9 22l19 54c-86 9.33301 -151.833 45 -197.5 107s-68.5 143 -68.5 243
c0 110 25.333 199.5 76 268.5s125.667 103.5 225 103.5c57.333 0 114.333 -11.333 171 -34l-10 -32c-59.333 22 -113 33 -161 33c-60.667 0 -111.334 -16 -152.001 -48s-69.5 -72.667 -86.5 -122s-25.5 -105.666 -25.5 -168.999c0 -96.667 23.167 -174 69.5 -232
s114.166 -87 203.499 -87c52 0 105 11.667 159 35l8 -31c-50.667 -24.667 -106.334 -37 -167.001 -37h-13l-16 -47c60.667 -3.33301 91 -28 91 -74c0 -25.333 -9.66699 -44.333 -29 -57s-45 -19 -77 -19z" />
    <glyph glyph-name="Egrave" unicode="&#xc8;" horiz-adv-x="563" 
d="M294 770l-97 130h42l91 -130h-36zM503 32v-32h-393v700h393v-32h-358v-290h308v-32h-308v-314h358z" />
    <glyph glyph-name="Eacute" unicode="&#xc9;" horiz-adv-x="563" 
d="M385 900h42l-97 -130h-36zM503 32v-32h-393v700h393v-32h-358v-290h308v-32h-308v-314h358z" />
    <glyph glyph-name="Ecircumflex" unicode="&#xca;" horiz-adv-x="563" 
d="M400 770l-91 108l-91 -108h-39l106 130h48l106 -130h-39zM503 32v-32h-393v700h393v-32h-358v-290h308v-32h-308v-314h358z" />
    <glyph glyph-name="Edieresis" unicode="&#xcb;" horiz-adv-x="563" 
d="M414 835c0 -8.66699 -2.5 -16.167 -7.5 -22.5s-12.167 -9.5 -21.5 -9.5c-21.333 0 -32 10.667 -32 32c0 8.66699 2.66699 16 8 22s13.333 9 24 9c9.33301 0 16.5 -3 21.5 -9s7.5 -13.333 7.5 -22zM264 835c0 -9.33301 -2.66699 -17 -8 -23s-12.666 -9 -21.999 -9
c-10 0 -17.667 3 -23 9s-8 13.667 -8 23c0 8.66699 2.66699 16 8 22s13 9 23 9c9.33301 0 16.666 -3 21.999 -9s8 -13.333 8 -22zM503 32v-32h-393v700h393v-32h-358v-290h308v-32h-308v-314h358z" />
    <glyph glyph-name="Igrave" unicode="&#xcc;" horiz-adv-x="255" 
d="M113 770l-97 130h42l91 -130h-36zM110 0v700h35v-700h-35z" />
    <glyph glyph-name="Iacute" unicode="&#xcd;" horiz-adv-x="255" 
d="M204 900h42l-97 -130h-36zM110 0v700h35v-700h-35z" />
    <glyph glyph-name="Icircumflex" unicode="&#xce;" horiz-adv-x="255" 
d="M219 770l-91 108l-91 -108h-39l106 130h48l106 -130h-39zM110 0v700h35v-700h-35z" />
    <glyph glyph-name="Idieresis" unicode="&#xcf;" horiz-adv-x="255" 
d="M233 835c0 -8.66699 -2.5 -16.167 -7.5 -22.5s-12.167 -9.5 -21.5 -9.5c-21.333 0 -32 10.667 -32 32c0 8.66699 2.66699 16 8 22s13.333 9 24 9c9.33301 0 16.5 -3 21.5 -9s7.5 -13.333 7.5 -22zM83 835c0 -9.33301 -2.66699 -17 -8 -23s-12.666 -9 -21.999 -9
c-10 0 -17.667 3 -23 9s-8 13.667 -8 23c0 8.66699 2.66699 16 8 22s13 9 23 9c9.33301 0 16.666 -3 21.999 -9s8 -13.333 8 -22zM110 0v700h35v-700h-35z" />
    <glyph glyph-name="Eth" unicode="&#xd0;" horiz-adv-x="685" 
d="M300 345l-154.998 -0.000976562v-313h143c99.333 0 174.166 29.5 224.499 88.5s75.5 135.5 75.5 229.5c0 94.667 -24.833 171.334 -74.5 230.001s-124.834 88 -225.501 88h-143v-291h155v-32zM110.002 -0.000976562v345h-80v32h80v323h178c108.667 0 192 -31.667 250 -95
s87 -148.333 87 -255s-29.167 -191.667 -87.5 -255s-141.5 -95 -249.5 -95h-178z" />
    <glyph glyph-name="Ntilde" unicode="&#xd1;" horiz-adv-x="720" 
d="M292 876c20.667 0 45.999 -10 75.999 -30s51 -30 63 -30c10.667 0 18.834 3.16699 24.501 9.5s9.33398 13.5 11.001 21.5s2.83398 20 3.50098 36h32c-0.666992 -14 -1.83398 -26 -3.50098 -36s-4.83398 -20.167 -9.50098 -30.5s-11.834 -18.333 -21.501 -24
s-21.5 -8.5 -35.5 -8.5c-20.667 0 -45.167 10 -73.5 30s-50.166 30 -65.499 30c-16 0 -27 -4.83301 -33 -14.5s-9.66699 -24.167 -11 -43.5h-32c2 60 27 90 75 90zM144.999 0h-35.002v700h34c64 -110 129 -214.167 195 -312.5s145.667 -210.833 239 -337.5
c-2 25.333 -3 58 -3 98v552h35v-700h-34c-103.333 138 -188.166 255.333 -254.499 352s-126.166 194 -179.499 292c2 -62 3 -98 3 -108v-536z" />
    <glyph glyph-name="Ograve" unicode="&#xd2;" horiz-adv-x="706" 
d="M338 770l-97 130h42l91 -130h-36zM636 350c0 -68.667 -9.5 -129.502 -28.5 -182.502s-50.167 -96.167 -93.5 -129.5s-97 -50 -161 -50s-117.667 16.667 -161 50s-74.5 76.5 -93.5 129.5s-28.5 113.833 -28.5 182.5c0 50.667 5.5 97.334 16.5 140.001
s27.5 80.834 49.5 114.501s51.5 60 88.5 79s79.833 28.5 128.5 28.5c64 0 117.667 -16.667 161 -50s74.5 -76.5 93.5 -129.5s28.5 -113.833 28.5 -182.5zM107 349.998c0 -96 20.3311 -174.835 60.998 -236.502s102.334 -92.5 185.001 -92.5
c42.667 0 80.167 8.83301 112.5 26.5s58 41.834 77 72.501s33.167 65.334 42.5 104.001s14 80.667 14 126s-4.66699 87.333 -14 126s-23.5 73.334 -42.5 104.001s-44.667 54.834 -77 72.501s-69.833 26.5 -112.5 26.5c-43.333 0 -81.166 -8.83301 -113.499 -26.5
s-57.833 -41.834 -76.5 -72.501s-32.667 -65.334 -42 -104.001s-14 -80.667 -14 -126z" />
    <glyph glyph-name="Oacute" unicode="&#xd3;" horiz-adv-x="706" 
d="M429 900h42l-97 -130h-36zM636 350c0 -68.667 -9.5 -129.502 -28.5 -182.502s-50.167 -96.167 -93.5 -129.5s-97 -50 -161 -50s-117.667 16.667 -161 50s-74.5 76.5 -93.5 129.5s-28.5 113.833 -28.5 182.5c0 50.667 5.5 97.334 16.5 140.001s27.5 80.834 49.5 114.501
s51.5 60 88.5 79s79.833 28.5 128.5 28.5c64 0 117.667 -16.667 161 -50s74.5 -76.5 93.5 -129.5s28.5 -113.833 28.5 -182.5zM107 349.998c0 -96 20.3311 -174.835 60.998 -236.502s102.334 -92.5 185.001 -92.5c42.667 0 80.167 8.83301 112.5 26.5s58 41.834 77 72.501
s33.167 65.334 42.5 104.001s14 80.667 14 126s-4.66699 87.333 -14 126s-23.5 73.334 -42.5 104.001s-44.667 54.834 -77 72.501s-69.833 26.5 -112.5 26.5c-43.333 0 -81.166 -8.83301 -113.499 -26.5s-57.833 -41.834 -76.5 -72.501s-32.667 -65.334 -42 -104.001
s-14 -80.667 -14 -126z" />
    <glyph glyph-name="Ocircumflex" unicode="&#xd4;" horiz-adv-x="706" 
d="M444 770l-91 108l-91 -108h-39l106 130h48l106 -130h-39zM636 350c0 -68.667 -9.5 -129.502 -28.5 -182.502s-50.167 -96.167 -93.5 -129.5s-97 -50 -161 -50s-117.667 16.667 -161 50s-74.5 76.5 -93.5 129.5s-28.5 113.833 -28.5 182.5
c0 50.667 5.5 97.334 16.5 140.001s27.5 80.834 49.5 114.501s51.5 60 88.5 79s79.833 28.5 128.5 28.5c64 0 117.667 -16.667 161 -50s74.5 -76.5 93.5 -129.5s28.5 -113.833 28.5 -182.5zM107 349.998c0 -96 20.3311 -174.835 60.998 -236.502
s102.334 -92.5 185.001 -92.5c42.667 0 80.167 8.83301 112.5 26.5s58 41.834 77 72.501s33.167 65.334 42.5 104.001s14 80.667 14 126s-4.66699 87.333 -14 126s-23.5 73.334 -42.5 104.001s-44.667 54.834 -77 72.501s-69.833 26.5 -112.5 26.5
c-43.333 0 -81.166 -8.83301 -113.499 -26.5s-57.833 -41.834 -76.5 -72.501s-32.667 -65.334 -42 -104.001s-14 -80.667 -14 -126z" />
    <glyph glyph-name="Otilde" unicode="&#xd5;" horiz-adv-x="706" 
d="M285 876c20.667 0 45.999 -10 75.999 -30s51 -30 63 -30c10.667 0 18.834 3.16699 24.501 9.5s9.33398 13.5 11.001 21.5s2.83398 20 3.50098 36h32c-0.666992 -14 -1.83398 -26 -3.50098 -36s-4.83398 -20.167 -9.50098 -30.5s-11.834 -18.333 -21.501 -24
s-21.5 -8.5 -35.5 -8.5c-20.667 0 -45.167 10 -73.5 30s-50.166 30 -65.499 30c-16 0 -27 -4.83301 -33 -14.5s-9.66699 -24.167 -11 -43.5h-32c2 60 27 90 75 90zM635.999 350c0 -68.667 -9.5 -129.502 -28.5 -182.502s-50.167 -96.167 -93.5 -129.5s-97 -50 -161 -50
s-117.667 16.667 -161 50s-74.5 76.5 -93.5 129.5s-28.5 113.833 -28.5 182.5c0 50.667 5.5 97.334 16.5 140.001s27.5 80.834 49.5 114.501s51.5 60 88.5 79s79.833 28.5 128.5 28.5c64 0 117.667 -16.667 161 -50s74.5 -76.5 93.5 -129.5s28.5 -113.833 28.5 -182.5z
M106.999 349.998c0 -96 20.3311 -174.835 60.998 -236.502s102.334 -92.5 185.001 -92.5c42.667 0 80.167 8.83301 112.5 26.5s58 41.834 77 72.501s33.167 65.334 42.5 104.001s14 80.667 14 126s-4.66699 87.333 -14 126s-23.5 73.334 -42.5 104.001
s-44.667 54.834 -77 72.501s-69.833 26.5 -112.5 26.5c-43.333 0 -81.166 -8.83301 -113.499 -26.5s-57.833 -41.834 -76.5 -72.501s-32.667 -65.334 -42 -104.001s-14 -80.667 -14 -126z" />
    <glyph glyph-name="Odieresis" unicode="&#xd6;" horiz-adv-x="706" 
d="M458 835c0 -8.66699 -2.5 -16.167 -7.5 -22.5s-12.167 -9.5 -21.5 -9.5c-21.333 0 -32 10.667 -32 32c0 8.66699 2.66699 16 8 22s13.333 9 24 9c9.33301 0 16.5 -3 21.5 -9s7.5 -13.333 7.5 -22zM308 835c0 -9.33301 -2.66699 -17 -8 -23s-12.666 -9 -21.999 -9
c-10 0 -17.667 3 -23 9s-8 13.667 -8 23c0 8.66699 2.66699 16 8 22s13 9 23 9c9.33301 0 16.666 -3 21.999 -9s8 -13.333 8 -22zM636 350c0 -68.667 -9.5 -129.502 -28.5 -182.502s-50.167 -96.167 -93.5 -129.5s-97 -50 -161 -50s-117.667 16.667 -161 50
s-74.5 76.5 -93.5 129.5s-28.5 113.833 -28.5 182.5c0 50.667 5.5 97.334 16.5 140.001s27.5 80.834 49.5 114.501s51.5 60 88.5 79s79.833 28.5 128.5 28.5c64 0 117.667 -16.667 161 -50s74.5 -76.5 93.5 -129.5s28.5 -113.833 28.5 -182.5zM107 349.998
c0 -96 20.3311 -174.835 60.998 -236.502s102.334 -92.5 185.001 -92.5c42.667 0 80.167 8.83301 112.5 26.5s58 41.834 77 72.501s33.167 65.334 42.5 104.001s14 80.667 14 126s-4.66699 87.333 -14 126s-23.5 73.334 -42.5 104.001s-44.667 54.834 -77 72.501
s-69.833 26.5 -112.5 26.5c-43.333 0 -81.166 -8.83301 -113.499 -26.5s-57.833 -41.834 -76.5 -72.501s-32.667 -65.334 -42 -104.001s-14 -80.667 -14 -126z" />
    <glyph glyph-name="multiply" unicode="&#xd7;" horiz-adv-x="491" 
d="M404 162l-158 159l-159 -159l-23 22l159 159l-159 159l23 22l159 -158l158 158l23 -22l-159 -159l159 -159z" />
    </font>
</defs>
</svg>
