<?xml version="1.0" standalone="no"?>
<!DOCTYPE svg PUBLIC "-//W3C//DTD SVG 1.1//EN" "http://www.w3.org/Graphics/SVG/1.1/DTD/svg11.dtd" >
<svg>
<metadata>
Created by FontForge 20090914 at Mon Oct 25 00:04:37 2021
 By www-data
Copyright 2016 Indian Type Foundry. All Rights Reserved.
</metadata>
<defs>
<font id="DiodrumArabic-Bold" horiz-adv-x="0" >
  <font-face 
    font-family="DiodrumArabic-Bold"
    font-weight="400"
    font-stretch="normal"
    units-per-em="1000"
    panose-1="0 0 8 0 0 0 0 0 0 0"
    ascent="798"
    descent="-202"
    x-height="515"
    cap-height="700"
    bbox="-1537 -703 1579 1297"
    underline-thickness="0"
    underline-position="0"
    unicode-range="U+000D-U+FEFC"
  />
<missing-glyph horiz-adv-x="756" 
d="M160 0v701h436v-701h-436zM241 625v-549h275v549h-275z" />
    <glyph glyph-name="uniFEF5" unicode="&#xfedf;&#xfe82;" horiz-adv-x="603" arabic-form="isolated" 
d="M292 740l29 -75c-28 -23.333 -61.667 -35 -101 -35c-19.333 0 -45.5 5 -78.5 15s-55.167 15 -66.5 15c-20 0 -38.333 -9 -55 -27l-45 63c28 44.667 61 67 99 67c14 0 40.667 -5.83301 80 -17.5s65.666 -17.5 78.999 -17.5c24.667 0 44.334 4 59.001 12zM219 -5
c-64.667 0 -122.669 8.33301 -174.002 25v165c32 -3.33301 68.667 -5.33301 110 -6c0 100.667 -32.667 219.334 -98 356.001l145 68c18.667 -52 32.334 -91 41.001 -117s17.5 -63 26.5 -111s13.5 -95.667 13.5 -143c0 -22.667 -0.666992 -39.667 -2 -51
c42.667 4.66699 78.334 14 107.001 28c4 30 6 72.667 6 128c0 48.667 -3 173.667 -9 375l154 13c6 -158 9 -265.333 9 -322c0 -146.667 -14.667 -253.334 -44 -320.001c-78 -58.667 -173 -88 -285 -88z" />
    <glyph glyph-name="uniFEF6" unicode="&#xfee0;&#xfe82;" horiz-adv-x="648" arabic-form="final" 
d="M292 740l29 -75c-28 -23.333 -61.667 -35 -101 -35c-19.333 0 -45.5 5 -78.5 15s-55.167 15 -66.5 15c-20 0 -38.333 -9 -55 -27l-45 63c28 44.667 61 67 99 67c14 0 40.667 -5.83301 80 -17.5s65.666 -17.5 78.999 -17.5c24.667 0 44.334 4 59.001 12zM617 0
c-73.333 0 -130.335 23.332 -171.002 69.999c-56 -50 -131.667 -75 -227 -75c-64.667 0 -122.667 8.33301 -174 25v165c29.333 -3.33301 66 -5.33301 110 -6c0 100.667 -32.667 219.334 -98 356.001l145 68c18.667 -52 32.334 -91 41.001 -117s17.5 -63 26.5 -111
s13.5 -95.667 13.5 -143c0 -22 -0.666992 -38.667 -2 -50c46.667 5.33301 77.334 16.833 92.001 34.5s22 44.5 22 80.5v415l154 13v-436c0 -44 5.66699 -73.5 17 -88.5s30 -22.5 56 -22.5h26v-178h-31z" />
    <glyph glyph-name="uniFEF7" unicode="&#xfedf;&#xfe84;" horiz-adv-x="603" arabic-form="isolated" 
d="M251 655c-78.667 -14 -154.667 -35.333 -228 -64l-23 69c19.333 10 40 18.667 62 26c-22.667 19.333 -34 46.333 -34 81c0 31.333 10.667 56.5 32 75.5s48 28.5 80 28.5c30.667 0 59 -6.66699 85 -20l-24 -65c-20 5.33301 -37.667 8 -53 8
c-14 0 -25.5 -3.16699 -34.5 -9.5s-13.5 -14.5 -13.5 -24.5c0 -11.333 4 -21.5 12 -30.5s20 -13.5 36 -13.5s45.667 4.33301 89 13zM219 -5c-64.667 0 -122.668 8.33203 -174.001 24.999v165c32 -3.33301 68.667 -5.33301 110 -6c0 51.333 -9.66699 105 -29 161
s-46 120 -80 192l143 53c33.333 -61.333 57.333 -117.666 72 -168.999s22 -112.666 22 -183.999c0 -22.667 -0.666992 -39.667 -2 -51c42.667 4.66699 78.334 14 107.001 28c4 30 6 72.667 6 128c0 23.333 -3 148.333 -9 375l154 13c6 -184 9 -291.333 9 -322
c0 -146.667 -14.667 -253.334 -44 -320.001c-78 -58.667 -173 -88 -285 -88z" />
    <glyph glyph-name="uniFEF8" unicode="&#xfee0;&#xfe84;" horiz-adv-x="648" arabic-form="final" 
d="M251 655c-78.667 -14 -154.667 -35.333 -228 -64l-23 69c19.333 10 40 18.667 62 26c-22.667 19.333 -34 46.333 -34 81c0 31.333 10.667 56.5 32 75.5s48 28.5 80 28.5c30.667 0 59 -6.66699 85 -20l-24 -65c-20 5.33301 -37.667 8 -53 8
c-14 0 -25.5 -3.16699 -34.5 -9.5s-13.5 -14.5 -13.5 -24.5c0 -11.333 4 -21.5 12 -30.5s20 -13.5 36 -13.5s45.667 4.33301 89 13zM617 0c-73.333 0 -130.334 23.3311 -171.001 69.998c-56 -50 -131.667 -75 -227 -75c-64.667 0 -122.667 8.33301 -174 25v165
c29.333 -3.33301 66 -5.33301 110 -6c0 51.333 -9.66699 105 -29 161s-46 120 -80 192l143 53c33.333 -61.333 57.333 -117.666 72 -168.999s22 -112.666 22 -183.999c0 -22 -0.666992 -38.667 -2 -50c46.667 5.33301 77.334 16.833 92.001 34.5s22 44.5 22 80.5v415l154 13
v-436c0 -44 5.66699 -73.5 17 -88.5s30 -22.5 56 -22.5h26v-178h-31z" />
    <glyph glyph-name="uniFEF9" unicode="&#xfedf;&#xfe88;" horiz-adv-x="630" arabic-form="isolated" 
d="M250 -5c-64.667 0 -122.667 8.33105 -174 24.998v165c32 -3.33301 68.667 -5.33301 110 -6c0 108.667 -47 246.334 -141 413.001l148 83c39.333 -72.667 69.333 -144.167 90 -214.5s31 -146.5 31 -228.5c0 -22.667 -0.666992 -39.667 -2 -51
c44 3.33301 80.667 10.666 110 21.999c3.33301 26.667 5 55.667 5 87c0 42.667 -3.66699 183.334 -11 422.001l154 13c3.33301 -209.333 5 -342.666 5 -399.999c0 -100 -13.333 -180.667 -40 -242c-78 -58.667 -173 -88 -285 -88zM307 -267.002
c-78.667 -14 -154.667 -35.333 -228 -64l-23 69c19.333 10 40 18.667 62 26c-22.667 19.333 -34 46.333 -34 81c0 31.333 10.667 56.5 32 75.5s48 28.5 80 28.5c30.667 0 59 -6.66699 85 -20l-24 -65c-20 5.33301 -37.667 8 -53 8c-14 0 -25.5 -3.16699 -34.5 -9.5
s-13.5 -14.5 -13.5 -24.5c0 -11.333 4 -21.5 12 -30.5s20 -13.5 36 -13.5s45.667 4.33301 89 13z" />
    <glyph glyph-name="uniFEFA" unicode="&#xfee0;&#xfe88;" horiz-adv-x="679" arabic-form="final" 
d="M648 0c-73.333 0 -130.334 23.332 -171.001 69.999c-56 -50 -131.667 -75 -227 -75c-64.667 0 -122.667 8.33301 -174 25v165c29.333 -3.33301 66 -5.33301 110 -6c0 108.667 -47 246.334 -141 413.001l148 83c39.333 -72.667 69.333 -144.167 90 -214.5
s31 -146.5 31 -228.5c0 -22 -0.666992 -38.667 -2 -50c46.667 5.33301 77.334 16.833 92.001 34.5s22 44.5 22 80.5v415l154 13v-436c0 -44 5.66699 -73.5 17 -88.5s30 -22.5 56 -22.5h26v-178h-31zM306.999 -267.001c-78.667 -14 -154.667 -35.333 -228 -64l-23 69
c19.333 10 40 18.667 62 26c-22.667 19.333 -34 46.333 -34 81c0 31.333 10.667 56.5 32 75.5s48 28.5 80 28.5c30.667 0 59 -6.66699 85 -20l-24 -65c-20 5.33301 -37.667 8 -53 8c-14 0 -25.5 -3.16699 -34.5 -9.5s-13.5 -14.5 -13.5 -24.5c0 -11.333 4 -21.5 12 -30.5
s20 -13.5 36 -13.5s45.667 4.33301 89 13z" />
    <glyph glyph-name="uniFEFB" unicode="&#xfedf;&#xfe8e;" horiz-adv-x="630" arabic-form="isolated" 
d="M250 -5c-64.667 0 -122.667 8.33105 -174 24.998v165c32 -3.33301 68.667 -5.33301 110 -6c0 108.667 -47 246.334 -141 413.001l148 83c39.333 -72.667 69.333 -144.167 90 -214.5s31 -146.5 31 -228.5c0 -22.667 -0.666992 -39.667 -2 -51
c44 3.33301 80.667 10.666 110 21.999c3.33301 26.667 5 55.667 5 87c0 42.667 -3.66699 183.334 -11 422.001l154 13c3.33301 -209.333 5 -342.666 5 -399.999c0 -100 -13.333 -180.667 -40 -242c-78 -58.667 -173 -88 -285 -88z" />
    <glyph glyph-name="uniFEFC" unicode="&#xfee0;&#xfe8e;" horiz-adv-x="679" arabic-form="final" 
d="M648 0c-73.333 0 -130.334 23.332 -171.001 69.999c-56 -50 -131.667 -75 -227 -75c-64.667 0 -122.667 8.33301 -174 25v165c29.333 -3.33301 66 -5.33301 110 -6c0 108.667 -47 246.334 -141 413.001l148 83c39.333 -72.667 69.333 -144.167 90 -214.5
s31 -146.5 31 -228.5c0 -22 -0.666992 -38.667 -2 -50c46.667 5.33301 77.334 16.833 92.001 34.5s22 44.5 22 80.5v415l154 13v-436c0 -44 5.66699 -73.5 17 -88.5s30 -22.5 56 -22.5h26v-178h-31z" />
    <glyph glyph-name="uni066E.init" unicode="&#x66e;" horiz-adv-x="303" 
d="M0 0c-10 0 -18.498 8.66602 -25.498 25.999s-10.5 38.333 -10.5 63s3.5 45.667 10.5 63s15.5 26 25.5 26h8c43.333 0 79.666 3.33301 108.999 10c-2.66699 75.333 -12.334 148.333 -29.001 219l145 31c13.333 -61.333 20 -127.666 20 -198.999c0 -78 -8 -141 -24 -189
c-24.667 -13.333 -58 -25 -100 -35s-83.333 -15 -124 -15h-5z" />
    <glyph glyph-name="uni066E.medi" unicode="&#x66e;" horiz-adv-x="390" 
d="M0 0c-10 0 -18.502 8.66797 -25.502 26.001s-10.5 38.333 -10.5 63s3.5 45.667 10.5 63s15.5 26 25.5 26h15c44.667 0 74.334 4.83301 89.001 14.5s22 23.167 22 40.5v146l148 10v-138c0 -24.667 -1.33301 -45.334 -4 -62.001c32.667 -7.33301 70.667 -11 114 -11h6v-178
h-34c-67.333 0 -120.666 14 -159.999 42c-38 -28 -92.667 -42 -164 -42h-32z" />
    <glyph glyph-name="uni066E.fina" unicode="&#x66e;" horiz-adv-x="951" 
d="M917 0c-80.667 0 -143.33 17.3301 -187.997 51.9971c-62.667 -41.333 -171.667 -62 -327 -62c-70.667 0 -129.834 5.83301 -177.501 17.5s-83.834 28.834 -108.501 51.501s-41.834 47.334 -51.501 74.001s-14.5 58 -14.5 94c0 54 12.667 119 38 195l133 -26
c-8.66699 -44.667 -13 -80 -13 -106c0 -30.667 5.5 -54 16.5 -70s33.167 -28.333 66.5 -37s82 -13 146 -13c65.333 0 115.5 3.33301 150.5 10s56.167 13.834 63.5 21.501s11 18.167 11 31.5v146l148 10v-173c0 -10 -0.333008 -17 -1 -21c34 -11.333 77.667 -17 131 -17h11
v-178h-34z" />
    <glyph glyph-name="uni0672.fina" unicode="&#x672;" horiz-adv-x="306" 
d="M57 694c-18.667 0 -38.6689 -8.99902 -60.002 -26.999l-37 47c32 36 64 54 96 54c10.667 0 26.5 -5.16699 47.5 -15.5s38.5 -15.5 52.5 -15.5c5.33301 0 14 0.666992 26 2c-22 6.66699 -39.333 19.667 -52 39s-19 39.666 -19 60.999c0 34 10.333 61.5 31 82.5
s46 31.5 76 31.5c30.667 0 59 -6.66699 85 -20l-20 -60c-20 5.33301 -37.667 8 -53 8c-14.667 0 -26.667 -4.16699 -36 -12.5s-14 -18.833 -14 -31.5c0 -13.333 4.66699 -25.333 14 -36s23.333 -16 42 -16c20 0 49 6.66699 87 20l19 -63
c-24 -8.66699 -49.167 -19.667 -75.5 -33s-47.666 -23.333 -63.999 -30s-32.166 -10 -47.499 -10c-18 0 -36.833 4.16699 -56.5 12.5s-33.5 12.5 -41.5 12.5zM305.998 178.001l0.000976562 -178h-23c-82.667 0 -141.334 20.333 -176.001 61s-52 99.667 -52 177v379l156 13
v-358c0 -62.667 28 -94 84 -94h11z" />
    <glyph glyph-name="uni06C2.fina" unicode="&#x6c2;" horiz-adv-x="500" 
d="M333 455c-78.667 -14 -154.667 -35.333 -228 -64l-23 69c19.333 10 40 18.667 62 26c-22.667 19.333 -34 46.333 -34 81c0 31.333 10.667 56.5 32 75.5s48 28.5 80 28.5c30.667 0 59 -6.66699 85 -20l-24 -65c-20 5.33301 -37.667 8 -53 8
c-14 0 -25.5 -3.16699 -34.5 -9.5s-13.5 -14.5 -13.5 -24.5c0 -11.333 4 -21.5 12 -30.5s20 -13.5 36 -13.5s45.667 4.33301 89 13zM472 178l27.998 0.00195312v-178h-32c-35.333 0 -66.166 6.33301 -92.499 19s-46.666 28 -60.999 46s-26.833 36 -37.5 54
s-21.167 33.333 -31.5 46s-21.5 19 -33.5 19c-32 0 -67 -16.333 -105 -49l-77 115c72.667 65.333 143 98 211 98c20.667 0 39.167 -5.83301 55.5 -17.5s30.333 -25.834 42 -42.501l34.5 -50c11.333 -16.667 25.333 -30.834 42 -42.501s35.667 -17.5 57 -17.5z" />
    <glyph glyph-name="uni06C3.fina" unicode="&#x6c3;" horiz-adv-x="500" 
d="M322 391l-83 68l-63 -71l-97 80l79 94l83 -71l63 74l98 -84zM472 178l27.998 0.00195312v-178h-32c-35.333 0 -66.166 6.33301 -92.499 19s-46.666 28 -60.999 46s-26.833 36 -37.5 54s-21.167 33.333 -31.5 46s-21.5 19 -33.5 19c-32 0 -67 -16.333 -105 -49l-77 115
c72.667 65.333 143 98 211 98c20.667 0 39.167 -5.83301 55.5 -17.5s30.333 -25.834 42 -42.501l34.5 -50c11.333 -16.667 25.333 -30.834 42 -42.501s35.667 -17.5 57 -17.5z" />
    <glyph glyph-name="uniFB50" unicode="&#x671;" horiz-adv-x="266" arabic-form="isolated" 
d="M186 745c36 0 53.999 11.999 53.999 35.999c0 12.667 -5 22.334 -15 29.001s-20.667 10 -32 10c-32.667 0 -61.667 -20.667 -87 -62c28.667 -8.66699 55.334 -13 80.001 -13zM179.999 668.999c-24.667 0 -51.166 5.5 -79.499 16.5s-45.5 16.5 -51.5 16.5
c-20.667 0 -40.334 -9.33301 -59.001 -28l-42 51c28 34 56.667 51 86 51h8c26.667 46.667 53.167 79 79.5 97s54.833 27 85.5 27c32 0 57.167 -10.333 75.5 -31s27.5 -48 27.5 -82c0 -34.667 -11.167 -63 -33.5 -85s-54.5 -33 -96.5 -33zM211 -0.000976562h-156v617l156 13
v-630z" />
    <glyph glyph-name="uniFB51" unicode="&#x671;" horiz-adv-x="306" arabic-form="final" 
d="M186 745c36 0 53.999 11.999 53.999 35.999c0 12.667 -5 22.334 -15 29.001s-20.667 10 -32 10c-32.667 0 -61.667 -20.667 -87 -62c28.667 -8.66699 55.334 -13 80.001 -13zM179.999 668.999c-24.667 0 -51.166 5.5 -79.499 16.5s-45.5 16.5 -51.5 16.5
c-20.667 0 -40.334 -9.33301 -59.001 -28l-42 51c28 34 56.667 51 86 51h8c26.667 46.667 53.167 79 79.5 97s54.833 27 85.5 27c32 0 57.167 -10.333 75.5 -31s27.5 -48 27.5 -82c0 -34.667 -11.167 -63 -33.5 -85s-54.5 -33 -96.5 -33zM306 177.999l0.000976562 -178h-23
c-82.667 0 -141.334 20.333 -176.001 61s-52 99.667 -52 177v379l156 13v-358c0 -62.667 28 -94 84 -94h11z" />
    <glyph glyph-name="uniFB56" unicode="&#x67e;" horiz-adv-x="876" arabic-form="isolated" 
d="M404 -10c-70.667 0 -130.003 5.8291 -178.003 17.4961s-84.333 28.834 -109 51.501s-42 47.334 -52 74.001s-15 58 -15 94c0 54 12.667 119 38 195l133 -26c-8.66699 -44.667 -13 -80 -13 -106c0 -30 5.66699 -53.167 17 -69.5s33.833 -28.833 67.5 -37.5
s81.834 -13 144.501 -13c96 0 173.667 8.66699 233 26c-1.33301 58.667 -10.666 127.334 -27.999 206.001l161 31c15.333 -67.333 23 -133.666 23 -198.999c0 -67.333 -9.33301 -123 -28 -167c-79.333 -51.333 -210.666 -77 -393.999 -77zM506.997 -215.004l-81 70l-66 -77
l-95 82l78 89l81 -67l66 74l95 -79zM444.997 -339.004l-86 74l70 80l86 -71z" />
    <glyph glyph-name="uniFB57" unicode="&#x67e;" horiz-adv-x="951" arabic-form="final" 
d="M917 0c-80.667 0 -143.33 17.3301 -187.997 51.9971c-62.667 -41.333 -171.667 -62 -327 -62c-70.667 0 -129.834 5.83301 -177.501 17.5s-83.834 28.834 -108.501 51.501s-41.834 47.334 -51.501 74.001s-14.5 58 -14.5 94c0 54 12.667 119 38 195l133 -26
c-8.66699 -44.667 -13 -80 -13 -106c0 -30.667 5.5 -54 16.5 -70s33.167 -28.333 66.5 -37s82 -13 146 -13c65.333 0 115.5 3.33301 150.5 10s56.167 13.834 63.5 21.501s11 18.167 11 31.5v146l148 10v-173c0 -10 -0.333008 -17 -1 -21c34 -11.333 77.667 -17 131 -17h11
v-178h-34zM502.004 -217.003l-81 70l-66 -77l-95 82l78 89l81 -67l66 74l95 -79zM440.004 -341.003l-86 74l70 80l86 -71z" />
    <glyph glyph-name="uniFB58" unicode="&#x67e;" horiz-adv-x="303" arabic-form="initial" 
d="M0 0c-10 0 -18.498 8.66602 -25.498 25.999s-10.5 38.333 -10.5 63s3.5 45.667 10.5 63s15.5 26 25.5 26h8c43.333 0 79.666 3.33301 108.999 10c-2.66699 75.333 -12.334 148.333 -29.001 219l145 31c13.333 -61.333 20 -127.666 20 -198.999c0 -78 -8 -141 -24 -189
c-24.667 -13.333 -58 -25 -100 -35s-83.333 -15 -124 -15h-5zM169.002 -215.001l-81 70l-66 -77l-95 82l78 89l81 -67l66 74l95 -79zM107.002 -339.001l-86 74l70 80l86 -71z" />
    <glyph glyph-name="uniFB59" unicode="&#x67e;" horiz-adv-x="390" arabic-form="medial" 
d="M0 0c-10 0 -18.502 8.66797 -25.502 26.001s-10.5 38.333 -10.5 63s3.5 45.667 10.5 63s15.5 26 25.5 26h15c44.667 0 74.334 4.83301 89.001 14.5s22 23.167 22 40.5v146l148 10v-138c0 -24.667 -1.33301 -45.334 -4 -62.001c32.667 -7.33301 70.667 -11 114 -11h6v-178
h-34c-67.333 0 -120.666 14 -159.999 42c-38 -28 -92.667 -42 -164 -42h-32zM167.998 -210.999l-81 70l-66 -77l-95 82l78 89l81 -67l66 74l95 -79zM105.998 -334.999l-86 74l70 80l86 -71z" />
    <glyph glyph-name="uniFB66" unicode="&#x679;" horiz-adv-x="876" arabic-form="isolated" 
d="M437 473c41.333 0 77.333 3.66699 108 11c-3.33301 36.667 -20.666 55 -51.999 55c-28.667 0 -57.334 -22 -86.001 -66h30zM428 400c-34.667 0 -73.334 1.99805 -116.001 5.99805v70c2 0 6.33301 -0.166992 13 -0.5s12.334 -0.5 17.001 -0.5
c5.33301 14.667 8 36.334 8 65.001v145l64 7v-71c0 -25.333 -2.66699 -48.666 -8 -69.999c26.667 38 59.334 57 98.001 57c29.333 0 53.166 -9.5 71.499 -28.5s27.5 -44.167 27.5 -75.5c0 -28 -5 -54 -15 -78c-30.667 -17.333 -84 -26 -160 -26zM404 -10.002
c-70.667 0 -130.003 5.8291 -178.003 17.4961s-84.333 28.834 -109 51.501s-42 47.334 -52 74.001s-15 58 -15 94c0 54 12.667 119 38 195l133 -26c-8.66699 -44.667 -13 -80 -13 -106c0 -30 5.66699 -53.167 17 -69.5s33.833 -28.833 67.5 -37.5s81.834 -13 144.501 -13
c96 0 173.667 8.66699 233 26c-1.33301 58.667 -10.666 127.334 -27.999 206.001l161 31c15.333 -67.333 23 -133.666 23 -198.999c0 -67.333 -9.33301 -123 -28 -167c-79.333 -51.333 -210.666 -77 -393.999 -77z" />
    <glyph glyph-name="uniFB67" unicode="&#x679;" horiz-adv-x="951" arabic-form="final" 
d="M443 452c41.333 0 77.333 3.66699 108 11c-3.33301 36.667 -20.666 55 -51.999 55c-28.667 0 -57.334 -22 -86.001 -66h30zM434 379c-34.667 0 -73.334 1.99805 -116.001 5.99805v70c2 0 6.33301 -0.166992 13 -0.5s12.334 -0.5 17.001 -0.5
c5.33301 14.667 8 36.334 8 65.001v145l64 7v-71c0 -25.333 -2.66699 -48.666 -8 -69.999c26.667 38 59.334 57 98.001 57c29.333 0 53.166 -9.5 71.499 -28.5s27.5 -44.167 27.5 -75.5c0 -28 -5 -54 -15 -78c-30.667 -17.333 -84 -26 -160 -26zM917 -0.00195312
c-80.667 0 -143.33 17.3301 -187.997 51.9971c-62.667 -41.333 -171.667 -62 -327 -62c-70.667 0 -129.834 5.83301 -177.501 17.5s-83.834 28.834 -108.501 51.501s-41.834 47.334 -51.501 74.001s-14.5 58 -14.5 94c0 54 12.667 119 38 195l133 -26
c-8.66699 -44.667 -13 -80 -13 -106c0 -30.667 5.5 -54 16.5 -70s33.167 -28.333 66.5 -37s82 -13 146 -13c65.333 0 115.5 3.33301 150.5 10s56.167 13.834 63.5 21.501s11 18.167 11 31.5v146l148 10v-173c0 -10 -0.333008 -17 -1 -21c34 -11.333 77.667 -17 131 -17h11
v-178h-34z" />
    <glyph glyph-name="uniFB68" unicode="&#x679;" horiz-adv-x="303" arabic-form="initial" 
d="M110 548c41.333 0 77.333 3.66699 108 11c-3.33301 36.667 -20.666 55 -51.999 55c-28.667 0 -57.334 -22 -86.001 -66h30zM101 475c-34.667 0 -73.334 1.99805 -116.001 5.99805v70c2 0 6.33301 -0.166992 13 -0.5s12.334 -0.5 17.001 -0.5
c5.33301 14.667 8 36.334 8 65.001v145l64 7v-71c0 -25.333 -2.66699 -48.666 -8 -69.999c26.667 38 59.334 57 98.001 57c29.333 0 53.166 -9.5 71.499 -28.5s27.5 -44.167 27.5 -75.5c0 -28 -5 -54 -15 -78c-30.667 -17.333 -84 -26 -160 -26zM0 -0.00195312
c-10 0 -18.498 8.66602 -25.498 25.999s-10.5 38.333 -10.5 63s3.5 45.667 10.5 63s15.5 26 25.5 26h8c43.333 0 79.666 3.33301 108.999 10c-2.66699 75.333 -12.334 148.333 -29.001 219l145 31c13.333 -61.333 20 -127.666 20 -198.999c0 -78 -8 -141 -24 -189
c-24.667 -13.333 -58 -25 -100 -35s-83.333 -15 -124 -15h-5z" />
    <glyph glyph-name="uniFB69" unicode="&#x679;" horiz-adv-x="390" arabic-form="medial" 
d="M140 513c41.333 0 77.333 3.66699 108 11c-3.33301 36.667 -20.666 55 -51.999 55c-28.667 0 -57.334 -22 -86.001 -66h30zM131 440c-34.667 0 -73.334 1.99805 -116.001 5.99805v70c2 0 6.33301 -0.166992 13 -0.5s12.334 -0.5 17.001 -0.5
c5.33301 14.667 8 36.334 8 65.001v145l64 7v-71c0 -25.333 -2.66699 -48.666 -8 -69.999c26.667 38 59.334 57 98.001 57c29.333 0 53.166 -9.5 71.499 -28.5s27.5 -44.167 27.5 -75.5c0 -28 -5 -54 -15 -78c-30.667 -17.333 -84 -26 -160 -26zM0 -0.00195312
c-10 0 -18.502 8.66797 -25.502 26.001s-10.5 38.333 -10.5 63s3.5 45.667 10.5 63s15.5 26 25.5 26h15c44.667 0 74.334 4.83301 89.001 14.5s22 23.167 22 40.5v146l148 10v-138c0 -24.667 -1.33301 -45.334 -4 -62.001c32.667 -7.33301 70.667 -11 114 -11h6v-178h-34
c-67.333 0 -120.666 14 -159.999 42c-38 -28 -92.667 -42 -164 -42h-32z" />
    <glyph glyph-name="uniFB7A" unicode="&#x686;" horiz-adv-x="653" arabic-form="isolated" 
d="M360 -277c-97.333 0 -171.498 21.3311 -222.498 63.998s-76.5 101.667 -76.5 177c0 41.333 8.5 79.333 25.5 114s40 63.834 69 87.501s61 43.5 96 59.5s72.5 28.333 112.5 37c-57.333 49.333 -101.333 74 -132 74c-16.667 0 -30 -4 -40 -12s-20.333 -21.333 -31 -40
l-111 52c37.333 100.667 101 151 191 151c29.333 0 62.666 -9.66699 99.999 -29s70.666 -41 99.999 -65l94.5 -75c33.667 -26 60.167 -43.333 79.5 -52l-39 -119c-110 0 -196.833 -16.167 -260.5 -48.5s-95.5 -69.833 -95.5 -112.5c0 -29.333 14.833 -51.666 44.5 -66.999
s69.5 -23 119.5 -23c68.667 0 136.667 11.333 204 34l45 -140c-81.333 -44.667 -172.333 -67 -273 -67zM486.002 -7.00195l-60 51l-47 -56l-70 60l57 64l59 -49l48 54l69 -57zM440.002 -97.002l-62 53l51 58l62 -51z" />
    <glyph glyph-name="uniFB7B" unicode="&#x686;" horiz-adv-x="704" arabic-form="final" 
d="M636 -240c-81.333 -44.667 -172.332 -67 -272.999 -67c-97.333 0 -171.5 21.333 -222.5 64s-76.5 101.667 -76.5 177c0 70.667 24.333 131.5 73 182.5s110.334 88.5 185.001 112.5c-48 46.667 -80.333 70 -97 70c-14 0 -25 -3.83301 -33 -11.5s-17.333 -21.167 -28 -40.5
l-114 43c21.333 57.333 45.333 99.666 72 126.999s60.667 41 102 41c24 0 48.5 -5.33301 73.5 -16s51.5 -27.5 79.5 -50.5s50.833 -42.833 68.5 -59.5l70.5 -70c33.333 -33.333 63.666 -55.666 90.999 -66.999s57.666 -17 90.999 -17h6v-178h-12
c-50 -0 -92.667 8.83301 -128 26.5s-81.333 52.167 -138 103.5c-67.333 -18 -118 -41.667 -152 -71s-51 -60.666 -51 -93.999c0 -32.667 15.833 -57.334 47.5 -74.001s74.167 -25 127.5 -25c62.667 0 127 11.333 193 34zM453.001 -36l-60 51l-47 -56l-70 60l57 64l59 -49
l48 54l69 -57zM407.001 -126l-62 53l51 58l62 -51z" />
    <glyph glyph-name="uniFB7C" unicode="&#x686;" horiz-adv-x="632" arabic-form="initial" 
d="M0 0c-10 0 -18.4971 8.66602 -25.4971 25.999s-10.5 38.333 -10.5 63s3.5 45.667 10.5 63s15.5 26 25.5 26h46c126 0 242.667 10 350 30l-24.5 16l-23.5 16c-4.66699 3.33301 -11.834 8 -21.501 14s-16.834 10.333 -21.501 13l-19 11
c-8 4.66699 -14.333 8.16699 -19 10.5s-10.334 4.83301 -17.001 7.5s-12.5 4.66699 -17.5 6s-10.167 2.5 -15.5 3.5s-10.333 1.5 -15 1.5c-24 0 -44.667 -16.333 -62 -49l-114 40c21.333 57.333 46.5 99.333 75.5 126s63.833 40 104.5 40s82.5 -11.167 125.5 -33.5
s93.333 -55 151 -98s99.167 -72.167 124.5 -87.5l-11 -131c-23.333 -3.33301 -63.333 -15.166 -120 -35.499s-123.667 -38.5 -201 -54.5s-164 -24 -260 -24h-15zM356.003 -187.001l-81 70l-66 -77l-95 82l78 89l81 -67l66 74l95 -79zM294.003 -311.001l-86 74l70 80l86 -71z
" />
    <glyph glyph-name="uniFB7D" unicode="&#x686;" horiz-adv-x="697" arabic-form="medial" 
d="M0 0c-10 0 -18.499 8.66699 -25.499 26s-10.5 38.333 -10.5 63s3.5 45.667 10.5 63s15.5 26 25.5 26h46c141.333 0 247.333 5 318 15c-76.667 75.333 -130 113 -160 113c-14 0 -25.5 -3.33301 -34.5 -10s-18.833 -19.334 -29.5 -38.001l-108 40
c20.667 58 45.5 100.167 74.5 126.5s63.833 39.5 104.5 39.5c10 0 20.333 -1 31 -3s21.834 -5.66699 33.501 -11s21.834 -10.166 30.501 -14.499s19.667 -11.5 33 -21.5l30 -22.5c6.66699 -5 17.5 -14.333 32.5 -28l30.5 -27.5c5.33301 -4.66699 16.166 -15 32.499 -31
s26.5 -25.667 30.5 -29c43.333 -41.333 76.166 -68 98.499 -80s52.166 -18 89.499 -18h14v-178h-20c-36 0 -67.5 4.66699 -94.5 14s-54.5 25 -82.5 47c-150 -40.667 -311.667 -61 -485 -61h-15zM359.001 -204l-81 70l-66 -77l-95 82l78 89l81 -67l66 74l95 -79z
M297.001 -328l-86 74l70 80l86 -71z" />
    <glyph glyph-name="uniFB88" unicode="&#x688;" horiz-adv-x="485" arabic-form="isolated" 
d="M207 633c41.333 0 77.333 3.66699 108 11c-3.33301 36.667 -20.666 55 -51.999 55c-28.667 0 -57.334 -22 -86.001 -66h30zM198 560c-34.667 0 -73.334 1.99805 -116.001 5.99805v70c2 0 6.33301 -0.166992 13 -0.5s12.334 -0.5 17.001 -0.5
c5.33301 14.667 8 36.334 8 65.001v145l64 7v-71c0 -25.333 -2.66699 -48.666 -8 -69.999c26.667 38 59.334 57 98.001 57c29.333 0 53.166 -9.5 71.499 -28.5s27.5 -44.167 27.5 -75.5c0 -28 -5 -54 -15 -78c-30.667 -17.333 -84 -26 -160 -26zM158 -10.002
c-48.667 0 -92.999 2.66699 -132.999 8v172c57.333 -4 107.666 -6 150.999 -6s85 2 125 6c-24.667 82.667 -76.667 160 -156 232l113 120c118 -103.333 177 -229.666 177 -378.999c0 -32.667 -3.33301 -68.334 -10 -107.001c-55.333 -30.667 -144.333 -46 -267 -46z" />
    <glyph glyph-name="uniFB89" unicode="&#x688;" horiz-adv-x="525" arabic-form="final" 
d="M208 635c41.333 0 77.333 3.66699 108 11c-3.33301 36.667 -20.666 55 -51.999 55c-28.667 0 -57.334 -22 -86.001 -66h30zM199 562c-34.667 0 -73.334 1.99805 -116.001 5.99805v70c2 0 6.33301 -0.166992 13 -0.5s12.334 -0.5 17.001 -0.5
c5.33301 14.667 8 36.334 8 65.001v145l64 7v-71c0 -25.333 -2.66699 -48.666 -8 -69.999c26.667 38 59.334 57 98.001 57c29.333 0 53.166 -9.5 71.499 -28.5s27.5 -44.167 27.5 -75.5c0 -28 -5 -54 -15 -78c-30.667 -17.333 -84 -26 -160 -26zM506 -0.00195312
c-58.667 0 -104.001 15 -136.001 45c-62 -36 -133 -54 -213 -54c-55.333 0 -99.333 2.33301 -132 7v177c58.667 -2.66699 102 -4 130 -4c60.667 0 108 4.33301 142 13c-5.33301 16 -9.66602 28 -12.999 36c-23.333 64 -64.666 129.667 -123.999 197l113 110
c24.667 -25.333 47 -53.833 67 -85.5s34 -56.5 42 -74.5s18.667 -43.667 32 -77c18.667 -46 33.667 -76.167 45 -90.5s30.666 -21.5 57.999 -21.5h8v-178h-19z" />
    <glyph glyph-name="uniFB8A" unicode="&#x698;" horiz-adv-x="421" arabic-form="isolated" 
d="M205 706l86 -74l-70 -80l-86 71zM307 418l-81 67l-66 -74l-95 79l78 92l81 -70l66 77l95 -82zM371 150c0 -48.667 -4.66699 -93.334 -14 -134.001s-24.166 -77.667 -44.499 -111s-48.333 -59.333 -84 -78s-77.834 -28 -126.501 -28c-30.667 0 -64.667 4 -102 12l12 146
c16 -2.66699 32.667 -4 50 -4c58 0 99.5 17.333 124.5 52s37.5 77.334 37.5 128.001c0 40 -14.667 110.667 -44 212l158 45c22 -82 33 -162 33 -240z" />
    <glyph glyph-name="uniFB8B" unicode="&#x698;" horiz-adv-x="518" arabic-form="final" 
d="M210 706l86 -74l-70 -80l-86 71zM312 418l-81 67l-66 -74l-95 79l78 92l81 -70l66 77l95 -82zM102 -201c-30.667 0 -64.666 4.00195 -101.999 12.002l12 146c16 -2.66699 32.667 -4 50 -4c60 0 103.667 17.5 131 52.5s41 77.5 41 127.5c0 47.333 -13.667 118 -41 212
l145 45c1.33301 -6 4.16602 -17.5 8.49902 -34.5s7.5 -28.833 9.5 -35.5l8.5 -29c3.66699 -12.667 6.83398 -22.5 9.50098 -29.5s6 -14.833 10 -23.5s8.33301 -16.334 13 -23.001c17.333 -24.667 49.666 -37 96.999 -37h24v-178h-36c-52 0 -92.333 11 -121 33
c-13.333 -70.667 -41.333 -127.334 -84 -170.001s-101 -64 -175 -64z" />
    <glyph glyph-name="uniFB8C" unicode="&#x691;" horiz-adv-x="421" arabic-form="isolated" 
d="M214 496c41.333 0 77.333 3.66699 108 11c-3.33301 36.667 -20.666 55 -51.999 55c-28.667 0 -57.334 -22 -86.001 -66h30zM205 423c-34.667 0 -73.334 1.99805 -116.001 5.99805v70c2 0 6.33301 -0.166992 13 -0.5s12.334 -0.5 17.001 -0.5
c5.33301 14.667 8 36.334 8 65.001v145l64 7v-71c0 -25.333 -2.66699 -48.666 -8 -69.999c26.667 38 59.334 57 98.001 57c29.333 0 53.166 -9.5 71.499 -28.5s27.5 -44.167 27.5 -75.5c0 -28 -5 -54 -15 -78c-30.667 -17.333 -84 -26 -160 -26zM371 149.998
c0 -48.667 -4.66699 -93.334 -14 -134.001s-24.166 -77.667 -44.499 -111s-48.333 -59.333 -84 -78s-77.834 -28 -126.501 -28c-30.667 0 -64.667 4 -102 12l12 146c16 -2.66699 32.667 -4 50 -4c58 0 99.5 17.333 124.5 52s37.5 77.334 37.5 128.001
c0 40 -14.667 110.667 -44 212l158 45c22 -82 33 -162 33 -240z" />
    <glyph glyph-name="uniFB8D" unicode="&#x691;" horiz-adv-x="518" arabic-form="final" 
d="M229 496c41.333 0 77.333 3.66699 108 11c-3.33301 36.667 -20.666 55 -51.999 55c-28.667 0 -57.334 -22 -86.001 -66h30zM220 423c-34.667 0 -73.334 1.99805 -116.001 5.99805v70c2 0 6.33301 -0.166992 13 -0.5s12.334 -0.5 17.001 -0.5
c5.33301 14.667 8 36.334 8 65.001v145l64 7v-71c0 -25.333 -2.66699 -48.666 -8 -69.999c26.667 38 59.334 57 98.001 57c29.333 0 53.166 -9.5 71.499 -28.5s27.5 -44.167 27.5 -75.5c0 -28 -5 -54 -15 -78c-30.667 -17.333 -84 -26 -160 -26zM102 -201.002
c-30.667 0 -64.666 4.00195 -101.999 12.002l12 146c16 -2.66699 32.667 -4 50 -4c60 0 103.667 17.5 131 52.5s41 77.5 41 127.5c0 47.333 -13.667 118 -41 212l145 45c1.33301 -6 4.16602 -17.5 8.49902 -34.5s7.5 -28.833 9.5 -35.5l8.5 -29
c3.66699 -12.667 6.83398 -22.5 9.50098 -29.5s6 -14.833 10 -23.5s8.33301 -16.334 13 -23.001c17.333 -24.667 49.666 -37 96.999 -37h24v-178h-36c-52 0 -92.333 11 -121 33c-13.333 -70.667 -41.333 -127.334 -84 -170.001s-101 -64 -175 -64z" />
    <glyph glyph-name="uniFB8E" unicode="&#x6a9;" horiz-adv-x="905" arabic-form="isolated" 
d="M414 -10c-58.667 0 -109.666 4.16699 -152.999 12.5s-78.333 19.666 -105 33.999s-48 32.333 -64 54s-27 44 -33 67s-9 49.5 -9 79.5c0 54 12.667 119 38 195l133 -26c-8.66699 -42 -13 -75.667 -13 -101c0 -31.333 5.33301 -55.5 16 -72.5s31.834 -30.333 63.501 -40
s76.834 -14.5 135.501 -14.5c103.333 0 183 8 239 24c-17.333 38 -45.333 72 -84 102s-85.334 54 -140.001 72v203c129.333 86.667 276.666 147 441.999 181v-166c-107.333 -23.333 -204.333 -59 -291 -107c152 -69.333 228 -180.666 228 -333.999
c0 -32 -2.66699 -61.667 -8 -89c-108.667 -49.333 -240.334 -74 -395.001 -74z" />
    <glyph glyph-name="uniFB8F" unicode="&#x6a9;" horiz-adv-x="917" arabic-form="final" 
d="M901 0c-55.333 0 -100.668 15.3359 -136.001 46.0029c-100.667 -37.333 -217.667 -56 -351 -56c-58.667 0 -109.667 4.16699 -153 12.5s-78.333 19.666 -105 33.999s-48 32.333 -64 54s-27 44 -33 67s-9 49.5 -9 79.5c0 54 12.667 119 38 195l133 -26
c-8.66699 -42 -13 -75.667 -13 -101c0 -31.333 5.33301 -55.5 16 -72.5s31.834 -30.333 63.501 -40s76.834 -14.5 135.501 -14.5c105.333 0 184.666 8 237.999 24c-24.667 39.333 -54 73.5 -88 102.5s-79 52.833 -135 71.5v203c128 86.667 275 147 441 181v-171
c-100.667 -22 -194 -55.667 -280 -101c33.333 -18 64.833 -41 94.5 -69s50.667 -50.5 63 -67.5l50.5 -72.5c6 -8.66699 14 -21.334 24 -38.001s17.333 -28.334 22 -35.001s11.5 -13 20.5 -19s19.167 -9 30.5 -9h13v-178h-16z" />
    <glyph glyph-name="uniFB90" unicode="&#x6a9;" horiz-adv-x="501" arabic-form="initial" 
d="M0 0c-10 0 -18.5 8.66602 -25.5 25.999s-10.5 38.333 -10.5 63s3.5 45.667 10.5 63s15.5 26 25.5 26h19c98 0 177.667 6.33301 239 19c-17.333 39.333 -45.5 74.5 -84.5 105.5s-86.5 55.833 -142.5 74.5v200c132 88.667 280.333 149.667 445 183v-166
c-107.333 -23.333 -204.333 -59 -291 -107c152 -69.333 228 -180.666 228 -333.999c0 -32 -2.66699 -61.667 -8 -89c-76.667 -42.667 -204 -64 -382 -64h-23z" />
    <glyph glyph-name="uniFB91" unicode="&#x6a9;" horiz-adv-x="514" arabic-form="medial" 
d="M0 0c-10 0 -18.498 8.66895 -25.498 26.002s-10.5 38.333 -10.5 63s3.5 45.667 10.5 63s15.5 26 25.5 26h19c103.333 0 183 8 239 24c-52.667 84 -128.334 142.333 -227.001 175v200c132 88.667 280.333 149.667 445 183v-166c-110 -24.667 -208 -60.667 -294 -108
c28 -14 53.5 -29.833 76.5 -47.5s44.167 -37.834 63.5 -60.501s33.666 -40.334 42.999 -53.001s22.333 -31.334 39 -56.001c4 -5.33301 10.167 -14.833 18.5 -28.5s14.333 -22.667 18 -27l15.5 -17.5c6.66699 -7.33301 13.5 -12.166 20.5 -14.499s15.167 -3.5 24.5 -3.5h13
v-178h-16c-62 0 -111 19 -147 57c-84 -38 -193.333 -57 -328 -57h-23z" />
    <glyph glyph-name="uniFB92" unicode="&#x6af;" horiz-adv-x="905" arabic-form="isolated" 
d="M517 654v86c74 38.667 169.333 74.667 286 108v-88c-100 -28.667 -195.333 -64 -286 -106zM414 -10c-58.667 0 -109.666 4.16895 -152.999 12.502s-78.333 19.666 -105 33.999s-48 32.333 -64 54s-27 44 -33 67s-9 49.5 -9 79.5c0 54 12.667 119 38 195l133 -26
c-8.66699 -42 -13 -75.667 -13 -101c0 -46 14.667 -78.667 44 -98s86.333 -29 171 -29c103.333 0 183 8 239 24c-34 75.333 -105.333 132.333 -214 171v192c128 84 272 142.333 432 175v-161c-102 -22.667 -195.667 -56.334 -281 -101.001c145.333 -70 218 -180 218 -330
c0 -28.667 -2.66699 -56.667 -8 -84c-108.667 -49.333 -240.334 -74 -395.001 -74z" />
    <glyph glyph-name="uniFB93" unicode="&#x6af;" horiz-adv-x="917" arabic-form="final" 
d="M517 654v86c74 38.667 169.333 74.667 286 108v-88c-100 -28.667 -195.333 -64 -286 -106zM901 0c-55.333 0 -100.667 15.335 -136 46.002c-100.667 -37.333 -217.667 -56 -351 -56c-58.667 0 -109.667 4.16699 -153 12.5s-78.333 19.666 -105 33.999s-48 32.333 -64 54
s-27 44 -33 67s-9 49.5 -9 79.5c0 54 12.667 119 38 195l133 -26c-8.66699 -42 -13 -75.667 -13 -101c0 -46 14.667 -78.667 44 -98s86.333 -29 171 -29c102.667 0 182 8 238 24c-50 82.667 -119 139 -207 169v199c128.667 82 270.667 138.667 426 170v-161
c-101.333 -22.667 -193 -55.334 -275 -98.001c32.667 -18 63 -40.167 91 -66.5s49 -48.666 63 -66.999s30 -41.166 48 -68.499c6 -8.66699 14 -21.334 24 -38.001s17.333 -28.334 22 -35.001s11.5 -13 20.5 -19s19.167 -9 30.5 -9h13v-178h-16z" />
    <glyph glyph-name="uniFB94" unicode="&#x6af;" horiz-adv-x="501" arabic-form="initial" 
d="M113 654v86c74 38.667 169.333 74.667 286 108v-88c-100 -28.667 -195.333 -64 -286 -106zM0 0c-10 0 -18.499 8.66895 -25.499 26.002s-10.5 38.333 -10.5 63s3.5 45.667 10.5 63s15.5 26 25.5 26h14c97.333 0 178.666 7.66699 243.999 23
c-35.333 77.333 -107 134.666 -215 171.999v192c128 84 272.333 142.333 433 175v-161c-102 -22.667 -195.667 -56.334 -281 -101.001c145.333 -69.333 218 -179.333 218 -330c0 -28.667 -2.66699 -56.667 -8 -84c-38.667 -18.667 -93.5 -34 -164.5 -46
s-146.833 -18 -227.5 -18h-13z" />
    <glyph glyph-name="uniFB95" unicode="&#x6af;" horiz-adv-x="514" arabic-form="medial" 
d="M113 654v86c74 38.667 169.333 74.667 286 108v-88c-100 -28.667 -195.333 -64 -286 -106zM0 0c-10 0 -18.499 8.66699 -25.499 26s-10.5 38.333 -10.5 63s3.5 45.667 10.5 63s15.5 26 25.5 26h19c103.333 0 183 8 239 24c-24 38 -51.667 71 -83 99s-72.333 51 -123 69
v201c128.667 81.333 270 137.666 424 168.999v-156c-108 -24 -204.333 -59 -289 -105c35.333 -18 68.166 -40.667 98.499 -68s52.833 -50.5 67.5 -69.5s31.667 -43.167 51 -72.5c4 -5.33301 10.167 -14.833 18.5 -28.5s14.333 -22.667 18 -27l15.5 -17.5
c6.66699 -7.33301 13.5 -12.166 20.5 -14.499s15.167 -3.5 24.5 -3.5h13v-178h-16c-62 0 -111 19 -147 57c-84 -38 -193.333 -57 -328 -57h-23z" />
    <glyph glyph-name="uniFB9E" unicode="&#x6ba;" horiz-adv-x="705" arabic-form="isolated" 
d="M608 369c25.333 -91.333 39.999 -157.332 43.999 -197.999c2 -20.667 3 -42 3 -64c0 -97.333 -28.833 -173 -86.5 -227s-140.834 -81 -249.501 -81c-86.667 0 -153.167 21.667 -199.5 65s-69.5 104 -69.5 182c0 79.333 23.333 161.666 70 246.999l122 -48
c-24 -58 -36 -106.667 -36 -146c0 -40.667 11.333 -71.334 34 -92.001s58.334 -31 107.001 -31c46.667 0 84.334 9.5 113.001 28.5s43 44.5 43 76.5c0 54.667 -16.667 135.334 -50 242.001z" />
    <glyph glyph-name="uniFB9F" unicode="&#x6ba;" horiz-adv-x="732" arabic-form="final" 
d="M319 -216c-86.667 0 -153.168 21.667 -199.501 65s-69.5 104 -69.5 182c0 79.333 23.333 161.666 70 246.999l122 -48c-24 -58 -36 -106.667 -36 -146c0 -40.667 11.333 -71.334 34 -92.001s58.334 -31 107.001 -31c46.667 0 84.334 9.5 113.001 28.5s43 44.5 43 76.5
c0 54.667 -16.667 135.334 -50 242.001l155 46c22 -78.667 35.333 -134.667 40 -168c25.333 -5.33301 49.666 -8 72.999 -8h11v-178h-17c-27.333 0 -50.333 2 -69 6c-15.333 -71.333 -50.833 -126.166 -106.5 -164.499s-129.167 -57.5 -220.5 -57.5z" />
    <glyph glyph-name="uniFBA6" unicode="&#x6c1;" horiz-adv-x="511" arabic-form="isolated" 
d="M194 525c188 -74 282.003 -177 282.003 -309c0 -65.333 -20.333 -119 -61 -161s-102.334 -63 -185.001 -63c-62.667 0 -110.834 16.5 -144.501 49.5s-50.5 79.5 -50.5 139.5c0 59.333 14.667 119 44 179s67.666 115 114.999 165zM249.003 168
c25.333 0 47.5 3.66992 66.5 11.0029s28.5 16.666 28.5 27.999c0 19.333 -12.167 41.666 -36.5 66.999s-53.5 47.333 -87.5 66c-32.667 -38.667 -49 -74.334 -49 -107.001c0 -43.333 26 -65 78 -65z" />
    <glyph glyph-name="uniFBA7" unicode="&#x6c1;" horiz-adv-x="500" arabic-form="final" 
d="M472 178l27.998 0.00195312v-178h-32c-35.333 0 -66.166 6.33301 -92.499 19s-46.666 28 -60.999 46s-26.833 36 -37.5 54s-21.167 33.333 -31.5 46s-21.5 19 -33.5 19c-32 0 -67 -16.333 -105 -49l-77 115c72.667 65.333 143 98 211 98
c20.667 0 39.167 -5.83301 55.5 -17.5s30.333 -25.834 42 -42.501l34.5 -50c11.333 -16.667 25.333 -30.834 42 -42.501s35.667 -17.5 57 -17.5z" />
    <glyph glyph-name="uniFBA8" unicode="&#x6c1;" horiz-adv-x="445" arabic-form="initial" 
d="M0 0c-10 0 -18.499 8.66699 -25.499 26s-10.5 38.333 -10.5 63s3.5 45.667 10.5 63s15.5 26 25.5 26h9c8 0 15.833 0.5 23.5 1.5s14.167 2 19.5 3s10.833 2.5 16.5 4.5s10.167 3.66699 13.5 5s7.16602 3.33301 11.499 6s7.33301 4.66699 9 6l7.5 6l5 4
c24 -20.667 47 -31 69 -31c36 0 54 16 54 48c0 16 -7.33301 41 -22 75l138 55c27.333 -65.333 41 -123 41 -173c0 -56 -14.5 -100.5 -43.5 -133.5s-71.167 -49.5 -126.5 -49.5c-42.667 0 -78 9.66699 -106 29c-26 -22.667 -64.333 -34 -115 -34h-4zM233.001 -347
c-40 18 -70.167 38.5 -90.5 61.5s-30.5 51.833 -30.5 86.5c0 66 45.667 126 137 180l39 -61c-38 -38 -57 -68.333 -57 -91c0 -24 20.667 -43 62 -57z" />
    <glyph glyph-name="uniFBA9" unicode="&#x6c1;" horiz-adv-x="612" arabic-form="medial" 
d="M357 -310c-114 78 -182.334 184.001 -205.001 318.001c-42.667 -5.33301 -82 -8 -118 -8h-34c-10 0 -18.5 8.66699 -25.5 26s-10.5 38.333 -10.5 63s3.5 45.667 10.5 63s15.5 26 25.5 26h34c66.667 0 143.334 2.66699 230.001 8
c23.333 -142.667 59.333 -248.334 108 -317.001c-4.66699 22.667 -7 46.334 -7 71.001c0 65.333 20.667 121.333 62 168s93 70 155 70h30v-178h-33c-34.667 0 -59.5 -13.333 -74.5 -40s-22.5 -60.334 -22.5 -101.001c0 -32 4.33301 -65.333 13 -100zM123.999 -437.999
c-40 18 -70.167 38.5 -90.5 61.5s-30.5 51.833 -30.5 86.5c0 66 45.667 126 137 180l39 -61c-38 -38 -57 -68.333 -57 -91c0 -24 20.667 -43 62 -57z" />
    <glyph glyph-name="uniFBAA" unicode="&#x6be;" horiz-adv-x="737" arabic-form="isolated" 
d="M563 -25c-94.667 0 -183.669 21.667 -267.002 65c-63.333 -30 -137.666 -48.333 -222.999 -55l-38 155c48.667 4 91.334 10 128.001 18c-18 32 -27 65 -27 99c0 94 43.333 189 130 285c74.667 -10.667 143.667 -32.5 207 -65.5s114.833 -76.5 154.5 -130.5
s59.5 -112.667 59.5 -176c0 -56 -9.66699 -102.5 -29 -139.5s-51 -55.5 -95 -55.5zM257.998 287c0 -31.333 16.667 -57.333 50 -78c48 28 72 56.667 72 86c0 38.667 -32 64 -96 76c-17.333 -30.667 -26 -58.667 -26 -84zM543.998 127c8.66699 0 13 4.33301 13 13
c0 52 -23 99 -69 141c-5.33301 -46 -23 -89.333 -53 -130c48.667 -16 85 -24 109 -24z" />
    <glyph glyph-name="uniFBAB" unicode="&#x6be;" horiz-adv-x="765" arabic-form="final" 
d="M530 273c0 27.333 -22.334 60 -67.001 98c-47.333 -58 -74.666 -120.333 -81.999 -187c99.333 19.333 149 49 149 89zM519.999 -73c10.667 0 21.999 0.999023 33.999 2.99902c-5.33301 52.667 -25.666 97 -60.999 133c-30.667 -15.333 -63.334 -27.666 -98.001 -36.999
c22.667 -66 64.334 -99 125.001 -99zM645.998 -202.001c-30.667 -16.667 -74.001 -25 -130.001 -25c-63.333 0 -117.333 20.167 -162 60.5s-75.667 94.5 -93 162.5c-64 -11.333 -113.667 -31 -149 -59l-82 125c32.667 30 65 52.5 97 67.5s72.333 26.167 121 33.5
c6 78.667 26.333 152.834 61 222.501s79.334 125.5 134.001 167.5c71.333 -30 125.333 -69.5 162 -118.5s55 -101.167 55 -156.5c0 -32 -10.333 -64.333 -31 -97c26.667 -2 60.667 -3 102 -3h34v-178h-43c-25.333 -0 -44.333 0.333008 -57 1c8 -24.667 12 -50.667 12 -78
c0 -44.667 -10.333 -86.334 -31 -125.001z" />
    <glyph glyph-name="uniFBAC" unicode="&#x6be;" horiz-adv-x="672" arabic-form="initial" 
d="M193 287c0 -31.333 16.667 -57.333 50 -78c24 14 42 28.833 54 44.5s18 29.5 18 41.5c0 38.667 -32 64 -96 76c-17.333 -30.667 -26 -58.667 -26 -84zM479 127c8.66699 0 13 4.33301 13 13c0 51.333 -23 98.666 -69 141.999c-6 -45.333 -24 -88.666 -54 -129.999
c49.333 -16.667 86 -25 110 -25zM498 -25c-93.333 0 -181.332 21.333 -263.999 64c-56 -26 -124.667 -39 -206 -39h-28c-10 0 -18.5 8.66699 -25.5 26s-10.5 38.333 -10.5 63s3.5 45.667 10.5 63s15.5 26 25.5 26h13c25.333 0 49.666 1 72.999 3c-10 24 -15 49.333 -15 76
c0 94 43.333 189 130 285c74.667 -10.667 143.667 -32.5 207 -65.5s114.833 -76.5 154.5 -130.5s59.5 -112.667 59.5 -176c0 -56 -9.66699 -102.5 -29 -139.5s-51 -55.5 -95 -55.5z" />
    <glyph glyph-name="uniFBAD" unicode="&#x6be;" horiz-adv-x="612" arabic-form="medial" 
d="M377 273c0 27.333 -22.334 60 -67.001 98c-47.333 -58 -74.666 -120.333 -81.999 -187c99.333 19.333 149 49 149 89zM366.999 -73c10.667 0 21.999 0.999023 33.999 2.99902c-5.33301 52.667 -25.666 97 -60.999 133c-30.667 -15.333 -63.334 -27.666 -98.001 -36.999
c22.667 -66 64.334 -99 125.001 -99zM492.998 -202.001c-30.667 -16.667 -74 -25 -130 -25c-65.333 0 -120.666 21.333 -165.999 64s-76 99.667 -92 171c-30.667 -5.33301 -59.667 -8 -87 -8h-18c-10 0 -18.5 8.66699 -25.5 26s-10.5 38.333 -10.5 63s3.5 45.667 10.5 63
s15.5 26 25.5 26h21c29.333 0 54.666 1.33301 75.999 4c8 75.333 29.167 145.833 63.5 211.5s77.5 118.834 129.5 159.501c71.333 -30 125.333 -69.5 162 -118.5s55 -101.167 55 -156.5c0 -32 -10.333 -64.333 -31 -97c27.333 -2 61.333 -3 102 -3h34v-178h-43
c-25.333 -0 -44.333 0.333008 -57 1c8 -24.667 12 -50.667 12 -78c0 -44.667 -10.333 -86.334 -31 -125.001z" />
    <glyph glyph-name="uniFBAE" unicode="&#x6d2;" horiz-adv-x="740" arabic-form="isolated" 
d="M725 179l-40.999 -178.998h-370c-176 0 -264 63.333 -264 190c0 85.333 29 158.166 87 218.499s125.667 90.5 203 90.5c50 0 92.167 -16.333 126.5 -49s54.833 -76.334 61.5 -131.001l-131 -54c-18.667 48 -45.334 72 -80.001 72c-24 0 -47.333 -10.5 -70 -31.5
s-34 -40.833 -34 -59.5c0 -21.333 11.667 -37.833 35 -49.5s65.333 -17.5 126 -17.5h351z" />
    <glyph glyph-name="uniFBAF" unicode="&#x6d2;" horiz-adv-x="724" arabic-form="final" 
d="M637 -91l-41 -179h-300c-164 0 -246 58.667 -246 176c0 81.333 34.5 147 103.5 197s164.833 75 287.5 75h283v-178h-321c-118.667 0 -178 -18.333 -178 -55c0 -24 57 -36 171 -36h241z" />
    <glyph glyph-name="uniFBB0" unicode="&#x6d3;" horiz-adv-x="740" arabic-form="isolated" 
d="M420 593c-78.667 -14 -154.667 -35.333 -228 -64l-23 69c19.333 10 40 18.667 62 26c-22.667 19.333 -34 46.333 -34 81c0 31.333 10.667 56.5 32 75.5s48 28.5 80 28.5c30.667 0 59 -6.66699 85 -20l-24 -65c-20 5.33301 -37.667 8 -53 8
c-14 0 -25.5 -3.16699 -34.5 -9.5s-13.5 -14.5 -13.5 -24.5c0 -11.333 4 -21.5 12 -30.5s20 -13.5 36 -13.5s45.667 4.33301 89 13zM725 179l-40.999 -178.998h-370c-176 0 -264 63.333 -264 190c0 85.333 29 158.166 87 218.499s125.667 90.5 203 90.5
c50 0 92.167 -16.333 126.5 -49s54.833 -76.334 61.5 -131.001l-131 -54c-18.667 48 -45.334 72 -80.001 72c-24 0 -47.333 -10.5 -70 -31.5s-34 -40.833 -34 -59.5c0 -21.333 11.667 -37.833 35 -49.5s65.333 -17.5 126 -17.5h351z" />
    <glyph glyph-name="uniFBB1" unicode="&#x6d3;" horiz-adv-x="724" arabic-form="final" 
d="M372 257c-78.667 -14 -154.667 -35.333 -228 -64l-23 69c19.333 10 40 18.667 62 26c-22.667 19.333 -34 46.333 -34 81c0 31.333 10.667 56.5 32 75.5s48 28.5 80 28.5c30.667 0 59 -6.66699 85 -20l-24 -65c-20 5.33301 -37.667 8 -53 8
c-14 0 -25.5 -3.16699 -34.5 -9.5s-13.5 -14.5 -13.5 -24.5c0 -11.333 4 -21.5 12 -30.5s20 -13.5 36 -13.5s45.667 4.33301 89 13zM637 -91l-41 -179h-300c-164 0 -246 58.667 -246 176c0 81.333 34.5 147 103.5 197s164.833 75 287.5 75h283v-178h-321
c-118.667 0 -178 -18.333 -178 -55c0 -24 57 -36 171 -36h241z" />
    <glyph glyph-name="uniFBFC" unicode="&#x6cc;" horiz-adv-x="770" arabic-form="isolated" 
d="M342 -200c-96.667 0 -169.502 22.0059 -218.502 66.0059s-73.5 107.333 -73.5 190c0 76 21 155 63 237l120 -48c-20.667 -56 -31 -103 -31 -141c0 -45.333 13.5 -78.333 40.5 -99s69.5 -31 127.5 -31c90 0 153.667 19.333 191 58c-18 12.667 -39 24.834 -63 36.501
s-51.833 24.5 -83.5 38.5s-57.834 26.333 -78.501 37c-2 22.667 -3 43.667 -3 63c0 55.333 7.66699 103.666 23 144.999s36.333 73.5 63 96.5s55 39.833 85 50.5s62 16 96 16c26.667 0 53.334 -4.83301 80.001 -14.5s46.667 -20.834 60 -33.501l-63 -155
c-32.667 20 -68.667 30 -108 30c-24 0 -44 -5.33301 -60 -16s-29 -31.334 -39 -62.001c43.333 -18 76 -32.167 98 -42.5s47.333 -24.333 76 -42s53.334 -36.834 74.001 -57.501c-0.666992 -54.667 -10.667 -102.834 -30 -144.501s-46.166 -75.334 -80.499 -101.001
s-73.833 -44.834 -118.5 -57.501s-93.667 -19 -147 -19z" />
    <glyph glyph-name="uniFBFD" unicode="&#x6cc;" horiz-adv-x="716" arabic-form="final" 
d="M339 -211c-94 0 -165.666 21 -214.999 63s-74 101.667 -74 179c0 75.333 23.333 159.333 70 252l122 -48c-24 -66 -36 -118 -36 -156c0 -80.667 55.333 -121 166 -121c89.333 0 149.666 19 180.999 57c-53.333 10.667 -104.333 24.667 -153 42l31 155
c93.333 -22.667 183 -34 269 -34h16v-178h-14h-21c-13.333 -63.333 -49.5 -114.333 -108.5 -153s-136.833 -58 -233.5 -58z" />
    <glyph glyph-name="uniFBFE" unicode="&#x6cc;" horiz-adv-x="303" arabic-form="initial" 
d="M0 0c-10 0 -18.498 8.66602 -25.498 25.999s-10.5 38.333 -10.5 63s3.5 45.667 10.5 63s15.5 26 25.5 26h8c43.333 0 79.666 3.33301 108.999 10c-2.66699 75.333 -12.334 148.333 -29.001 219l145 31c13.333 -61.333 20 -127.666 20 -198.999c0 -78 -8 -141 -24 -189
c-24.667 -13.333 -58 -25 -100 -35s-83.333 -15 -124 -15h-5zM171.002 -237.001l-83 68l-63 -71l-97 80l79 94l83 -71l63 74l98 -84z" />
    <glyph glyph-name="uniFBFF" unicode="&#x6cc;" horiz-adv-x="390" arabic-form="medial" 
d="M0 0c-10 0 -18.502 8.66797 -25.502 26.001s-10.5 38.333 -10.5 63s3.5 45.667 10.5 63s15.5 26 25.5 26h15c44.667 0 74.334 4.83301 89.001 14.5s22 23.167 22 40.5v146l148 10v-138c0 -24.667 -1.33301 -45.334 -4 -62.001c32.667 -7.33301 70.667 -11 114 -11h6v-178
h-34c-67.333 0 -120.666 14 -159.999 42c-38 -28 -92.667 -42 -164 -42h-32zM186.998 -236.999l-83 68l-63 -71l-97 80l79 94l83 -71l63 74l98 -84z" />
    <glyph glyph-name="uniFC5E" unicode="&#xfc5e;" arabic-form="isolated" 
d="M5 906l-0.00195312 73c88.667 23.333 139.667 37.333 153 42c-24 6 -43.167 16.833 -57.5 32.5s-21.5 33.834 -21.5 54.501c0 27.333 10.333 51 31 71s46 30 76 30c26 0 47.667 -9.5 65 -28.5s26 -42.833 26 -71.5c0 -21.333 -5 -43 -15 -65
c-15.333 -32.667 -41.166 -58.834 -77.499 -78.501s-96.166 -39.5 -179.499 -59.5zM142.998 1112c0 -18 22 -34 66 -48c2.66699 8.66699 4 19 4 31s-3.66699 22.5 -11 31.5s-16.333 13.5 -27 13.5c-9.33301 0 -17 -2.5 -23 -7.5s-9 -11.833 -9 -20.5zM196.998 744
c-21.333 0 -38.334 3 -51.001 9c-25.333 -26 -56.666 -39 -93.999 -39c-23.333 0 -42.166 7.16699 -56.499 21.5s-21.5 34.166 -21.5 59.499c0 10.667 1 22.167 3 34.5s3.66699 21.833 5 28.5l3 10l52 -5c-1.33301 -11.333 -2 -22.666 -2 -33.999c0 -22.667 13 -34 39 -34
c14 0 25.333 3 34 9c-2.66699 10 -4 23 -4 39v40l62 11v-37c0 -22 11 -33 33 -33c9.33301 0 17.166 3.5 23.499 10.5s9.5 17.167 9.5 30.5c0 19.333 -3.33301 39 -10 59l65 27c9.33301 -28 14 -56.333 14 -85c0 -34.667 -9.33301 -63.667 -28 -87s-44 -35 -76 -35z" />
    <glyph glyph-name="uniFC5F" unicode="&#xfc5f;" arabic-form="isolated" 
d="M220 998c-21.333 0 -38.334 3 -51.001 9c-25.333 -26 -56.666 -39 -93.999 -39c-23.333 0 -42.166 7.16699 -56.499 21.5s-21.5 34.166 -21.5 59.499c0 10.667 1 22.167 3 34.5s4 21.833 6 28.5l2 10l52 -5c-1.33301 -11.333 -2 -22.666 -2 -33.999
c0 -22.667 13 -34 39 -34c14 0 25.333 3 34 9c-2.66699 10 -4 23 -4 39v40l62 11v-37c0 -22 11 -33 33 -33c9.33301 0 17.166 3.5 23.499 10.5s9.5 17.167 9.5 30.5c0 19.333 -3.33301 39 -10 59l65 27c9.33301 -28 14 -56.333 14 -85c0 -34.667 -9.33301 -63.667 -28 -87
s-44 -35 -76 -35zM296.999 961l0.000976562 -81c-94.667 -13.333 -185.334 -32 -272.001 -56v78c72 22 162.667 41.667 272 59zM297 846l0.000976562 -81c-94.667 -13.333 -185.334 -32 -272.001 -56v78c72 22 162.667 41.667 272 59z" />
    <glyph glyph-name="uniFC60" unicode="&#xfc60;" arabic-form="isolated" 
d="M299 1056v-84.001c-74 -12 -164.667 -31.667 -272 -59v84c86 24.667 176.667 44.334 272 59.001zM225 733.999c-21.333 0 -38.334 3 -51.001 9c-25.333 -26 -56.666 -39 -93.999 -39c-23.333 0 -42.166 7.16699 -56.499 21.5s-21.5 34.166 -21.5 59.499
c0 10.667 1 22.167 3 34.5s3.66699 21.833 5 28.5l3 10l52 -5c-1.33301 -11.333 -2 -22.666 -2 -33.999c0 -22.667 13 -34 39 -34c14 0 25.333 3 34 9c-2.66699 10 -4 23 -4 39v40l62 11v-37c0 -22 11 -33 33 -33c9.33301 0 17.166 3.5 23.499 10.5s9.5 17.167 9.5 30.5
c0 19.333 -3.33301 39 -10 59l65 27c9.33301 -28 14 -56.333 14 -85c0 -34.667 -9.33301 -63.667 -28 -87s-44 -35 -76 -35z" />
    <glyph glyph-name="uniFC61" unicode="&#xfc61;" arabic-form="isolated" 
d="M178 1115c0 -8 5.33301 -16.332 16 -24.999s27 -16.334 49 -23.001c3.33301 8.66699 5 19 5 31s-3.66699 22.5 -11 31.5s-16.333 13.5 -27 13.5c-9.33301 0 -17 -2.5 -23 -7.5s-9 -11.833 -9 -20.5zM23 905.001l-17.001 66.999c18.667 8.66699 31.334 16.167 38.001 22.5
s10 14.166 10 23.499c0 15.333 -9.33301 23 -28 23c-10 0 -22 -2.33301 -36 -7l-15 64c21.333 6.66699 40 10 56 10c26 0 45.833 -6.5 59.5 -19.5s20.5 -30.833 20.5 -53.5c0 -13.333 -3.33301 -25.666 -10 -36.999c30.667 7.33301 61 16 91 26
c-24 6.66699 -43 17.834 -57 33.501s-21 33.5 -21 53.5c0 27.333 10.333 51 31 71s46 30 76 30c26 0 47.667 -9.5 65 -28.5s26 -42.833 26 -71.5c0 -21.333 -5 -43 -15 -65c-16 -34 -41.5 -60.5 -76.5 -79.5s-100.833 -39.833 -197.5 -62.5zM214.999 744
c-21.333 0 -38.334 3 -51.001 9c-25.333 -26 -56.666 -39 -93.999 -39c-23.333 0 -42.166 7.16699 -56.499 21.5s-21.5 34.166 -21.5 59.499c0 10.667 1 22.167 3 34.5s3.66699 21.833 5 28.5l3 10l52 -5c-1.33301 -11.333 -2 -22.666 -2 -33.999c0 -22.667 13 -34 39 -34
c14 0 25.333 3 34 9c-2.66699 10 -4 23 -4 39v40l62 11v-37c0 -22 11 -33 33 -33c9.33301 0 17.166 3.5 23.499 10.5s9.5 17.167 9.5 30.5c0 19.333 -3.33301 39 -10 59l65 27c9.33301 -28 14 -56.333 14 -85c0 -34.667 -9.33301 -63.667 -28 -87s-44 -35 -76 -35z" />
    <glyph glyph-name="uniFC62" unicode="&#xfc62;" arabic-form="isolated" 
d="M235 888c-21.333 0 -38.334 3 -51.001 9c-25.333 -26 -56.666 -39 -93.999 -39c-23.333 0 -42.166 7.16699 -56.499 21.5s-21.5 34.166 -21.5 59.499c0 10.667 1 22.167 3 34.5s3.66699 21.833 5 28.5l3 10l52 -5c-1.33301 -11.333 -2 -22.666 -2 -33.999
c0 -22.667 13 -34 39 -34c14 0 25.333 3 34 9c-2.66699 10 -4 23 -4 39v40l62 11v-37c0 -22 11 -33 33 -33c9.33301 0 17.166 3.5 23.499 10.5s9.5 17.167 9.5 30.5c0 19.333 -3.33301 39 -10 59l65 27c9.33301 -28 14 -56.333 14 -85c0 -34.667 -9.33301 -63.667 -28 -87
s-44 -35 -76 -35zM311.999 856v-84.001c-74 -12 -164.667 -31.667 -272 -59v84c86 24.667 176.667 44.334 272 59.001z" />
    <glyph glyph-name="uniFC63" unicode="&#xfc63;" arabic-form="isolated" 
d="M109 1141l81 17c5.33301 -52.667 8 -125.667 8 -219l-71 -7c-2.66699 96 -8.66699 165.667 -18 209zM225 744c-21.333 0 -38.334 3 -51.001 9c-25.333 -26 -56.666 -39 -93.999 -39c-23.333 0 -42.166 7.16699 -56.499 21.5s-21.5 34.166 -21.5 59.499
c0 10.667 1 22.167 3 34.5s3.66699 21.833 5 28.5l3 10l52 -5c-1.33301 -11.333 -2 -22.666 -2 -33.999c0 -22.667 13 -34 39 -34c14 0 25.333 3 34 9c-2.66699 10 -4 23 -4 39v40l62 11v-37c0 -22 11 -33 33 -33c9.33301 0 17.166 3.5 23.499 10.5s9.5 17.167 9.5 30.5
c0 19.333 -3.33301 39 -10 59l65 27c9.33301 -28 14 -56.333 14 -85c0 -34.667 -9.33301 -63.667 -28 -87s-44 -35 -76 -35z" />
    <glyph glyph-name="uniFDF2" unicode="&#xfdf2;" horiz-adv-x="1399" arabic-form="isolated" 
d="M632 1051l81 17c5.33301 -52.667 8 -125.667 8 -219l-71 -7c-2.66699 96 -8.66699 165.667 -18 209zM1344 0h-156v712l156 13v-725zM748 654c-21.333 0 -38.334 3 -51.001 9c-25.333 -26 -56.666 -39 -93.999 -39c-23.333 0 -42.166 7.16699 -56.499 21.5
s-21.5 34.166 -21.5 59.499c0 10.667 0.833008 22.167 2.5 34.5s3.5 21.833 5.5 28.5l3 10l52 -5c-1.33301 -11.333 -2 -22.666 -2 -33.999c0 -22.667 13 -34 39 -34c14 0 25.333 3 34 9c-2.66699 10 -4 23 -4 39v40l62 11v-37c0 -22 11 -33 33 -33
c9.33301 0 17.166 3.5 23.499 10.5s9.5 17.167 9.5 30.5c0 19.333 -3.33301 39 -10 59l65 27c9.33301 -28 14 -56.333 14 -85c0 -34.667 -9.33301 -63.667 -28 -87s-44 -35 -76 -35zM859.999 8c-80 0 -134.332 27.6621 -162.999 82.9951
c-34.667 -55.333 -94.334 -83 -179.001 -83c-100.667 0 -163.667 37.333 -189 112c-11.333 -1.33301 -27 -2 -47 -2c-158 0 -237 56.333 -237 169c0 58.667 20.5 109.334 61.5 152.001s92.667 73.667 155 93s130.5 29 204.5 29c-5.33301 -149.333 -8 -241.666 -8 -276.999
c0 -65.333 29 -98 87 -98c57.333 0 86 33.667 86 101v283l154 13v-286c0 -45.333 6.66699 -75.166 20 -89.499s39.333 -21.5 78 -21.5c24 0 46.667 2.66699 68 8c-1.33301 89.333 -13 231.333 -35 426l151 28c20.667 -163.333 31 -294.666 31 -393.999
c0 -83.333 -8 -148.666 -24 -195.999c-24 -13.333 -56.167 -25 -96.5 -35s-79.5 -15 -117.5 -15zM303 262.995h10c0 2.66699 1 50 3 142c-42.667 -6.66699 -78.167 -19.167 -106.5 -37.5s-42.5 -33.833 -42.5 -46.5c0 -15.333 11.833 -28.833 35.5 -40.5
s57.167 -17.5 100.5 -17.5z" />
    <glyph glyph-name="uniFDFC" unicode="&#xfdfc;" horiz-adv-x="1159" arabic-form="isolated" 
d="M584 209c0 -84.667 -25.667 -150.333 -77 -197s-124.333 -70 -219 -70c-76.667 0 -135.5 19.333 -176.5 58s-61.5 93.334 -61.5 164.001c0 55.333 14.667 117.333 44 186l123 -39c-12.667 -40.667 -19 -76.334 -19 -107.001c0 -34.667 9.33301 -60 28 -76s48 -24 88 -24
c39.333 0 70.666 8.16699 93.999 24.5s35 34.5 35 54.5c0 8 -1 49.667 -3 125c-21.333 -4 -43.333 -6 -66 -6c-134 0 -201 64.333 -201 193c0 49.333 14 110.666 42 183.999l126 -30c-11.333 -35.333 -17 -65.666 -17 -90.999c0 -28.667 7.33301 -51.667 22 -69
s41 -26 79 -26h12c-2 126.667 -3.33301 206.667 -4 240l142 12l4 -214c28 13.333 54.667 28.333 80 45l-1 174l156 13v-92c64.667 33.333 125.334 50 182.001 50c32 0 64 -4.66699 96 -14l-20 -145c-21.333 4.66699 -44 7 -68 7c-60.667 0 -124 -16 -190 -48v-211
c0 -62.667 26.333 -94 79 -94c26.667 0 53.667 4 81 12v17c0 47.333 -10 114 -30 200l145 31c13.333 -61.333 20 -127.666 20 -198.999c0 -78 -8 -141 -24 -189c-24.667 -13.333 -58 -25 -100 -35s-83.333 -15 -124 -15c-72.667 0 -124.167 20.333 -154.5 61
s-45.833 99.667 -46.5 177l-1 156c-27.333 -17.333 -53.333 -32 -78 -44c2 -76.667 3 -126.334 3 -149.001zM971 -240.999l-83 68l-63 -71l-97 80l79 94l83 -71l63 74l98 -84z" />
    <glyph glyph-name="uniFE81" unicode="&#x622;" horiz-adv-x="266" arabic-form="isolated" 
d="M300 782l33 -82c-32 -25.333 -71 -38 -117 -38c-22.667 0 -53 5.5 -91 16.5s-63.667 16.5 -77 16.5c-24 0 -45.333 -10 -64 -30l-53 69c33.333 48.667 72 73 116 73c16 0 46.833 -6.33301 92.5 -19s76.167 -19 91.5 -19c26.667 0 49.667 4.33301 69 13zM211 0h-156v617
l156 13v-630z" />
    <glyph glyph-name="uniFE82" unicode="&#x622;" horiz-adv-x="306" arabic-form="final" 
d="M300 782l33 -82c-32 -25.333 -71 -38 -117 -38c-22.667 0 -53 5.5 -91 16.5s-63.667 16.5 -77 16.5c-24 0 -45.333 -10 -64 -30l-53 69c33.333 48.667 72 73 116 73c16 0 46.833 -6.33301 92.5 -19s76.167 -19 91.5 -19c26.667 0 49.667 4.33301 69 13zM306 178
l0.000976562 -178h-23c-82.667 -0 -141.334 20.333 -176.001 61s-52 99.667 -52 177v379l156 13v-358c0 -62.667 28 -94 84 -94h11z" />
    <glyph glyph-name="uniFE83" unicode="&#x623;" horiz-adv-x="266" arabic-form="isolated" 
d="M260 722c-78.667 -14 -154.667 -35.333 -228 -64l-23 69c19.333 10 40 18.667 62 26c-22.667 19.333 -34 46.333 -34 81c0 31.333 10.667 56.5 32 75.5s48 28.5 80 28.5c30.667 0 59 -6.66699 85 -20l-24 -65c-20 5.33301 -37.667 8 -53 8
c-14 0 -25.5 -3.16699 -34.5 -9.5s-13.5 -14.5 -13.5 -24.5c0 -11.333 4 -21.5 12 -30.5s20 -13.5 36 -13.5s45.667 4.33301 89 13zM211 0h-156v617l156 13v-630z" />
    <glyph glyph-name="uniFE84" unicode="&#x623;" horiz-adv-x="306" arabic-form="final" 
d="M260 722c-78.667 -14 -154.667 -35.333 -228 -64l-23 69c19.333 10 40 18.667 62 26c-22.667 19.333 -34 46.333 -34 81c0 31.333 10.667 56.5 32 75.5s48 28.5 80 28.5c30.667 0 59 -6.66699 85 -20l-24 -65c-20 5.33301 -37.667 8 -53 8
c-14 0 -25.5 -3.16699 -34.5 -9.5s-13.5 -14.5 -13.5 -24.5c0 -11.333 4 -21.5 12 -30.5s20 -13.5 36 -13.5s45.667 4.33301 89 13zM306 178l0.000976562 -178h-23c-82.667 -0 -141.334 20.333 -176.001 61s-52 99.667 -52 177v379l156 13v-358c0 -62.667 28 -94 84 -94h11z
" />
    <glyph glyph-name="uniFE85" unicode="&#x624;" horiz-adv-x="534" arabic-form="isolated" 
d="M359 578c-78.667 -14 -154.667 -35.333 -228 -64l-23 69c19.333 10 40 18.667 62 26c-22.667 19.333 -34 46.333 -34 81c0 31.333 10.667 56.5 32 75.5s48 28.5 80 28.5c30.667 0 59 -6.66699 85 -20l-24 -65c-20 5.33301 -37.667 8 -53 8
c-14 0 -25.5 -3.16699 -34.5 -9.5s-13.5 -14.5 -13.5 -24.5c0 -11.333 4 -21.5 12 -30.5s20 -13.5 36 -13.5s45.667 4.33301 89 13zM288 178c16.667 0 35 1.66602 55 4.99902c-4 32.667 -15 63.334 -33 92.001s-40.333 43 -67 43c-22.667 0 -40 -7.5 -52 -22.5
s-18 -32.5 -18 -52.5c0 -43.333 38.333 -65 115 -65zM159 -204.001c-37.333 0 -74.332 5 -110.999 15l12 146c22 -3.33301 46.333 -5 73 -5c57.333 0 104 9.5 140 28.5s57 38.5 63 58.5c-30.667 -13.333 -66.334 -20 -107.001 -20c-126 0 -189 65.667 -189 197
c0 74 20.333 136 61 186s91 75 151 75c66 0 121.167 -29.5 165.5 -88.5s66.5 -137.167 66.5 -234.5c0 -114 -27.667 -202.167 -83 -264.5s-136 -93.5 -242 -93.5z" />
    <glyph glyph-name="uniFE86" unicode="&#x624;" horiz-adv-x="533" arabic-form="final" 
d="M359 578c-78.667 -14 -154.667 -35.333 -228 -64l-23 69c19.333 10 40 18.667 62 26c-22.667 19.333 -34 46.333 -34 81c0 31.333 10.667 56.5 32 75.5s48 28.5 80 28.5c30.667 0 59 -6.66699 85 -20l-24 -65c-20 5.33301 -37.667 8 -53 8
c-14 0 -25.5 -3.16699 -34.5 -9.5s-13.5 -14.5 -13.5 -24.5c0 -11.333 4 -21.5 12 -30.5s20 -13.5 36 -13.5s45.667 4.33301 89 13zM288 178l56.002 0.000976562c-2 20 -6.83301 40.167 -14.5 60.5s-19.334 38.666 -35.001 54.999s-32.834 24.5 -51.501 24.5
c-22.667 0 -40 -7.5 -52 -22.5s-18 -32.5 -18 -52.5c0 -43.333 38.333 -65 115 -65zM159.002 -203.999c-37.333 0 -74.3311 4.99805 -110.998 14.998l12 146c22 -3.33301 46.333 -5 73 -5c50 0 91.667 7.33301 125 22s56.666 31.334 69.999 50.001
c-24.667 -3.33301 -57.667 -5 -99 -5c-126 0 -189 65.667 -189 197c0 72.667 20.333 134.334 61 185.001s91 76 151 76c63.333 0 116.666 -26.5 159.999 -79.5s67 -126.167 71 -219.5h50v-178h-71c-43.333 -136 -144.333 -204 -303 -204z" />
    <glyph glyph-name="uniFE87" unicode="&#x625;" horiz-adv-x="266" arabic-form="isolated" 
d="M211 0h-156v712l156 13v-725zM250 -271c-78.667 -14 -154.667 -35.333 -228 -64l-23 69c19.333 10 40 18.667 62 26c-22.667 19.333 -34 46.333 -34 81c0 31.333 10.667 56.5 32 75.5s48 28.5 80 28.5c30.667 0 59 -6.66699 85 -20l-24 -65c-20 5.33301 -37.667 8 -53 8
c-14 0 -25.5 -3.16699 -34.5 -9.5s-13.5 -14.5 -13.5 -24.5c0 -11.333 4 -21.5 12 -30.5s20 -13.5 36 -13.5s45.667 4.33301 89 13z" />
    <glyph glyph-name="uniFE88" unicode="&#x625;" horiz-adv-x="306" arabic-form="final" 
d="M306 178v-178h-48c-73.333 0 -125.5 20.5 -156.5 61.5s-46.5 99.833 -46.5 176.5v474l156 13v-453c0 -62.667 28 -94 84 -94h11zM255 -256c-78.667 -14 -154.667 -35.333 -228 -64l-23 69c19.333 10 40 18.667 62 26c-22.667 19.333 -34 46.333 -34 81
c0 31.333 10.667 56.5 32 75.5s48 28.5 80 28.5c30.667 0 59 -6.66699 85 -20l-24 -65c-20 5.33301 -37.667 8 -53 8c-14 0 -25.5 -3.16699 -34.5 -9.5s-13.5 -14.5 -13.5 -24.5c0 -11.333 4 -21.5 12 -30.5s20 -13.5 36 -13.5s45.667 4.33301 89 13z" />
    <glyph glyph-name="uniFE89" unicode="&#x626;" horiz-adv-x="770" arabic-form="isolated" 
d="M329 406c-78.667 -14 -154.667 -35.333 -228 -64l-23 69c19.333 10 40 18.667 62 26c-22.667 19.333 -34 46.333 -34 81c0 31.333 10.667 56.5 32 75.5s48 28.5 80 28.5c30.667 0 59 -6.66699 85 -20l-24 -65c-20 5.33301 -37.667 8 -53 8
c-14 0 -25.5 -3.16699 -34.5 -9.5s-13.5 -14.5 -13.5 -24.5c0 -11.333 4 -21.5 12 -30.5s20 -13.5 36 -13.5s45.667 4.33301 89 13zM342 -200c-96.667 0 -169.502 22.0059 -218.502 66.0059s-73.5 107.333 -73.5 190c0 76 21 155 63 237l120 -48
c-20.667 -56 -31 -103 -31 -141c0 -45.333 13.5 -78.333 40.5 -99s69.5 -31 127.5 -31c90 0 153.667 19.333 191 58c-18 12.667 -39 24.834 -63 36.501s-51.833 24.5 -83.5 38.5s-57.834 26.333 -78.501 37c-2 22.667 -3 43.667 -3 63c0 55.333 7.66699 103.666 23 144.999
s36.333 73.5 63 96.5s55 39.833 85 50.5s62 16 96 16c26.667 0 53.334 -4.83301 80.001 -14.5s46.667 -20.834 60 -33.501l-63 -155c-32.667 20 -68.667 30 -108 30c-24 0 -44 -5.33301 -60 -16s-29 -31.334 -39 -62.001c43.333 -18 76 -32.167 98 -42.5
s47.333 -24.333 76 -42s53.334 -36.834 74.001 -57.501c-0.666992 -54.667 -10.667 -102.834 -30 -144.501s-46.166 -75.334 -80.499 -101.001s-73.833 -44.834 -118.5 -57.501s-93.667 -19 -147 -19z" />
    <glyph glyph-name="uniFE8A" unicode="&#x626;" horiz-adv-x="716" arabic-form="final" 
d="M546 306c-78.667 -14 -154.667 -35.333 -228 -64l-23 69c19.333 10 40 18.667 62 26c-22.667 19.333 -34 46.333 -34 81c0 31.333 10.667 56.5 32 75.5s48 28.5 80 28.5c30.667 0 59 -6.66699 85 -20l-24 -65c-20 5.33301 -37.667 8 -53 8
c-14 0 -25.5 -3.16699 -34.5 -9.5s-13.5 -14.5 -13.5 -24.5c0 -11.333 4 -21.5 12 -30.5s20 -13.5 36 -13.5s45.667 4.33301 89 13zM339 -211c-94 0 -165.666 21 -214.999 63s-74 101.667 -74 179c0 75.333 23.333 159.333 70 252l122 -48c-24 -66 -36 -118 -36 -156
c0 -80.667 55.333 -121 166 -121c89.333 0 149.666 19 180.999 57c-53.333 10.667 -104.333 24.667 -153 42l31 155c93.333 -22.667 183 -34 269 -34h16v-178h-14h-21c-13.333 -63.333 -49.5 -114.333 -108.5 -153s-136.833 -58 -233.5 -58z" />
    <glyph glyph-name="uniFE8B" unicode="&#x626;" horiz-adv-x="303" arabic-form="initial" 
d="M269 520c-78.667 -14 -154.667 -35.333 -228 -64l-23 69c19.333 10 40 18.667 62 26c-22.667 19.333 -34 46.333 -34 81c0 31.333 10.667 56.5 32 75.5s48 28.5 80 28.5c30.667 0 59 -6.66699 85 -20l-24 -65c-20 5.33301 -37.667 8 -53 8
c-14 0 -25.5 -3.16699 -34.5 -9.5s-13.5 -14.5 -13.5 -24.5c0 -11.333 4 -21.5 12 -30.5s20 -13.5 36 -13.5s45.667 4.33301 89 13zM0 0c-10 0 -18.498 8.66602 -25.498 25.999s-10.5 38.333 -10.5 63s3.5 45.667 10.5 63s15.5 26 25.5 26h8
c43.333 0 79.666 3.33301 108.999 10c-2.66699 75.333 -12.334 148.333 -29.001 219l145 31c13.333 -61.333 20 -127.666 20 -198.999c0 -78 -8 -141 -24 -189c-24.667 -13.333 -58 -25 -100 -35s-83.333 -15 -124 -15h-5z" />
    <glyph glyph-name="uniFE8C" unicode="&#x626;" horiz-adv-x="390" arabic-form="medial" 
d="M292 474c-78.667 -14 -154.667 -35.333 -228 -64l-23 69c19.333 10 40 18.667 62 26c-22.667 19.333 -34 46.333 -34 81c0 31.333 10.667 56.5 32 75.5s48 28.5 80 28.5c30.667 0 59 -6.66699 85 -20l-24 -65c-20 5.33301 -37.667 8 -53 8
c-14 0 -25.5 -3.16699 -34.5 -9.5s-13.5 -14.5 -13.5 -24.5c0 -11.333 4 -21.5 12 -30.5s20 -13.5 36 -13.5s45.667 4.33301 89 13zM0 0c-10 0 -18.502 8.66797 -25.502 26.001s-10.5 38.333 -10.5 63s3.5 45.667 10.5 63s15.5 26 25.5 26h15
c44.667 0 74.334 4.83301 89.001 14.5s22 23.167 22 40.5v146l148 10v-138c0 -24.667 -1.33301 -45.334 -4 -62.001c32.667 -7.33301 70.667 -11 114 -11h6v-178h-34c-67.333 0 -120.666 14 -159.999 42c-38 -28 -92.667 -42 -164 -42h-32z" />
    <glyph glyph-name="uniFE8D" unicode="&#x627;" horiz-adv-x="266" arabic-form="isolated" 
d="M211 0h-156v712l156 13v-725z" />
    <glyph glyph-name="uniFE8E" unicode="&#x627;" horiz-adv-x="306" arabic-form="final" 
d="M306 178v-178h-48c-73.333 0 -125.5 20.5 -156.5 61.5s-46.5 99.833 -46.5 176.5v474l156 13v-453c0 -62.667 28 -94 84 -94h11z" />
    <glyph glyph-name="uniFE8F" unicode="&#x628;" horiz-adv-x="876" arabic-form="isolated" 
d="M404 -10c-70.667 0 -130.003 5.8291 -178.003 17.4961s-84.333 28.834 -109 51.501s-42 47.334 -52 74.001s-15 58 -15 94c0 54 12.667 119 38 195l133 -26c-8.66699 -44.667 -13 -80 -13 -106c0 -30 5.66699 -53.167 17 -69.5s33.833 -28.833 67.5 -37.5
s81.834 -13 144.501 -13c96 0 173.667 8.66699 233 26c-1.33301 58.667 -10.666 127.334 -27.999 206.001l161 31c15.333 -67.333 23 -133.666 23 -198.999c0 -67.333 -9.33301 -123 -28 -167c-79.333 -51.333 -210.666 -77 -393.999 -77zM414.997 -66.0039l108 -93
l-88 -100l-108 89z" />
    <glyph glyph-name="uniFE90" unicode="&#x628;" horiz-adv-x="951" arabic-form="final" 
d="M917 0c-80.667 0 -143.33 17.3301 -187.997 51.9971c-62.667 -41.333 -171.667 -62 -327 -62c-70.667 0 -129.834 5.83301 -177.501 17.5s-83.834 28.834 -108.501 51.501s-41.834 47.334 -51.501 74.001s-14.5 58 -14.5 94c0 54 12.667 119 38 195l133 -26
c-8.66699 -44.667 -13 -80 -13 -106c0 -30.667 5.5 -54 16.5 -70s33.167 -28.333 66.5 -37s82 -13 146 -13c65.333 0 115.5 3.33301 150.5 10s56.167 13.834 63.5 21.501s11 18.167 11 31.5v146l148 10v-173c0 -10 -0.333008 -17 -1 -21c34 -11.333 77.667 -17 131 -17h11
v-178h-34zM423.004 -64.0029l108 -93l-88 -100l-108 89z" />
    <glyph glyph-name="uniFE91" unicode="&#x628;" horiz-adv-x="303" arabic-form="initial" 
d="M0 0c-10 0 -18.498 8.66602 -25.498 25.999s-10.5 38.333 -10.5 63s3.5 45.667 10.5 63s15.5 26 25.5 26h8c43.333 0 79.666 3.33301 108.999 10c-2.66699 75.333 -12.334 148.333 -29.001 219l145 31c13.333 -61.333 20 -127.666 20 -198.999c0 -78 -8 -141 -24 -189
c-24.667 -13.333 -58 -25 -100 -35s-83.333 -15 -124 -15h-5zM78.002 -58.001l108 -93l-88 -100l-108 89z" />
    <glyph glyph-name="uniFE92" unicode="&#x628;" horiz-adv-x="390" arabic-form="medial" 
d="M0 0c-10 0 -18.502 8.66797 -25.502 26.001s-10.5 38.333 -10.5 63s3.5 45.667 10.5 63s15.5 26 25.5 26h15c44.667 0 74.334 4.83301 89.001 14.5s22 23.167 22 40.5v146l148 10v-138c0 -24.667 -1.33301 -45.334 -4 -62.001c32.667 -7.33301 70.667 -11 114 -11h6v-178
h-34c-67.333 0 -120.666 14 -159.999 42c-38 -28 -92.667 -42 -164 -42h-32zM59.998 -59.999l108 -93l-88 -100l-108 89z" />
    <glyph glyph-name="uniFE93" unicode="&#x629;" horiz-adv-x="511" arabic-form="isolated" 
d="M341 554l-83 68l-63 -71l-97 80l79 94l83 -71l63 74l98 -84zM194 525c188 -74 282.003 -177 282.003 -309c0 -65.333 -20.333 -119 -61 -161s-102.334 -63 -185.001 -63c-62.667 0 -110.834 16.5 -144.501 49.5s-50.5 79.5 -50.5 139.5c0 59.333 14.667 119 44 179
s67.666 115 114.999 165zM249.003 168c25.333 0 47.5 3.66992 66.5 11.0029s28.5 16.666 28.5 27.999c0 19.333 -12.167 41.666 -36.5 66.999s-53.5 47.333 -87.5 66c-32.667 -38.667 -49 -74.334 -49 -107.001c0 -43.333 26 -65 78 -65z" />
    <glyph glyph-name="uniFE94" unicode="&#x629;" horiz-adv-x="568" arabic-form="final" 
d="M379 593l-83 68l-63 -71l-97 80l79 94l83 -71l63 74l98 -84zM568 0h-63c-75.333 0 -125 25.667 -149 77c-30 -4 -57.333 -6 -82 -6c-70.667 0 -126.5 14 -167.5 42s-61.5 70 -61.5 126c0 64 20 119.833 60 167.5s91.5 83 154.5 106s132.5 34.5 208.5 34.5v-296
c0 -30 6.16699 -49.667 18.5 -59s35.5 -14 69.5 -14h12v-178zM304 226c11.333 0 20 0.332031 26 0.999023v7v145c-47.333 -7.33301 -85.333 -21 -114 -41s-43 -39.333 -43 -58c0 -15.333 11.5 -28.166 34.5 -38.499s55.167 -15.5 96.5 -15.5z" />
    <glyph glyph-name="uniFE95" unicode="&#x62a;" horiz-adv-x="876" arabic-form="isolated" 
d="M537 404l-83 68l-63 -71l-97 80l79 94l83 -71l63 74l98 -84zM404 -10c-70.667 0 -130.003 5.8291 -178.003 17.4961s-84.333 28.834 -109 51.501s-42 47.334 -52 74.001s-15 58 -15 94c0 54 12.667 119 38 195l133 -26c-8.66699 -44.667 -13 -80 -13 -106
c0 -30 5.66699 -53.167 17 -69.5s33.833 -28.833 67.5 -37.5s81.834 -13 144.501 -13c96 0 173.667 8.66699 233 26c-1.33301 58.667 -10.666 127.334 -27.999 206.001l161 31c15.333 -67.333 23 -133.666 23 -198.999c0 -67.333 -9.33301 -123 -28 -167
c-79.333 -51.333 -210.666 -77 -393.999 -77z" />
    <glyph glyph-name="uniFE96" unicode="&#x62a;" horiz-adv-x="951" arabic-form="final" 
d="M553 394l-83 68l-63 -71l-97 80l79 94l83 -71l63 74l98 -84zM917 0c-80.667 0 -143.33 17.3301 -187.997 51.9971c-62.667 -41.333 -171.667 -62 -327 -62c-70.667 0 -129.834 5.83301 -177.501 17.5s-83.834 28.834 -108.501 51.501s-41.834 47.334 -51.501 74.001
s-14.5 58 -14.5 94c0 54 12.667 119 38 195l133 -26c-8.66699 -44.667 -13 -80 -13 -106c0 -30.667 5.5 -54 16.5 -70s33.167 -28.333 66.5 -37s82 -13 146 -13c65.333 0 115.5 3.33301 150.5 10s56.167 13.834 63.5 21.501s11 18.167 11 31.5v146l148 10v-173
c0 -10 -0.333008 -17 -1 -21c34 -11.333 77.667 -17 131 -17h11v-178h-34z" />
    <glyph glyph-name="uniFE97" unicode="&#x62a;" horiz-adv-x="303" arabic-form="initial" 
d="M172 466l-83 68l-63 -71l-97 80l79 94l83 -71l63 74l98 -84zM0 0c-10 0 -18.498 8.66602 -25.498 25.999s-10.5 38.333 -10.5 63s3.5 45.667 10.5 63s15.5 26 25.5 26h8c43.333 0 79.666 3.33301 108.999 10c-2.66699 75.333 -12.334 148.333 -29.001 219l145 31
c13.333 -61.333 20 -127.666 20 -198.999c0 -78 -8 -141 -24 -189c-24.667 -13.333 -58 -25 -100 -35s-83.333 -15 -124 -15h-5z" />
    <glyph glyph-name="uniFE98" unicode="&#x62a;" horiz-adv-x="390" arabic-form="medial" 
d="M199 442l-83 68l-63 -71l-97 80l79 94l83 -71l63 74l98 -84zM0 0c-10 0 -18.502 8.66797 -25.502 26.001s-10.5 38.333 -10.5 63s3.5 45.667 10.5 63s15.5 26 25.5 26h15c44.667 0 74.334 4.83301 89.001 14.5s22 23.167 22 40.5v146l148 10v-138
c0 -24.667 -1.33301 -45.334 -4 -62.001c32.667 -7.33301 70.667 -11 114 -11h6v-178h-34c-67.333 0 -120.666 14 -159.999 42c-38 -28 -92.667 -42 -164 -42h-32z" />
    <glyph glyph-name="uniFE99" unicode="&#x62b;" horiz-adv-x="876" arabic-form="isolated" 
d="M438 676l86 -74l-70 -80l-86 71zM540 388l-81 67l-66 -74l-95 79l78 92l81 -70l66 77l95 -82zM404 -10c-70.667 0 -130.003 5.8291 -178.003 17.4961s-84.333 28.834 -109 51.501s-42 47.334 -52 74.001s-15 58 -15 94c0 54 12.667 119 38 195l133 -26
c-8.66699 -44.667 -13 -80 -13 -106c0 -30 5.66699 -53.167 17 -69.5s33.833 -28.833 67.5 -37.5s81.834 -13 144.501 -13c96 0 173.667 8.66699 233 26c-1.33301 58.667 -10.666 127.334 -27.999 206.001l161 31c15.333 -67.333 23 -133.666 23 -198.999
c0 -67.333 -9.33301 -123 -28 -167c-79.333 -51.333 -210.666 -77 -393.999 -77z" />
    <glyph glyph-name="uniFE9A" unicode="&#x62b;" horiz-adv-x="951" arabic-form="final" 
d="M441 667l86 -74l-70 -80l-86 71zM543 379l-81 67l-66 -74l-95 79l78 92l81 -70l66 77l95 -82zM917 0c-80.667 0 -143.33 17.3301 -187.997 51.9971c-62.667 -41.333 -171.667 -62 -327 -62c-70.667 0 -129.834 5.83301 -177.501 17.5s-83.834 28.834 -108.501 51.501
s-41.834 47.334 -51.501 74.001s-14.5 58 -14.5 94c0 54 12.667 119 38 195l133 -26c-8.66699 -44.667 -13 -80 -13 -106c0 -30.667 5.5 -54 16.5 -70s33.167 -28.333 66.5 -37s82 -13 146 -13c65.333 0 115.5 3.33301 150.5 10s56.167 13.834 63.5 21.501
s11 18.167 11 31.5v146l148 10v-173c0 -10 -0.333008 -17 -1 -21c34 -11.333 77.667 -17 131 -17h11v-178h-34z" />
    <glyph glyph-name="uniFE9B" unicode="&#x62b;" horiz-adv-x="303" arabic-form="initial" 
d="M71 763l86 -74l-70 -80l-86 71zM173 475l-81 67l-66 -74l-95 79l78 92l81 -70l66 77l95 -82zM0 0c-10 0 -18.498 8.66602 -25.498 25.999s-10.5 38.333 -10.5 63s3.5 45.667 10.5 63s15.5 26 25.5 26h8c43.333 0 79.666 3.33301 108.999 10
c-2.66699 75.333 -12.334 148.333 -29.001 219l145 31c13.333 -61.333 20 -127.666 20 -198.999c0 -78 -8 -141 -24 -189c-24.667 -13.333 -58 -25 -100 -35s-83.333 -15 -124 -15h-5z" />
    <glyph glyph-name="uniFE9C" unicode="&#x62b;" horiz-adv-x="390" arabic-form="medial" 
d="M101 732l86 -74l-70 -80l-86 71zM203 444l-81 67l-66 -74l-95 79l78 92l81 -70l66 77l95 -82zM0 0c-10 0 -18.502 8.66797 -25.502 26.001s-10.5 38.333 -10.5 63s3.5 45.667 10.5 63s15.5 26 25.5 26h15c44.667 0 74.334 4.83301 89.001 14.5s22 23.167 22 40.5v146
l148 10v-138c0 -24.667 -1.33301 -45.334 -4 -62.001c32.667 -7.33301 70.667 -11 114 -11h6v-178h-34c-67.333 0 -120.666 14 -159.999 42c-38 -28 -92.667 -42 -164 -42h-32z" />
    <glyph glyph-name="uniFE9D" unicode="&#x62c;" horiz-adv-x="653" arabic-form="isolated" 
d="M360 -277c-97.333 0 -171.498 21.3311 -222.498 63.998s-76.5 101.667 -76.5 177c0 41.333 8.5 79.333 25.5 114s40 63.834 69 87.501s61 43.5 96 59.5s72.5 28.333 112.5 37c-57.333 49.333 -101.333 74 -132 74c-16.667 0 -30 -4 -40 -12s-20.333 -21.333 -31 -40
l-111 52c37.333 100.667 101 151 191 151c29.333 0 62.666 -9.66699 99.999 -29s70.666 -41 99.999 -65l94.5 -75c33.667 -26 60.167 -43.333 79.5 -52l-39 -119c-110 0 -196.833 -16.167 -260.5 -48.5s-95.5 -69.833 -95.5 -112.5c0 -29.333 14.833 -51.666 44.5 -66.999
s69.5 -23 119.5 -23c68.667 0 136.667 11.333 204 34l45 -140c-81.333 -44.667 -172.333 -67 -273 -67zM400.002 93.998l93 -78l-76 -84l-92 75z" />
    <glyph glyph-name="uniFE9E" unicode="&#x62c;" horiz-adv-x="704" arabic-form="final" 
d="M636 -240c-81.333 -44.667 -172.332 -67 -272.999 -67c-97.333 0 -171.5 21.333 -222.5 64s-76.5 101.667 -76.5 177c0 70.667 24.333 131.5 73 182.5s110.334 88.5 185.001 112.5c-48 46.667 -80.333 70 -97 70c-14 0 -25 -3.83301 -33 -11.5s-17.333 -21.167 -28 -40.5
l-114 43c21.333 57.333 45.333 99.666 72 126.999s60.667 41 102 41c24 0 48.5 -5.33301 73.5 -16s51.5 -27.5 79.5 -50.5s50.833 -42.833 68.5 -59.5l70.5 -70c33.333 -33.333 63.666 -55.666 90.999 -66.999s57.666 -17 90.999 -17h6v-178h-12
c-50 -0 -92.667 8.83301 -128 26.5s-81.333 52.167 -138 103.5c-67.333 -18 -118 -41.667 -152 -71s-51 -60.666 -51 -93.999c0 -32.667 15.833 -57.334 47.5 -74.001s74.167 -25 127.5 -25c62.667 0 127 11.333 193 34zM387.001 69l93 -78l-76 -84l-92 75z" />
    <glyph glyph-name="uniFE9F" unicode="&#x62c;" horiz-adv-x="632" arabic-form="initial" 
d="M0 0c-10 0 -18.4971 8.66602 -25.4971 25.999s-10.5 38.333 -10.5 63s3.5 45.667 10.5 63s15.5 26 25.5 26h46c126 0 242.667 10 350 30l-24.5 16l-23.5 16c-4.66699 3.33301 -11.834 8 -21.501 14s-16.834 10.333 -21.501 13l-19 11
c-8 4.66699 -14.333 8.16699 -19 10.5s-10.334 4.83301 -17.001 7.5s-12.5 4.66699 -17.5 6s-10.167 2.5 -15.5 3.5s-10.333 1.5 -15 1.5c-24 0 -44.667 -16.333 -62 -49l-114 40c21.333 57.333 46.5 99.333 75.5 126s63.833 40 104.5 40s82.5 -11.167 125.5 -33.5
s93.333 -55 151 -98s99.167 -72.167 124.5 -87.5l-11 -131c-23.333 -3.33301 -63.333 -15.166 -120 -35.499s-123.667 -38.5 -201 -54.5s-164 -24 -260 -24h-15zM282.003 -40.001l108 -93l-88 -100l-108 89z" />
    <glyph glyph-name="uniFEA0" unicode="&#x62c;" horiz-adv-x="697" arabic-form="medial" 
d="M0 0c-10 0 -18.499 8.66699 -25.499 26s-10.5 38.333 -10.5 63s3.5 45.667 10.5 63s15.5 26 25.5 26h46c141.333 0 247.333 5 318 15c-76.667 75.333 -130 113 -160 113c-14 0 -25.5 -3.33301 -34.5 -10s-18.833 -19.334 -29.5 -38.001l-108 40
c20.667 58 45.5 100.167 74.5 126.5s63.833 39.5 104.5 39.5c10 0 20.333 -1 31 -3s21.834 -5.66699 33.501 -11s21.834 -10.166 30.501 -14.499s19.667 -11.5 33 -21.5l30 -22.5c6.66699 -5 17.5 -14.333 32.5 -28l30.5 -27.5c5.33301 -4.66699 16.166 -15 32.499 -31
s26.5 -25.667 30.5 -29c43.333 -41.333 76.166 -68 98.499 -80s52.166 -18 89.499 -18h14v-178h-20c-36 0 -67.5 4.66699 -94.5 14s-54.5 25 -82.5 47c-150 -40.667 -311.667 -61 -485 -61h-15zM301.001 -33l108 -93l-88 -100l-108 89z" />
    <glyph glyph-name="uniFEA1" unicode="&#x62d;" horiz-adv-x="653" arabic-form="isolated" 
d="M360 -277c-97.333 0 -171.498 21.3311 -222.498 63.998s-76.5 101.667 -76.5 177c0 41.333 8.5 79.333 25.5 114s40 63.834 69 87.501s61 43.5 96 59.5s72.5 28.333 112.5 37c-57.333 49.333 -101.333 74 -132 74c-16.667 0 -30 -4 -40 -12s-20.333 -21.333 -31 -40
l-111 52c37.333 100.667 101 151 191 151c29.333 0 62.666 -9.66699 99.999 -29s70.666 -41 99.999 -65l94.5 -75c33.667 -26 60.167 -43.333 79.5 -52l-39 -119c-110 0 -196.833 -16.167 -260.5 -48.5s-95.5 -69.833 -95.5 -112.5c0 -29.333 14.833 -51.666 44.5 -66.999
s69.5 -23 119.5 -23c68.667 0 136.667 11.333 204 34l45 -140c-81.333 -44.667 -172.333 -67 -273 -67z" />
    <glyph glyph-name="uniFEA2" unicode="&#x62d;" horiz-adv-x="704" arabic-form="final" 
d="M636 -240c-81.333 -44.667 -172.332 -67 -272.999 -67c-97.333 0 -171.5 21.333 -222.5 64s-76.5 101.667 -76.5 177c0 70.667 24.333 131.5 73 182.5s110.334 88.5 185.001 112.5c-48 46.667 -80.333 70 -97 70c-14 0 -25 -3.83301 -33 -11.5s-17.333 -21.167 -28 -40.5
l-114 43c21.333 57.333 45.333 99.666 72 126.999s60.667 41 102 41c24 0 48.5 -5.33301 73.5 -16s51.5 -27.5 79.5 -50.5s50.833 -42.833 68.5 -59.5l70.5 -70c33.333 -33.333 63.666 -55.666 90.999 -66.999s57.666 -17 90.999 -17h6v-178h-12
c-50 -0 -92.667 8.83301 -128 26.5s-81.333 52.167 -138 103.5c-67.333 -18 -118 -41.667 -152 -71s-51 -60.666 -51 -93.999c0 -32.667 15.833 -57.334 47.5 -74.001s74.167 -25 127.5 -25c62.667 0 127 11.333 193 34z" />
    <glyph glyph-name="uniFEA3" unicode="&#x62d;" horiz-adv-x="632" arabic-form="initial" 
d="M0 0c-10 0 -18.4971 8.66602 -25.4971 25.999s-10.5 38.333 -10.5 63s3.5 45.667 10.5 63s15.5 26 25.5 26h46c126 0 242.667 10 350 30l-24.5 16l-23.5 16c-4.66699 3.33301 -11.834 8 -21.501 14s-16.834 10.333 -21.501 13l-19 11
c-8 4.66699 -14.333 8.16699 -19 10.5s-10.334 4.83301 -17.001 7.5s-12.5 4.66699 -17.5 6s-10.167 2.5 -15.5 3.5s-10.333 1.5 -15 1.5c-24 0 -44.667 -16.333 -62 -49l-114 40c21.333 57.333 46.5 99.333 75.5 126s63.833 40 104.5 40s82.5 -11.167 125.5 -33.5
s93.333 -55 151 -98s99.167 -72.167 124.5 -87.5l-11 -131c-23.333 -3.33301 -63.333 -15.166 -120 -35.499s-123.667 -38.5 -201 -54.5s-164 -24 -260 -24h-15z" />
    <glyph glyph-name="uniFEA4" unicode="&#x62d;" horiz-adv-x="697" arabic-form="medial" 
d="M0 0c-10 0 -18.499 8.66699 -25.499 26s-10.5 38.333 -10.5 63s3.5 45.667 10.5 63s15.5 26 25.5 26h46c141.333 0 247.333 5 318 15c-76.667 75.333 -130 113 -160 113c-14 0 -25.5 -3.33301 -34.5 -10s-18.833 -19.334 -29.5 -38.001l-108 40
c20.667 58 45.5 100.167 74.5 126.5s63.833 39.5 104.5 39.5c10 0 20.333 -1 31 -3s21.834 -5.66699 33.501 -11s21.834 -10.166 30.501 -14.499s19.667 -11.5 33 -21.5l30 -22.5c6.66699 -5 17.5 -14.333 32.5 -28l30.5 -27.5c5.33301 -4.66699 16.166 -15 32.499 -31
s26.5 -25.667 30.5 -29c43.333 -41.333 76.166 -68 98.499 -80s52.166 -18 89.499 -18h14v-178h-20c-36 0 -67.5 4.66699 -94.5 14s-54.5 25 -82.5 47c-150 -40.667 -311.667 -61 -485 -61h-15z" />
    <glyph glyph-name="uniFEA5" unicode="&#x62e;" horiz-adv-x="653" arabic-form="isolated" 
d="M333 704l108 -93l-88 -100l-108 89zM360 -277c-97.333 0 -171.498 21.3311 -222.498 63.998s-76.5 101.667 -76.5 177c0 41.333 8.5 79.333 25.5 114s40 63.834 69 87.501s61 43.5 96 59.5s72.5 28.333 112.5 37c-57.333 49.333 -101.333 74 -132 74
c-16.667 0 -30 -4 -40 -12s-20.333 -21.333 -31 -40l-111 52c37.333 100.667 101 151 191 151c29.333 0 62.666 -9.66699 99.999 -29s70.666 -41 99.999 -65l94.5 -75c33.667 -26 60.167 -43.333 79.5 -52l-39 -119c-110 0 -196.833 -16.167 -260.5 -48.5
s-95.5 -69.833 -95.5 -112.5c0 -29.333 14.833 -51.666 44.5 -66.999s69.5 -23 119.5 -23c68.667 0 136.667 11.333 204 34l45 -140c-81.333 -44.667 -172.333 -67 -273 -67z" />
    <glyph glyph-name="uniFEA6" unicode="&#x62e;" horiz-adv-x="704" arabic-form="final" 
d="M333 674l108 -93l-88 -100l-108 89zM636 -240c-81.333 -44.667 -172.332 -67 -272.999 -67c-97.333 0 -171.5 21.333 -222.5 64s-76.5 101.667 -76.5 177c0 70.667 24.333 131.5 73 182.5s110.334 88.5 185.001 112.5c-48 46.667 -80.333 70 -97 70
c-14 0 -25 -3.83301 -33 -11.5s-17.333 -21.167 -28 -40.5l-114 43c21.333 57.333 45.333 99.666 72 126.999s60.667 41 102 41c24 0 48.5 -5.33301 73.5 -16s51.5 -27.5 79.5 -50.5s50.833 -42.833 68.5 -59.5l70.5 -70c33.333 -33.333 63.666 -55.666 90.999 -66.999
s57.666 -17 90.999 -17h6v-178h-12c-50 -0 -92.667 8.83301 -128 26.5s-81.333 52.167 -138 103.5c-67.333 -18 -118 -41.667 -152 -71s-51 -60.666 -51 -93.999c0 -32.667 15.833 -57.334 47.5 -74.001s74.167 -25 127.5 -25c62.667 0 127 11.333 193 34z" />
    <glyph glyph-name="uniFEA7" unicode="&#x62e;" horiz-adv-x="632" arabic-form="initial" 
d="M252 697l108 -93l-88 -100l-108 89zM0 0c-10 0 -18.4971 8.66602 -25.4971 25.999s-10.5 38.333 -10.5 63s3.5 45.667 10.5 63s15.5 26 25.5 26h46c126 0 242.667 10 350 30l-24.5 16l-23.5 16c-4.66699 3.33301 -11.834 8 -21.501 14s-16.834 10.333 -21.501 13l-19 11
c-8 4.66699 -14.333 8.16699 -19 10.5s-10.334 4.83301 -17.001 7.5s-12.5 4.66699 -17.5 6s-10.167 2.5 -15.5 3.5s-10.333 1.5 -15 1.5c-24 0 -44.667 -16.333 -62 -49l-114 40c21.333 57.333 46.5 99.333 75.5 126s63.833 40 104.5 40s82.5 -11.167 125.5 -33.5
s93.333 -55 151 -98s99.167 -72.167 124.5 -87.5l-11 -131c-23.333 -3.33301 -63.333 -15.166 -120 -35.499s-123.667 -38.5 -201 -54.5s-164 -24 -260 -24h-15z" />
    <glyph glyph-name="uniFEA8" unicode="&#x62e;" horiz-adv-x="697" arabic-form="medial" 
d="M252 697l108 -93l-88 -100l-108 89zM0 0c-10 0 -18.499 8.66699 -25.499 26s-10.5 38.333 -10.5 63s3.5 45.667 10.5 63s15.5 26 25.5 26h46c141.333 0 247.333 5 318 15c-76.667 75.333 -130 113 -160 113c-14 0 -25.5 -3.33301 -34.5 -10
s-18.833 -19.334 -29.5 -38.001l-108 40c20.667 58 45.5 100.167 74.5 126.5s63.833 39.5 104.5 39.5c10 0 20.333 -1 31 -3s21.834 -5.66699 33.501 -11s21.834 -10.166 30.501 -14.499s19.667 -11.5 33 -21.5l30 -22.5c6.66699 -5 17.5 -14.333 32.5 -28l30.5 -27.5
c5.33301 -4.66699 16.166 -15 32.499 -31s26.5 -25.667 30.5 -29c43.333 -41.333 76.166 -68 98.499 -80s52.166 -18 89.499 -18h14v-178h-20c-36 0 -67.5 4.66699 -94.5 14s-54.5 25 -82.5 47c-150 -40.667 -311.667 -61 -485 -61h-15z" />
    <glyph glyph-name="uniFEA9" unicode="&#x62f;" horiz-adv-x="485" arabic-form="isolated" 
d="M158 -10c-48.667 0 -92.999 2.66699 -132.999 8v172c57.333 -4 107.666 -6 150.999 -6s85 2 125 6c-24.667 82.667 -76.667 160 -156 232l113 120c118 -103.333 177 -229.666 177 -378.999c0 -32.667 -3.33301 -68.334 -10 -107.001
c-55.333 -30.667 -144.333 -46 -267 -46z" />
    <glyph glyph-name="uniFEAA" unicode="&#x62f;" horiz-adv-x="525" arabic-form="final" 
d="M506 0c-58.667 0 -104.001 15 -136.001 45c-62 -36 -133 -54 -213 -54c-55.333 0 -99.333 2.33301 -132 7v177c58.667 -2.66699 102 -4 130 -4c60.667 0 108 4.33301 142 13c-5.33301 16 -9.66602 28 -12.999 36c-23.333 64 -64.666 129.667 -123.999 197l113 110
c24.667 -25.333 47 -53.833 67 -85.5s34 -56.5 42 -74.5s18.667 -43.667 32 -77c18.667 -46 33.667 -76.167 45 -90.5s30.666 -21.5 57.999 -21.5h8v-178h-19z" />
    <glyph glyph-name="uniFEAB" unicode="&#x630;" horiz-adv-x="485" arabic-form="isolated" 
d="M230 750l108 -93l-88 -100l-108 89zM158 -10c-48.667 0 -92.999 2.66699 -132.999 8v172c57.333 -4 107.666 -6 150.999 -6s85 2 125 6c-24.667 82.667 -76.667 160 -156 232l113 120c118 -103.333 177 -229.666 177 -378.999c0 -32.667 -3.33301 -68.334 -10 -107.001
c-55.333 -30.667 -144.333 -46 -267 -46z" />
    <glyph glyph-name="uniFEAC" unicode="&#x630;" horiz-adv-x="525" arabic-form="final" 
d="M240 757l108 -93l-88 -100l-108 89zM506 0c-58.667 0 -104.001 15 -136.001 45c-62 -36 -133 -54 -213 -54c-55.333 0 -99.333 2.33301 -132 7v177c58.667 -2.66699 102 -4 130 -4c60.667 0 108 4.33301 142 13c-5.33301 16 -9.66602 28 -12.999 36
c-23.333 64 -64.666 129.667 -123.999 197l113 110c24.667 -25.333 47 -53.833 67 -85.5s34 -56.5 42 -74.5s18.667 -43.667 32 -77c18.667 -46 33.667 -76.167 45 -90.5s30.666 -21.5 57.999 -21.5h8v-178h-19z" />
    <glyph glyph-name="uniFEAD" unicode="&#x631;" horiz-adv-x="421" arabic-form="isolated" 
d="M371 150c0 -48.667 -4.66699 -93.334 -14 -134.001s-24.166 -77.667 -44.499 -111s-48.333 -59.333 -84 -78s-77.834 -28 -126.501 -28c-30.667 0 -64.667 4 -102 12l12 146c16 -2.66699 32.667 -4 50 -4c58 0 99.5 17.333 124.5 52s37.5 77.334 37.5 128.001
c0 40 -14.667 110.667 -44 212l158 45c22 -82 33 -162 33 -240z" />
    <glyph glyph-name="uniFEAE" unicode="&#x631;" horiz-adv-x="518" arabic-form="final" 
d="M102 -201c-30.667 0 -64.666 4.00195 -101.999 12.002l12 146c16 -2.66699 32.667 -4 50 -4c60 0 103.667 17.5 131 52.5s41 77.5 41 127.5c0 47.333 -13.667 118 -41 212l145 45c1.33301 -6 4.16602 -17.5 8.49902 -34.5s7.5 -28.833 9.5 -35.5l8.5 -29
c3.66699 -12.667 6.83398 -22.5 9.50098 -29.5s6 -14.833 10 -23.5s8.33301 -16.334 13 -23.001c17.333 -24.667 49.666 -37 96.999 -37h24v-178h-36c-52 0 -92.333 11 -121 33c-13.333 -70.667 -41.333 -127.334 -84 -170.001s-101 -64 -175 -64z" />
    <glyph glyph-name="uniFEAF" unicode="&#x632;" horiz-adv-x="421" arabic-form="isolated" 
d="M220 619l108 -93l-88 -100l-108 89zM371 150c0 -48.667 -4.66699 -93.334 -14 -134.001s-24.166 -77.667 -44.499 -111s-48.333 -59.333 -84 -78s-77.834 -28 -126.501 -28c-30.667 0 -64.667 4 -102 12l12 146c16 -2.66699 32.667 -4 50 -4c58 0 99.5 17.333 124.5 52
s37.5 77.334 37.5 128.001c0 40 -14.667 110.667 -44 212l158 45c22 -82 33 -162 33 -240z" />
    <glyph glyph-name="uniFEB0" unicode="&#x632;" horiz-adv-x="518" arabic-form="final" 
d="M225 619l108 -93l-88 -100l-108 89zM102 -201c-30.667 0 -64.666 4.00195 -101.999 12.002l12 146c16 -2.66699 32.667 -4 50 -4c60 0 103.667 17.5 131 52.5s41 77.5 41 127.5c0 47.333 -13.667 118 -41 212l145 45c1.33301 -6 4.16602 -17.5 8.49902 -34.5
s7.5 -28.833 9.5 -35.5l8.5 -29c3.66699 -12.667 6.83398 -22.5 9.50098 -29.5s6 -14.833 10 -23.5s8.33301 -16.334 13 -23.001c17.333 -24.667 49.666 -37 96.999 -37h24v-178h-36c-52 0 -92.333 11 -121 33c-13.333 -70.667 -41.333 -127.334 -84 -170.001
s-101 -64 -175 -64z" />
    <glyph glyph-name="uniFEB1" unicode="&#x633;" horiz-adv-x="1249" arabic-form="isolated" 
d="M319 -216c-86.667 0 -153.168 21.668 -199.501 65.001s-69.5 104 -69.5 182c0 79.333 23.333 161.666 70 246.999l122 -48c-24 -58 -36 -106.667 -36 -146c0 -40.667 11.333 -71.334 34 -92.001s58.334 -31 107.001 -31c46.667 0 84.334 9.5 113.001 28.5
s43 44.5 43 76.5c0 54.667 -16.667 135.334 -50 242.001l155 46c22 -82 35 -135.333 39 -160c16.667 -7.33301 35.667 -11 57 -11c55.333 0 83 24.333 83 73v83l139 9v-113c0 -38 22 -57 66 -57c21.333 0 45 3.66699 71 11c-1.33301 28 -11 87.333 -29 178l145 31
c13.333 -60 20 -113 20 -159c0 -78 -8 -141 -24 -189c-62 -34 -124 -51 -186 -51c-59.333 0 -105 14.333 -137 43c-32 -31.333 -83 -47 -153 -47c-13.333 0 -31.333 1.33301 -54 4c-16.667 -68.667 -52.834 -121.667 -108.501 -159s-128.167 -56 -217.5 -56z" />
    <glyph glyph-name="uniFEB2" unicode="&#x633;" horiz-adv-x="1287" arabic-form="final" 
d="M319 -216c-86.667 0 -153.168 21.668 -199.501 65.001s-69.5 104 -69.5 182c0 79.333 23.333 161.666 70 246.999l122 -48c-24 -58 -36 -106.667 -36 -146c0 -40.667 11.333 -71.334 34 -92.001s58.334 -31 107.001 -31c46.667 0 84.334 9.5 113.001 28.5
s43 44.5 43 76.5c0 54.667 -16.667 135.334 -50 242.001l155 46c22 -80.667 35 -134.667 39 -162c18 -6 36.667 -9 56 -9c24.667 0 44.667 6 60 18s23 30.333 23 55v83l139 9v-113c0 -38 22 -57 66 -57c40 0 60 15.667 60 47v130l139 12v-141
c0 -10 -0.666992 -23.667 -2 -41c17.333 -4.66699 45.333 -7 84 -7h15v-178h-22c-51.333 -0 -98.333 13.333 -141 40c-34.667 -30 -81.667 -45 -141 -45c-56.667 0 -101 15.667 -133 47c-32 -31.333 -82.667 -47 -152 -47c-14 0 -31.667 1.33301 -53 4
c-16.667 -68.667 -52.834 -121.667 -108.501 -159s-128.167 -56 -217.5 -56z" />
    <glyph glyph-name="uniFEB3" unicode="&#x633;" horiz-adv-x="847" arabic-form="initial" 
d="M587 -1c-59.333 0 -105.001 14.333 -137.001 43c-32 -31.333 -83 -47 -153 -47c-60 0 -112 14.333 -156 43c-35.333 -25.333 -78.666 -38 -129.999 -38h-11c-10 0 -18.5 8.66699 -25.5 26s-10.5 38.333 -10.5 63s3.5 45.667 10.5 63s15.5 26 25.5 26h26
c24 0 42.167 6 54.5 18s19.833 34.333 22.5 67l5 66l138 10l-4 -76c-0.666992 -21.333 -3.33398 -43 -8.00098 -65c20.667 -10 43.334 -15 68.001 -15c55.333 0 83 24.333 83 73v83l139 9v-113c0 -38 22 -57 66 -57c21.333 0 45 3.66699 71 11
c-1.33301 28 -11 87.333 -29 178l145 31c13.333 -60 20 -113 20 -159c0 -78 -8 -141 -24 -189c-62 -34 -124 -51 -186 -51z" />
    <glyph glyph-name="uniFEB4" unicode="&#x633;" horiz-adv-x="886" arabic-form="medial" 
d="M864 0c-51.333 0 -98.334 13.333 -141.001 40c-34.667 -30 -81.667 -45 -141 -45c-56.667 0 -101 15.667 -133 47c-32 -31.333 -82.667 -47 -152 -47c-60 0 -112 14.333 -156 43c-35.333 -25.333 -78.666 -38 -129.999 -38h-11c-10 0 -18.5 8.66699 -25.5 26
s-10.5 38.333 -10.5 63s3.5 45.667 10.5 63s15.5 26 25.5 26h26c24 0 42.167 6 54.5 18s19.833 34.333 22.5 67l5 66l138 10l-4 -76c-0.666992 -21.333 -3.33398 -43 -8.00098 -65c20.667 -10 43.334 -15 68.001 -15s44.667 6 60 18s23 30.333 23 55v83l139 9v-113
c0 -38 22 -57 66 -57c40 0 60 15.667 60 47v130l139 12v-141c0 -10 -0.666992 -23.667 -2 -41c17.333 -4.66699 45.333 -7 84 -7h15v-178h-22z" />
    <glyph glyph-name="uniFEB5" unicode="&#x634;" horiz-adv-x="1249" arabic-form="isolated" 
d="M821 695l86 -74l-70 -80l-86 71zM923 407l-81 67l-66 -74l-95 79l78 92l81 -70l66 77l95 -82zM319 -216c-86.667 0 -153.168 21.668 -199.501 65.001s-69.5 104 -69.5 182c0 79.333 23.333 161.666 70 246.999l122 -48c-24 -58 -36 -106.667 -36 -146
c0 -40.667 11.333 -71.334 34 -92.001s58.334 -31 107.001 -31c46.667 0 84.334 9.5 113.001 28.5s43 44.5 43 76.5c0 54.667 -16.667 135.334 -50 242.001l155 46c22 -82 35 -135.333 39 -160c16.667 -7.33301 35.667 -11 57 -11c55.333 0 83 24.333 83 73v83l139 9v-113
c0 -38 22 -57 66 -57c21.333 0 45 3.66699 71 11c-1.33301 28 -11 87.333 -29 178l145 31c13.333 -60 20 -113 20 -159c0 -78 -8 -141 -24 -189c-62 -34 -124 -51 -186 -51c-59.333 0 -105 14.333 -137 43c-32 -31.333 -83 -47 -153 -47c-13.333 0 -31.333 1.33301 -54 4
c-16.667 -68.667 -52.834 -121.667 -108.501 -159s-128.167 -56 -217.5 -56z" />
    <glyph glyph-name="uniFEB6" unicode="&#x634;" horiz-adv-x="1287" arabic-form="final" 
d="M821 695l86 -74l-70 -80l-86 71zM923 407l-81 67l-66 -74l-95 79l78 92l81 -70l66 77l95 -82zM319 -216c-86.667 0 -153.168 21.668 -199.501 65.001s-69.5 104 -69.5 182c0 79.333 23.333 161.666 70 246.999l122 -48c-24 -58 -36 -106.667 -36 -146
c0 -40.667 11.333 -71.334 34 -92.001s58.334 -31 107.001 -31c46.667 0 84.334 9.5 113.001 28.5s43 44.5 43 76.5c0 54.667 -16.667 135.334 -50 242.001l155 46c22 -80.667 35 -134.667 39 -162c18 -6 36.667 -9 56 -9c24.667 0 44.667 6 60 18s23 30.333 23 55v83l139 9
v-113c0 -38 22 -57 66 -57c40 0 60 15.667 60 47v130l139 12v-141c0 -10 -0.666992 -23.667 -2 -41c17.333 -4.66699 45.333 -7 84 -7h15v-178h-22c-51.333 -0 -98.333 13.333 -141 40c-34.667 -30 -81.667 -45 -141 -45c-56.667 0 -101 15.667 -133 47
c-32 -31.333 -82.667 -47 -152 -47c-14 0 -31.667 1.33301 -53 4c-16.667 -68.667 -52.834 -121.667 -108.501 -159s-128.167 -56 -217.5 -56z" />
    <glyph glyph-name="uniFEB7" unicode="&#x634;" horiz-adv-x="847" arabic-form="initial" 
d="M429 695l86 -74l-70 -80l-86 71zM531 407l-81 67l-66 -74l-95 79l78 92l81 -70l66 77l95 -82zM587 -1c-59.333 0 -105.001 14.333 -137.001 43c-32 -31.333 -83 -47 -153 -47c-60 0 -112 14.333 -156 43c-35.333 -25.333 -78.666 -38 -129.999 -38h-11
c-10 0 -18.5 8.66699 -25.5 26s-10.5 38.333 -10.5 63s3.5 45.667 10.5 63s15.5 26 25.5 26h26c24 0 42.167 6 54.5 18s19.833 34.333 22.5 67l5 66l138 10l-4 -76c-0.666992 -21.333 -3.33398 -43 -8.00098 -65c20.667 -10 43.334 -15 68.001 -15c55.333 0 83 24.333 83 73
v83l139 9v-113c0 -38 22 -57 66 -57c21.333 0 45 3.66699 71 11c-1.33301 28 -11 87.333 -29 178l145 31c13.333 -60 20 -113 20 -159c0 -78 -8 -141 -24 -189c-62 -34 -124 -51 -186 -51z" />
    <glyph glyph-name="uniFEB8" unicode="&#x634;" horiz-adv-x="886" arabic-form="medial" 
d="M429 695l86 -74l-70 -80l-86 71zM531 407l-81 67l-66 -74l-95 79l78 92l81 -70l66 77l95 -82zM864 0c-51.333 0 -98.334 13.333 -141.001 40c-34.667 -30 -81.667 -45 -141 -45c-56.667 0 -101 15.667 -133 47c-32 -31.333 -82.667 -47 -152 -47
c-60 0 -112 14.333 -156 43c-35.333 -25.333 -78.666 -38 -129.999 -38h-11c-10 0 -18.5 8.66699 -25.5 26s-10.5 38.333 -10.5 63s3.5 45.667 10.5 63s15.5 26 25.5 26h26c24 0 42.167 6 54.5 18s19.833 34.333 22.5 67l5 66l138 10l-4 -76
c-0.666992 -21.333 -3.33398 -43 -8.00098 -65c20.667 -10 43.334 -15 68.001 -15s44.667 6 60 18s23 30.333 23 55v83l139 9v-113c0 -38 22 -57 66 -57c40 0 60 15.667 60 47v130l139 12v-141c0 -10 -0.666992 -23.667 -2 -41c17.333 -4.66699 45.333 -7 84 -7h15v-178h-22
z" />
    <glyph glyph-name="uniFEB9" unicode="&#x635;" horiz-adv-x="1296" arabic-form="isolated" 
d="M890 178c88 0 159.667 5.66699 215 17c-2.66699 40.667 -15.167 71.834 -37.5 93.501s-51.5 32.5 -87.5 32.5c-37.333 0 -72.5 -10.833 -105.5 -32.5s-66.833 -56.834 -101.5 -105.501c38 -3.33301 77 -5 117 -5zM319 -216c-86.667 0 -153.17 21.668 -199.503 65.001
s-69.5 104 -69.5 182c0 79.333 23.333 161.666 70 246.999l122 -48c-24 -58 -36 -106.667 -36 -146c0 -40.667 11.333 -71.334 34 -92.001s58.334 -31 107.001 -31c46.667 0 84.334 9.5 113.001 28.5s43 44.5 43 76.5c0 54.667 -16.667 135.334 -50 242.001l155 46
c16.667 -61.333 27.334 -102 32.001 -122c93.333 171.333 216.333 257 369 257c69.333 0 126.166 -22 170.499 -66s66.5 -101.667 66.5 -173c0 -70 -12.333 -134 -37 -192c-79.333 -41.333 -196.666 -62 -351.999 -62c-84 0 -153.667 5.66699 -209 17
c-14.667 -73.333 -50 -129.833 -106 -169.5s-130.333 -59.5 -223 -59.5z" />
    <glyph glyph-name="uniFEBA" unicode="&#x635;" horiz-adv-x="1345" arabic-form="final" 
d="M890 178c88 0 159.667 5.66699 215 17c-2.66699 40.667 -15.167 71.834 -37.5 93.501s-51.5 32.5 -87.5 32.5c-37.333 0 -72.5 -10.833 -105.5 -32.5s-66.833 -56.834 -101.5 -105.501c38 -3.33301 77 -5 117 -5zM319 -216c-86.667 0 -153.17 21.667 -199.503 65
s-69.5 104 -69.5 182c0 79.333 23.333 161.666 70 246.999l122 -48c-24 -58 -36 -106.667 -36 -146c0 -40.667 11.333 -71.334 34 -92.001s58.334 -31 107.001 -31c46.667 0 84.334 9.5 113.001 28.5s43 44.5 43 76.5c0 54.667 -16.667 135.334 -50 242.001l155 46
c16.667 -61.333 27.334 -102 32.001 -122c93.333 171.333 216.333 257 369 257c69.333 0 126.166 -22 170.499 -66s66.5 -101.667 66.5 -173c0 -25.333 -1.33301 -47.666 -4 -66.999c24.667 -3.33301 51.334 -5 80.001 -5h23v-178h-31c-58.667 0 -109.667 12.667 -153 38
c-80 -28 -181.333 -42 -304 -42c-84 0 -153.667 5.66699 -209 17c-14.667 -73.333 -50 -129.833 -106 -169.5s-130.333 -59.5 -223 -59.5z" />
    <glyph glyph-name="uniFEBB" unicode="&#x635;" horiz-adv-x="909" arabic-form="initial" 
d="M503 178c88 0 159.667 5.66699 215 17c-2.66699 40.667 -15.167 71.834 -37.5 93.501s-51.5 32.5 -87.5 32.5c-38 0 -73.5 -10.833 -106.5 -32.5s-66.833 -56.834 -101.5 -105.501c38 -3.33301 77.333 -5 118 -5zM470 -4c-125.333 0 -220.333 17 -285 51
c-33.333 -31.333 -86 -47 -158 -47h-27c-10 0 -18.5 8.66699 -25.5 26s-10.5 38.333 -10.5 63s3.5 45.667 10.5 63s15.5 26 25.5 26h25c32 0 52.667 4.66699 62 14s14 23 14 41v146l148 10v-118c0 -12 -0.666992 -28.667 -2 -50c95.333 178.667 220.333 268 375 268
c69.333 0 126.166 -22 170.499 -66s66.5 -101.667 66.5 -173c0 -70 -12.333 -134 -37 -192c-79.333 -41.333 -196.666 -62 -351.999 -62z" />
    <glyph glyph-name="uniFEBC" unicode="&#x635;" horiz-adv-x="954" arabic-form="medial" 
d="M503 178c88 0 159.667 5.66699 215 17c-2.66699 40.667 -15.167 71.834 -37.5 93.501s-51.5 32.5 -87.5 32.5c-38 0 -73.5 -10.833 -106.5 -32.5s-66.833 -56.834 -101.5 -105.501c38 -3.33301 77.333 -5 118 -5zM923 0c-58 0 -108.332 12.333 -150.999 37
c-78 -27.333 -178.667 -41 -302 -41c-125.333 0 -220.333 17 -285 51c-33.333 -31.333 -86 -47 -158 -47h-27c-10 0 -18.5 8.66699 -25.5 26s-10.5 38.333 -10.5 63s3.5 45.667 10.5 63s15.5 26 25.5 26h25c32 0 52.667 4.66699 62 14s14 23 14 41v146l148 10v-118
c0 -12 -0.666992 -28.667 -2 -50c95.333 178.667 220.333 268 375 268c69.333 0 126.166 -22 170.499 -66s66.5 -101.667 66.5 -173c0 -26 -1.33301 -48.667 -4 -68c24 -2.66699 45 -4 63 -4h36v-178h-31z" />
    <glyph glyph-name="uniFEBD" unicode="&#x636;" horiz-adv-x="1296" arabic-form="isolated" 
d="M972 730l108 -93l-88 -100l-108 89zM890 178c88 0 159.667 5.66699 215 17c-2.66699 40.667 -15.167 71.834 -37.5 93.501s-51.5 32.5 -87.5 32.5c-37.333 0 -72.5 -10.833 -105.5 -32.5s-66.833 -56.834 -101.5 -105.501c38 -3.33301 77 -5 117 -5zM319 -216
c-86.667 0 -153.17 21.668 -199.503 65.001s-69.5 104 -69.5 182c0 79.333 23.333 161.666 70 246.999l122 -48c-24 -58 -36 -106.667 -36 -146c0 -40.667 11.333 -71.334 34 -92.001s58.334 -31 107.001 -31c46.667 0 84.334 9.5 113.001 28.5s43 44.5 43 76.5
c0 54.667 -16.667 135.334 -50 242.001l155 46c16.667 -61.333 27.334 -102 32.001 -122c93.333 171.333 216.333 257 369 257c69.333 0 126.166 -22 170.499 -66s66.5 -101.667 66.5 -173c0 -70 -12.333 -134 -37 -192c-79.333 -41.333 -196.666 -62 -351.999 -62
c-84 0 -153.667 5.66699 -209 17c-14.667 -73.333 -50 -129.833 -106 -169.5s-130.333 -59.5 -223 -59.5z" />
    <glyph glyph-name="uniFEBE" unicode="&#x636;" horiz-adv-x="1345" arabic-form="final" 
d="M972 730l108 -93l-88 -100l-108 89zM890 178c88 0 159.667 5.66699 215 17c-2.66699 40.667 -15.167 71.834 -37.5 93.501s-51.5 32.5 -87.5 32.5c-37.333 0 -72.5 -10.833 -105.5 -32.5s-66.833 -56.834 -101.5 -105.501c38 -3.33301 77 -5 117 -5zM319 -216
c-86.667 0 -153.17 21.667 -199.503 65s-69.5 104 -69.5 182c0 79.333 23.333 161.666 70 246.999l122 -48c-24 -58 -36 -106.667 -36 -146c0 -40.667 11.333 -71.334 34 -92.001s58.334 -31 107.001 -31c46.667 0 84.334 9.5 113.001 28.5s43 44.5 43 76.5
c0 54.667 -16.667 135.334 -50 242.001l155 46c16.667 -61.333 27.334 -102 32.001 -122c93.333 171.333 216.333 257 369 257c69.333 0 126.166 -22 170.499 -66s66.5 -101.667 66.5 -173c0 -25.333 -1.33301 -47.666 -4 -66.999c24.667 -3.33301 51.334 -5 80.001 -5h23
v-178h-31c-58.667 0 -109.667 12.667 -153 38c-80 -28 -181.333 -42 -304 -42c-84 0 -153.667 5.66699 -209 17c-14.667 -73.333 -50 -129.833 -106 -169.5s-130.333 -59.5 -223 -59.5z" />
    <glyph glyph-name="uniFEBF" unicode="&#x636;" horiz-adv-x="909" arabic-form="initial" 
d="M559 727l108 -93l-88 -100l-108 89zM503 178c88 0 159.667 5.66699 215 17c-2.66699 40.667 -15.167 71.834 -37.5 93.501s-51.5 32.5 -87.5 32.5c-38 0 -73.5 -10.833 -106.5 -32.5s-66.833 -56.834 -101.5 -105.501c38 -3.33301 77.333 -5 118 -5zM470 -4
c-125.333 0 -220.333 17 -285 51c-33.333 -31.333 -86 -47 -158 -47h-27c-10 0 -18.5 8.66699 -25.5 26s-10.5 38.333 -10.5 63s3.5 45.667 10.5 63s15.5 26 25.5 26h25c32 0 52.667 4.66699 62 14s14 23 14 41v146l148 10v-118c0 -12 -0.666992 -28.667 -2 -50
c95.333 178.667 220.333 268 375 268c69.333 0 126.166 -22 170.499 -66s66.5 -101.667 66.5 -173c0 -70 -12.333 -134 -37 -192c-79.333 -41.333 -196.666 -62 -351.999 -62z" />
    <glyph glyph-name="uniFEC0" unicode="&#x636;" horiz-adv-x="954" arabic-form="medial" 
d="M559 727l108 -93l-88 -100l-108 89zM503 178c88 0 159.667 5.66699 215 17c-2.66699 40.667 -15.167 71.834 -37.5 93.501s-51.5 32.5 -87.5 32.5c-38 0 -73.5 -10.833 -106.5 -32.5s-66.833 -56.834 -101.5 -105.501c38 -3.33301 77.333 -5 118 -5zM923 0
c-58 0 -108.332 12.333 -150.999 37c-78 -27.333 -178.667 -41 -302 -41c-125.333 0 -220.333 17 -285 51c-33.333 -31.333 -86 -47 -158 -47h-27c-10 0 -18.5 8.66699 -25.5 26s-10.5 38.333 -10.5 63s3.5 45.667 10.5 63s15.5 26 25.5 26h25c32 0 52.667 4.66699 62 14
s14 23 14 41v146l148 10v-118c0 -12 -0.666992 -28.667 -2 -50c95.333 178.667 220.333 268 375 268c69.333 0 126.166 -22 170.499 -66s66.5 -101.667 66.5 -173c0 -26 -1.33301 -48.667 -4 -68c24 -2.66699 45 -4 63 -4h36v-178h-31z" />
    <glyph glyph-name="uniFEC1" unicode="&#x637;" horiz-adv-x="797" arabic-form="isolated" 
d="M341 178c119.333 0 207.667 7.66797 265 23.001c-3.33301 39.333 -16.333 69.166 -39 89.499s-51.334 30.5 -86.001 30.5c-78 0 -151.333 -47.333 -220 -142c16.667 -0.666992 43.334 -1 80.001 -1zM318.001 -3.99902c-87.333 0 -184.997 4.66699 -292.997 14v175
c19.333 0 46.666 -1 81.999 -3c13.333 36 20 86.333 20 151v379l156 13v-198c0 -54.667 -6.66699 -110.334 -20 -167.001c64 86 146.333 129 247 129c69.333 0 126.166 -22.5 170.499 -67.5s66.5 -103.833 66.5 -176.5c0 -65.333 -12.333 -127.666 -37 -186.999
c-78.667 -41.333 -209.334 -62 -392.001 -62z" />
    <glyph glyph-name="uniFEC2" unicode="&#x637;" horiz-adv-x="856" arabic-form="final" 
d="M341 178c119.333 0 207.667 7.66797 265 23.001c-3.33301 39.333 -16.333 69.166 -39 89.499s-51.334 30.5 -86.001 30.5c-78 0 -151.333 -47.333 -220 -142c16.667 -0.666992 43.334 -1 80.001 -1zM825.001 0.000976562c-60 0 -112.331 13.334 -156.998 40.001
c-81.333 -29.333 -198 -44 -350 -44c-87.333 0 -185 4.66699 -293 14v175c19.333 0 46.666 -1 81.999 -3c13.333 36 20 86.333 20 151v379l156 13v-198c0 -54.667 -6.66699 -110.334 -20 -167.001c64 86 146.333 129 247 129c69.333 0 126.166 -22.5 170.499 -67.5
s66.5 -103.833 66.5 -176.5c0 -22.667 -1.33301 -43 -4 -61c32 -4 63.667 -6 95 -6h18v-178h-31z" />
    <glyph glyph-name="uniFEC3" unicode="&#x637;" horiz-adv-x="787" arabic-form="initial" 
d="M471 321c-78.667 0 -151.998 -47.666 -219.998 -142.999h80c119.333 0 207.666 7.66699 264.999 23c-3.33301 39.333 -16.333 69.166 -39 89.499s-51.334 30.5 -86.001 30.5zM0.00195312 0.000976562c-10 0 -18.498 8.66602 -25.498 25.999s-10.5 38.333 -10.5 63
s3.5 45.667 10.5 63s15.5 26 25.5 26h96c14 34.667 21 86.334 21 155.001v379l156 13v-198c0 -54.667 -6.66699 -110.334 -20 -167.001c64 86 146.333 129 247 129c69.333 0 126.166 -22.5 170.499 -67.5s66.5 -103.833 66.5 -176.5
c0 -65.333 -12.333 -127.666 -37 -186.999c-74.667 -38.667 -205.334 -58 -392.001 -58h-308z" />
    <glyph glyph-name="uniFEC4" unicode="&#x637;" horiz-adv-x="849" arabic-form="medial" 
d="M471 321c-78.667 0 -151.998 -47.666 -219.998 -142.999h80c119.333 0 207.666 7.66699 264.999 23c-3.33301 39.333 -16.333 69.166 -39 89.499s-51.334 30.5 -86.001 30.5zM0.00195312 0.000976562c-10 0 -18.5 8.66699 -25.5 26s-10.5 38.333 -10.5 63
s3.5 45.667 10.5 63s15.5 26 25.5 26h96c14 34.667 21 86.334 21 155.001v379l156 13v-198c0 -54.667 -6.66699 -110.334 -20 -167.001c64 86 146.333 129 247 129c69.333 0 126.166 -22.5 170.499 -67.5s66.5 -103.833 66.5 -176.5c0 -22.667 -1.33301 -43 -4 -61
c28 -4 54.667 -6 80 -6h36v-178h-31c-62 0 -114.667 13.667 -158 41c-77.333 -27.333 -194.666 -41 -351.999 -41h-308z" />
    <glyph glyph-name="uniFEC5" unicode="&#x638;" horiz-adv-x="797" arabic-form="isolated" 
d="M465 739l108 -93l-88 -100l-108 89zM341 178c119.333 0 207.667 7.66797 265 23.001c-3.33301 39.333 -16.333 69.166 -39 89.499s-51.334 30.5 -86.001 30.5c-78 0 -151.333 -47.333 -220 -142c16.667 -0.666992 43.334 -1 80.001 -1zM318.001 -3.99902
c-87.333 0 -184.997 4.66699 -292.997 14v175c19.333 0 46.666 -1 81.999 -3c13.333 36 20 86.333 20 151v379l156 13v-198c0 -54.667 -6.66699 -110.334 -20 -167.001c64 86 146.333 129 247 129c69.333 0 126.166 -22.5 170.499 -67.5s66.5 -103.833 66.5 -176.5
c0 -65.333 -12.333 -127.666 -37 -186.999c-78.667 -41.333 -209.334 -62 -392.001 -62z" />
    <glyph glyph-name="uniFEC6" unicode="&#x638;" horiz-adv-x="856" arabic-form="final" 
d="M465 739l108 -93l-88 -100l-108 89zM341 178c119.333 0 207.667 7.66797 265 23.001c-3.33301 39.333 -16.333 69.166 -39 89.499s-51.334 30.5 -86.001 30.5c-78 0 -151.333 -47.333 -220 -142c16.667 -0.666992 43.334 -1 80.001 -1zM825.001 0.000976562
c-60 0 -112.331 13.334 -156.998 40.001c-81.333 -29.333 -198 -44 -350 -44c-87.333 0 -185 4.66699 -293 14v175c19.333 0 46.666 -1 81.999 -3c13.333 36 20 86.333 20 151v379l156 13v-198c0 -54.667 -6.66699 -110.334 -20 -167.001c64 86 146.333 129 247 129
c69.333 0 126.166 -22.5 170.499 -67.5s66.5 -103.833 66.5 -176.5c0 -22.667 -1.33301 -43 -4 -61c32 -4 63.667 -6 95 -6h18v-178h-31z" />
    <glyph glyph-name="uniFEC7" unicode="&#x638;" horiz-adv-x="787" arabic-form="initial" 
d="M458 739l108 -93l-88 -100l-108 89zM471 321c-78.667 0 -151.998 -47.666 -219.998 -142.999h80c119.333 0 207.666 7.66699 264.999 23c-3.33301 39.333 -16.333 69.166 -39 89.499s-51.334 30.5 -86.001 30.5zM0.00195312 0.000976562
c-10 0 -18.498 8.66602 -25.498 25.999s-10.5 38.333 -10.5 63s3.5 45.667 10.5 63s15.5 26 25.5 26h96c14 34.667 21 86.334 21 155.001v379l156 13v-198c0 -54.667 -6.66699 -110.334 -20 -167.001c64 86 146.333 129 247 129c69.333 0 126.166 -22.5 170.499 -67.5
s66.5 -103.833 66.5 -176.5c0 -65.333 -12.333 -127.666 -37 -186.999c-74.667 -38.667 -205.334 -58 -392.001 -58h-308z" />
    <glyph glyph-name="uniFEC8" unicode="&#x638;" horiz-adv-x="849" arabic-form="medial" 
d="M458 739l108 -93l-88 -100l-108 89zM471 321c-78.667 0 -151.998 -47.666 -219.998 -142.999h80c119.333 0 207.666 7.66699 264.999 23c-3.33301 39.333 -16.333 69.166 -39 89.499s-51.334 30.5 -86.001 30.5zM0.00195312 0.000976562c-10 0 -18.5 8.66699 -25.5 26
s-10.5 38.333 -10.5 63s3.5 45.667 10.5 63s15.5 26 25.5 26h96c14 34.667 21 86.334 21 155.001v379l156 13v-198c0 -54.667 -6.66699 -110.334 -20 -167.001c64 86 146.333 129 247 129c69.333 0 126.166 -22.5 170.499 -67.5s66.5 -103.833 66.5 -176.5
c0 -22.667 -1.33301 -43 -4 -61c28 -4 54.667 -6 80 -6h36v-178h-31c-62 0 -114.667 13.667 -158 41c-77.333 -27.333 -194.666 -41 -351.999 -41h-308z" />
    <glyph glyph-name="uniFEC9" unicode="&#x639;" horiz-adv-x="607" arabic-form="isolated" 
d="M602 -170c-82.667 -44.667 -171.997 -67 -267.997 -67c-92.667 0 -163.167 20 -211.5 60s-72.5 95.333 -72.5 166c0 104 45 178 135 222c-22.667 16.667 -40.167 40.667 -52.5 72s-18.5 64.666 -18.5 99.999c0 64.667 18.5 115.334 55.5 152.001s84.833 55 143.5 55
c53.333 0 110.666 -12 171.999 -36l-38 -136c-40 10 -72.667 15 -98 15c-55.333 0 -83 -23 -83 -69c0 -19.333 7 -38 21 -56s31 -27 51 -27c12 0 26.667 1.33301 44 4s39.666 6.66699 66.999 12s47.333 9 60 11l25 -152c-129.333 -28.667 -215 -52.167 -257 -70.5
s-63 -41.833 -63 -70.5c0 -25.333 13.667 -44.833 41 -58.5s63.666 -20.5 108.999 -20.5c62.667 0 127 11.333 193 34z" />
    <glyph glyph-name="uniFECA" unicode="&#x639;" horiz-adv-x="656" arabic-form="final" 
d="M334 392c-30 0 -61.999 -2.66699 -95.999 -8c31.333 -53.333 67.666 -94.333 108.999 -123c37.333 26 72.333 64.667 105 116c-38 10 -77.333 15 -118 15zM597.001 -180c-82.667 -44.667 -171.998 -67.0029 -267.998 -67.0029c-92.667 0 -162.334 19.333 -209.001 58
s-70 91.334 -70 158.001c0 50.667 11.167 95.334 33.5 134.001s61.166 72.334 116.499 101.001c-36 41.333 -65.833 88.833 -89.5 142.5s-35.834 104.5 -36.501 152.5c81.333 26 172 39 272 39c110 0 199.333 -17.667 268 -53c-4.66699 -49.333 -19.667 -99.333 -45 -150
s-60.333 -97 -105 -139c44 -12 104.333 -18 181 -18h11v-178h-48c-68 0 -126.167 7.66699 -174.5 23s-94.166 42 -137.499 80c-59.333 -28 -89 -59 -89 -93c0 -59.333 50.667 -89 152 -89c62.667 0 127 11.333 193 34z" />
    <glyph glyph-name="uniFECB" unicode="&#x639;" horiz-adv-x="517" arabic-form="initial" 
d="M0 0c-10 0 -18.502 8.66504 -25.502 25.998s-10.5 38.333 -10.5 63s3.5 45.667 10.5 63s15.5 26 25.5 26h26c24.667 0 46.334 0.666992 65.001 2c-22.667 38.667 -34 81.334 -34 128.001c0 64.667 18.5 115.334 55.5 152.001s84.833 55 143.5 55
c53.333 0 110.666 -12 171.999 -36l-38 -136c-40 10 -72.667 15 -98 15c-24 0 -43.833 -6 -59.5 -18s-23.5 -27.333 -23.5 -46c0 -28.667 8.16699 -51.5 24.5 -68.5s33.5 -25.5 51.5 -25.5c18.667 0 74.334 12.667 167.001 38l35 -152
c-86.667 -31.333 -166.167 -53.5 -238.5 -66.5s-151.166 -19.5 -236.499 -19.5h-12z" />
    <glyph glyph-name="uniFECC" unicode="&#x639;" horiz-adv-x="639" arabic-form="medial" 
d="M314 349c-30 0 -61.999 -2.66699 -95.999 -8c31.333 -53.333 67.666 -94.333 108.999 -123c37.333 26 72.333 64.667 105 116c-38 10 -77.333 15 -118 15zM0.000976562 0c-10 0 -18.502 8.66699 -25.502 26s-10.5 38.333 -10.5 63s3.5 45.667 10.5 63s15.5 26 25.5 26h21
c56 0 105 3 147 9c-31.333 32 -58.166 71.167 -80.499 117.5s-33.5 96.833 -33.5 151.5c81.333 26 172 39 272 39c110 0 199.333 -17.667 268 -53c-10.667 -98 -50.667 -184 -120 -258c32.667 -4 68.334 -6 107.001 -6h58v-178h-48c-109.333 -0 -201.333 20.333 -276 61
c-80.667 -40.667 -177 -61 -289 -61h-26z" />
    <glyph glyph-name="uniFECD" unicode="&#x63a;" horiz-adv-x="622" arabic-form="isolated" 
d="M316 814l108 -93l-88 -100l-108 89zM602 -170c-82.667 -44.667 -171.997 -67 -267.997 -67c-92.667 0 -163.167 20 -211.5 60s-72.5 95.333 -72.5 166c0 104 45 178 135 222c-22.667 16.667 -40.167 40.667 -52.5 72s-18.5 64.666 -18.5 99.999
c0 64.667 18.5 115.334 55.5 152.001s84.833 55 143.5 55c53.333 0 110.666 -12 171.999 -36l-38 -136c-40 10 -72.667 15 -98 15c-55.333 0 -83 -23 -83 -69c0 -19.333 7 -38 21 -56s31 -27 51 -27c12 0 26.667 1.33301 44 4s39.666 6.66699 66.999 12s47.333 9 60 11
l25 -152c-129.333 -28.667 -215 -52.167 -257 -70.5s-63 -41.833 -63 -70.5c0 -25.333 13.667 -44.833 41 -58.5s63.666 -20.5 108.999 -20.5c62.667 0 127 11.333 193 34z" />
    <glyph glyph-name="uniFECE" unicode="&#x63a;" horiz-adv-x="656" arabic-form="final" 
d="M334 769l108 -93l-88 -100l-108 89zM334 392c-30 0 -61.999 -2.66699 -95.999 -8c31.333 -53.333 67.666 -94.333 108.999 -123c37.333 26 72.333 64.667 105 116c-38 10 -77.333 15 -118 15zM597.001 -180c-82.667 -44.667 -171.998 -67.0029 -267.998 -67.0029
c-92.667 0 -162.334 19.333 -209.001 58s-70 91.334 -70 158.001c0 50.667 11.167 95.334 33.5 134.001s61.166 72.334 116.499 101.001c-36 41.333 -65.833 88.833 -89.5 142.5s-35.834 104.5 -36.501 152.5c81.333 26 172 39 272 39c110 0 199.333 -17.667 268 -53
c-4.66699 -49.333 -19.667 -99.333 -45 -150s-60.333 -97 -105 -139c44 -12 104.333 -18 181 -18h11v-178h-48c-68 0 -126.167 7.66699 -174.5 23s-94.166 42 -137.499 80c-59.333 -28 -89 -59 -89 -93c0 -59.333 50.667 -89 152 -89c62.667 0 127 11.333 193 34z" />
    <glyph glyph-name="uniFECF" unicode="&#x63a;" horiz-adv-x="517" arabic-form="initial" 
d="M236 744l108 -93l-88 -100l-108 89zM0 0c-10 0 -18.502 8.66504 -25.502 25.998s-10.5 38.333 -10.5 63s3.5 45.667 10.5 63s15.5 26 25.5 26h26c24.667 0 46.334 0.666992 65.001 2c-22.667 38.667 -34 81.334 -34 128.001c0 64.667 18.5 115.334 55.5 152.001
s84.833 55 143.5 55c53.333 0 110.666 -12 171.999 -36l-38 -136c-40 10 -72.667 15 -98 15c-24 0 -43.833 -6 -59.5 -18s-23.5 -27.333 -23.5 -46c0 -28.667 8.16699 -51.5 24.5 -68.5s33.5 -25.5 51.5 -25.5c18.667 0 74.334 12.667 167.001 38l35 -152
c-86.667 -31.333 -166.167 -53.5 -238.5 -66.5s-151.166 -19.5 -236.499 -19.5h-12z" />
    <glyph glyph-name="uniFED0" unicode="&#x63a;" horiz-adv-x="639" arabic-form="medial" 
d="M312 729l108 -93l-88 -100l-108 89zM314 349c-30 0 -61.999 -2.66699 -95.999 -8c31.333 -53.333 67.666 -94.333 108.999 -123c37.333 26 72.333 64.667 105 116c-38 10 -77.333 15 -118 15zM0.000976562 0c-10 0 -18.502 8.66699 -25.502 26s-10.5 38.333 -10.5 63
s3.5 45.667 10.5 63s15.5 26 25.5 26h21c56 0 105 3 147 9c-31.333 32 -58.166 71.167 -80.499 117.5s-33.5 96.833 -33.5 151.5c81.333 26 172 39 272 39c110 0 199.333 -17.667 268 -53c-10.667 -98 -50.667 -184 -120 -258c32.667 -4 68.334 -6 107.001 -6h58v-178h-48
c-109.333 -0 -201.333 20.333 -276 61c-80.667 -40.667 -177 -61 -289 -61h-26z" />
    <glyph glyph-name="uniFED1" unicode="&#x641;" horiz-adv-x="906" arabic-form="isolated" 
d="M616 854l108 -93l-88 -100l-108 89zM671 349c14.667 0 29 0.999023 43 2.99902c-6.66699 40.667 -17.5 72.334 -32.5 95.001s-33.5 34 -55.5 34c-22.667 0 -39.5 -7.5 -50.5 -22.5s-16.5 -32.167 -16.5 -51.5s8.5 -33.833 25.5 -43.5s45.833 -14.5 86.5 -14.5z
M414 -10.001c-58.667 0 -109.669 4.16699 -153.002 12.5s-78.333 19.666 -105 33.999s-48 32.333 -64 54s-27 44 -33 67s-9 49.5 -9 79.5c0 54 12.667 119 38 195l128 -26c-8.66699 -42 -13 -75.667 -13 -101c0 -33.333 6.33301 -59.166 19 -77.499
s36.834 -32.5 72.501 -42.5s86.5 -15 152.5 -15c124 0 215.333 9.66699 274 29c0 3.33301 0.166992 8 0.5 14s0.5 10.667 0.5 14c-28.667 -10 -65.334 -15 -110.001 -15c-121.333 0 -182 56.333 -182 169c0 68 19.667 126.167 59 174.5s88 72.5 146 72.5
c62.667 0 114.334 -30.167 155.001 -90.5s61 -144.833 61 -253.5c0 -96.667 -9.33301 -169 -28 -217c-95.333 -51.333 -231.666 -77 -408.999 -77z" />
    <glyph glyph-name="uniFED2" unicode="&#x641;" horiz-adv-x="957" arabic-form="final" 
d="M663 751l108 -93l-88 -100l-108 89zM597 312c0 -38 26 -73.333 78 -106c56 27.333 84 57.333 84 90c0 20 -8.33301 36.833 -25 50.5s-37.667 20.5 -63 20.5c-20.667 0 -38.167 -5.66699 -52.5 -17s-21.5 -24 -21.5 -38zM889 0c-98 0 -175 13.999 -231 41.999
c-90.667 -34.667 -190.334 -52 -299.001 -52c-59.333 0 -109.833 5.66699 -151.5 17s-73.667 27.5 -96 48.5s-38.166 44 -47.499 69s-14 53.833 -14 86.5c0 46.667 11.333 112 34 196l130 -26c-8 -56 -12 -91.333 -12 -106c0 -37.333 12.833 -64.166 38.5 -80.499
s74.5 -24.5 146.5 -24.5c48 0 90 2.66699 126 8c-26.667 39.333 -40 85 -40 137c0 68.667 20.167 121 60.5 157s90.5 54 150.5 54c58 0 106.667 -17.5 146 -52.5s59 -82.833 59 -143.5c0 -56 -16.667 -105.333 -50 -148c30 -2.66699 58.333 -4 85 -4h33v-178h-68z" />
    <glyph glyph-name="uniFED3" unicode="&#x641;" horiz-adv-x="542" arabic-form="initial" 
d="M251 858l108 -93l-88 -100l-108 89zM307 349c14 0 28 1 42 3c-14 86 -43 129 -87 129c-22.667 0 -39.5 -7.5 -50.5 -22.5s-16.5 -32.167 -16.5 -51.5s8.5 -33.833 25.5 -43.5s45.833 -14.5 86.5 -14.5zM0 0c-10 0 -18.5 8.66699 -25.5 26s-10.5 38.333 -10.5 63
s3.5 45.667 10.5 63s15.5 26 25.5 26h1h17c164.667 0 277.667 7.66699 339 23c0.666992 6 1 15.333 1 28v3c-28.667 -10 -65.334 -15 -110.001 -15c-66.667 0 -113.667 14.5 -141 43.5s-41 69.167 -41 120.5c0 68 19.667 126.167 59 174.5s88 72.5 146 72.5
c62.667 0 114.334 -30.167 155.001 -90.5s61 -144.833 61 -253.5c0 -96.667 -9.33301 -169 -28 -217c-81.333 -44.667 -226.333 -67 -435 -67h-24z" />
    <glyph glyph-name="uniFED4" unicode="&#x641;" horiz-adv-x="548" arabic-form="medial" 
d="M256 752l108 -93l-88 -100l-108 89zM188 312c0 -38 26 -73.333 78 -106c56 27.333 84 57.333 84 90c0 20 -8.33301 36.833 -25 50.5s-37.667 20.5 -63 20.5c-20.667 0 -38.167 -5.66699 -52.5 -17s-21.5 -24 -21.5 -38zM0 0c-10 0 -18.5 8.66699 -25.5 26
s-10.5 38.333 -10.5 63s3.5 45.667 10.5 63s15.5 26 25.5 26h28c14 0 38.333 1.66699 73 5c-24.667 38 -37 82 -37 132c0 68.667 20.167 121 60.5 157s90.5 54 150.5 54c58 0 106.667 -17.5 146 -52.5s59 -82.833 59 -143.5c0 -56 -16.667 -105.333 -50 -148
c30 -2.66699 58.333 -4 85 -4h33v-178h-68c-96.667 0 -172.667 13.667 -228 41c-68 -27.333 -144.333 -41 -229 -41h-23z" />
    <glyph glyph-name="uniFED5" unicode="&#x642;" horiz-adv-x="770" arabic-form="isolated" 
d="M565 513l-83 68l-63 -71l-97 80l79 94l83 -71l63 74l98 -84zM524 178c16.667 0 35 1.66602 55 4.99902c-4 32.667 -15 63.334 -33 92.001s-40.333 43 -67 43c-22.667 0 -40 -7.5 -52 -22.5s-18 -32.5 -18 -52.5c0 -43.333 38.333 -65 115 -65zM348 -216.001
c-100 0 -174.665 23.3311 -223.998 69.998s-74 112.334 -74 197.001c0 61.333 13 130 39 206l126 -34c-9.33301 -48 -14 -88 -14 -120c0 -50 13.167 -86.667 39.5 -110s72.166 -35 137.499 -35c50.667 0 93.667 7.83301 129 23.5s56.666 34.834 63.999 57.501
c-29.333 -13.333 -64.666 -20 -105.999 -20c-126 0 -189 65.667 -189 197c0 74 20.333 136 61 186s91 75 151 75c66 0 121.167 -29.5 165.5 -88.5s66.5 -137.167 66.5 -234.5c0 -116.667 -31.833 -207.5 -95.5 -272.5s-155.834 -97.5 -276.501 -97.5z" />
    <glyph glyph-name="uniFED6" unicode="&#x642;" horiz-adv-x="784" arabic-form="final" 
d="M565 513l-83 68l-63 -71l-97 80l79 94l83 -71l63 74l98 -84zM524 178h55.998c-3.33301 33.333 -14.166 65 -32.499 95s-41.166 45 -68.499 45c-22.667 0 -40 -7.5 -52 -22.5s-18 -32.5 -18 -52.5c0 -43.333 38.333 -65 115 -65zM347.998 -216
c-100 0 -174.667 23.3301 -224 69.9971s-74 112.334 -74 197.001c0 61.333 13 130 39 206l126 -34c-9.33301 -48 -14 -88 -14 -120c0 -50 13.167 -86.667 39.5 -110s72.166 -35 137.499 -35c48 0 87.667 6.5 119 19.5s53.666 28.5 66.999 46.5
c-24.667 -3.33301 -57.667 -5 -99 -5c-126 0 -189 65.667 -189 197c0 72.667 20.333 134.334 61 185.001s91 76 151 76c60.667 0 111.834 -27.167 153.501 -81.5s64.167 -126.833 67.5 -217.5h75v-178h-97c-23.333 -69.333 -63.666 -122.666 -120.999 -159.999
s-130 -56 -218 -56z" />
    <glyph glyph-name="uniFED7" unicode="&#x642;" horiz-adv-x="542" arabic-form="initial" 
d="M347 660l-83 68l-63 -71l-97 80l79 94l83 -71l63 74l98 -84zM307 349c14 0 28 1 42 3c-14 86 -43 129 -87 129c-22.667 0 -39.5 -7.5 -50.5 -22.5s-16.5 -32.167 -16.5 -51.5s8.5 -33.833 25.5 -43.5s45.833 -14.5 86.5 -14.5zM0 0c-10 0 -18.5 8.66699 -25.5 26
s-10.5 38.333 -10.5 63s3.5 45.667 10.5 63s15.5 26 25.5 26h1h17c164.667 0 277.667 7.66699 339 23c0.666992 6 1 15.333 1 28v3c-28.667 -10 -65.334 -15 -110.001 -15c-66.667 0 -113.667 14.5 -141 43.5s-41 69.167 -41 120.5c0 68 19.667 126.167 59 174.5
s88 72.5 146 72.5c62.667 0 114.334 -30.167 155.001 -90.5s61 -144.833 61 -253.5c0 -96.667 -9.33301 -169 -28 -217c-81.333 -44.667 -226.333 -67 -435 -67h-24z" />
    <glyph glyph-name="uniFED8" unicode="&#x642;" horiz-adv-x="548" arabic-form="medial" 
d="M350 564l-83 68l-63 -71l-97 80l79 94l83 -71l63 74l98 -84zM188 312c0 -38 26 -73.333 78 -106c56 27.333 84 57.333 84 90c0 20 -8.33301 36.833 -25 50.5s-37.667 20.5 -63 20.5c-20.667 0 -38.167 -5.66699 -52.5 -17s-21.5 -24 -21.5 -38zM0 0
c-10 0 -18.5 8.66699 -25.5 26s-10.5 38.333 -10.5 63s3.5 45.667 10.5 63s15.5 26 25.5 26h28c14 0 38.333 1.66699 73 5c-24.667 38 -37 82 -37 132c0 68.667 20.167 121 60.5 157s90.5 54 150.5 54c58 0 106.667 -17.5 146 -52.5s59 -82.833 59 -143.5
c0 -56 -16.667 -105.333 -50 -148c30 -2.66699 58.333 -4 85 -4h33v-178h-68c-96.667 0 -172.667 13.667 -228 41c-68 -27.333 -144.333 -41 -229 -41h-23z" />
    <glyph glyph-name="uniFED9" unicode="&#x643;" horiz-adv-x="818" arabic-form="isolated" 
d="M412 478c0 -4 21.001 -11.001 63.001 -21.001c42 -9.33301 63 -31 63 -65c0 -36 -17.5 -64.833 -52.5 -86.5s-86.5 -32.5 -154.5 -32.5v87c86.667 0 130 4.33301 130 13c0 4 -13.333 8 -40 12c-28 4.66699 -48.333 13.334 -61 26.001s-19 30 -19 52
c0 36.667 13.5 66.667 40.5 90s61.833 35 104.5 35c14.667 0 27.667 -1.33301 39 -4l-18 -95c-10.667 2 -22.334 3 -35.001 3c-40 0 -60 -4.66699 -60 -14zM414.001 -10.001c-58.667 0 -109.669 4.16797 -153.002 12.501s-78.333 19.666 -105 33.999s-48 32.333 -64 54
s-27 44 -33 67s-9 49.5 -9 79.5c0 54 12.667 119 38 195l133 -26c-8.66699 -42 -13 -75.667 -13 -101c0 -33.333 6.16699 -59.166 18.5 -77.499s36 -32.5 71 -42.5s84.833 -15 149.5 -15c65.333 0 119.333 5 162 15c0.666992 28 1 83 1 165c0 197.333 -0.666992 318 -2 362
l155 13v-359c0 -52.667 -0.333008 -93.167 -1 -121.5s-3 -61.833 -7 -100.5s-10 -70 -18 -94c-31.333 -16.667 -78.166 -30.834 -140.499 -42.501s-123.166 -17.5 -182.499 -17.5z" />
    <glyph glyph-name="uniFEDA" unicode="&#x643;" horiz-adv-x="887" arabic-form="final" 
d="M412 478c0 -4 21.001 -11.001 63.001 -21.001c42 -9.33301 63 -31 63 -65c0 -36 -17.5 -64.833 -52.5 -86.5s-86.5 -32.5 -154.5 -32.5v87c86.667 0 130 4.33301 130 13c0 4 -13.333 8 -40 12c-28 4.66699 -48.333 13.334 -61 26.001s-19 30 -19 52
c0 36.667 13.5 66.667 40.5 90s61.833 35 104.5 35c14.667 0 27.667 -1.33301 39 -4l-18 -95c-10.667 2 -22.334 3 -35.001 3c-40 0 -60 -4.66699 -60 -14zM853.001 -0.000976562c-66 0 -119 20.667 -159 62c-54.667 -48 -151.667 -72 -291 -72
c-56.667 0 -106 4.16699 -148 12.5s-76 19.666 -102 33.999s-46.833 32.333 -62.5 54s-26.334 44 -32.001 67s-8.5 49.5 -8.5 79.5c0 54 12.667 119 38 195l133 -26c-8.66699 -42 -13 -75.667 -13 -101c0 -33.333 5.66699 -59.166 17 -77.499s33.5 -32.5 66.5 -42.5
s79.833 -15 140.5 -15c66.667 0 112.834 5 138.501 15s38.5 29 38.5 57v470l154 13v-434c0 -40 8.16699 -68.833 24.5 -86.5s45.833 -26.5 88.5 -26.5h11v-178h-34z" />
    <glyph glyph-name="uniFEDB" unicode="&#x643;" horiz-adv-x="501" arabic-form="initial" 
d="M0 0c-10 0 -18.5 8.66602 -25.5 25.999s-10.5 38.333 -10.5 63s3.5 45.667 10.5 63s15.5 26 25.5 26h19c98 0 177.667 6.33301 239 19c-17.333 39.333 -45.5 74.5 -84.5 105.5s-86.5 55.833 -142.5 74.5v200c132 88.667 280.333 149.667 445 183v-166
c-107.333 -23.333 -204.333 -59 -291 -107c152 -69.333 228 -180.666 228 -333.999c0 -32 -2.66699 -61.667 -8 -89c-76.667 -42.667 -204 -64 -382 -64h-23z" />
    <glyph glyph-name="uniFEDC" unicode="&#x643;" horiz-adv-x="514" arabic-form="medial" 
d="M0 0c-10 0 -18.498 8.66895 -25.498 26.002s-10.5 38.333 -10.5 63s3.5 45.667 10.5 63s15.5 26 25.5 26h19c103.333 0 183 8 239 24c-52.667 84 -128.334 142.333 -227.001 175v200c132 88.667 280.333 149.667 445 183v-166c-110 -24.667 -208 -60.667 -294 -108
c28 -14 53.5 -29.833 76.5 -47.5s44.167 -37.834 63.5 -60.501s33.666 -40.334 42.999 -53.001s22.333 -31.334 39 -56.001c4 -5.33301 10.167 -14.833 18.5 -28.5s14.333 -22.667 18 -27l15.5 -17.5c6.66699 -7.33301 13.5 -12.166 20.5 -14.499s15.167 -3.5 24.5 -3.5h13
v-178h-16c-62 0 -111 19 -147 57c-84 -38 -193.333 -57 -328 -57h-23z" />
    <glyph glyph-name="uniFEDD" unicode="&#x644;" horiz-adv-x="686" arabic-form="isolated" 
d="M467 712l154.001 12.998c6.66699 -366 10 -567.667 10 -605c0 -92 -28 -163.5 -84 -214.5s-135.333 -76.5 -238 -76.5c-83.333 0 -147.333 21 -192 63s-67 101.667 -67 179c0 75.333 23.333 159.333 70 252l127 -48c-24 -64.667 -36 -118.334 -36 -161.001
c0 -38 10 -65.5 30 -82.5s52 -25.5 96 -25.5c43.333 0 77.5 9.33301 102.5 28s37.5 41.334 37.5 68.001c0 4.66699 -0.666992 40.334 -2 107.001c-2.66699 154.667 -5.33398 322.334 -8.00098 503.001z" />
    <glyph glyph-name="uniFEDE" unicode="&#x644;" horiz-adv-x="747" arabic-form="final" 
d="M713 0c-41.333 0 -74.666 9.66699 -99.999 29c-16 -64 -50 -113.333 -102 -148s-119.333 -52 -202 -52c-83.333 0 -147.333 21 -192 63s-67 101.667 -67 179c0 75.333 23.333 159.333 70 252l127 -48c-24 -64.667 -36 -118.334 -36 -161.001c0 -38 10 -65.5 30 -82.5
s52 -25.5 96 -25.5c42.667 0 76.667 9.66699 102 29s38 41.666 38 66.999c0 4.66699 -0.666992 40.334 -2 107.001c-2.66699 154.667 -5.33398 322.334 -8.00098 503.001l154 13l7 -435c0.666992 -43.333 8.5 -72.833 23.5 -88.5s43.167 -23.5 84.5 -23.5h11v-178h-34z" />
    <glyph glyph-name="uniFEDF" unicode="&#x644;" horiz-adv-x="310" arabic-form="initial" 
d="M0 0c-10 0 -18.5 8.66797 -25.5 26.001s-10.5 38.333 -10.5 63s3.5 45.667 10.5 63s15.5 26 25.5 26h8c36.667 0 67 2.66699 91 8c1.33301 29.333 2 74.666 2 135.999c0 22.667 -1 152.667 -3 390l157 13v-384c0 -143.333 -8.66699 -240.333 -26 -291
c-24.667 -13.333 -58 -25 -100 -35s-83.333 -15 -124 -15h-5z" />
    <glyph glyph-name="uniFEE0" unicode="&#x644;" horiz-adv-x="379" arabic-form="medial" 
d="M0 0c-10 0 -18.501 8.66699 -25.501 26s-10.5 38.333 -10.5 63s3.5 45.667 10.5 63s15.5 26 25.5 26h14c34 0 57 4.33301 69 13s18 25.667 18 51v470l154 13v-434c0 -40 8.16699 -68.833 24.5 -86.5s45.833 -26.5 88.5 -26.5h11v-178h-34
c-63.333 0 -114.666 19 -153.999 57c-36.667 -38 -98.667 -57 -186 -57h-5z" />
    <glyph glyph-name="uniFEE1" unicode="&#x645;" horiz-adv-x="625" arabic-form="isolated" 
d="M393 196c34.667 0 58.6689 0.333008 72.002 1c0.666992 7.33301 1 17 1 29c0 32.667 -7.33301 57.167 -22 73.5s-34.667 24.5 -60 24.5c-26.667 0 -49.334 -11.167 -68.001 -33.5s-30.334 -52.833 -35.001 -91.5c70 -2 107.333 -3 112 -3zM205.002 -190
l-146.001 -9.99805c-6 127.333 -9 216.666 -9 267.999c0 36.667 8.5 67.334 25.5 92.001s42.167 39 75.5 43c2.66699 82 27.334 149 74.001 201s103.667 78 171 78c61.333 0 110.666 -19 147.999 -57s56 -91 56 -159c0 -74.667 -12 -143.334 -36 -206.001
c-11.333 -6.66699 -35.333 -12.334 -72 -17.001s-75 -7 -115 -7c-28 0 -55 0.333008 -81 1s-47.167 1.5 -63.5 2.5s-26.166 1.5 -29.499 1.5c-4.66699 0 -7 -1.66699 -7 -5c0 -32 3 -107.333 9 -226z" />
    <glyph glyph-name="uniFEE2" unicode="&#x645;" horiz-adv-x="705" arabic-form="final" 
d="M384 175c34 0 63.335 1.66699 88.002 5c-12.667 81.333 -43.334 122 -92.001 122c-25.333 0 -47 -10.833 -65 -32.5s-29.333 -51.167 -34 -88.5c45.333 -4 79.666 -6 102.999 -6zM205.002 -210l-146.001 -9.99902c-6 127.333 -9 216.666 -9 267.999
c0 38.667 8.66699 71.167 26 97.5s42.333 40.833 75 43.5c4 79.333 28.833 144.333 74.5 195s102.167 76 169.5 76c52.667 0 95.167 -16.667 127.5 -50s54.833 -78 67.5 -134c9.33301 -40.667 19.333 -67.167 30 -79.5s31.667 -18.5 63 -18.5h22v-178h-31
c-71.333 0 -121 12.667 -149 38c-42 -14.667 -96.333 -22 -163 -22c-25.333 0 -49.833 0.666992 -73.5 2s-42.667 2.83301 -57 4.5s-23.166 2.5 -26.499 2.5c-6 0 -9 -3 -9 -9c0 -32 3 -107.333 9 -226z" />
    <glyph glyph-name="uniFEE3" unicode="&#x645;" horiz-adv-x="581" arabic-form="initial" 
d="M335 161c18.667 0 38.001 1.00098 58.001 3.00098c1.33301 11.333 2 24.666 2 39.999c0 26 -5.83301 48 -17.5 66s-28.834 27 -51.501 27c-22 0 -40.333 -7.5 -55 -22.5s-34.667 -47.5 -60 -97.5c36.667 -10.667 78 -16 124 -16zM307.001 -0.999023
c-70 0 -132.334 14.667 -187.001 44c-31.333 -28.667 -68.666 -43 -111.999 -43h-8c-10 0 -18.5 8.66699 -25.5 26s-10.5 38.333 -10.5 63s3.5 45.667 10.5 63s15.5 26 25.5 26h19c6.66699 0 13.167 1 19.5 3s12.166 5.66699 17.499 11s10 10.333 14 15s8.5 11.5 13.5 20.5
s9 16.5 12 22.5l13 26.5c5.66699 11.667 9.83398 20.5 12.501 26.5c25.333 49.333 53.333 87.333 84 114s72.667 40 126 40c58.667 0 106.667 -22.5 144 -67.5s56 -100.5 56 -166.5c0 -74 -13.333 -140.333 -40 -199c-44.667 -16.667 -106 -25 -184 -25z" />
    <glyph glyph-name="uniFEE4" unicode="&#x645;" horiz-adv-x="634" arabic-form="medial" 
d="M335 161c28.667 0 52.002 2.66699 70.002 8c-10.667 46 -21.334 78.833 -32.001 98.5s-26.334 29.5 -47.001 29.5c-22 0 -40.333 -7.5 -55 -22.5s-34.667 -47.5 -60 -97.5c36.667 -10.667 78 -16 124 -16zM603.002 0c-54 0 -97.333 11.335 -130 34.002
c-48 -23.333 -100 -35 -156 -35c-82 0 -148 14.333 -198 43c-32 -28 -69 -42 -111 -42h-8c-10 0 -18.5 8.66699 -25.5 26s-10.5 38.333 -10.5 63s3.5 45.667 10.5 63s15.5 26 25.5 26h19c6.66699 0 13.167 1 19.5 3s12.166 5.66699 17.499 11s10 10.333 14 15
s8.5 11.5 13.5 20.5s9 16.5 12 22.5l13 26.5c5.66699 11.667 9.83398 20.5 12.501 26.5c25.333 49.333 53.333 87.333 84 114s72.667 40 126 40c50 0 90.667 -16.833 122 -50.5s53.333 -78.834 66 -135.501c8.66699 -38.667 18.5 -63.834 29.5 -75.501
s32.167 -17.5 63.5 -17.5h22v-178h-31z" />
    <glyph glyph-name="uniFEE5" unicode="&#x646;" horiz-adv-x="705" arabic-form="isolated" 
d="M335 497l108 -93l-88 -100l-108 89zM608 369c25.333 -91.333 39.999 -157.332 43.999 -197.999c2 -20.667 3 -42 3 -64c0 -97.333 -28.833 -173 -86.5 -227s-140.834 -81 -249.501 -81c-86.667 0 -153.167 21.667 -199.5 65s-69.5 104 -69.5 182
c0 79.333 23.333 161.666 70 246.999l122 -48c-24 -58 -36 -106.667 -36 -146c0 -40.667 11.333 -71.334 34 -92.001s58.334 -31 107.001 -31c46.667 0 84.334 9.5 113.001 28.5s43 44.5 43 76.5c0 54.667 -16.667 135.334 -50 242.001z" />
    <glyph glyph-name="uniFEE6" unicode="&#x646;" horiz-adv-x="732" arabic-form="final" 
d="M335 482l108 -93l-88 -100l-108 89zM319 -216c-86.667 0 -153.168 21.667 -199.501 65s-69.5 104 -69.5 182c0 79.333 23.333 161.666 70 246.999l122 -48c-24 -58 -36 -106.667 -36 -146c0 -40.667 11.333 -71.334 34 -92.001s58.334 -31 107.001 -31
c46.667 0 84.334 9.5 113.001 28.5s43 44.5 43 76.5c0 54.667 -16.667 135.334 -50 242.001l155 46c22 -78.667 35.333 -134.667 40 -168c25.333 -5.33301 49.666 -8 72.999 -8h11v-178h-17c-27.333 0 -50.333 2 -69 6c-15.333 -71.333 -50.833 -126.166 -106.5 -164.499
s-129.167 -57.5 -220.5 -57.5z" />
    <glyph glyph-name="uniFEE7" unicode="&#x646;" horiz-adv-x="303" arabic-form="initial" 
d="M71 648l108 -93l-88 -100l-108 89zM0 0c-10 0 -18.498 8.66602 -25.498 25.999s-10.5 38.333 -10.5 63s3.5 45.667 10.5 63s15.5 26 25.5 26h8c43.333 0 79.666 3.33301 108.999 10c-2.66699 75.333 -12.334 148.333 -29.001 219l145 31
c13.333 -61.333 20 -127.666 20 -198.999c0 -78 -8 -141 -24 -189c-24.667 -13.333 -58 -25 -100 -35s-83.333 -15 -124 -15h-5z" />
    <glyph glyph-name="uniFEE8" unicode="&#x646;" horiz-adv-x="390" arabic-form="medial" 
d="M88 620l108 -93l-88 -100l-108 89zM0 0c-10 0 -18.502 8.66797 -25.502 26.001s-10.5 38.333 -10.5 63s3.5 45.667 10.5 63s15.5 26 25.5 26h15c44.667 0 74.334 4.83301 89.001 14.5s22 23.167 22 40.5v146l148 10v-138c0 -24.667 -1.33301 -45.334 -4 -62.001
c32.667 -7.33301 70.667 -11 114 -11h6v-178h-34c-67.333 0 -120.666 14 -159.999 42c-38 -28 -92.667 -42 -164 -42h-32z" />
    <glyph glyph-name="uniFEE9" unicode="&#x647;" horiz-adv-x="511" arabic-form="isolated" 
d="M194 525c188 -74 282.003 -177 282.003 -309c0 -65.333 -20.333 -119 -61 -161s-102.334 -63 -185.001 -63c-62.667 0 -110.834 16.5 -144.501 49.5s-50.5 79.5 -50.5 139.5c0 59.333 14.667 119 44 179s67.666 115 114.999 165zM249.003 168
c25.333 0 47.5 3.66992 66.5 11.0029s28.5 16.666 28.5 27.999c0 19.333 -12.167 41.666 -36.5 66.999s-53.5 47.333 -87.5 66c-32.667 -38.667 -49 -74.334 -49 -107.001c0 -43.333 26 -65 78 -65z" />
    <glyph glyph-name="uniFEEA" unicode="&#x647;" horiz-adv-x="568" arabic-form="final" 
d="M568 0h-63c-75.333 0 -125 25.667 -149 77c-30 -4 -57.333 -6 -82 -6c-70.667 0 -126.5 14 -167.5 42s-61.5 70 -61.5 126c0 64 20 119.833 60 167.5s91.5 83 154.5 106s132.5 34.5 208.5 34.5v-296c0 -30 6.16699 -49.667 18.5 -59s35.5 -14 69.5 -14h12v-178zM304 226
c11.333 0 20 0.332031 26 0.999023v7v145c-47.333 -7.33301 -85.333 -21 -114 -41s-43 -39.333 -43 -58c0 -15.333 11.5 -28.166 34.5 -38.499s55.167 -15.5 96.5 -15.5z" />
    <glyph glyph-name="uniFEEB" unicode="&#x647;" horiz-adv-x="672" arabic-form="initial" 
d="M193 287c0 -31.333 16.667 -57.333 50 -78c24 14 42 28.833 54 44.5s18 29.5 18 41.5c0 38.667 -32 64 -96 76c-17.333 -30.667 -26 -58.667 -26 -84zM479 127c8.66699 0 13 4.33301 13 13c0 51.333 -23 98.666 -69 141.999c-6 -45.333 -24 -88.666 -54 -129.999
c49.333 -16.667 86 -25 110 -25zM498 -25c-93.333 0 -181.332 21.333 -263.999 64c-56 -26 -124.667 -39 -206 -39h-28c-10 0 -18.5 8.66699 -25.5 26s-10.5 38.333 -10.5 63s3.5 45.667 10.5 63s15.5 26 25.5 26h13c25.333 0 49.666 1 72.999 3c-10 24 -15 49.333 -15 76
c0 94 43.333 189 130 285c74.667 -10.667 143.667 -32.5 207 -65.5s114.833 -76.5 154.5 -130.5s59.5 -112.667 59.5 -176c0 -56 -9.66699 -102.5 -29 -139.5s-51 -55.5 -95 -55.5z" />
    <glyph glyph-name="uniFEEC" unicode="&#x647;" horiz-adv-x="612" arabic-form="medial" 
d="M377 273c0 27.333 -22.334 60 -67.001 98c-47.333 -58 -74.666 -120.333 -81.999 -187c99.333 19.333 149 49 149 89zM366.999 -73c10.667 0 21.999 0.999023 33.999 2.99902c-5.33301 52.667 -25.666 97 -60.999 133c-30.667 -15.333 -63.334 -27.666 -98.001 -36.999
c22.667 -66 64.334 -99 125.001 -99zM492.998 -202.001c-30.667 -16.667 -74 -25 -130 -25c-65.333 0 -120.666 21.333 -165.999 64s-76 99.667 -92 171c-30.667 -5.33301 -59.667 -8 -87 -8h-18c-10 0 -18.5 8.66699 -25.5 26s-10.5 38.333 -10.5 63s3.5 45.667 10.5 63
s15.5 26 25.5 26h21c29.333 0 54.666 1.33301 75.999 4c8 75.333 29.167 145.833 63.5 211.5s77.5 118.834 129.5 159.501c71.333 -30 125.333 -69.5 162 -118.5s55 -101.167 55 -156.5c0 -32 -10.333 -64.333 -31 -97c27.333 -2 61.333 -3 102 -3h34v-178h-43
c-25.333 -0 -44.333 0.333008 -57 1c8 -24.667 12 -50.667 12 -78c0 -44.667 -10.333 -86.334 -31 -125.001z" />
    <glyph glyph-name="uniFEED" unicode="&#x648;" horiz-adv-x="534" arabic-form="isolated" 
d="M288 178c16.667 0 35 1.66602 55 4.99902c-4 32.667 -15 63.334 -33 92.001s-40.333 43 -67 43c-22.667 0 -40 -7.5 -52 -22.5s-18 -32.5 -18 -52.5c0 -43.333 38.333 -65 115 -65zM159 -204.001c-37.333 0 -74.332 5 -110.999 15l12 146c22 -3.33301 46.333 -5 73 -5
c57.333 0 104 9.5 140 28.5s57 38.5 63 58.5c-30.667 -13.333 -66.334 -20 -107.001 -20c-126 0 -189 65.667 -189 197c0 74 20.333 136 61 186s91 75 151 75c66 0 121.167 -29.5 165.5 -88.5s66.5 -137.167 66.5 -234.5c0 -114 -27.667 -202.167 -83 -264.5
s-136 -93.5 -242 -93.5z" />
    <glyph glyph-name="uniFEEE" unicode="&#x648;" horiz-adv-x="533" arabic-form="final" 
d="M288 178l56.002 0.000976562c-2 20 -6.83301 40.167 -14.5 60.5s-19.334 38.666 -35.001 54.999s-32.834 24.5 -51.501 24.5c-22.667 0 -40 -7.5 -52 -22.5s-18 -32.5 -18 -52.5c0 -43.333 38.333 -65 115 -65zM159.002 -203.999
c-37.333 0 -74.3311 4.99805 -110.998 14.998l12 146c22 -3.33301 46.333 -5 73 -5c50 0 91.667 7.33301 125 22s56.666 31.334 69.999 50.001c-24.667 -3.33301 -57.667 -5 -99 -5c-126 0 -189 65.667 -189 197c0 72.667 20.333 134.334 61 185.001s91 76 151 76
c63.333 0 116.666 -26.5 159.999 -79.5s67 -126.167 71 -219.5h50v-178h-71c-43.333 -136 -144.333 -204 -303 -204z" />
    <glyph glyph-name="uniFEEF" unicode="&#x649;" horiz-adv-x="770" arabic-form="isolated" 
d="M342 -200c-96.667 0 -169.502 22.0059 -218.502 66.0059s-73.5 107.333 -73.5 190c0 76 21 155 63 237l120 -48c-20.667 -56 -31 -103 -31 -141c0 -45.333 13.5 -78.333 40.5 -99s69.5 -31 127.5 -31c90 0 153.667 19.333 191 58c-18 12.667 -39 24.834 -63 36.501
s-51.833 24.5 -83.5 38.5s-57.834 26.333 -78.501 37c-2 22.667 -3 43.667 -3 63c0 55.333 7.66699 103.666 23 144.999s36.333 73.5 63 96.5s55 39.833 85 50.5s62 16 96 16c26.667 0 53.334 -4.83301 80.001 -14.5s46.667 -20.834 60 -33.501l-63 -155
c-32.667 20 -68.667 30 -108 30c-24 0 -44 -5.33301 -60 -16s-29 -31.334 -39 -62.001c43.333 -18 76 -32.167 98 -42.5s47.333 -24.333 76 -42s53.334 -36.834 74.001 -57.501c-0.666992 -54.667 -10.667 -102.834 -30 -144.501s-46.166 -75.334 -80.499 -101.001
s-73.833 -44.834 -118.5 -57.501s-93.667 -19 -147 -19z" />
    <glyph glyph-name="uniFEF0" unicode="&#x649;" horiz-adv-x="716" arabic-form="final" 
d="M339 -211c-94 0 -165.666 21 -214.999 63s-74 101.667 -74 179c0 75.333 23.333 159.333 70 252l122 -48c-24 -66 -36 -118 -36 -156c0 -80.667 55.333 -121 166 -121c89.333 0 149.666 19 180.999 57c-53.333 10.667 -104.333 24.667 -153 42l31 155
c93.333 -22.667 183 -34 269 -34h16v-178h-14h-21c-13.333 -63.333 -49.5 -114.333 -108.5 -153s-136.833 -58 -233.5 -58z" />
    <glyph glyph-name="uniFEF1" unicode="&#x64a;" horiz-adv-x="770" arabic-form="isolated" 
d="M342 -200c-96.667 0 -169.502 22.0059 -218.502 66.0059s-73.5 107.333 -73.5 190c0 76 21 155 63 237l120 -48c-20.667 -56 -31 -103 -31 -141c0 -45.333 13.5 -78.333 40.5 -99s69.5 -31 127.5 -31c90 0 153.667 19.333 191 58c-18 12.667 -39 24.834 -63 36.501
s-51.833 24.5 -83.5 38.5s-57.834 26.333 -78.501 37c-2 22.667 -3 43.667 -3 63c0 55.333 7.66699 103.666 23 144.999s36.333 73.5 63 96.5s55 39.833 85 50.5s62 16 96 16c26.667 0 53.334 -4.83301 80.001 -14.5s46.667 -20.834 60 -33.501l-63 -155
c-32.667 20 -68.667 30 -108 30c-24 0 -44 -5.33301 -60 -16s-29 -31.334 -39 -62.001c43.333 -18 76 -32.167 98 -42.5s47.333 -24.333 76 -42s53.334 -36.834 74.001 -57.501c-0.666992 -54.667 -10.667 -102.834 -30 -144.501s-46.166 -75.334 -80.499 -101.001
s-73.833 -44.834 -118.5 -57.501s-93.667 -19 -147 -19zM446.998 -421.994l-83 68l-63 -71l-97 80l79 94l83 -71l63 74l98 -84z" />
    <glyph glyph-name="uniFEF2" unicode="&#x64a;" horiz-adv-x="716" arabic-form="final" 
d="M339 -211c-94 0 -165.666 21 -214.999 63s-74 101.667 -74 179c0 75.333 23.333 159.333 70 252l122 -48c-24 -66 -36 -118 -36 -156c0 -80.667 55.333 -121 166 -121c89.333 0 149.666 19 180.999 57c-53.333 10.667 -104.333 24.667 -153 42l31 155
c93.333 -22.667 183 -34 269 -34h16v-178h-14h-21c-13.333 -63.333 -49.5 -114.333 -108.5 -153s-136.833 -58 -233.5 -58zM437.001 -422l-83 68l-63 -71l-97 80l79 94l83 -71l63 74l98 -84z" />
    <glyph glyph-name="uniFEF3" unicode="&#x64a;" horiz-adv-x="303" arabic-form="initial" 
d="M0 0c-10 0 -18.498 8.66602 -25.498 25.999s-10.5 38.333 -10.5 63s3.5 45.667 10.5 63s15.5 26 25.5 26h8c43.333 0 79.666 3.33301 108.999 10c-2.66699 75.333 -12.334 148.333 -29.001 219l145 31c13.333 -61.333 20 -127.666 20 -198.999c0 -78 -8 -141 -24 -189
c-24.667 -13.333 -58 -25 -100 -35s-83.333 -15 -124 -15h-5zM171.002 -237.001l-83 68l-63 -71l-97 80l79 94l83 -71l63 74l98 -84z" />
    <glyph glyph-name="uniFEF4" unicode="&#x64a;" horiz-adv-x="390" arabic-form="medial" 
d="M0 0c-10 0 -18.502 8.66797 -25.502 26.001s-10.5 38.333 -10.5 63s3.5 45.667 10.5 63s15.5 26 25.5 26h15c44.667 0 74.334 4.83301 89.001 14.5s22 23.167 22 40.5v146l148 10v-138c0 -24.667 -1.33301 -45.334 -4 -62.001c32.667 -7.33301 70.667 -11 114 -11h6v-178
h-34c-67.333 0 -120.666 14 -159.999 42c-38 -28 -92.667 -42 -164 -42h-32zM186.998 -236.999l-83 68l-63 -71l-97 80l79 94l83 -71l63 74l98 -84z" />
    <glyph glyph-name=".notdef" horiz-adv-x="756" 
d="M160 0v701h436v-701h-436zM241 625v-549h275v549h-275z" />
    <glyph glyph-name=".null" 
 />
    <glyph glyph-name=".null" 
 />
    <glyph glyph-name="CR" unicode="&#xd;" 
 />
    <glyph glyph-name="space" unicode=" " horiz-adv-x="233" 
 />
    <glyph glyph-name="exclam" unicode="!" horiz-adv-x="335" 
d="M265 700v-146c0 -84.667 -11 -193.667 -33 -327h-130c-21.333 122 -32 231 -32 327v146h195zM263 80c0 -28.667 -8.33301 -51.167 -25 -67.5s-40 -24.5 -70 -24.5c-30.667 0 -54.334 8.16699 -71.001 24.5s-25 38.833 -25 67.5s8.33301 51 25 67s40.334 24 71.001 24
c30 0 53.333 -8.16699 70 -24.5s25 -38.5 25 -66.5z" />
    <glyph glyph-name="quotedbl" unicode="&#x22;" horiz-adv-x="446" 
d="M62 433c-14.667 138.667 -22.002 227.667 -22.002 267h158c0 -26.667 -1.16699 -55.167 -3.5 -85.5s-5.66602 -63.5 -9.99902 -99.5s-7.16602 -63.333 -8.49902 -82h-114zM269.998 433c-14.667 138.667 -22.002 227.667 -22.002 267h158
c0 -26.667 -1.16699 -55.167 -3.5 -85.5s-5.66602 -63.5 -9.99902 -99.5s-7.16602 -63.333 -8.49902 -82h-114z" />
    <glyph glyph-name="numbersign" unicode="#" horiz-adv-x="704" 
d="M399 278l26 115h-121l-26 -115h121zM337 0l34 150h-121l-34 -150h-140l34 150h-80v128h108l26 115h-84v128h112l34 150h140l-34 -150h121l34 150h141l-34 -150h80v-128h-108l-26 -115h86v-128h-114l-34 -150h-141z" />
    <glyph glyph-name="dollar" unicode="$" horiz-adv-x="579" 
d="M374 -116l-155.002 -0.000976562v106c-66 4.66699 -124 16 -174 34l26 148c70 -21.333 135 -32 195 -32c36 0 61.333 4.33301 76 13s22 24 22 46c0 18 -9.66699 32.667 -29 44s-54.666 24 -105.999 38c-59.333 16 -104.166 40 -134.499 72s-45.5 76.333 -45.5 133
c0 49.333 15 90.333 45 123s71.667 54.667 125 66v115h155v-111c42 -4.66699 79.667 -13 113 -25l-29 -144c-45.333 14 -95 21 -149 21c-30.667 0 -52.5 -3.33301 -65.5 -10s-19.5 -18 -19.5 -34c0 -15.333 8.16699 -27.166 24.5 -35.499s54.833 -21.5 115.5 -39.5
c58 -17.333 101.667 -42 131 -74s44 -77.333 44 -136c0 -112.667 -55 -180.667 -165 -204v-114z" />
    <glyph glyph-name="percent" unicode="%" horiz-adv-x="886" 
d="M375 508c0 -56 -15.667 -99.5 -47 -130.5s-73 -46.5 -125 -46.5s-93.833 15.5 -125.5 46.5s-47.5 74.5 -47.5 130.5c0 54.667 16 97.5 48 128.5s73.667 46.5 125 46.5s92.833 -15.5 124.5 -46.5s47.5 -73.833 47.5 -128.5zM565 671h127l-371 -671h-127zM161 508
c0 -46.667 14 -70 42 -70c27.333 0 41 23.333 41 70c0 46 -13.667 69 -41 69c-28 0 -42 -23 -42 -69zM856 165c0 -56 -15.667 -99.5 -47 -130.5s-73 -46.5 -125 -46.5s-93.833 15.5 -125.5 46.5s-47.5 74.5 -47.5 130.5c0 54.667 16 97.5 48 128.5s73.667 46.5 125 46.5
s92.833 -15.5 124.5 -46.5s47.5 -73.833 47.5 -128.5zM642 165c0 -46.667 14 -70 42 -70c27.333 0 41 23.333 41 70c0 46 -13.667 69 -41 69c-28 0 -42 -23 -42 -69z" />
    <glyph glyph-name="ampersand" unicode="&#x26;" horiz-adv-x="758" 
d="M278 520c0 -25.333 12 -52.666 36 -81.999c45.333 23.333 68 51.666 68 84.999c0 34 -18.333 51 -55 51c-32.667 0 -49 -18 -49 -54zM305 134c31.333 0 59 4.99902 83 14.999l-120 117l-18 18c-26.667 -19.333 -40 -44.666 -40 -75.999
c0 -22.667 9.16699 -40.667 27.5 -54s40.833 -20 67.5 -20zM541 -0.000976562l-44.999 43c-59.333 -36.667 -125.333 -55 -198 -55c-81.333 0 -145.5 18.667 -192.5 56s-70.5 89.333 -70.5 156c0 75.333 43 135.666 129 180.999c-32 44.667 -48 92.334 -48 143.001
c0 55.333 19.167 100.5 57.5 135.5s89.833 52.5 154.5 52.5c64 0 114.833 -15.5 152.5 -46.5s56.5 -71.5 56.5 -121.5c0 -46 -11.833 -84.167 -35.5 -114.5s-58.167 -56.833 -103.5 -79.5l97 -97c17.333 34.667 29.333 77.334 36 128.001h158
c-6.66699 -88.667 -35.334 -167.334 -86.001 -236.001l145 -145h-207z" />
    <glyph glyph-name="quotesingle" unicode="'" horiz-adv-x="238" 
d="M62 433c-14.667 138.667 -22.002 227.667 -22.002 267h158c0 -26.667 -1.16699 -55.167 -3.5 -85.5s-5.66602 -63.5 -9.99902 -99.5s-7.16602 -63.333 -8.49902 -82h-114z" />
    <glyph glyph-name="parenleft" unicode="(" horiz-adv-x="354" 
d="M339 761c-39.333 -71.333 -70.166 -141.833 -92.499 -211.5s-33.5 -149.834 -33.5 -240.501s11.167 -171 33.5 -241s53.166 -140.667 92.499 -212h-166c-36 50.667 -67.167 115.334 -93.5 194.001s-39.5 165 -39.5 259s13 180.167 39 258.5s57.333 142.833 94 193.5h166z
" />
    <glyph glyph-name="parenright" unicode=")" horiz-adv-x="354" 
d="M141 309c0 90.667 -11.167 170.834 -33.5 240.501s-53.166 140.167 -92.499 211.5h166c36.667 -50.667 68 -115.167 94 -193.5s39 -164.5 39 -258.5s-13.167 -180.333 -39.5 -259s-57.5 -143.334 -93.5 -194.001h-166c39.333 71.333 70.166 142 92.499 212
s33.5 150.333 33.5 241z" />
    <glyph glyph-name="asterisk" unicode="*" horiz-adv-x="385" 
d="M244 409c-16 22.667 -33.666 49.665 -52.999 80.998c-19.333 -33.333 -36.333 -60 -51 -80l-89 65c18.667 24.667 39 49.667 61 75c-37.333 8.66699 -68 17 -92 25l34 104c28.667 -9.33301 58 -20.666 88 -33.999c-3.33301 35.333 -5 67 -5 95h110
c0 -28 -1.66699 -59.667 -5 -95c30 12.667 60 24.334 90 35.001l33 -105c-32.667 -10 -64.334 -18.333 -95.001 -25c28 -31.333 49 -57 63 -77z" />
    <glyph glyph-name="plus" unicode="+" horiz-adv-x="559" 
d="M519 268h-161v-172h-155v172h-163v146h163v168h155v-168h161v-146z" />
    <glyph glyph-name="comma" unicode="," horiz-adv-x="281" 
d="M69 156h163.001c0 -54 -10.833 -108.5 -32.5 -163.5s-46.834 -101.833 -75.501 -140.5h-89c20.667 102 32 203.333 34 304z" />
    <glyph glyph-name="hyphen" unicode="-" horiz-adv-x="367" 
d="M40 251v143h287v-143h-287z" />
    <glyph glyph-name="period" unicode="." horiz-adv-x="261" 
d="M226 80c0 -28.667 -8.33301 -51.167 -25 -67.5s-40 -24.5 -70 -24.5c-30.667 0 -54.334 8.16699 -71.001 24.5s-25 38.833 -25 67.5s8.33301 51 25 67s40.334 24 71.001 24c30 0 53.333 -8.16699 70 -24.5s25 -38.5 25 -66.5z" />
    <glyph glyph-name="slash" unicode="/" horiz-adv-x="527" 
d="M327 755h170l-297 -811h-170z" />
    <glyph glyph-name="zero" unicode="0" horiz-adv-x="626" 
d="M314 -12c-47.333 0 -89.166 9.16895 -125.499 27.502s-65 43.666 -86 75.999s-36.667 68.833 -47 109.5s-15.5 85 -15.5 133s5.16699 92.5 15.5 133.5s26 77.833 47 110.5s49.667 58.334 86 77.001s78.166 28 125.499 28c62.667 0 115 -16.333 157 -49
s71.667 -74.334 89 -125.001s26 -109 26 -175c0 -48.667 -5.16699 -93.334 -15.5 -134.001s-26 -77.167 -47 -109.5s-49.333 -57.5 -85 -75.5s-77.167 -27 -124.5 -27zM314 136.002c20 0 36.667 5.66602 50 16.999s23 27.5 29 48.5s10 41.667 12 62s3 43.833 3 70.5
s-1 50.167 -3 70.5s-6 41.333 -12 63s-15.667 38.334 -29 50.001s-30 17.5 -50 17.5c-64 0 -96 -67 -96 -201c0 -132 32 -198 96 -198z" />
    <glyph glyph-name="one" unicode="1" horiz-adv-x="422" 
d="M362 0l-174 -0.000976562v493c-35.333 -15.333 -73 -34.666 -113 -57.999l-70 132c57.333 40 125 74.667 203 104h154v-671z" />
    <glyph glyph-name="two" unicode="2" horiz-adv-x="537" 
d="M502 0h-464.999v142l94 88c59.333 55.333 100.833 99.333 124.5 132s35.5 65.667 35.5 99c0 49.333 -24.333 74 -73 74c-38.667 0 -79.667 -15.667 -123 -47l-75 122c60 48.667 133 73 219 73c73.333 0 129.666 -18 168.999 -54s59 -86.333 59 -151
c0 -57.333 -18.5 -113 -55.5 -167s-86.5 -108.667 -148.5 -164h239v-147z" />
    <glyph glyph-name="three" unicode="3" horiz-adv-x="517" 
d="M226 -12c-76 0 -140.999 14.335 -194.999 43.002l43 135c42 -20 87 -30 135 -30c64.667 0 97 24 97 72c0 25.333 -9.5 42.166 -28.5 50.499s-48.5 12.5 -88.5 12.5h-47v144h30c35.333 0 62 4.5 80 13.5s27 25.167 27 48.5c0 38.667 -27.667 58 -83 58
c-34.667 0 -70.334 -12.667 -107.001 -38l-69 123c58 42 127.333 63 208 63c72 0 127.833 -15.833 167.5 -47.5s59.5 -74.5 59.5 -128.5c0 -68.667 -30 -119.334 -90 -152.001c78 -31.333 117 -87 117 -167c0 -65.333 -23.667 -115 -71 -149s-109 -51 -185 -51z" />
    <glyph glyph-name="four" unicode="4" horiz-adv-x="624" 
d="M507 260h96.999v-142h-97v-118h-163v118h-324v128c36 74.667 82.333 151.5 139 230.5s114.334 148.5 173.001 208.5h175v-425zM353.999 513c-66 -91.333 -119.667 -175.667 -161 -253h151v37c0 66 3.33301 138 10 216z" />
    <glyph glyph-name="five" unicode="5" horiz-adv-x="548" 
d="M233 -12c-77.333 0 -148.331 16.998 -212.998 50.998l48 136c59.333 -26 113.666 -39 162.999 -39c36.667 0 63.5 6.66699 80.5 20s25.5 35 25.5 65c0 51.333 -44 77 -132 77c-49.333 0 -99.333 -5.66699 -150 -17l36 390h366v-147h-233l-8 -84
c8.66699 0.666992 22.667 1 42 1c85.333 0 149.166 -19.167 191.499 -57.5s63.5 -91.166 63.5 -158.499c0 -75.333 -25 -133.666 -75 -174.999s-118.333 -62 -205 -62z" />
    <glyph glyph-name="six" unicode="6" horiz-adv-x="590" 
d="M560 227c0 -74.667 -21.8311 -133.167 -65.498 -175.5s-104.834 -63.5 -183.501 -63.5c-82.667 0 -148.5 29.5 -197.5 88.5s-73.5 134.167 -73.5 225.5c0 72 10.833 136 32.5 192s57.167 101.5 106.5 136.5s109.333 52.5 180 52.5c56.667 0 102 -6.33301 136 -19
l-33 -139c-30.667 8 -59.334 12 -86.001 12c-45.333 0 -80.5 -11.167 -105.5 -33.5s-41.833 -56.5 -50.5 -102.5c40 24.667 85 37 135 37c63.333 0 113.333 -19.667 150 -59s55 -90 55 -152zM313.002 136c23.333 0 41.168 7 53.501 21s18.5 33 18.5 57
c0 50.667 -28.667 76 -86 76c-24.667 0 -53.334 -7 -86.001 -21c3.33301 -42.667 13.5 -75.5 30.5 -98.5s40.167 -34.5 69.5 -34.5z" />
    <glyph glyph-name="seven" unicode="7" horiz-adv-x="502" 
d="M252 0l-185 0.000976562c55.333 194 128 368.667 218 524h-260v147h447v-129c-104.667 -206.667 -178 -387.334 -220 -542.001z" />
    <glyph glyph-name="eight" unicode="8" horiz-adv-x="601" 
d="M297 -12c-75.333 0 -136.165 17 -182.498 51s-69.5 81.667 -69.5 143c0 66 27.667 116.667 83 152c-46 34.667 -69 83.334 -69 146.001c0 60.667 22.167 109.667 66.5 147s102.166 56 173.499 56c81.333 0 142.166 -17.5 182.499 -52.5s60.5 -80.167 60.5 -135.5
c0 -60.667 -24.667 -108.667 -74 -144c58.667 -38.667 88 -88.334 88 -149.001c0 -66.667 -22.5 -119 -67.5 -157s-108.833 -57 -191.5 -57zM328.001 411c1.33301 -0.666992 3.16699 -1.33398 5.5 -2.00098s4.16602 -1 5.49902 -1c20.667 22 31 47.333 31 76
c0 43.333 -24 65 -72 65c-20 0 -36 -5.33301 -48 -16s-18 -25 -18 -43c0 -20.667 6.83301 -36.167 20.5 -46.5s38.834 -21.166 75.501 -32.499zM304.002 122c52 0 78 21.666 78 64.999c0 20.667 -8.5 36.667 -25.5 48s-47.5 24 -91.5 38c-0.666992 0.666992 -1.66699 1 -3 1
s-2.33301 0.333008 -3 1c-26.667 -21.333 -40 -47.666 -40 -78.999c0 -23.333 7.66699 -41.5 23 -54.5s36 -19.5 62 -19.5z" />
    <glyph glyph-name="nine" unicode="9" horiz-adv-x="589" 
d="M287 370c31.333 0 61.333 5.33301 90 16c-4.66699 99.333 -36.667 149 -96 149c-24 0 -43 -7.33301 -57 -22s-21 -37 -21 -67c0 -24 7 -42.667 21 -56s35 -20 63 -20zM219 -12c-56.667 0 -105.669 7.33203 -147.002 21.999l24 142c38 -10.667 74.667 -16 110 -16
c48.667 0 85.5 8.83301 110.5 26.5s41.833 45.834 50.5 84.501c-35.333 -16.667 -74 -25 -116 -25c-71.333 0 -126 20.167 -164 60.5s-57 94.5 -57 162.5c0 69.333 22.833 126.333 68.5 171s105.834 67 180.501 67c86.667 0 153.334 -28.167 200.001 -84.5
s70 -134.166 70 -233.499c0 -56.667 -5.33301 -106.834 -16 -150.501s-28 -83 -52 -118s-58 -61.833 -102 -80.5s-97.333 -28 -160 -28z" />
    <glyph glyph-name="colon" unicode=":" horiz-adv-x="261" 
d="M226 422c0 -28.667 -8.33301 -51.167 -25 -67.5s-40 -24.5 -70 -24.5c-30.667 0 -54.334 8.16699 -71.001 24.5s-25 38.833 -25 67.5s8.33301 51 25 67s40.334 24 71.001 24c30 0 53.333 -8.16699 70 -24.5s25 -38.5 25 -66.5zM226 80
c0 -28.667 -8.33301 -51.167 -25 -67.5s-40 -24.5 -70 -24.5c-30.667 0 -54.334 8.16699 -71.001 24.5s-25 38.833 -25 67.5s8.33301 51 25 67s40.334 24 71.001 24c30 0 53.333 -8.16699 70 -24.5s25 -38.5 25 -66.5z" />
    <glyph glyph-name="semicolon" unicode=";" horiz-adv-x="311" 
d="M251 426c0 -28.667 -8.33301 -51.167 -25 -67.5s-40 -24.5 -70 -24.5c-30.667 0 -54.334 8.16699 -71.001 24.5s-25 38.833 -25 67.5s8.33301 51 25 67s40.334 24 71.001 24c30 0 53.333 -8.16699 70 -24.5s25 -38.5 25 -66.5zM79 156h163.001
c0 -54 -10.833 -108.5 -32.5 -163.5s-46.834 -101.833 -75.501 -140.5h-89c20.667 102 32 203.333 34 304z" />
    <glyph glyph-name="less" unicode="&#x3c;" horiz-adv-x="559" 
d="M519 92l-479 167v163l479 167v-168l-289 -80l289 -81v-168z" />
    <glyph glyph-name="equal" unicode="=" horiz-adv-x="559" 
d="M40 363v146h479v-146h-479zM40 173v146h479v-146h-479z" />
    <glyph glyph-name="greater" unicode="&#x3e;" horiz-adv-x="559" 
d="M40 92v168l289 81l-289 80v168l479 -167v-163z" />
    <glyph glyph-name="question" unicode="?" horiz-adv-x="462" 
d="M49 532l-34 145.001c52.667 23.333 108.667 35 168 35c82.667 0 145.667 -17.833 189 -53.5s65 -84.834 65 -147.501c0 -56 -21.333 -103.667 -64 -143c-8 -7.33301 -20 -17.666 -36 -30.999s-28 -23.833 -36 -31.5s-15.667 -18.167 -23 -31.5s-11 -27 -11 -41v-6h-157
v35c0 47.333 20.333 87.666 61 120.999l28 22.5c14.667 11.667 24.5 20 29.5 25s10.5 12.833 16.5 23.5s9 22 9 34c0 45.333 -30 68 -90 68c-30.667 0 -69 -8 -115 -24zM191 171.001c30 0 53.333 -8.16699 70 -24.5s25 -38.5 25 -66.5c0 -28.667 -8.33301 -51.167 -25 -67.5
s-40 -24.5 -70 -24.5c-30.667 0 -54.334 8.16699 -71.001 24.5s-25 38.833 -25 67.5s8.33301 51 25 67s40.334 24 71.001 24z" />
    <glyph glyph-name="at" unicode="@" horiz-adv-x="968" 
d="M494 -245c-145.333 0 -258.17 38.501 -338.503 115.501s-120.5 181.833 -120.5 314.5c0 61.333 10 119.166 30 173.499s48.667 102.833 86 145.5s85.833 76.5 145.5 101.5s126.5 37.5 200.5 37.5c135.333 0 241.833 -35 319.5 -105s116.5 -159 116.5 -267
c0 -86.667 -18.833 -155.5 -56.5 -206.5s-92.5 -76.5 -164.5 -76.5c-59.333 0 -104.333 18.667 -135 56c-32.667 -37.333 -75 -56 -127 -56c-55.333 0 -98.666 17.833 -129.999 53.5s-47 84.167 -47 145.5c0 68 20.333 122.667 61 164s95.334 62 164.001 62
c60.667 0 123.334 -11.333 188.001 -34l-22 -198c-5.33301 -46 13.667 -69 57 -69c22 0 38.333 15 49 45s16 67.667 16 113c0 78 -26 137.667 -78 179s-124 62 -216 62c-94 0 -169.167 -29.333 -225.5 -88s-84.5 -137.334 -84.5 -236.001
c0 -53.333 8.16699 -99.666 24.5 -138.999s39.333 -70.5 69 -93.5s63 -40 100 -51s77.833 -16.5 122.5 -16.5c67.333 0 137.333 10 210 30l19 -123c-71.333 -26 -149 -39 -233 -39zM484.996 113.001c14.667 0 30.333 3.00098 47 9.00098c-5.33301 24 -6 53.333 -2 88l9 75
c-11.333 2 -23.333 3 -36 3c-26 0 -46.667 -8.5 -62 -25.5s-23 -41.833 -23 -74.5c0 -22.667 5.83301 -40.834 17.5 -54.501s28.167 -20.5 49.5 -20.5z" />
    <glyph glyph-name="A" unicode="A" horiz-adv-x="677" 
d="M338 511c-19.333 -42 -44.333 -119.333 -75 -232h150c-30.667 112.667 -55.667 190 -75 232zM484 0l-31.999 129h-228l-32 -129h-182c32 123.333 69.333 249.833 112 379.5s84 236.5 124 320.5h184c40 -84.667 81.667 -192 125 -322s80.666 -256 111.999 -378h-183z" />
    <glyph glyph-name="B" unicode="B" horiz-adv-x="606" 
d="M322 0h-262v700h244c78 0 139.5 -16 184.5 -48s67.5 -76.667 67.5 -134c0 -58.667 -23 -105 -69 -139c62.667 -34 94 -89 94 -165c0 -68 -23 -120.667 -69 -158s-109.333 -56 -190 -56zM232 550v-129h82c44.667 0 67 22.667 67 68c0 20 -7 35.167 -21 45.5
s-32 15.5 -54 15.5h-74zM232 289v-139h75c66 0 99 22 99 66c0 48.667 -33 73 -99 73h-75z" />
    <glyph glyph-name="C" unicode="C" horiz-adv-x="580" 
d="M370 -12c-106 0 -188.336 32.334 -247.003 97.001s-88 152 -88 262c0 112 29.833 200.833 89.5 266.5s144.834 98.5 255.501 98.5c55.333 0 111.333 -12 168 -36l-39 -150c-55.333 20 -97.666 30 -126.999 30c-56.667 0 -98.167 -17.333 -124.5 -52
s-39.5 -86.667 -39.5 -156c0 -68.667 12.833 -119.834 38.5 -153.501s66.167 -50.5 121.5 -50.5c46.667 0 94.334 13.333 143.001 40l34 -152c-53.333 -29.333 -115 -44 -185 -44z" />
    <glyph glyph-name="D" unicode="D" horiz-adv-x="693" 
d="M307 550h-70v-400h70c58.667 0 102.167 16.5 130.5 49.5s42.5 84.167 42.5 153.5c0 67.333 -14.167 117 -42.5 149s-71.833 48 -130.5 48zM60 0v700h252c104.667 0 189.334 -31 254.001 -93s97 -146.667 97 -254c0 -109.333 -32.333 -195.5 -97 -258.5
s-149.334 -94.5 -254.001 -94.5h-252z" />
    <glyph glyph-name="E" unicode="E" horiz-adv-x="550" 
d="M510 150v-150h-450v700h450v-150h-273v-122h232v-150h-232v-128h273z" />
    <glyph glyph-name="F" unicode="F" horiz-adv-x="535" 
d="M237 0h-177v700h440v-150h-263v-153h222v-150h-222v-247z" />
    <glyph glyph-name="G" unicode="G" horiz-adv-x="657" 
d="M612 48c-74 -40 -151.668 -60.001 -233.001 -60.001c-106.667 0 -190.667 32 -252 96s-92 149.333 -92 256c0 112.667 32.333 202.834 97 270.501s152.334 101.5 263.001 101.5c72 0 134.667 -11.333 188 -34l-38 -148c-45.333 17.333 -94.333 26 -147 26
c-120 0 -180 -72 -180 -216c0 -64 14.5 -112.667 43.5 -146s71.167 -50 126.5 -50c24 0 45.333 2 64 6v117h-98v145h258v-364z" />
    <glyph glyph-name="H" unicode="H" horiz-adv-x="704" 
d="M467 0v279h-230v-279h-177v700h177v-271h230v271h177v-700h-177z" />
    <glyph glyph-name="I" unicode="I" horiz-adv-x="297" 
d="M60 0v700h177v-700h-177z" />
    <glyph glyph-name="J" unicode="J" horiz-adv-x="297" 
d="M10 -187l-91.002 133.002c56.667 34 94.334 69.5 113.001 106.5s28 94.167 28 171.5v476h177v-468c0 -76 -8.83301 -140.333 -26.5 -193s-42.167 -95.834 -73.5 -129.501s-73.666 -65.834 -126.999 -96.501z" />
    <glyph glyph-name="K" unicode="K" horiz-adv-x="657" 
d="M457 0l-163 255c-18 -11.333 -37 -22.333 -57 -33v-222h-177v700h177v-300c110 75.333 178.333 175.333 205 300h177c-30 -134.667 -95.333 -250 -196 -346l235 -354h-201z" />
    <glyph glyph-name="L" unicode="L" horiz-adv-x="527" 
d="M60 0v700h177v-550h260v-150h-437z" />
    <glyph glyph-name="M" unicode="M" horiz-adv-x="882" 
d="M640 700l181.999 0.000976562v-700h-162v270c0 46.667 3 93 9 139c-49.333 -101.333 -102.333 -195 -159 -281h-136c-61.333 93.333 -115 187.666 -161 282.999c6 -43.333 9 -90.333 9 -141v-270h-162v700h182c62.667 -152.667 129.334 -284 200.001 -394
c66.667 104 132.667 235.333 198 394z" />
    <glyph glyph-name="N" unicode="N" horiz-adv-x="713" 
d="M222 0l-162 -0.000976562v700h171c72 -148.667 160 -299.667 264 -453c-2.66699 24.667 -4 52.667 -4 84v369h162v-700h-172l-87.5 121.5c-19.667 27.667 -46.5 67.834 -80.5 120.501s-65.667 106 -95 160c2.66699 -27.333 4 -68.333 4 -123v-279z" />
    <glyph glyph-name="O" unicode="O" horiz-adv-x="723" 
d="M688 350c0 -109.333 -29.333 -197 -88 -263s-138 -99 -238 -99c-100.667 0 -180.334 32.833 -239.001 98.5s-88 153.5 -88 263.5s29.333 197.833 88 263.5s138.334 98.5 239.001 98.5c100 0 179.333 -33 238 -99s88 -153.667 88 -263zM218 350
c0 -66.667 12.333 -117.667 37 -153s60.334 -53 107.001 -53c46 0 81.333 17.667 106 53s37 86.333 37 153s-12.333 117.667 -37 153s-60 53 -106 53c-46.667 0 -82.334 -17.667 -107.001 -53s-37 -86.333 -37 -153z" />
    <glyph glyph-name="P" unicode="P" horiz-adv-x="608" 
d="M290 550h-53v-195h53c35.333 0 61.666 7.5 78.999 22.5s26 39.833 26 74.5c0 35.333 -8.66699 60.5 -26 75.5s-43.666 22.5 -78.999 22.5zM294 205h-57v-205h-177v700h234c88 0 157.333 -22 208 -66s76 -104.667 76 -182s-25.333 -137.833 -76 -181.5
s-120 -65.5 -208 -65.5z" />
    <glyph glyph-name="Q" unicode="Q" horiz-adv-x="723" 
d="M587 -160c-56.667 0 -104.669 12.667 -144.002 38s-67.333 62 -84 110c-99.333 0.666992 -178.166 33.834 -236.499 99.501s-87.5 153.167 -87.5 262.5c0 110 29.333 197.833 88 263.5s138.334 98.5 239.001 98.5c100 0 179.333 -33 238 -99s88 -153.667 88 -263
c0 -76.667 -14.833 -143.334 -44.5 -200.001s-71.5 -99 -125.5 -127c16.667 -22.667 42 -34 76 -34c24 0 43.667 1.66699 59 5l12 -148c-25.333 -4 -51.333 -6 -78 -6zM217.998 350c0 -66.667 12.333 -117.667 37 -153s60.334 -53 107.001 -53c46 0 81.333 17.667 106 53
s37 86.333 37 153s-12.333 117.667 -37 153s-60 53 -106 53c-46.667 0 -82.334 -17.667 -107.001 -53s-37 -86.333 -37 -153z" />
    <glyph glyph-name="R" unicode="R" horiz-adv-x="628" 
d="M276 550h-38v-158h38c71.333 0 107 26.333 107 79c0 29.333 -8.83301 49.833 -26.5 61.5s-44.5 17.5 -80.5 17.5zM265 243h-27.001v-243h-178v700h224c87.333 0 156 -18.833 206 -56.5s75 -89.834 75 -156.501c0 -54.667 -11.167 -96 -33.5 -124s-52.166 -49 -89.499 -63
c33.333 -13.333 60.333 -44.666 81 -93.999l87 -206h-188l-82 194c-13.333 32.667 -38.333 49 -75 49z" />
    <glyph glyph-name="S" unicode="S" horiz-adv-x="533" 
d="M30 30l31.9971 148.998c62.667 -25.333 123 -38 181 -38c60.667 0 91 19.333 91 58c0 22 -7.83301 38.333 -23.5 49s-46.167 24 -91.5 40c-61.333 21.333 -108 48.166 -140 80.499s-48 76.5 -48 132.5c0 66.667 21.333 118.5 64 155.5s104.334 55.5 185.001 55.5
c76.667 0 142.334 -13 197.001 -39l-34 -146c-51.333 21.333 -102.333 32 -153 32c-53.333 0 -80 -17.333 -80 -52c0 -19.333 6.5 -34 19.5 -44s38.5 -22 76.5 -36c34 -12 61.833 -23.667 83.5 -35s42.834 -25.666 63.501 -42.999s35.834 -38.166 45.501 -62.499
s14.5 -53.166 14.5 -86.499c0 -66 -23.5 -117.833 -70.5 -155.5s-110.833 -56.5 -191.5 -56.5c-86.667 0 -160.334 14 -221.001 42z" />
    <glyph glyph-name="T" unicode="T" horiz-adv-x="563" 
d="M543 550h-173v-550h-177v550h-173v150h523v-150z" />
    <glyph glyph-name="U" unicode="U" horiz-adv-x="686" 
d="M55 282v418h177v-405c0 -100.667 37 -151 111 -151s111 50.333 111 151v405h177v-418c0 -92.667 -25 -164.834 -75 -216.501s-121 -77.5 -213 -77.5s-163 25.833 -213 77.5s-75 123.834 -75 216.501z" />
    <glyph glyph-name="V" unicode="V" horiz-adv-x="674" 
d="M437 0h-200c-45.333 92.667 -89 203.834 -131 333.501s-74 251.834 -96 366.501h183c20.667 -100 44.667 -200.833 72 -302.5s51.333 -177.834 72 -228.501c20.667 50.667 44.667 126.834 72 228.501s51.333 202.5 72 302.5h183c-22 -114.667 -54 -236.834 -96 -366.501
s-85.667 -240.834 -131 -333.501z" />
    <glyph glyph-name="W" unicode="W" horiz-adv-x="1004" 
d="M703 168c16.667 53.333 35.668 132.165 57.001 236.498s37.666 202.833 48.999 295.5h180c-16.667 -120 -41.5 -245.667 -74.5 -377s-68.5 -239 -106.5 -323h-194c-40 106 -77.333 229 -112 369c-34.667 -140 -72 -263 -112 -369h-194
c-36.667 86.667 -72 196.667 -106 330s-59 256.666 -75 369.999h180c11.333 -92.667 27.666 -191.167 48.999 -295.5s40.333 -183.166 57 -236.499c22 60.667 45.5 141.834 70.5 243.501s42.833 197.834 53.5 288.501h155c10.667 -91.333 28.334 -188 53.001 -290
s48 -182.667 70 -242z" />
    <glyph glyph-name="X" unicode="X" horiz-adv-x="669" 
d="M468 0l-163 250c-44 -70 -83.667 -153.333 -119 -250h-186c43.333 114 117.333 239.667 222 377l-211 323h201l144 -220c50.667 76.667 87.667 150 111 220h186c-44 -112 -116 -227 -216 -345l232 -355h-201z" />
    <glyph glyph-name="Y" unicode="Y" horiz-adv-x="634" 
d="M405 0h-176.998v273c-115.333 174.667 -191.333 317 -228 427h181c33.333 -94.667 78.666 -188.667 135.999 -282c57.333 93.333 102.666 187.333 135.999 282h181c-38 -114 -114.333 -256.667 -229 -428v-272z" />
    <glyph glyph-name="Z" unicode="Z" horiz-adv-x="567" 
d="M517 568c-61.333 -139.333 -150.667 -278.667 -268 -418h293v-150h-507v135c138.667 158.667 237.667 297 297 415h-286v150h471v-132z" />
    <glyph glyph-name="bracketleft" unicode="[" horiz-adv-x="350" 
d="M60 -144v905h265v-146h-98v-613h98v-146h-265z" />
    <glyph glyph-name="backslash" unicode="\" horiz-adv-x="527" 
d="M327 -56l-297 811h170l297 -811h-170z" />
    <glyph glyph-name="bracketright" unicode="]" horiz-adv-x="350" 
d="M25 -144v146h98v613h-98v146h265v-905h-265z" />
    <glyph glyph-name="asciicircum" unicode="^" horiz-adv-x="569" 
d="M359 332l-74 180l-75 -180h-170l162 368h165l162 -368h-170z" />
    <glyph glyph-name="underscore" unicode="_" horiz-adv-x="526" 
d="M20 -146v126h486v-126h-486z" />
    <glyph glyph-name="grave" unicode="`" horiz-adv-x="500" 
d="M195 566l-123 174h183l88 -174h-148z" />
    <glyph glyph-name="a" unicode="a" horiz-adv-x="517" 
d="M467 30c-60.667 -28 -136.999 -41.999 -228.999 -41.999c-68.667 0 -121.334 15 -158.001 45s-55 69 -55 117c0 47.333 18.333 85.666 55 114.999s86 44 148 44c28 0 52.667 -1.66699 74 -5v8c0 50 -29 75 -87 75c-49.333 0 -93.333 -7.66699 -132 -23l-29 132
c52.667 20.667 113 31 181 31c76.667 0 134.5 -19.667 173.5 -59s58.5 -95 58.5 -167v-271zM256.001 108.001c19.333 0 34.667 2.33301 46 7v85c-18 4 -34.667 6 -50 6c-17.333 0 -31.5 -4.16699 -42.5 -12.5s-16.5 -20.5 -16.5 -36.5c0 -32.667 21 -49 63 -49z" />
    <glyph glyph-name="b" unicode="b" horiz-adv-x="578" 
d="M548 263c0 -84.667 -24.668 -151.668 -74.001 -201.001s-116 -74 -200 -74c-100 0 -173 12.667 -219 38v690l170 8v-200c14 2 32.667 3 56 3c80.667 0 145.334 -23.667 194.001 -71s73 -111.666 73 -192.999zM224.999 133.999c12 -4 25.667 -6 41 -6
c72.667 0 109 43 109 129c0 42.667 -8.5 75 -25.5 97s-44.833 33 -83.5 33c-9.33301 0 -23 -1.66699 -41 -5v-248z" />
    <glyph glyph-name="c" unicode="c" horiz-adv-x="469" 
d="M290 527c58 0 109.333 -10.333 154 -31l-31 -133c-38 16 -74 24 -108 24c-32 0 -57 -11 -75 -33s-27 -52.667 -27 -92c0 -89.333 36 -134 108 -134c34.667 0 70 8 106 24l26 -136c-38.667 -18.667 -87.667 -28 -147 -28c-83.333 0 -148.5 24.333 -195.5 73
s-70.5 114 -70.5 196s23.167 147.5 69.5 196.5s109.833 73.5 190.5 73.5z" />
    <glyph glyph-name="d" unicode="d" horiz-adv-x="578" 
d="M523 28c-64 -26.667 -134.331 -39.999 -210.998 -39.999c-88.667 0 -157.834 23.5 -207.501 70.5s-74.5 110.167 -74.5 189.5c0 83.333 25.667 150.666 77 201.999s118 77 200 77c15.333 0 30.666 -1 45.999 -3v192l170 8v-696zM203.002 257.001c0 -86 36 -129 108 -129
c16.667 0 30.667 2.33301 42 7v247c-14.667 3.33301 -26.667 5 -36 5c-76 0 -114 -43.333 -114 -130z" />
    <glyph glyph-name="e" unicode="e" horiz-adv-x="539" 
d="M286 392c-44 0 -70.667 -26.668 -80 -80.001h141v8c0 22.667 -5.66699 40.334 -17 53.001s-26 19 -44 19zM484 21.999c-50 -22.667 -109.332 -33.998 -177.999 -33.998c-82 0 -148.5 24.667 -199.5 74s-76.5 114.666 -76.5 195.999c0 80.667 23.833 145.667 71.5 195
s109.167 74 184.5 74c65.333 0 118.833 -21.333 160.5 -64s62.5 -98.667 62.5 -168c0 -28.667 -1.33301 -56.334 -4 -83.001h-295c13.333 -54.667 51.666 -82 114.999 -82c42.667 0 87 9 133 27z" />
    <glyph glyph-name="f" unicode="f" horiz-adv-x="389" 
d="M80 0l0.000976562 380h-65v135h65v3c0 66 17.167 118.333 51.5 157s82.833 58 145.5 58c35.333 0 72.666 -4.33301 111.999 -13l-26 -132c-18 3.33301 -35.333 5 -52 5c-40.667 0 -61 -23.667 -61 -71v-7h108v-135h-108v-380h-170z" />
    <glyph glyph-name="g" unicode="g" horiz-adv-x="578" 
d="M203 277c0 -34.667 8.66699 -61.833 26 -81.5s42 -29.5 74 -29.5c16 0 32.667 2.66699 50 8v207c-15.333 4 -29.333 6 -42 6c-34 0 -60.5 -10.167 -79.5 -30.5s-28.5 -46.833 -28.5 -79.5zM250 -188.999c-68.667 0 -129.333 10.667 -182 32l35 134
c38.667 -17.333 84 -26 136 -26c34.667 0 62.334 6.66699 83.001 20s31 33 31 59v6c-24 -8 -50.333 -12 -79 -12c-76 0 -135.667 21 -179 63s-65 100.333 -65 175c0 80.667 25.833 145 77.5 193s119.167 72 202.5 72c72.667 0 143.667 -13.667 213 -41v-437
c0 -74 -24.333 -132.167 -73 -174.5s-115.334 -63.5 -200.001 -63.5z" />
    <glyph glyph-name="h" unicode="h" horiz-adv-x="582" 
d="M225 0l-170 -0.000976562v718l170 8v-211c21.333 8 49 12 83 12c67.333 0 121.5 -18.667 162.5 -56s61.5 -90.666 61.5 -159.999v-311h-170v297c0 58.667 -27.667 88 -83 88c-19.333 0 -37.333 -3.33301 -54 -10v-375z" />
    <glyph glyph-name="i" unicode="i" horiz-adv-x="280" 
d="M140 564c-30 0 -53.5 8.33301 -70.5 25s-25.5 39 -25.5 67s8.5 50.167 25.5 66.5s40.5 24.5 70.5 24.5s53.333 -8.16699 70 -24.5s25 -38.5 25 -66.5s-8.33301 -50.333 -25 -67s-40 -25 -70 -25zM225 515v-515h-170v515h170z" />
    <glyph glyph-name="j" unicode="j" horiz-adv-x="280" 
d="M235 656c0 -28 -8.33301 -50.333 -25 -67s-40 -25 -70 -25s-53.5 8.33301 -70.5 25s-25.5 39 -25.5 67s8.5 50.167 25.5 66.5s40.5 24.5 70.5 24.5s53.333 -8.16699 70 -24.5s25 -38.5 25 -66.5zM225 156c0 -92 -18 -164 -54 -216s-93 -94.333 -171 -127l-69 136
c30.667 15.333 54 30 70 44s29 34.833 39 62.5s15 63.5 15 107.5v352h170v-359z" />
    <glyph glyph-name="k" unicode="k" horiz-adv-x="555" 
d="M371 0l-97 179l-49 -33v-146h-170v716l170 8v-413c66.667 50.667 107 118.667 121 204h170c0 -80 -40 -159 -120 -237l159 -278h-184z" />
    <glyph glyph-name="l" unicode="l" horiz-adv-x="320" 
d="M220 726v-521c0 -51.333 16 -77 48 -77c9.33301 0 19.333 1 30 3l12 -134c-27.333 -6 -55 -9 -83 -9c-118 0 -177 71.667 -177 215v513z" />
    <glyph glyph-name="m" unicode="m" horiz-adv-x="870" 
d="M225 377v-377.001h-170v486c70.667 27.333 149 41 235 41c58 0 104.667 -12.333 140 -37c54 24.667 106 37 156 37c74 0 131.5 -18.5 172.5 -55.5s61.5 -90.5 61.5 -160.5v-311h-170v299c0 32 -5.66699 54.667 -17 68s-30 20 -56 20c-25.333 0 -48 -5 -68 -15
c7.33301 -29.333 11 -61.666 11 -96.999v-275h-165v299c0 31.333 -5.83301 53.833 -17.5 67.5s-30.5 20.5 -56.5 20.5c-17.333 0 -36 -3.33301 -56 -10z" />
    <glyph glyph-name="n" unicode="n" horiz-adv-x="582" 
d="M225 0h-170v486c70 27.333 147.667 41 233 41c77.333 0 137.333 -18.5 180 -55.5s64 -90.5 64 -160.5v-311h-170v299c0 58.667 -25.333 88 -76 88c-22 0 -42.333 -3.33301 -61 -10v-377z" />
    <glyph glyph-name="o" unicode="o" horiz-adv-x="579" 
d="M549 258c0 -82 -23.333 -147.5 -70 -196.5s-109.667 -73.5 -189 -73.5s-142.5 24.5 -189.5 73.5s-70.5 114.5 -70.5 196.5c0 81.333 23.5 146.5 70.5 195.5s110.167 73.5 189.5 73.5s142.333 -24.5 189 -73.5s70 -114.167 70 -195.5zM203 258
c0 -40.667 7.66699 -72.5 23 -95.5s36.666 -34.5 63.999 -34.5s48.5 11.5 63.5 34.5s22.5 54.833 22.5 95.5s-7.66699 72.334 -23 95.001s-36.333 34 -63 34c-27.333 0 -48.666 -11.333 -63.999 -34s-23 -54.334 -23 -95.001z" />
    <glyph glyph-name="p" unicode="p" horiz-adv-x="578" 
d="M225 382v-247c14 -4.66699 28.333 -7 43 -7c37.333 0 64.5 10.5 81.5 31.5s25.5 53.5 25.5 97.5c0 86.667 -37.333 130 -112 130c-7.33301 0 -20 -1.66699 -38 -5zM273 527c84 0 150.832 -23.5 200.499 -70.5s74.5 -111.833 74.5 -194.5
c0 -82 -23.333 -147.833 -70 -197.5s-108 -74.5 -184 -74.5c-28.667 0 -51.667 2.66699 -69 8v-186h-170v674c68.667 27.333 141.334 41 218.001 41z" />
    <glyph glyph-name="q" unicode="q" horiz-adv-x="578" 
d="M523 -188l-170 -0.000976562v188c-26 -8 -52 -12 -78 -12c-75.333 0 -135 23.5 -179 70.5s-66 110.167 -66 189.5c0 84.667 24.667 152.334 74 203.001s116 76 200 76c77.333 0 150.333 -13.667 219 -41v-674zM203 256.999c0 -41.333 9.33301 -73.167 28 -95.5
s46.334 -33.5 83.001 -33.5c12 0 25 2.33301 39 7v247c-18 3.33301 -31 5 -39 5c-36.667 0 -64.334 -11.333 -83.001 -34s-28 -54.667 -28 -96z" />
    <glyph glyph-name="r" unicode="r" horiz-adv-x="381" 
d="M55 486c59.333 27.333 129.332 41 209.999 41c46.667 0 82 -4 106 -12l-24 -138c-18 6.66699 -40.333 10 -67 10c-21.333 0 -39.666 -3 -54.999 -9v-378h-170v486z" />
    <glyph glyph-name="s" unicode="s" horiz-adv-x="444" 
d="M407 496l-17.002 -137.998c-63.333 19.333 -111.666 29 -144.999 29c-34.667 0 -52 -7.33301 -52 -22c0 -8.66699 4.33301 -15.334 13 -20.001s27.667 -11 57 -19c62 -16 106 -36.333 132 -61s39 -60.334 39 -107.001c0 -55.333 -20.167 -97.5 -60.5 -126.5
s-94.166 -43.5 -161.499 -43.5c-70.667 0 -133 11.667 -187 35l22 138c54 -22 108 -33 162 -33c39.333 0 59 8.66699 59 26c0 11.333 -5.16699 19.5 -15.5 24.5s-36.5 13.167 -78.5 24.5c-50 12.667 -87 31.5 -111 56.5s-36 58.833 -36 101.5c0 52.667 18 93.5 54 122.5
s86 43.5 150 43.5c63.333 0 122 -10.333 176 -31z" />
    <glyph glyph-name="t" unicode="t" horiz-adv-x="379" 
d="M364 -4c-26.667 -5.33301 -57.999 -8 -93.999 -8c-130 0 -195 71.667 -195 215v177h-65v135h65v107l170 8v-115h99v-135h-99v-175c0 -51.333 20.333 -77 61 -77c19.333 0 35.666 1.33301 48.999 4z" />
    <glyph glyph-name="u" unicode="u" horiz-adv-x="581" 
d="M526 29c-77.333 -27.333 -155.333 -41.001 -234 -41.001c-88 0 -150.333 19.833 -187 59.5s-55 96.834 -55 171.501v296h170v-297c0 -60 25.667 -90 77 -90c21.333 0 41 3.33301 59 10v377h170v-486z" />
    <glyph glyph-name="v" unicode="v" horiz-adv-x="549" 
d="M20 515l171.999 0.00292969c4 -146.667 31.667 -273.334 83 -380.001c52.667 108 80.334 234.667 83.001 380h171c-8.66699 -105.333 -24.167 -194.5 -46.5 -267.5s-59.833 -155.5 -112.5 -247.5h-190c-56 93.333 -95.5 176.666 -118.5 249.999
s-36.833 161.666 -41.5 264.999z" />
    <glyph glyph-name="w" unicode="w" horiz-adv-x="813" 
d="M335 0l-163 0.000976562c-56 87.333 -93.667 166.5 -113 237.5s-32.333 163.5 -39 277.5h168c4.66699 -154 30 -282.333 76 -385c39.333 76.667 62 167.667 68 273c-4.66699 31.333 -8 68.666 -10 111.999h158c4 -146.667 27 -275 69 -385c48.667 102 74 230.333 76 385
h168c-8 -107.333 -22.333 -197.5 -43 -270.5s-57 -154.5 -109 -244.5h-169c-31.333 60.667 -55 110.667 -71 150c-18 -52.667 -40 -102.667 -66 -150z" />
    <glyph glyph-name="x" unicode="x" horiz-adv-x="538" 
d="M341 0c-12 39.333 -44.333 94.667 -97 166c-36.667 -65.333 -58.667 -120.666 -66 -165.999h-164c20.667 96.667 69 186.667 145 270c-38.667 42.667 -69.5 82.167 -92.5 118.5s-40.833 78.5 -53.5 126.5h184c6.66699 -34.667 34.667 -86.334 84 -155.001
c33.333 62 51.333 113.667 54 155h173c-26 -103.333 -72.333 -190 -139 -260c76 -84.667 128 -169.667 156 -255h-184z" />
    <glyph glyph-name="y" unicode="y" horiz-adv-x="521" 
d="M376 58c-83.333 -146.667 -187.332 -228.334 -311.999 -245.001l-25 144c27.333 2.66699 56.5 12 87.5 28s52.5 34 64.5 54c-57.333 74 -99.833 147.5 -127.5 220.5s-43.834 158.167 -48.501 255.5h172c0 -131.333 30.667 -247.666 92 -348.999
c21.333 49.333 36.166 99 44.499 149s12.5 116.667 12.5 200h170c-7.33301 -164 -50.666 -316.333 -129.999 -457z" />
    <glyph glyph-name="z" unicode="z" horiz-adv-x="468" 
d="M30 0l0.000976562 114c102 102 173.667 190.667 215 266h-207v135h389v-114c-54.667 -103.333 -117.334 -192 -188.001 -266h204v-135h-413z" />
    <glyph glyph-name="braceleft" unicode="{" horiz-adv-x="373" 
d="M265 -144c-52.667 0 -93.833 16.0039 -123.5 48.0039s-44.5 73.667 -44.5 125c0 18 1.66699 42.667 5 74s5 52.333 5 63c0 27.333 -6.33301 46.666 -19 57.999s-35.334 17 -68.001 17v140c32.667 0 55.334 5.66699 68.001 17s19 30.666 19 57.999
c0 10.667 -1.66699 31.667 -5 63s-5 56 -5 74c0 51.333 15 93 45 125s71.667 48 125 48c32.667 0 59.667 -2 81 -6v-128h-26c-23.333 0 -39.666 -5.33301 -48.999 -16s-14 -27 -14 -49c0 -11.333 1.66699 -31.333 5 -60s5 -48.334 5 -59.001
c0 -69.333 -30.667 -115 -92 -137c61.333 -22 92 -67.667 92 -137c0 -10.667 -1.66699 -30.334 -5 -59.001s-5 -48.667 -5 -60c0 -22 4.66699 -38.333 14 -49s25.666 -16 48.999 -16h26v-128c-21.333 -4 -49 -6 -83 -6z" />
    <glyph glyph-name="bar" unicode="|" horiz-adv-x="292" 
d="M60 -244v1025h172v-1025h-172z" />
    <glyph glyph-name="braceright" unicode="}" horiz-adv-x="373" 
d="M108 -144c-34 0 -61.666 1.99609 -82.999 5.99609v128h26c23.333 0 39.666 5.33301 48.999 16s14 27 14 49c0 11.333 -1.66699 31.333 -5 60s-5 48.334 -5 59.001c0 69.333 30.667 115 92 137c-61.333 22 -92 67.667 -92 137c0 10.667 1.66699 30.334 5 59.001
s5 48.667 5 60c0 22 -4.66699 38.333 -14 49s-25.666 16 -48.999 16h-26v128c21.333 4 48.333 6 81 6c53.333 0 95 -16 125 -48s45 -73.667 45 -125c0 -18 -1.66699 -42.667 -5 -74s-5 -52.333 -5 -63c0 -27.333 6.33301 -46.666 19 -57.999s35.334 -17 68.001 -17v-140
c-32.667 0 -55.334 -5.66699 -68.001 -17s-19 -30.666 -19 -57.999c0 -10.667 1.66699 -31.667 5 -63s5 -56 5 -74c0 -51.333 -14.833 -93 -44.5 -125s-70.834 -48 -123.501 -48z" />
    <glyph glyph-name="asciitilde" unicode="~" horiz-adv-x="559" 
d="M178 440c26 0 56.833 -6.66699 92.5 -20s64.834 -20 87.501 -20c34 0 56.667 14.333 68 43l93 -60c-4.66699 -46 -18.667 -81.333 -42 -106s-52.666 -37 -87.999 -37c-31.333 0 -64.833 7 -100.5 21s-64.834 21 -87.501 21c-30.667 0 -53 -12 -67 -36l-94 66
c8 39.333 24.167 70.5 48.5 93.5s54.166 34.5 89.499 34.5z" />
    <glyph glyph-name="uni00A0" unicode="&#xa0;" horiz-adv-x="235" 
 />
    <glyph glyph-name="exclamdown" unicode="&#xa1;" horiz-adv-x="335" 
d="M72 435c0 28.667 8.33301 51.167 25 67.5s40 24.5 70 24.5c30.667 0 54.334 -8.16699 71.001 -24.5s25 -38.833 25 -67.5s-8.33301 -51 -25 -67s-40.334 -24 -71.001 -24c-30 0 -53.333 8.16699 -70 24.5s-25 38.5 -25 66.5zM70 -185v146c0 84.667 11 193.667 33 327h130
c21.333 -122 32 -231 32 -327v-146h-195z" />
    <glyph glyph-name="cent" unicode="&#xa2;" horiz-adv-x="489" 
d="M458 11c-24 -10.667 -57.001 -17.6699 -99.001 -21.0029v-105h-155v117c-54 16.667 -95.667 47.334 -125 92.001s-44 99 -44 163c0 64.667 14.667 119.334 44 164.001s70.333 75.334 123 92.001v114h155v-103c41.333 -4 75.333 -11.667 102 -23l-31 -133
c-34.667 12.667 -68.667 19 -102 19c-78.667 0 -118 -41.667 -118 -125c0 -89.333 39 -134 117 -134c38.667 0 74.334 6.33301 107.001 19z" />
    <glyph glyph-name="sterling" unicode="&#xa3;" horiz-adv-x="566" 
d="M107 0v272h-87v140h87v30c0 74.667 19.5 133.5 58.5 176.5s95.5 64.5 169.5 64.5c73.333 0 136.333 -11.667 189 -35l-45 -137c-40 13.333 -79.667 20 -119 20c-29.333 0 -50.333 -7.16699 -63 -21.5s-19 -36.833 -19 -67.5v-30h134v-140h-134v-124h253v-148h-424z" />
    <glyph glyph-name="currency" unicode="&#xa4;" horiz-adv-x="676" 
d="M540 64l-81.001 77.001c-37.333 -18 -77.666 -27 -120.999 -27c-45.333 0 -86 9 -122 27l-80 -77l-96 100l78 75c-16.667 33.333 -25 71 -25 113c0 43.333 8.66699 81.666 26 114.999l-79 76l96 100l83 -80c36 17.333 75.667 26 119 26s83 -8.66699 119 -26l83 80
l96 -100l-80 -77c16.667 -33.333 25 -71.333 25 -114c0 -40.667 -8 -78 -24 -112l79 -76zM229.999 352.001c0 -34 9.66699 -61.167 29 -81.5s45.666 -30.5 78.999 -30.5s59.333 10.167 78 30.5s28 47.5 28 81.5s-9.33301 61 -28 81s-44.667 30 -78 30
s-59.666 -10 -78.999 -30s-29 -47 -29 -81z" />
    <glyph glyph-name="yen" unicode="&#xa5;" horiz-adv-x="683" 
d="M623 132l-196 -0.00195312v-132h-171v132h-196v120h196v35l-21 31h-175v120h100c-42 72.667 -82 150.334 -120 233.001h180c33.333 -88 74 -170.667 122 -248c48 78.667 88.333 161.334 121 248.001h180c-40 -88 -79.667 -165.667 -119 -233h99v-120h-174l-22 -32v-34
h196v-120z" />
    <glyph glyph-name="brokenbar" unicode="&#xa6;" horiz-adv-x="292" 
d="M60 341v440h172v-440h-172zM60 -244v441h172v-441h-172z" />
    <glyph glyph-name="section" unicode="&#xa7;" horiz-adv-x="603" 
d="M340 192l22 -9c17.333 17.333 26 37 26 59c0 18.667 -7.66699 33.334 -23 44.001s-49.333 26.334 -102 47.001l-22 9c-17.333 -17.333 -26 -37 -26 -59c0 -18.667 7.66699 -33.334 23 -44.001s49.333 -26.334 102 -47.001zM280 -187c-74 0 -137.667 12.333 -191 37
l30 138c51.333 -16 101 -24 149 -24c46.667 0 70 10.333 70 31c0 12.667 -6.33301 23 -19 31s-40 20 -82 36c-68.667 24.667 -119.5 51.834 -152.5 81.501s-49.5 69.834 -49.5 120.501c0 68 28.667 119 86 153c-24 28 -36 64 -36 108c0 60.667 22.333 107 67 139
s101.667 48 171 48c74 0 137.667 -12.333 191 -37l-30 -138c-51.333 16 -101 24 -149 24c-46.667 0 -70 -10.333 -70 -31c0 -12.667 6.33301 -23 19 -31s40 -20 82 -36c68.667 -24.667 119.5 -51.834 152.5 -81.501s49.5 -69.834 49.5 -120.501c0 -68 -28.667 -119 -86 -153
c24 -28 36 -64 36 -108c0 -60.667 -22.333 -107 -67 -139s-101.667 -48 -171 -48z" />
    <glyph glyph-name="dieresis" unicode="&#xa8;" horiz-adv-x="500" 
d="M448 645c0 -26 -7.83301 -46.499 -23.5 -61.499s-37.5 -22.5 -65.5 -22.5c-27.333 0 -49 7.66699 -65 23s-24 35.666 -24 60.999s8.16699 45.666 24.5 60.999s37.833 23 64.5 23c28 0 49.833 -7.66699 65.5 -23s23.5 -35.666 23.5 -60.999zM230 645.001
c0 -25.333 -8.16895 -45.667 -24.502 -61s-38.166 -23 -65.499 -23c-28 0 -49.833 7.5 -65.5 22.5s-23.5 35.5 -23.5 61.5c0 25.333 7.83301 45.666 23.5 60.999s37.5 23 65.5 23c26.667 0 48.334 -7.66699 65.001 -23s25 -35.666 25 -60.999z" />
    <glyph glyph-name="copyright" unicode="&#xa9;" horiz-adv-x="818" 
d="M788 350c0 -110.667 -34.5 -198.667 -103.5 -264s-160.5 -98 -274.5 -98s-205.833 32.833 -275.5 98.5s-104.5 153.5 -104.5 263.5c0 110.667 34.667 198.667 104 264s161 98 275 98s205.667 -32.833 275 -98.5s104 -153.5 104 -263.5zM141 350
c0 -80.667 23.5 -144.834 70.5 -192.501s112.833 -71.5 197.5 -71.5s150.5 23.833 197.5 71.5s70.5 111.834 70.5 192.501c0 79.333 -23.5 143.166 -70.5 191.499s-112.833 72.5 -197.5 72.5c-83.333 0 -148.833 -24.167 -196.5 -72.5s-71.5 -112.166 -71.5 -191.499z
M236 353c0 61.333 17.333 107.5 52 138.5s79 46.5 133 46.5c33.333 0 65.333 -5.66699 96 -17l-18 -99c-26.667 6.66699 -48 10 -64 10c-53.333 0 -80 -26.333 -80 -79s26.667 -79 80 -79c20 0 41.333 3 64 9l17 -99c-31.333 -10.667 -63 -16 -95 -16
c-54.667 0 -99.167 15.667 -133.5 47s-51.5 77.333 -51.5 138z" />
    <glyph glyph-name="ordfeminine" unicode="&#xaa;" horiz-adv-x="340" 
d="M170 429c10 0 20 1 30 3v51c-10 2 -19.667 3 -29 3c-24.667 0 -37 -9.66699 -37 -29c0 -18.667 12 -28 36 -28zM300 383c-44 -21.333 -91.999 -32 -143.999 -32c-38 0 -68.167 8.83301 -90.5 26.5s-33.5 42.167 -33.5 73.5c0 32 10.667 56.833 32 74.5
s49.333 26.5 84 26.5c23.333 0 40.666 -1.33301 51.999 -4v1c0 16 -4.16699 27.5 -12.5 34.5s-23.5 10.5 -45.5 10.5c-24 0 -49 -4 -75 -12l-21 85c30.667 10.667 64 16 100 16c102.667 0 154 -42 154 -126v-174z" />
    <glyph glyph-name="guillemotleft" unicode="&#xab;" horiz-adv-x="702" 
d="M467 66c-68 75.333 -119.667 150.333 -155 225c35.333 74.667 87 149.667 155 225h205c-60 -64.667 -115.667 -139.667 -167 -225c51.333 -85.333 107 -160.333 167 -225h-205zM175 66c-68 75.333 -119.667 150.333 -155 225c35.333 74.667 87 149.667 155 225h205
c-60 -64.667 -115.667 -139.667 -167 -225c51.333 -85.333 107 -160.333 167 -225h-205z" />
    <glyph glyph-name="logicalnot" unicode="&#xac;" horiz-adv-x="559" 
d="M519 136h-155v172h-324v146h479v-318z" />
    <glyph glyph-name="registered" unicode="&#xae;" horiz-adv-x="546" 
d="M30 473c0 73.333 22.001 131.5 66.001 174.5s103 64.5 177 64.5s133 -21.5 177 -64.5s66 -101.167 66 -174.5s-22 -131.333 -66 -174s-103 -64 -177 -64c-74.667 0 -133.834 21.333 -177.501 64s-65.5 100.667 -65.5 174zM454.001 473
c0 59.333 -15.667 104.833 -47 136.5s-76 47.5 -134 47.5s-102.5 -15.833 -133.5 -47.5s-46.5 -77.167 -46.5 -136.5c0 -60 15.5 -105.667 46.5 -137s75.5 -47 133.5 -47s102.667 15.667 134 47s47 77 47 137zM272.001 550h-29v-64h29c14 0 24.333 2.16699 31 6.5
s10 12.833 10 25.5c0 21.333 -13.667 32 -41 32zM316.001 355c-21.333 26 -38.667 53.332 -52 81.999h-21v-82h-60v246h89c31.333 0 55.333 -7.33301 72 -22s25 -35 25 -61c0 -35.333 -15.333 -59.666 -46 -72.999c12.667 -23.333 33.667 -53.333 63 -90h-70z" />
    <glyph glyph-name="macron" unicode="&#xaf;" horiz-adv-x="500" 
d="M80 583v129h336v-129h-336z" />
    <glyph glyph-name="degree" unicode="&#xb0;" horiz-adv-x="356" 
d="M30 570c0 42.667 13.667 77 41 103s63 39 107 39s79.667 -13 107 -39s41 -60.333 41 -103c0 -44 -13.667 -79 -41 -105s-63 -39 -107 -39s-79.667 13 -107 39s-41 61 -41 105zM178 619c-13.333 0 -24 -4.33301 -32 -13s-12 -20.667 -12 -36c0 -32.667 14.667 -49 44 -49
c28.667 0 43 16.333 43 49s-14.333 49 -43 49z" />
    <glyph glyph-name="plusminus" unicode="&#xb1;" horiz-adv-x="559" 
d="M519 318h-161v-122h-155v122h-163v146h163v118h155v-118h161v-146zM40 10v146h479v-146h-479z" />
    <glyph glyph-name="twosuperior" unicode="&#xb2;" horiz-adv-x="365" 
d="M332 358l-280 0.00195312v92l46 35c37.333 28 60.833 47 70.5 57s14.5 21.333 14.5 34c0 18.667 -12.333 28 -37 28c-18 0 -37 -7.33301 -57 -22l-47 91c34.667 26 82.667 39 144 39c38 0 70 -9.33301 96 -28s39 -45 39 -79c0 -26.667 -8 -51.334 -24 -74.001
s-40.667 -47.334 -74 -74.001h109v-99z" />
    <glyph glyph-name="threesuperior" unicode="&#xb3;" horiz-adv-x="365" 
d="M164 350c-48 0 -86.334 5.66699 -115.001 17l23 95c26 -8 50.667 -12 74 -12c31.333 0 47 7.66699 47 23c0 16 -14 24 -42 24h-35v70h18c15.333 0 26.5 1.5 33.5 4.5s10.5 9.83301 10.5 20.5c0 14 -13 21 -39 21c-19.333 0 -39.333 -4.66699 -60 -14l-34 89
c35.333 16 74.333 24 117 24c99.333 0 149 -30.333 149 -91c0 -36.667 -16.667 -64 -50 -82c43.333 -15.333 65 -42 65 -80s-15.167 -65.667 -45.5 -83s-69.166 -26 -116.499 -26z" />
    <glyph glyph-name="acute" unicode="&#xb4;" horiz-adv-x="500" 
d="M203 740h183l-123 -174h-148z" />
    <glyph glyph-name="paragraph" unicode="&#xb6;" horiz-adv-x="608" 
d="M253 700h295v-700h-115v604h-65v-604h-115v291c-64 0 -117.167 17.5 -159.5 52.5s-63.5 85.167 -63.5 150.5s21.167 116 63.5 152s95.5 54 159.5 54z" />
    <glyph glyph-name="periodcentered" unicode="&#xb7;" horiz-adv-x="500" 
d="M35 394c0 28.667 8.33301 51 25 67s40.334 24 71.001 24c30 0 53.333 -8.16699 70 -24.5s25 -38.5 25 -66.5c0 -28.667 -8.33301 -51.167 -25 -67.5s-40 -24.5 -70 -24.5c-30.667 0 -54.334 8.16699 -71.001 24.5s-25 38.833 -25 67.5z" />
    <glyph glyph-name="cedilla" unicode="&#xb8;" horiz-adv-x="500" 
d="M216 -245c-30.667 0 -57 3.33203 -79 9.99902l19 89c14.667 -4 30 -6 46 -6c29.333 0 44 8.66699 44 26c0 18.667 -16.333 28 -49 28l-17 46l18 52h97l-17 -39c65.333 -9.33301 98 -39.666 98 -90.999c0 -38.667 -15.333 -67.5 -46 -86.5s-68.667 -28.5 -114 -28.5z" />
    <glyph glyph-name="onesuperior" unicode="&#xb9;" horiz-adv-x="365" 
d="M283 358h-133v222c-29.333 -16 -51 -28.667 -65 -38l-51 98c40 26 81.667 47.333 125 64h124v-346z" />
    <glyph glyph-name="ordmasculine" unicode="&#xba;" horiz-adv-x="372" 
d="M347 519c0 -49.333 -14.5 -89.666 -43.5 -120.999s-67.833 -47 -116.5 -47s-87.834 15.667 -117.501 47s-44.5 71.666 -44.5 120.999c0 48 14.833 87.333 44.5 118s68.834 46 117.501 46s87.5 -15.333 116.5 -46s43.5 -70 43.5 -118zM140 519
c0 -50.667 15.667 -76 47 -76c30 0 45 25.333 45 76c0 50 -15 75 -45 75c-31.333 0 -47 -25 -47 -75z" />
    <glyph glyph-name="guillemotright" unicode="&#xbb;" horiz-adv-x="702" 
d="M235 66h-205c60 64.667 115.667 139.667 167 225c-51.333 85.333 -107 160.333 -167 225h205c68 -75.333 119.667 -150.333 155 -225c-35.333 -74.667 -87 -149.667 -155 -225zM527 66h-205c60 64.667 115.667 139.667 167 225c-51.333 85.333 -107 160.333 -167 225h205
c68 -75.333 119.667 -150.333 155 -225c-35.333 -74.667 -87 -149.667 -155 -225z" />
    <glyph glyph-name="onequarter" unicode="&#xbc;" horiz-adv-x="842" 
d="M283 358h-133v222c-29.333 -16 -51 -28.667 -65 -38l-51 98c40 26 81.667 47.333 125 64h124v-346zM572 700h135l-397 -700h-135zM677 143c1.33301 46 3 79.332 5 99.999c-28.667 -33.333 -54 -66.666 -76 -99.999h71zM832 52.999h-39v-53h-116v53h-179v76
c41.333 76 100 148.333 176 217h119v-203h39v-90z" />
    <glyph glyph-name="onehalf" unicode="&#xbd;" horiz-adv-x="842" 
d="M283 358h-133v222c-29.333 -16 -51 -28.667 -65 -38l-51 98c40 26 81.667 47.333 125 64h124v-346zM543 700h135l-397 -700h-135zM809 0l-280 0.00195312v92l46 35c37.333 28 60.833 47 70.5 57s14.5 21.333 14.5 34c0 18.667 -12.333 28 -37 28
c-18 0 -37 -7.33301 -57 -22l-47 91c34.667 26 82.667 39 144 39c38 0 70 -9.33301 96 -28s39 -45 39 -79c0 -26.667 -8 -51.334 -24 -74.001s-40.667 -47.334 -74 -74.001h109v-99z" />
    <glyph glyph-name="threequarters" unicode="&#xbe;" horiz-adv-x="842" 
d="M574 700h135l-397 -700h-135zM164 350c-48 0 -86.334 5.66699 -115.001 17l23 95c26 -8 50.667 -12 74 -12c31.333 0 47 7.66699 47 23c0 16 -14 24 -42 24h-35v70h18c15.333 0 26.5 1.5 33.5 4.5s10.5 9.83301 10.5 20.5c0 14 -13 21 -39 21
c-19.333 0 -39.333 -4.66699 -60 -14l-34 89c35.333 16 74.333 24 117 24c99.333 0 149 -30.333 149 -91c0 -36.667 -16.667 -64 -50 -82c43.333 -15.333 65 -42 65 -80s-15.167 -65.667 -45.5 -83s-69.166 -26 -116.499 -26zM676.999 143c1.33301 46 3 79.332 5 99.999
c-28.667 -33.333 -54 -66.666 -76 -99.999h71zM831.999 52.999h-39v-53h-116v53h-179v76c41.333 76 100 148.333 176 217h119v-203h39v-90z" />
    <glyph glyph-name="questiondown" unicode="&#xbf;" horiz-adv-x="462" 
d="M271 344c-30 0 -53.333 8.16699 -70 24.5s-25 38.5 -25 66.5c0 28.667 8.33301 51.167 25 67.5s40 24.5 70 24.5c30.667 0 54.334 -8.16699 71.001 -24.5s25 -38.833 25 -67.5s-8.33301 -51 -25 -67s-40.334 -24 -71.001 -24zM447 -162
c-52.667 -23.333 -108.667 -35.001 -168 -35.001c-82.667 0 -145.667 17.833 -189 53.5s-65 84.834 -65 147.501c0 56 21.333 103.667 64 143c8 7.33301 20 17.666 36 30.999s28 23.833 36 31.5s15.667 18.167 23 31.5s11 27 11 41v6h157v-35
c0 -47.333 -20.333 -87.666 -61 -120.999l-28 -22.5c-14.667 -11.667 -24.5 -20 -29.5 -25s-10.5 -12.833 -16.5 -23.5s-9 -22 -9 -34c0 -45.333 30 -68 90 -68c30.667 0 69 8 115 24z" />
    <glyph glyph-name="Agrave" unicode="&#xc0;" horiz-adv-x="677" 
d="M270 746l-123 174h183l88 -174h-148zM338 511c-19.333 -42 -44.333 -119.333 -75 -232h150c-30.667 112.667 -55.667 190 -75 232zM484 0l-31.999 129h-228l-32 -129h-182c32 123.333 69.333 249.833 112 379.5s84 236.5 124 320.5h184c40 -84.667 81.667 -192 125 -322
s80.666 -256 111.999 -378h-183z" />
    <glyph glyph-name="Aacute" unicode="&#xc1;" horiz-adv-x="677" 
d="M350 920h183l-123 -174h-148zM338 511c-19.333 -42 -44.333 -119.333 -75 -232h150c-30.667 112.667 -55.667 190 -75 232zM484 0l-31.999 129h-228l-32 -129h-182c32 123.333 69.333 249.833 112 379.5s84 236.5 124 320.5h184c40 -84.667 81.667 -192 125 -322
s80.666 -256 111.999 -378h-183z" />
    <glyph glyph-name="Acircumflex" unicode="&#xc2;" horiz-adv-x="677" 
d="M386 746l-48 73l-48 -73h-163l127 174h168l127 -174h-163zM338 511c-19.333 -42 -44.333 -119.333 -75 -232h150c-30.667 112.667 -55.667 190 -75 232zM484 0l-31.999 129h-228l-32 -129h-182c32 123.333 69.333 249.833 112 379.5s84 236.5 124 320.5h184
c40 -84.667 81.667 -192 125 -322s80.666 -256 111.999 -378h-183z" />
    <glyph glyph-name="Atilde" unicode="&#xc3;" horiz-adv-x="677" 
d="M263 908c20.667 0 43.834 -4.83398 69.501 -14.501s44.167 -14.5 55.5 -14.5c18 0 27 12.667 27 38h110c0 -43.333 -9 -81.166 -27 -113.499s-44.333 -48.5 -79 -48.5c-19.333 0 -42.166 5 -68.499 15s-45.5 15 -57.5 15c-20.667 0 -31.667 -11.333 -33 -34h-110
c1.33301 50 11.666 88.667 30.999 116s46.666 41 81.999 41zM338 510.999c-19.333 -42 -44.333 -119.333 -75 -232h150c-30.667 112.667 -55.667 190 -75 232zM484 -0.000976562l-31.999 129h-228l-32 -129h-182c32 123.333 69.333 249.833 112 379.5s84 236.5 124 320.5
h184c40 -84.667 81.667 -192 125 -322s80.666 -256 111.999 -378h-183z" />
    <glyph glyph-name="Adieresis" unicode="&#xc4;" horiz-adv-x="677" 
d="M535 825c0 -26 -7.83301 -46.499 -23.5 -61.499s-37.5 -22.5 -65.5 -22.5c-27.333 0 -49 7.66699 -65 23s-24 35.666 -24 60.999s8.16699 45.666 24.5 60.999s37.833 23 64.5 23c28 0 49.833 -7.66699 65.5 -23s23.5 -35.666 23.5 -60.999zM317 825.001
c0 -25.333 -8.16895 -45.667 -24.502 -61s-38.166 -23 -65.499 -23c-28 0 -49.833 7.5 -65.5 22.5s-23.5 35.5 -23.5 61.5c0 25.333 7.83301 45.666 23.5 60.999s37.5 23 65.5 23c26.667 0 48.334 -7.66699 65.001 -23s25 -35.666 25 -60.999zM337.998 511
c-19.333 -42 -44.333 -119.333 -75 -232h150c-30.667 112.667 -55.667 190 -75 232zM483.998 0l-31.999 129h-228l-32 -129h-182c32 123.333 69.333 249.833 112 379.5s84 236.5 124 320.5h184c40 -84.667 81.667 -192 125 -322s80.666 -256 111.999 -378h-183z" />
    <glyph glyph-name="Aring" unicode="&#xc5;" horiz-adv-x="677" 
d="M338 846c-12 0 -21.333 -3.83301 -28 -11.5s-10 -17.5 -10 -29.5s3.33301 -21.833 10 -29.5s16 -11.5 28 -11.5c25.333 0 38 13.667 38 41s-12.667 41 -38 41zM338 511c-19.333 -42 -44.333 -119.333 -75 -232h150c-30.667 112.667 -55.667 190 -75 232zM484 0
l-31.999 129h-228l-32 -129h-182c32 123.333 69.333 249.833 112 379.5s84 236.5 124 320.5c-31.333 26 -47 61 -47 105c0 40 13 72.667 39 98s59.333 38 100 38s74 -12.667 100 -38s39 -58 39 -98c0 -44 -15.667 -79 -47 -105c40 -84.667 81.667 -192 125 -322
s80.666 -256 111.999 -378h-183z" />
    <glyph glyph-name="AE" unicode="&#xc6;" horiz-adv-x="932" 
d="M452 279v256c-56.667 -100.667 -103 -186 -139 -256h139zM452 0v129h-211c-19.333 -43.333 -37.333 -86.333 -54 -129h-182c44 117.333 100.167 238.833 168.5 364.5s136.833 237.5 205.5 335.5h513v-150h-263v-122h222v-150h-222v-128h263v-150h-440z" />
    <glyph glyph-name="Ccedilla" unicode="&#xc7;" horiz-adv-x="580" 
d="M306 -245c-30.667 0 -57.0029 3.33203 -79.0029 9.99902l19 89c14.667 -4 30 -6 46 -6c29.333 0 44 8.66699 44 26c0 18.667 -16.333 28 -49 28l-17 46l17 48c-80.667 16.667 -142.834 55.834 -186.501 117.501s-65.5 139.5 -65.5 233.5c0 112 29.833 200.833 89.5 266.5
s144.834 98.5 255.501 98.5c55.333 0 111.333 -12 168 -36l-39 -150c-55.333 20 -97.666 30 -126.999 30c-56.667 0 -98.167 -17.333 -124.5 -52s-39.5 -86.667 -39.5 -156c0 -68.667 12.833 -119.834 38.5 -153.501s66.167 -50.5 121.5 -50.5
c46.667 0 94.334 13.333 143.001 40l34 -152c-49.333 -27.333 -107.666 -42 -174.999 -44l-12 -27c65.333 -9.33301 98 -39.666 98 -90.999c0 -38.667 -15.333 -67.5 -46 -86.5s-68.667 -28.5 -114 -28.5z" />
    <glyph glyph-name="Egrave" unicode="&#xc8;" horiz-adv-x="550" 
d="M222 746l-123 174h183l88 -174h-148zM510 150v-150h-450v700h450v-150h-273v-122h232v-150h-232v-128h273z" />
    <glyph glyph-name="Eacute" unicode="&#xc9;" horiz-adv-x="550" 
d="M302 920h183l-123 -174h-148zM510 150v-150h-450v700h450v-150h-273v-122h232v-150h-232v-128h273z" />
    <glyph glyph-name="Ecircumflex" unicode="&#xca;" horiz-adv-x="550" 
d="M338 746l-48 73l-48 -73h-163l127 174h168l127 -174h-163zM510 150v-150h-450v700h450v-150h-273v-122h232v-150h-232v-128h273z" />
    <glyph glyph-name="Edieresis" unicode="&#xcb;" horiz-adv-x="550" 
d="M487 825c0 -26 -7.83301 -46.499 -23.5 -61.499s-37.5 -22.5 -65.5 -22.5c-27.333 0 -49 7.66699 -65 23s-24 35.666 -24 60.999s8.16699 45.666 24.5 60.999s37.833 23 64.5 23c28 0 49.833 -7.66699 65.5 -23s23.5 -35.666 23.5 -60.999zM269 825.001
c0 -25.333 -8.16895 -45.667 -24.502 -61s-38.166 -23 -65.499 -23c-28 0 -49.833 7.5 -65.5 22.5s-23.5 35.5 -23.5 61.5c0 25.333 7.83301 45.666 23.5 60.999s37.5 23 65.5 23c26.667 0 48.334 -7.66699 65.001 -23s25 -35.666 25 -60.999zM509.998 150v-150h-450v700
h450v-150h-273v-122h232v-150h-232v-128h273z" />
    <glyph glyph-name="Igrave" unicode="&#xcc;" horiz-adv-x="297" 
d="M81 746l-123 174h183l88 -174h-148zM60 0v700h177v-700h-177z" />
    <glyph glyph-name="Iacute" unicode="&#xcd;" horiz-adv-x="297" 
d="M161 920h183l-123 -174h-148zM60 0v700h177v-700h-177z" />
    <glyph glyph-name="Icircumflex" unicode="&#xce;" horiz-adv-x="297" 
d="M197 746l-48 73l-48 -73h-163l127 174h168l127 -174h-163zM60 0v700h177v-700h-177z" />
    <glyph glyph-name="Idieresis" unicode="&#xcf;" horiz-adv-x="297" 
d="M346 825c0 -26 -7.83301 -46.499 -23.5 -61.499s-37.5 -22.5 -65.5 -22.5c-27.333 0 -49 7.66699 -65 23s-24 35.666 -24 60.999s8.16699 45.666 24.5 60.999s37.833 23 64.5 23c28 0 49.833 -7.66699 65.5 -23s23.5 -35.666 23.5 -60.999zM128 825.001
c0 -25.333 -8.16895 -45.667 -24.502 -61s-38.166 -23 -65.499 -23c-28 0 -49.833 7.5 -65.5 22.5s-23.5 35.5 -23.5 61.5c0 25.333 7.83301 45.666 23.5 60.999s37.5 23 65.5 23c26.667 0 48.334 -7.66699 65.001 -23s25 -35.666 25 -60.999zM59.998 0v700h177v-700h-177z
" />
    <glyph glyph-name="Eth" unicode="&#xd0;" horiz-adv-x="703" 
d="M357 282h-110v-132h70c58.667 0 102.167 16.5 130.5 49.5s42.5 84.167 42.5 153.5c0 67.333 -14.167 117 -42.5 149s-71.833 48 -130.5 48h-70v-118h110v-150zM70 0v282h-70v150h70v268h252c104.667 0 189.334 -31 254.001 -93s97 -146.667 97 -254
c0 -109.333 -32.333 -195.5 -97 -258.5s-149.334 -94.5 -254.001 -94.5h-252z" />
    <glyph glyph-name="Ntilde" unicode="&#xd1;" horiz-adv-x="713" 
d="M290 908c20.667 0 43.834 -4.83398 69.501 -14.501s44.167 -14.5 55.5 -14.5c18 0 27 12.667 27 38h110c0 -43.333 -9 -81.166 -27 -113.499s-44.333 -48.5 -79 -48.5c-19.333 0 -42.166 5 -68.499 15s-45.5 15 -57.5 15c-20.667 0 -31.667 -11.333 -33 -34h-110
c1.33301 50 11.666 88.667 30.999 116s46.666 41 81.999 41zM222 -0.000976562l-162 -0.000976562v700h171c72 -148.667 160 -299.667 264 -453c-2.66699 24.667 -4 52.667 -4 84v369h162v-700h-172l-87.5 121.5c-19.667 27.667 -46.5 67.834 -80.5 120.501
s-65.667 106 -95 160c2.66699 -27.333 4 -68.333 4 -123v-279z" />
    <glyph glyph-name="Ograve" unicode="&#xd2;" horiz-adv-x="723" 
d="M294 746l-123 174h183l88 -174h-148zM688 350c0 -109.333 -29.333 -197 -88 -263s-138 -99 -238 -99c-100.667 0 -180.334 32.833 -239.001 98.5s-88 153.5 -88 263.5s29.333 197.833 88 263.5s138.334 98.5 239.001 98.5c100 0 179.333 -33 238 -99s88 -153.667 88 -263
zM218 350c0 -66.667 12.333 -117.667 37 -153s60.334 -53 107.001 -53c46 0 81.333 17.667 106 53s37 86.333 37 153s-12.333 117.667 -37 153s-60 53 -106 53c-46.667 0 -82.334 -17.667 -107.001 -53s-37 -86.333 -37 -153z" />
    <glyph glyph-name="Oacute" unicode="&#xd3;" horiz-adv-x="723" 
d="M374 920h183l-123 -174h-148zM688 350c0 -109.333 -29.333 -197 -88 -263s-138 -99 -238 -99c-100.667 0 -180.334 32.833 -239.001 98.5s-88 153.5 -88 263.5s29.333 197.833 88 263.5s138.334 98.5 239.001 98.5c100 0 179.333 -33 238 -99s88 -153.667 88 -263z
M218 350c0 -66.667 12.333 -117.667 37 -153s60.334 -53 107.001 -53c46 0 81.333 17.667 106 53s37 86.333 37 153s-12.333 117.667 -37 153s-60 53 -106 53c-46.667 0 -82.334 -17.667 -107.001 -53s-37 -86.333 -37 -153z" />
    <glyph glyph-name="Ocircumflex" unicode="&#xd4;" horiz-adv-x="723" 
d="M410 746l-48 73l-48 -73h-163l127 174h168l127 -174h-163zM688 350c0 -109.333 -29.333 -197 -88 -263s-138 -99 -238 -99c-100.667 0 -180.334 32.833 -239.001 98.5s-88 153.5 -88 263.5s29.333 197.833 88 263.5s138.334 98.5 239.001 98.5c100 0 179.333 -33 238 -99
s88 -153.667 88 -263zM218 350c0 -66.667 12.333 -117.667 37 -153s60.334 -53 107.001 -53c46 0 81.333 17.667 106 53s37 86.333 37 153s-12.333 117.667 -37 153s-60 53 -106 53c-46.667 0 -82.334 -17.667 -107.001 -53s-37 -86.333 -37 -153z" />
    <glyph glyph-name="Otilde" unicode="&#xd5;" horiz-adv-x="723" 
d="M287 908c20.667 0 43.834 -4.83398 69.501 -14.501s44.167 -14.5 55.5 -14.5c18 0 27 12.667 27 38h110c0 -43.333 -9 -81.166 -27 -113.499s-44.333 -48.5 -79 -48.5c-19.333 0 -42.166 5 -68.499 15s-45.5 15 -57.5 15c-20.667 0 -31.667 -11.333 -33 -34h-110
c1.33301 50 11.666 88.667 30.999 116s46.666 41 81.999 41zM688 349.999c0 -109.333 -29.333 -197 -88 -263s-138 -99 -238 -99c-100.667 0 -180.334 32.833 -239.001 98.5s-88 153.5 -88 263.5s29.333 197.833 88 263.5s138.334 98.5 239.001 98.5
c100 0 179.333 -33 238 -99s88 -153.667 88 -263zM218 349.999c0 -66.667 12.333 -117.667 37 -153s60.334 -53 107.001 -53c46 0 81.333 17.667 106 53s37 86.333 37 153s-12.333 117.667 -37 153s-60 53 -106 53c-46.667 0 -82.334 -17.667 -107.001 -53
s-37 -86.333 -37 -153z" />
    <glyph glyph-name="Odieresis" unicode="&#xd6;" horiz-adv-x="723" 
d="M559 825c0 -26 -7.83301 -46.499 -23.5 -61.499s-37.5 -22.5 -65.5 -22.5c-27.333 0 -49 7.66699 -65 23s-24 35.666 -24 60.999s8.16699 45.666 24.5 60.999s37.833 23 64.5 23c28 0 49.833 -7.66699 65.5 -23s23.5 -35.666 23.5 -60.999zM341 825.001
c0 -25.333 -8.16895 -45.667 -24.502 -61s-38.166 -23 -65.499 -23c-28 0 -49.833 7.5 -65.5 22.5s-23.5 35.5 -23.5 61.5c0 25.333 7.83301 45.666 23.5 60.999s37.5 23 65.5 23c26.667 0 48.334 -7.66699 65.001 -23s25 -35.666 25 -60.999zM687.998 350
c0 -109.333 -29.333 -197 -88 -263s-138 -99 -238 -99c-100.667 0 -180.334 32.833 -239.001 98.5s-88 153.5 -88 263.5s29.333 197.833 88 263.5s138.334 98.5 239.001 98.5c100 0 179.333 -33 238 -99s88 -153.667 88 -263zM217.998 350
c0 -66.667 12.333 -117.667 37 -153s60.334 -53 107.001 -53c46 0 81.333 17.667 106 53s37 86.333 37 153s-12.333 117.667 -37 153s-60 53 -106 53c-46.667 0 -82.334 -17.667 -107.001 -53s-37 -86.333 -37 -153z" />
    <glyph glyph-name="multiply" unicode="&#xd7;" horiz-adv-x="559" 
d="M411 106l-131 132l-132 -132l-104 103l132 132l-132 132l104 103l132 -131l131 131l104 -103l-132 -132l132 -132z" />
    <glyph glyph-name="Oslash" unicode="&#xd8;" horiz-adv-x="723" 
d="M362 -12c-64.667 0 -121.668 14.333 -171.001 43l-23 -31h-137l78 104c-49.333 64 -74 146 -74 246c0 110 29.333 197.833 88 263.5s138.334 98.5 239.001 98.5c65.333 0 122 -14.333 170 -43l24 31h137l-78 -105c48.667 -64 73 -145.667 73 -245
c0 -109.333 -29.333 -197 -88 -263s-138 -99 -238 -99zM217.999 350c0 -33.333 3.00098 -62.667 9.00098 -88l206 275c-20 12.667 -43.667 19 -71 19c-46.667 0 -82.334 -17.667 -107.001 -53s-37 -86.333 -37 -153zM362 143.999c46 0 81.333 17.667 106 53
s37 86.333 37 153c0 33.333 -3 62.333 -9 87l-206 -274c19.333 -12.667 43.333 -19 72 -19z" />
    <glyph glyph-name="Ugrave" unicode="&#xd9;" horiz-adv-x="686" 
d="M276 746l-123 174h183l88 -174h-148zM55 282v418h177v-405c0 -100.667 37 -151 111 -151s111 50.333 111 151v405h177v-418c0 -92.667 -25 -164.834 -75 -216.501s-121 -77.5 -213 -77.5s-163 25.833 -213 77.5s-75 123.834 -75 216.501z" />
    <glyph glyph-name="Uacute" unicode="&#xda;" horiz-adv-x="686" 
d="M356 920h183l-123 -174h-148zM55 282v418h177v-405c0 -100.667 37 -151 111 -151s111 50.333 111 151v405h177v-418c0 -92.667 -25 -164.834 -75 -216.501s-121 -77.5 -213 -77.5s-163 25.833 -213 77.5s-75 123.834 -75 216.501z" />
    <glyph glyph-name="Ucircumflex" unicode="&#xdb;" horiz-adv-x="686" 
d="M392 746l-48 73l-48 -73h-163l127 174h168l127 -174h-163zM55 282v418h177v-405c0 -100.667 37 -151 111 -151s111 50.333 111 151v405h177v-418c0 -92.667 -25 -164.834 -75 -216.501s-121 -77.5 -213 -77.5s-163 25.833 -213 77.5s-75 123.834 -75 216.501z" />
    <glyph glyph-name="Udieresis" unicode="&#xdc;" horiz-adv-x="686" 
d="M541 825c0 -26 -7.83301 -46.499 -23.5 -61.499s-37.5 -22.5 -65.5 -22.5c-27.333 0 -49 7.66699 -65 23s-24 35.666 -24 60.999s8.16699 45.666 24.5 60.999s37.833 23 64.5 23c28 0 49.833 -7.66699 65.5 -23s23.5 -35.666 23.5 -60.999zM323 825.001
c0 -25.333 -8.16895 -45.667 -24.502 -61s-38.166 -23 -65.499 -23c-28 0 -49.833 7.5 -65.5 22.5s-23.5 35.5 -23.5 61.5c0 25.333 7.83301 45.666 23.5 60.999s37.5 23 65.5 23c26.667 0 48.334 -7.66699 65.001 -23s25 -35.666 25 -60.999zM54.998 282v418h177v-405
c0 -100.667 37 -151 111 -151s111 50.333 111 151v405h177v-418c0 -92.667 -25 -164.834 -75 -216.501s-121 -77.5 -213 -77.5s-163 25.833 -213 77.5s-75 123.834 -75 216.501z" />
    <glyph glyph-name="Yacute" unicode="&#xdd;" horiz-adv-x="634" 
d="M333 920h183l-123 -174h-148zM405 0h-176.998v273c-115.333 174.667 -191.333 317 -228 427h181c33.333 -94.667 78.666 -188.667 135.999 -282c57.333 93.333 102.666 187.333 135.999 282h181c-38 -114 -114.333 -256.667 -229 -428v-272z" />
    <glyph glyph-name="Thorn" unicode="&#xde;" horiz-adv-x="613" 
d="M290 450h-53v-195h53c35.333 0 61.666 7.5 78.999 22.5s26 39.833 26 74.5c0 35.333 -8.66699 60.5 -26 75.5s-43.666 22.5 -78.999 22.5zM294 105h-57v-105h-177v700h177v-100h57c88 0 157.333 -22 208 -66s76 -104.667 76 -182s-25.333 -137.833 -76 -181.5
s-120 -65.5 -208 -65.5z" />
    <glyph glyph-name="germandbls" unicode="&#xdf;" horiz-adv-x="615" 
d="M50 0v495c0 69.333 21.167 126.333 63.5 171s101.5 67 177.5 67c71.333 0 127.833 -16 169.5 -48s62.5 -72.667 62.5 -122c0 -30.667 -5.16699 -56.5 -15.5 -77.5s-20.5 -38.5 -30.5 -52.5s-15 -27.667 -15 -41c0 -12.667 7.16699 -25.834 21.5 -39.501
s30.166 -26.5 47.499 -38.5s33.166 -29.667 47.499 -53s21.5 -49.666 21.5 -78.999c0 -58.667 -21.667 -105.667 -65 -141s-104.666 -53 -183.999 -53c-24.667 0 -53 2.66699 -85 8l17 137c22.667 -4 42.334 -6 59.001 -6c56 0 84 19.667 84 59
c0 13.333 -4.5 25.833 -13.5 37.5s-20 22.5 -33 32.5l-39 31.5c-13 11 -24 25 -33 42s-13.5 35.833 -13.5 56.5c0 28 9.5 57.167 28.5 87.5s28.5 52.5 28.5 66.5c0 17.333 -5.16699 30.5 -15.5 39.5s-24.5 13.5 -42.5 13.5c-27.333 0 -46.333 -8.33301 -57 -25
s-16 -41 -16 -73v-495h-170z" />
    <glyph glyph-name="agrave" unicode="&#xe0;" horiz-adv-x="517" 
d="M180 566l-123 174h183l88 -174h-148zM467 30c-60.667 -28 -136.999 -41.999 -228.999 -41.999c-68.667 0 -121.334 15 -158.001 45s-55 69 -55 117c0 47.333 18.333 85.666 55 114.999s86 44 148 44c28 0 52.667 -1.66699 74 -5v8c0 50 -29 75 -87 75
c-49.333 0 -93.333 -7.66699 -132 -23l-29 132c52.667 20.667 113 31 181 31c76.667 0 134.5 -19.667 173.5 -59s58.5 -95 58.5 -167v-271zM256.001 108.001c19.333 0 34.667 2.33301 46 7v85c-18 4 -34.667 6 -50 6c-17.333 0 -31.5 -4.16699 -42.5 -12.5
s-16.5 -20.5 -16.5 -36.5c0 -32.667 21 -49 63 -49z" />
    <glyph glyph-name="aacute" unicode="&#xe1;" horiz-adv-x="517" 
d="M260 740h183l-123 -174h-148zM467 30c-60.667 -28 -136.999 -41.999 -228.999 -41.999c-68.667 0 -121.334 15 -158.001 45s-55 69 -55 117c0 47.333 18.333 85.666 55 114.999s86 44 148 44c28 0 52.667 -1.66699 74 -5v8c0 50 -29 75 -87 75
c-49.333 0 -93.333 -7.66699 -132 -23l-29 132c52.667 20.667 113 31 181 31c76.667 0 134.5 -19.667 173.5 -59s58.5 -95 58.5 -167v-271zM256.001 108.001c19.333 0 34.667 2.33301 46 7v85c-18 4 -34.667 6 -50 6c-17.333 0 -31.5 -4.16699 -42.5 -12.5
s-16.5 -20.5 -16.5 -36.5c0 -32.667 21 -49 63 -49z" />
    <glyph glyph-name="acircumflex" unicode="&#xe2;" horiz-adv-x="517" 
d="M296 566l-48 73l-48 -73h-163l127 174h168l127 -174h-163zM467 30c-60.667 -28 -136.999 -41.999 -228.999 -41.999c-68.667 0 -121.334 15 -158.001 45s-55 69 -55 117c0 47.333 18.333 85.666 55 114.999s86 44 148 44c28 0 52.667 -1.66699 74 -5v8
c0 50 -29 75 -87 75c-49.333 0 -93.333 -7.66699 -132 -23l-29 132c52.667 20.667 113 31 181 31c76.667 0 134.5 -19.667 173.5 -59s58.5 -95 58.5 -167v-271zM256.001 108.001c19.333 0 34.667 2.33301 46 7v85c-18 4 -34.667 6 -50 6
c-17.333 0 -31.5 -4.16699 -42.5 -12.5s-16.5 -20.5 -16.5 -36.5c0 -32.667 21 -49 63 -49z" />
    <glyph glyph-name="atilde" unicode="&#xe3;" horiz-adv-x="517" 
d="M173 728c20.667 0 43.834 -4.83398 69.501 -14.501s44.167 -14.5 55.5 -14.5c18 0 27 12.667 27 38h110c0 -43.333 -9 -81.166 -27 -113.499s-44.333 -48.5 -79 -48.5c-19.333 0 -42.166 5 -68.499 15s-45.5 15 -57.5 15c-20.667 0 -31.667 -11.333 -33 -34h-110
c1.33301 50 11.666 88.667 30.999 116s46.666 41 81.999 41zM467 29.999c-60.667 -28 -136.999 -41.999 -228.999 -41.999c-68.667 0 -121.334 15 -158.001 45s-55 69 -55 117c0 47.333 18.333 85.666 55 114.999s86 44 148 44c28 0 52.667 -1.66699 74 -5v8
c0 50 -29 75 -87 75c-49.333 0 -93.333 -7.66699 -132 -23l-29 132c52.667 20.667 113 31 181 31c76.667 0 134.5 -19.667 173.5 -59s58.5 -95 58.5 -167v-271zM256.001 108c19.333 0 34.667 2.33301 46 7v85c-18 4 -34.667 6 -50 6c-17.333 0 -31.5 -4.16699 -42.5 -12.5
s-16.5 -20.5 -16.5 -36.5c0 -32.667 21 -49 63 -49z" />
    <glyph glyph-name="adieresis" unicode="&#xe4;" horiz-adv-x="517" 
d="M445 645c0 -26 -7.83301 -46.499 -23.5 -61.499s-37.5 -22.5 -65.5 -22.5c-27.333 0 -49 7.66699 -65 23s-24 35.666 -24 60.999s8.16699 45.666 24.5 60.999s37.833 23 64.5 23c28 0 49.833 -7.66699 65.5 -23s23.5 -35.666 23.5 -60.999zM227 645.001
c0 -25.333 -8.16895 -45.667 -24.502 -61s-38.166 -23 -65.499 -23c-28 0 -49.833 7.5 -65.5 22.5s-23.5 35.5 -23.5 61.5c0 25.333 7.83301 45.666 23.5 60.999s37.5 23 65.5 23c26.667 0 48.334 -7.66699 65.001 -23s25 -35.666 25 -60.999zM466.998 30
c-60.667 -28 -136.999 -41.999 -228.999 -41.999c-68.667 0 -121.334 15 -158.001 45s-55 69 -55 117c0 47.333 18.333 85.666 55 114.999s86 44 148 44c28 0 52.667 -1.66699 74 -5v8c0 50 -29 75 -87 75c-49.333 0 -93.333 -7.66699 -132 -23l-29 132
c52.667 20.667 113 31 181 31c76.667 0 134.5 -19.667 173.5 -59s58.5 -95 58.5 -167v-271zM255.999 108.001c19.333 0 34.667 2.33301 46 7v85c-18 4 -34.667 6 -50 6c-17.333 0 -31.5 -4.16699 -42.5 -12.5s-16.5 -20.5 -16.5 -36.5c0 -32.667 21 -49 63 -49z" />
    <glyph glyph-name="aring" unicode="&#xe5;" horiz-adv-x="517" 
d="M109 699c0 40 13 72.667 39 98s59.333 38 100 38s74 -12.667 100 -38s39 -58 39 -98s-13 -72.667 -39 -98s-59.333 -38 -100 -38s-74 12.667 -100 38s-39 58 -39 98zM286 699c0 27.333 -12.667 41 -38 41c-12 0 -21.333 -3.83301 -28 -11.5s-10 -17.5 -10 -29.5
s3.33301 -21.833 10 -29.5s16 -11.5 28 -11.5c25.333 0 38 13.667 38 41zM467 30c-60.667 -28 -136.999 -41.999 -228.999 -41.999c-68.667 0 -121.334 15 -158.001 45s-55 69 -55 117c0 47.333 18.333 85.666 55 114.999s86 44 148 44c28 0 52.667 -1.66699 74 -5v8
c0 50 -29 75 -87 75c-49.333 0 -93.333 -7.66699 -132 -23l-29 132c52.667 20.667 113 31 181 31c76.667 0 134.5 -19.667 173.5 -59s58.5 -95 58.5 -167v-271zM256.001 108.001c19.333 0 34.667 2.33301 46 7v85c-18 4 -34.667 6 -50 6
c-17.333 0 -31.5 -4.16699 -42.5 -12.5s-16.5 -20.5 -16.5 -36.5c0 -32.667 21 -49 63 -49z" />
    <glyph glyph-name="ae" unicode="&#xe6;" horiz-adv-x="802" 
d="M549 392c-44 0 -70.667 -26.667 -80 -80h141v7c0 23.333 -5.5 41.333 -16.5 54s-25.833 19 -44.5 19zM747 22c-50 -22.667 -109.33 -34 -177.997 -34c-57.333 0 -110 15.333 -158 46c-56.667 -30.667 -110.667 -46 -162 -46c-72 0 -127.333 14.333 -166 43
s-58 68.334 -58 119.001c0 48 18 86.5 54 115.5s85 43.5 147 43.5c12 0 37.333 -1.66699 76 -5v8c0 50 -29 75 -87 75c-48.667 0 -93.667 -7.66699 -135 -23l-29 132c63.333 20.667 124.666 31 183.999 31c65.333 0 118.666 -20 159.999 -60c44 40 95.333 60 154 60
c65.333 0 118.833 -21.333 160.5 -64s62.5 -98.667 62.5 -168c0 -28.667 -1.33301 -56.334 -4 -83.001h-295c13.333 -54.667 51.666 -82 114.999 -82c42.667 0 87 9 133 27zM256.003 108c23.333 0 47.999 5.66699 73.999 17c-11.333 22 -19.666 47.333 -24.999 76
c-31.333 3.33301 -49 5 -53 5c-17.333 0 -31.5 -4.16699 -42.5 -12.5s-16.5 -20.5 -16.5 -36.5c0 -32.667 21 -49 63 -49z" />
    <glyph glyph-name="ccedilla" unicode="&#xe7;" horiz-adv-x="469" 
d="M244 -245c-30.667 0 -57 3.33301 -79 10l19 89c14.667 -4 30 -6 46 -6c29.333 0 44 8.66699 44 26c0 18.667 -16.333 28 -49 28l-17 46l16 47c-61.333 13.333 -109 43.166 -143 89.499s-51 103.833 -51 172.5c0 82 23.167 147.5 69.5 196.5s109.833 73.5 190.5 73.5
c58 0 109.333 -10.333 154 -31l-31 -133c-38 16 -74 24 -108 24c-32 0 -57 -11 -75 -33s-27 -52.667 -27 -92c0 -89.333 36 -134 108 -134c34.667 0 70 8 106 24l26 -136c-33.333 -16 -75 -25 -125 -27l-12 -28c65.333 -9.33301 98 -39.666 98 -90.999
c0 -38.667 -15.333 -67.5 -46 -86.5s-68.667 -28.5 -114 -28.5z" />
    <glyph glyph-name="egrave" unicode="&#xe8;" horiz-adv-x="539" 
d="M214 566l-123 174h183l88 -174h-148zM286 392c-44 0 -70.667 -26.668 -80 -80.001h141v8c0 22.667 -5.66699 40.334 -17 53.001s-26 19 -44 19zM484 21.999c-50 -22.667 -109.332 -33.998 -177.999 -33.998c-82 0 -148.5 24.667 -199.5 74s-76.5 114.666 -76.5 195.999
c0 80.667 23.833 145.667 71.5 195s109.167 74 184.5 74c65.333 0 118.833 -21.333 160.5 -64s62.5 -98.667 62.5 -168c0 -28.667 -1.33301 -56.334 -4 -83.001h-295c13.333 -54.667 51.666 -82 114.999 -82c42.667 0 87 9 133 27z" />
    <glyph glyph-name="eacute" unicode="&#xe9;" horiz-adv-x="539" 
d="M294 740h183l-123 -174h-148zM286 392c-44 0 -70.667 -26.668 -80 -80.001h141v8c0 22.667 -5.66699 40.334 -17 53.001s-26 19 -44 19zM484 21.999c-50 -22.667 -109.332 -33.998 -177.999 -33.998c-82 0 -148.5 24.667 -199.5 74s-76.5 114.666 -76.5 195.999
c0 80.667 23.833 145.667 71.5 195s109.167 74 184.5 74c65.333 0 118.833 -21.333 160.5 -64s62.5 -98.667 62.5 -168c0 -28.667 -1.33301 -56.334 -4 -83.001h-295c13.333 -54.667 51.666 -82 114.999 -82c42.667 0 87 9 133 27z" />
    <glyph glyph-name="ecircumflex" unicode="&#xea;" horiz-adv-x="539" 
d="M330 566l-48 73l-48 -73h-163l127 174h168l127 -174h-163zM286 392c-44 0 -70.667 -26.668 -80 -80.001h141v8c0 22.667 -5.66699 40.334 -17 53.001s-26 19 -44 19zM484 21.999c-50 -22.667 -109.332 -33.998 -177.999 -33.998c-82 0 -148.5 24.667 -199.5 74
s-76.5 114.666 -76.5 195.999c0 80.667 23.833 145.667 71.5 195s109.167 74 184.5 74c65.333 0 118.833 -21.333 160.5 -64s62.5 -98.667 62.5 -168c0 -28.667 -1.33301 -56.334 -4 -83.001h-295c13.333 -54.667 51.666 -82 114.999 -82c42.667 0 87 9 133 27z" />
    <glyph glyph-name="edieresis" unicode="&#xeb;" horiz-adv-x="539" 
d="M479 645c0 -26 -7.83301 -46.499 -23.5 -61.499s-37.5 -22.5 -65.5 -22.5c-27.333 0 -49 7.66699 -65 23s-24 35.666 -24 60.999s8.16699 45.666 24.5 60.999s37.833 23 64.5 23c28 0 49.833 -7.66699 65.5 -23s23.5 -35.666 23.5 -60.999zM261 645.001
c0 -25.333 -8.16895 -45.667 -24.502 -61s-38.166 -23 -65.499 -23c-28 0 -49.833 7.5 -65.5 22.5s-23.5 35.5 -23.5 61.5c0 25.333 7.83301 45.666 23.5 60.999s37.5 23 65.5 23c26.667 0 48.334 -7.66699 65.001 -23s25 -35.666 25 -60.999zM285.998 392
c-44 0 -70.667 -26.668 -80 -80.001h141v8c0 22.667 -5.66699 40.334 -17 53.001s-26 19 -44 19zM483.998 21.999c-50 -22.667 -109.332 -33.998 -177.999 -33.998c-82 0 -148.5 24.667 -199.5 74s-76.5 114.666 -76.5 195.999c0 80.667 23.833 145.667 71.5 195
s109.167 74 184.5 74c65.333 0 118.833 -21.333 160.5 -64s62.5 -98.667 62.5 -168c0 -28.667 -1.33301 -56.334 -4 -83.001h-295c13.333 -54.667 51.666 -82 114.999 -82c42.667 0 87 9 133 27z" />
    <glyph glyph-name="igrave" unicode="&#xec;" horiz-adv-x="280" 
d="M75 566l-123 174h183l88 -174h-148zM55 515h170v-515h-170v515z" />
    <glyph glyph-name="iacute" unicode="&#xed;" horiz-adv-x="280" 
d="M155 740h183l-123 -174h-148zM55 515h170v-515h-170v515z" />
    <glyph glyph-name="icircumflex" unicode="&#xee;" horiz-adv-x="280" 
d="M191 566l-48 73l-48 -73h-163l127 174h168l127 -174h-163zM55 515h170v-515h-170v515z" />
    <glyph glyph-name="idieresis" unicode="&#xef;" horiz-adv-x="280" 
d="M340 645c0 -26 -7.83301 -46.499 -23.5 -61.499s-37.5 -22.5 -65.5 -22.5c-27.333 0 -49 7.66699 -65 23s-24 35.666 -24 60.999s8.16699 45.666 24.5 60.999s37.833 23 64.5 23c28 0 49.833 -7.66699 65.5 -23s23.5 -35.666 23.5 -60.999zM122 645.001
c0 -25.333 -8.16895 -45.667 -24.502 -61s-38.166 -23 -65.499 -23c-28 0 -49.833 7.5 -65.5 22.5s-23.5 35.5 -23.5 61.5c0 25.333 7.83301 45.666 23.5 60.999s37.5 23 65.5 23c26.667 0 48.334 -7.66699 65.001 -23s25 -35.666 25 -60.999zM54.998 515h170v-515h-170v515
z" />
    <glyph glyph-name="eth" unicode="&#xf0;" horiz-adv-x="556" 
d="M265 -12c-71.333 0 -129.166 21.833 -173.499 65.5s-66.5 99.834 -66.5 168.501c0 64 19.167 117 57.5 159s91.5 63 159.5 63c38 0 72.333 -9.33301 103 -28c-18.667 48 -48.334 87.333 -89.001 118l-70 -67l-54 57l52 49c-26.667 11.333 -55.334 19.333 -86.001 24
l39 127c57.333 -8.66699 109 -24.334 155 -47.001l66 63l54 -57l-50 -48c54 -39.333 94.833 -88 122.5 -146s41.5 -121.333 41.5 -190c0 -95.333 -22.167 -171 -66.5 -227s-109.166 -84 -194.499 -84zM264 128c35.333 0 61.167 13.332 77.5 39.999s24.5 69.334 24.5 128.001
v1c-26.667 11.333 -55.667 17 -87 17c-29.333 0 -51.5 -8.5 -66.5 -25.5s-22.5 -39.167 -22.5 -66.5c0 -26 6.66699 -48.167 20 -66.5s31.333 -27.5 54 -27.5z" />
    </font>
</defs>
</svg>
